0
SECTION
2
HEADER
9
$INSUNITS
70
1
9
$ACADVER
1
AC1014
9
$HANDSEED
5
FFFF
0
ENDSEC
0
SECTION
2
TABLES
0
TABLE
2
VPORT
5
8
100
AcDbSymbolTable
0
ENDTAB
0
TABLE
2
LTYPE
5
5
100
AcDbSymbolTable
0
LTYPE
5
14
100
AcDbSymbolTableRecord
100
AcDbLinetypeTableRecord
2
BYBLOCK
70
0
0
LTYPE
5
15
100
AcDbSymbolTableRecord
100
AcDbLinetypeTableRecord
2
BYLAYER
70
0
0
ENDTAB
0
TABLE
2
LAYER
5
2
100
AcDbSymbolTable
70
2
0
LAYER
5
50
100
AcDbSymbolTableRecord
100
AcDbLayerTableRecord
2
0
70
0
6
CONTINUOUS
0
ENDTAB
0
TABLE
2
STYLE
5
3
100
AcDbSymbolTable
70
1
0
STYLE
5
11
100
AcDbSymbolTableRecord
100
AcDbTextStyleTableRecord
2
STANDARD
70
0
0
ENDTAB
0
TABLE
2
VIEW
5
6
100
AcDbSymbolTable
70
0
0
ENDTAB
0
TABLE
2
UCS
5
7
100
AcDbSymbolTable
70
0
0
ENDTAB
0
TABLE
2
APPID
5
9
100
AcDbSymbolTable
70
2
0
APPID
5
12
100
AcDbSymbolTableRecord
100
AcDbRegAppTableRecord
2
ACAD
70
0
0
ENDTAB
0
TABLE
2
DIMSTYLE
5
A
100
AcDbSymbolTable
70
1
0
ENDTAB
0
TABLE
2
BLOCK_RECORD
5
1
100
AcDbSymbolTable
70
1
0
BLOCK_RECORD
5
1F
100
AcDbSymbolTableRecord
100
AcDbBlockTableRecord
2
*MODEL_SPACE
0
BLOCK_RECORD
5
1B
100
AcDbSymbolTableRecord
100
AcDbBlockTableRecord
2
*PAPER_SPACE
0
ENDTAB
0
ENDSEC
0
SECTION
2
BLOCKS
0
BLOCK
5
20
100
AcDbEntity
100
AcDbBlockBegin
2
*MODEL_SPACE
0
ENDBLK
5
21
100
AcDbEntity
100
AcDbBlockEnd
0
BLOCK
5
1C
100
AcDbEntity
100
AcDbBlockBegin
2
*PAPER_SPACE
0
ENDBLK
5
1D
100
AcDbEntity
100
AcDbBlockEnd
0
ENDSEC
0
SECTION
2
ENTITIES
0
LWPOLYLINE
5
100
100
AcDbEntity
8
0
100
AcDbPolyline
90
48
70
1
43
0.0
10
6.2007748317718514
20
-3.6504562139511108
42
-0.41421290255204929
10
6.1007625961303722
20
-3.7504687500000005
10
3.5504436779022219
20
-3.7504687500000005
42
0.41421378231389638
10
3.4504311418533331
20
-3.8504812860488893
10
3.4504311418533331
20
-4.4498436355590831
42
-0.41422521950818508
10
3.3504186058044443
20
-4.5498600769042969
10
2.0002499699592593
20
-4.5505687379837045
42
0.13593199540264825
10
1.9487946867942814
20
-4.5648224687576304
10
1.4531816411018375
20
-4.8506063461303714
42
-0.42077344473014167
10
1.2282204258441927
20
-4.8005605745315556
10
0.61218674182891841
20
-3.7348487663269045
42
-0.071400986414286091
10
0.60007499098777772
20
-3.6504562139511116
10
0.60007499098777772
20
-2.1502687740325932
42
-0.41421378231389638
10
0.70008752703666688
20
-2.0502562379837039
10
1.5498393774032593
20
-2.0499019074440001
42
0.41421378231389744
10
1.5998456454277039
20
-1.9998956394195562
10
1.6001999759674077
20
-1.0501312530040741
42
-0.41421378231389638
10
1.7002125120162965
20
-0.95011871695518502
10
4.6005748558044433
20
-0.95011871695518502
42
-0.41421378231389849
10
4.7005873918533334
20
-1.0501312530040741
10
4.7005873918533334
20
-1.3001625180244447
42
0.41421378231389638
10
4.8005999279022218
20
-1.4001750540733338
10
6.1007625961303713
20
-1.4001750540733338
42
-0.41421246267100431
10
6.2007748317718505
20
-1.5001874399185182
10
6.2007748317718514
20
-3.6504562139511108
42
-0.41421290255204929
10
6.1007625961303722
20
-3.7504687500000005
10
3.5504436779022219
20
-3.7504687500000005
42
0.41421378231389638
10
3.4504311418533331
20
-3.8504812860488893
10
3.4504311418533331
20
-4.4498436355590831
42
-0.41422521950818508
10
3.3504186058044443
20
-4.5498600769042969
10
2.0002499699592593
20
-4.5505687379837045
42
0.13593199540264825
10
1.9487946867942814
20
-4.5648224687576304
10
1.4531816411018375
20
-4.8506063461303714
42
-0.42077344473014167
10
1.2282204258441927
20
-4.8005605745315556
10
0.61218674182891841
20
-3.7348487663269045
42
-0.071400986414286091
10
0.60007499098777772
20
-3.6504562139511116
10
0.60007499098777772
20
-2.1502687740325932
42
-0.41421378231389638
10
0.70008752703666688
20
-2.0502562379837039
10
1.5498393774032593
20
-2.0499019074440001
42
0.41421378231389744
10
1.5998456454277039
20
-1.9998956394195562
10
1.6001999759674077
20
-1.0501312530040741
42
-0.41421378231389638
10
1.7002125120162965
20
-0.95011871695518502
10
4.6005748558044433
20
-0.95011871695518502
42
-0.41421378231389849
10
4.7005873918533334
20
-1.0501312530040741
10
4.7005873918533334
20
-1.3001625180244447
42
0.41421378231389638
10
4.8005999279022218
20
-1.4001750540733338
10
6.1007625961303713
20
-1.4001750540733338
42
-0.41421246267100431
10
6.2007748317718505
20
-1.5001874399185182
0
ENDSEC
0
SECTION
2
OBJECTS
0
DICTIONARY
5
C
100
AcDbDictionary
3
ACAD_GROUP
350
D
3
ACAD_MLINESTYLE
350
17
0
DICTIONARY
5
D
100
AcDbDictionary
0
DICTIONARY
5
1A
330
C
100
AcDbDictionary
0
DICTIONARY
5
17
100
AcDbDictionary
0
ENDSEC
0
EOF
