0
SECTION
2
HEADER
9
$INSUNITS
70
1
9
$ACADVER
1
AC1014
9
$HANDSEED
5
FFFF
0
ENDSEC
0
SECTION
2
TABLES
0
TABLE
2
VPORT
5
8
100
AcDbSymbolTable
0
ENDTAB
0
TABLE
2
LTYPE
5
5
100
AcDbSymbolTable
0
LTYPE
5
14
100
AcDbSymbolTableRecord
100
AcDbLinetypeTableRecord
2
BYBLOCK
70
0
0
LTYPE
5
15
100
AcDbSymbolTableRecord
100
AcDbLinetypeTableRecord
2
BYLAYER
70
0
0
ENDTAB
0
TABLE
2
LAYER
5
2
100
AcDbSymbolTable
70
2
0
LAYER
5
50
100
AcDbSymbolTableRecord
100
AcDbLayerTableRecord
2
0
70
0
6
CONTINUOUS
0
ENDTAB
0
TABLE
2
STYLE
5
3
100
AcDbSymbolTable
70
1
0
STYLE
5
11
100
AcDbSymbolTableRecord
100
AcDbTextStyleTableRecord
2
STANDARD
70
0
0
ENDTAB
0
TABLE
2
VIEW
5
6
100
AcDbSymbolTable
70
0
0
ENDTAB
0
TABLE
2
UCS
5
7
100
AcDbSymbolTable
70
0
0
ENDTAB
0
TABLE
2
APPID
5
9
100
AcDbSymbolTable
70
2
0
APPID
5
12
100
AcDbSymbolTableRecord
100
AcDbRegAppTableRecord
2
ACAD
70
0
0
ENDTAB
0
TABLE
2
DIMSTYLE
5
A
100
AcDbSymbolTable
70
1
0
ENDTAB
0
TABLE
2
BLOCK_RECORD
5
1
100
AcDbSymbolTable
70
1
0
BLOCK_RECORD
5
1F
100
AcDbSymbolTableRecord
100
AcDbBlockTableRecord
2
*MODEL_SPACE
0
BLOCK_RECORD
5
1B
100
AcDbSymbolTableRecord
100
AcDbBlockTableRecord
2
*PAPER_SPACE
0
ENDTAB
0
ENDSEC
0
SECTION
2
BLOCKS
0
BLOCK
5
20
100
AcDbEntity
100
AcDbBlockBegin
2
*MODEL_SPACE
0
ENDBLK
5
21
100
AcDbEntity
100
AcDbBlockEnd
0
BLOCK
5
1C
100
AcDbEntity
100
AcDbBlockBegin
2
*PAPER_SPACE
0
ENDBLK
5
1D
100
AcDbEntity
100
AcDbBlockEnd
0
ENDSEC
0
SECTION
2
ENTITIES
0
CIRCLE
5
100
100
AcDbEntity
8
0
100
AcDbCircle
10
-0.74009250000000004
20
-2.1902737499999998
30
0
40
0.051187500000000004
210
0
220
0
230
-1
0
CIRCLE
5
101
100
AcDbEntity
8
0
100
AcDbCircle
10
-0.74009250000000004
20
-2.1902737499999998
30
0
40
0.086625000000000021
210
0
220
0
230
-1
0
CIRCLE
5
102
100
AcDbEntity
8
0
100
AcDbCircle
10
-3.3204150000000001
20
-2.08026
30
0
40
0.033468749999999999
210
0
220
0
230
-1
0
CIRCLE
5
103
100
AcDbEntity
8
0
100
AcDbCircle
10
-3.5204400000000002
20
-2.08026
30
0
40
0.078750000000000014
210
0
220
0
230
-1
0
CIRCLE
5
104
100
AcDbEntity
8
0
100
AcDbCircle
10
-3.7204650000000004
20
-2.08026
30
0
40
0.033468749999999999
210
0
220
0
230
-1
0
CIRCLE
5
105
100
AcDbEntity
8
0
100
AcDbCircle
10
-3.6204525000000003
20
-1.8802350000000003
30
0
40
0.043312500000000011
210
0
220
0
230
-1
0
CIRCLE
5
106
100
AcDbEntity
8
0
100
AcDbCircle
10
-3.3704212500000001
20
-1.9802475000000002
30
0
40
0.043312500000000011
210
0
220
0
230
-1
0
CIRCLE
5
107
100
AcDbEntity
8
0
100
AcDbCircle
10
-1.7502187500000002
20
-1.1001375000000002
30
0
40
0.051187500000000004
210
0
220
0
230
-1
0
CIRCLE
5
108
100
AcDbEntity
8
0
100
AcDbCircle
10
-1.7502187500000002
20
-1.1001375000000002
30
0
40
0.086625000000000021
210
0
220
0
230
-1
0
CIRCLE
5
109
100
AcDbEntity
8
0
100
AcDbCircle
10
-2.5703212500000006
20
-1.5301912500000003
30
0
40
0.033468749999999999
210
0
220
0
230
-1
0
CIRCLE
5
110
100
AcDbEntity
8
0
100
AcDbCircle
10
-2.7703462500000002
20
-1.5301912500000003
30
0
40
0.078750000000000014
210
0
220
0
230
-1
0
CIRCLE
5
111
100
AcDbEntity
8
0
100
AcDbCircle
10
-2.9703712500000004
20
-1.5301912500000003
30
0
40
0.033468749999999999
210
0
220
0
230
-1
0
CIRCLE
5
112
100
AcDbEntity
8
0
100
AcDbCircle
10
-2.8703587500000003
20
-1.33016625
30
0
40
0.043312500000000011
210
0
220
0
230
-1
0
CIRCLE
5
113
100
AcDbEntity
8
0
100
AcDbCircle
10
-2.6203275000000006
20
-1.4301787500000003
30
0
40
0.043312500000000011
210
0
220
0
230
-1
0
CIRCLE
5
114
100
AcDbEntity
8
0
100
AcDbCircle
10
-5.570696250000001
20
-3.3304162499999999
30
0
40
0.033468749999999999
210
0
220
0
230
-1
0
CIRCLE
5
115
100
AcDbEntity
8
0
100
AcDbCircle
10
-5.7707212500000002
20
-3.3304162499999999
30
0
40
0.078750000000000014
210
0
220
0
230
-1
0
CIRCLE
5
116
100
AcDbEntity
8
0
100
AcDbCircle
10
-5.9707462500000004
20
-3.3304162499999999
30
0
40
0.033468749999999999
210
0
220
0
230
-1
0
CIRCLE
5
117
100
AcDbEntity
8
0
100
AcDbCircle
10
-5.8707337500000012
20
-3.1303912500000002
30
0
40
0.043312500000000011
210
0
220
0
230
-1
0
CIRCLE
5
118
100
AcDbEntity
8
0
100
AcDbCircle
10
-5.6207025000000002
20
-3.2304037500000002
30
0
40
0.043312500000000011
210
0
220
0
230
-1
0
CIRCLE
5
119
100
AcDbEntity
8
0
100
AcDbCircle
10
-1.3601700000000001
20
-4.7155893750000004
30
0
40
0.051187500000000004
210
0
220
0
230
-1
0
CIRCLE
5
120
100
AcDbEntity
8
0
100
AcDbCircle
10
-1.3601700000000001
20
-4.7155893750000004
30
0
40
0.086625000000000021
210
0
220
0
230
-1
0
CIRCLE
5
121
100
AcDbEntity
8
0
100
AcDbCircle
10
-2.5703212500000006
20
-3.0303787500000006
30
0
40
0.033468749999999999
210
0
220
0
230
-1
0
CIRCLE
5
122
100
AcDbEntity
8
0
100
AcDbCircle
10
-2.7703462500000002
20
-3.0303787500000006
30
0
40
0.078750000000000014
210
0
220
0
230
-1
0
CIRCLE
5
123
100
AcDbEntity
8
0
100
AcDbCircle
10
-2.9703712500000004
20
-3.0303787500000006
30
0
40
0.033468749999999999
210
0
220
0
230
-1
0
CIRCLE
5
124
100
AcDbEntity
8
0
100
AcDbCircle
10
-2.8703587500000003
20
-2.8303537500000004
30
0
40
0.043312500000000011
210
0
220
0
230
-1
0
CIRCLE
5
125
100
AcDbEntity
8
0
100
AcDbCircle
10
-2.6203275000000006
20
-2.9303662500000005
30
0
40
0.043312500000000011
210
0
220
0
230
-1
0
CIRCLE
5
126
100
AcDbEntity
8
0
100
AcDbCircle
10
-4.8206025000000006
20
-1.8302287500000001
30
0
40
0.033468749999999999
210
0
220
0
230
-1
0
CIRCLE
5
127
100
AcDbEntity
8
0
100
AcDbCircle
10
-5.0206275000000007
20
-1.8302287500000001
30
0
40
0.078750000000000014
210
0
220
0
230
-1
0
CIRCLE
5
128
100
AcDbEntity
8
0
100
AcDbCircle
10
-5.2206524999999999
20
-1.8302287500000001
30
0
40
0.033468749999999999
210
0
220
0
230
-1
0
CIRCLE
5
129
100
AcDbEntity
8
0
100
AcDbCircle
10
-5.1206399999999999
20
-1.6302037500000004
30
0
40
0.043312500000000011
210
0
220
0
230
-1
0
CIRCLE
5
130
100
AcDbEntity
8
0
100
AcDbCircle
10
-4.8706087500000006
20
-1.73021625
30
0
40
0.043312500000000011
210
0
220
0
230
-1
0
CIRCLE
5
131
100
AcDbEntity
8
0
100
AcDbCircle
10
-3.3204150000000001
20
-1.33016625
30
0
40
0.033468749999999999
210
0
220
0
230
-1
0
CIRCLE
5
132
100
AcDbEntity
8
0
100
AcDbCircle
10
-3.5204400000000002
20
-1.33016625
30
0
40
0.078750000000000014
210
0
220
0
230
-1
0
CIRCLE
5
133
100
AcDbEntity
8
0
100
AcDbCircle
10
-3.7204650000000004
20
-1.33016625
30
0
40
0.033468749999999999
210
0
220
0
230
-1
0
CIRCLE
5
134
100
AcDbEntity
8
0
100
AcDbCircle
10
-3.6204525000000003
20
-1.1301412500000001
30
0
40
0.043312500000000011
210
0
220
0
230
-1
0
CIRCLE
5
135
100
AcDbEntity
8
0
100
AcDbCircle
10
-3.3704212500000001
20
-1.2301537500000002
30
0
40
0.043312500000000011
210
0
220
0
230
-1
0
CIRCLE
5
136
100
AcDbEntity
8
0
100
AcDbCircle
10
-4.0705087500000001
20
-3.0303787500000006
30
0
40
0.033468749999999999
210
0
220
0
230
-1
0
CIRCLE
5
137
100
AcDbEntity
8
0
100
AcDbCircle
10
-4.2705337500000002
20
-3.0303787500000006
30
0
40
0.078750000000000014
210
0
220
0
230
-1
0
CIRCLE
5
138
100
AcDbEntity
8
0
100
AcDbCircle
10
-4.4705587500000004
20
-3.0303787500000006
30
0
40
0.033468749999999999
210
0
220
0
230
-1
0
CIRCLE
5
139
100
AcDbEntity
8
0
100
AcDbCircle
10
-4.3705462500000012
20
-2.8303537500000004
30
0
40
0.043312500000000011
210
0
220
0
230
-1
0
CIRCLE
5
140
100
AcDbEntity
8
0
100
AcDbCircle
10
-4.1205150000000001
20
-2.9303662500000005
30
0
40
0.043312500000000011
210
0
220
0
230
-1
0
CIRCLE
5
141
100
AcDbEntity
8
0
100
AcDbCircle
10
-5.570696250000001
20
-2.5803225000000003
30
0
40
0.033468749999999999
210
0
220
0
230
-1
0
CIRCLE
5
142
100
AcDbEntity
8
0
100
AcDbCircle
10
-5.7707212500000002
20
-2.5803225000000003
30
0
40
0.078750000000000014
210
0
220
0
230
-1
0
CIRCLE
5
143
100
AcDbEntity
8
0
100
AcDbCircle
10
-5.9707462500000004
20
-2.5803225000000003
30
0
40
0.033468749999999999
210
0
220
0
230
-1
0
CIRCLE
5
144
100
AcDbEntity
8
0
100
AcDbCircle
10
-5.8707337500000012
20
-2.3802975000000002
30
0
40
0.043312500000000011
210
0
220
0
230
-1
0
CIRCLE
5
145
100
AcDbEntity
8
0
100
AcDbCircle
10
-5.6207025000000002
20
-2.4803100000000002
30
0
40
0.043312500000000011
210
0
220
0
230
-1
0
CIRCLE
5
146
100
AcDbEntity
8
0
100
AcDbCircle
10
-2.8703587500000003
20
-4.0205025000000001
30
0
40
0.033468749999999999
210
0
220
0
230
-1
0
CIRCLE
5
147
100
AcDbEntity
8
0
100
AcDbCircle
10
-3.0703837500000004
20
-4.0205025000000001
30
0
40
0.078750000000000014
210
0
220
0
230
-1
0
CIRCLE
5
148
100
AcDbEntity
8
0
100
AcDbCircle
10
-3.2704087500000005
20
-4.0205025000000001
30
0
40
0.033468749999999999
210
0
220
0
230
-1
0
CIRCLE
5
149
100
AcDbEntity
8
0
100
AcDbCircle
10
-3.1703962500000005
20
-3.8204775000000004
30
0
40
0.043312500000000011
210
0
220
0
230
-1
0
CIRCLE
5
150
100
AcDbEntity
8
0
100
AcDbCircle
10
-2.9203650000000008
20
-3.92049
30
0
40
0.043312500000000011
210
0
220
0
230
-1
0
CIRCLE
5
151
100
AcDbEntity
8
0
100
AcDbCircle
10
-5.570696250000001
20
-1.8302287500000001
30
0
40
0.033468749999999999
210
0
220
0
230
-1
0
CIRCLE
5
152
100
AcDbEntity
8
0
100
AcDbCircle
10
-5.7707212500000002
20
-1.8302287500000001
30
0
40
0.078750000000000014
210
0
220
0
230
-1
0
CIRCLE
5
153
100
AcDbEntity
8
0
100
AcDbCircle
10
-5.9707462500000004
20
-1.8302287500000001
30
0
40
0.033468749999999999
210
0
220
0
230
-1
0
CIRCLE
5
154
100
AcDbEntity
8
0
100
AcDbCircle
10
-5.8707337500000012
20
-1.6302037500000004
30
0
40
0.043312500000000011
210
0
220
0
230
-1
0
CIRCLE
5
155
100
AcDbEntity
8
0
100
AcDbCircle
10
-5.6207025000000002
20
-1.73021625
30
0
40
0.043312500000000011
210
0
220
0
230
-1
0
CIRCLE
5
156
100
AcDbEntity
8
0
100
AcDbCircle
10
-4.0705087500000001
20
-2.2802850000000001
30
0
40
0.033468749999999999
210
0
220
0
230
-1
0
CIRCLE
5
157
100
AcDbEntity
8
0
100
AcDbCircle
10
-4.2705337500000002
20
-2.2802850000000001
30
0
40
0.078750000000000014
210
0
220
0
230
-1
0
CIRCLE
5
158
100
AcDbEntity
8
0
100
AcDbCircle
10
-4.4705587500000004
20
-2.2802850000000001
30
0
40
0.033468749999999999
210
0
220
0
230
-1
0
CIRCLE
5
159
100
AcDbEntity
8
0
100
AcDbCircle
10
-4.3705462500000012
20
-2.08026
30
0
40
0.043312500000000011
210
0
220
0
230
-1
0
CIRCLE
5
160
100
AcDbEntity
8
0
100
AcDbCircle
10
-4.1205150000000001
20
-2.1802725000000001
30
0
40
0.043312500000000011
210
0
220
0
230
-1
0
CIRCLE
5
161
100
AcDbEntity
8
0
100
AcDbCircle
10
-4.5505687500000001
20
-1.1001375000000002
30
0
40
0.051187500000000004
210
0
220
0
230
-1
0
CIRCLE
5
162
100
AcDbEntity
8
0
100
AcDbCircle
10
-4.5505687500000001
20
-1.1001375000000002
30
0
40
0.086625000000000021
210
0
220
0
230
-1
0
CIRCLE
5
163
100
AcDbEntity
8
0
100
AcDbCircle
10
-4.5505687500000001
20
-3.6004499999999999
30
0
40
0.051187500000000004
210
0
220
0
230
-1
0
CIRCLE
5
164
100
AcDbEntity
8
0
100
AcDbCircle
10
-4.5505687500000001
20
-3.6004499999999999
30
0
40
0.086625000000000021
210
0
220
0
230
-1
0
CIRCLE
5
165
100
AcDbEntity
8
0
100
AcDbCircle
10
-4.8206025000000006
20
-2.5803225000000003
30
0
40
0.033468749999999999
210
0
220
0
230
-1
0
CIRCLE
5
166
100
AcDbEntity
8
0
100
AcDbCircle
10
-5.0206275000000007
20
-2.5803225000000003
30
0
40
0.078750000000000014
210
0
220
0
230
-1
0
CIRCLE
5
167
100
AcDbEntity
8
0
100
AcDbCircle
10
-5.2206524999999999
20
-2.5803225000000003
30
0
40
0.033468749999999999
210
0
220
0
230
-1
0
CIRCLE
5
168
100
AcDbEntity
8
0
100
AcDbCircle
10
-5.1206399999999999
20
-2.3802975000000002
30
0
40
0.043312500000000011
210
0
220
0
230
-1
0
CIRCLE
5
169
100
AcDbEntity
8
0
100
AcDbCircle
10
-4.8706087500000006
20
-2.4803100000000002
30
0
40
0.043312500000000011
210
0
220
0
230
-1
0
CIRCLE
5
170
100
AcDbEntity
8
0
100
AcDbCircle
10
-1.8202275000000001
20
-3.1303912500000002
30
0
40
0.033468749999999999
210
0
220
0
230
-1
0
CIRCLE
5
171
100
AcDbEntity
8
0
100
AcDbCircle
10
-2.0202525000000002
20
-3.1303912500000002
30
0
40
0.078750000000000014
210
0
220
0
230
-1
0
CIRCLE
5
172
100
AcDbEntity
8
0
100
AcDbCircle
10
-2.2202774999999999
20
-3.1303912500000002
30
0
40
0.033468749999999999
210
0
220
0
230
-1
0
CIRCLE
5
173
100
AcDbEntity
8
0
100
AcDbCircle
10
-2.1202649999999998
20
-2.9303662500000005
30
0
40
0.043312500000000011
210
0
220
0
230
-1
0
CIRCLE
5
174
100
AcDbEntity
8
0
100
AcDbCircle
10
-1.8702337499999999
20
-3.0303787500000006
30
0
40
0.043312500000000011
210
0
220
0
230
-1
0
CIRCLE
5
175
100
AcDbEntity
8
0
100
AcDbCircle
10
-1.1701462500000002
20
-3.9522892500000006
30
0
40
0.033468749999999999
210
0
220
0
230
-1
0
CIRCLE
5
176
100
AcDbEntity
8
0
100
AcDbCircle
10
-1.2701587500000002
20
-4.1255156250000002
30
0
40
0.078750000000000014
210
0
220
0
230
-1
0
CIRCLE
5
177
100
AcDbEntity
8
0
100
AcDbCircle
10
-1.3701712500000003
20
-4.2987420000000007
30
0
40
0.033468749999999999
210
0
220
0
230
-1
0
CIRCLE
5
178
100
AcDbEntity
8
0
100
AcDbCircle
10
-1.4933913750000001
20
-4.1121163125000004
30
0
40
0.043312500000000011
210
0
220
0
230
-1
0
CIRCLE
5
179
100
AcDbEntity
8
0
100
AcDbCircle
10
-1.2817625625000002
20
-3.9455876250000004
30
0
40
0.043312500000000011
210
0
220
0
230
-1
0
CIRCLE
5
180
100
AcDbEntity
8
0
100
AcDbCircle
10
-2.5703212500000006
20
-2.2802850000000001
30
0
40
0.033468749999999999
210
0
220
0
230
-1
0
CIRCLE
5
181
100
AcDbEntity
8
0
100
AcDbCircle
10
-2.7703462500000002
20
-2.2802850000000001
30
0
40
0.078750000000000014
210
0
220
0
230
-1
0
CIRCLE
5
182
100
AcDbEntity
8
0
100
AcDbCircle
10
-2.9703712500000004
20
-2.2802850000000001
30
0
40
0.033468749999999999
210
0
220
0
230
-1
0
CIRCLE
5
183
100
AcDbEntity
8
0
100
AcDbCircle
10
-2.8703587500000003
20
-2.08026
30
0
40
0.043312500000000011
210
0
220
0
230
-1
0
CIRCLE
5
184
100
AcDbEntity
8
0
100
AcDbCircle
10
-2.6203275000000006
20
-2.1802725000000001
30
0
40
0.043312500000000011
210
0
220
0
230
-1
0
CIRCLE
5
185
100
AcDbEntity
8
0
100
AcDbCircle
10
-4.0705087500000001
20
-1.5301912500000003
30
0
40
0.033468749999999999
210
0
220
0
230
-1
0
CIRCLE
5
186
100
AcDbEntity
8
0
100
AcDbCircle
10
-4.2705337500000002
20
-1.5301912500000003
30
0
40
0.078750000000000014
210
0
220
0
230
-1
0
CIRCLE
5
187
100
AcDbEntity
8
0
100
AcDbCircle
10
-4.4705587500000004
20
-1.5301912500000003
30
0
40
0.033468749999999999
210
0
220
0
230
-1
0
CIRCLE
5
188
100
AcDbEntity
8
0
100
AcDbCircle
10
-4.3705462500000012
20
-1.33016625
30
0
40
0.043312500000000011
210
0
220
0
230
-1
0
CIRCLE
5
189
100
AcDbEntity
8
0
100
AcDbCircle
10
-4.1205150000000001
20
-1.4301787500000003
30
0
40
0.043312500000000011
210
0
220
0
230
-1
0
CIRCLE
5
190
100
AcDbEntity
8
0
100
AcDbCircle
10
-2.1202649999999998
20
-4.1205150000000001
30
0
40
0.033468749999999999
210
0
220
0
230
-1
0
CIRCLE
5
191
100
AcDbEntity
8
0
100
AcDbCircle
10
-2.32029
20
-4.1205150000000001
30
0
40
0.078750000000000014
210
0
220
0
230
-1
0
CIRCLE
5
192
100
AcDbEntity
8
0
100
AcDbCircle
10
-2.5203150000000001
20
-4.1205150000000001
30
0
40
0.033468749999999999
210
0
220
0
230
-1
0
CIRCLE
5
193
100
AcDbEntity
8
0
100
AcDbCircle
10
-2.4203025
20
-3.92049
30
0
40
0.043312500000000011
210
0
220
0
230
-1
0
CIRCLE
5
194
100
AcDbEntity
8
0
100
AcDbCircle
10
-2.1702712500000003
20
-4.0205025000000001
30
0
40
0.043312500000000011
210
0
220
0
230
-1
0
CIRCLE
5
195
100
AcDbEntity
8
0
100
AcDbCircle
10
-4.8206025000000006
20
-3.3304162499999999
30
0
40
0.033468749999999999
210
0
220
0
230
-1
0
CIRCLE
5
196
100
AcDbEntity
8
0
100
AcDbCircle
10
-5.0206275000000007
20
-3.3304162499999999
30
0
40
0.078750000000000014
210
0
220
0
230
-1
0
CIRCLE
5
197
100
AcDbEntity
8
0
100
AcDbCircle
10
-5.2206524999999999
20
-3.3304162499999999
30
0
40
0.033468749999999999
210
0
220
0
230
-1
0
CIRCLE
5
198
100
AcDbEntity
8
0
100
AcDbCircle
10
-5.1206399999999999
20
-3.1303912500000002
30
0
40
0.043312500000000011
210
0
220
0
230
-1
0
CIRCLE
5
199
100
AcDbEntity
8
0
100
AcDbCircle
10
-4.8706087500000006
20
-3.2304037500000002
30
0
40
0.043312500000000011
210
0
220
0
230
-1
0
CIRCLE
5
200
100
AcDbEntity
8
0
100
AcDbCircle
10
-3.3204150000000001
20
-2.8303537500000004
30
0
40
0.033468749999999999
210
0
220
0
230
-1
0
CIRCLE
5
201
100
AcDbEntity
8
0
100
AcDbCircle
10
-3.5204400000000002
20
-2.8303537500000004
30
0
40
0.078750000000000014
210
0
220
0
230
-1
0
CIRCLE
5
202
100
AcDbEntity
8
0
100
AcDbCircle
10
-3.7204650000000004
20
-2.8303537500000004
30
0
40
0.033468749999999999
210
0
220
0
230
-1
0
CIRCLE
5
203
100
AcDbEntity
8
0
100
AcDbCircle
10
-3.6204525000000003
20
-2.6303287500000003
30
0
40
0.043312500000000011
210
0
220
0
230
-1
0
CIRCLE
5
204
100
AcDbEntity
8
0
100
AcDbCircle
10
-3.3704212500000001
20
-2.7303412500000004
30
0
40
0.043312500000000011
210
0
220
0
230
-1
0
CIRCLE
5
205
100
AcDbEntity
8
0
100
AcDbCircle
10
-1.8202275000000001
20
-2.3802975000000002
30
0
40
0.033468749999999999
210
0
220
0
230
-1
0
CIRCLE
5
206
100
AcDbEntity
8
0
100
AcDbCircle
10
-2.0202525000000002
20
-2.3802975000000002
30
0
40
0.078750000000000014
210
0
220
0
230
-1
0
CIRCLE
5
207
100
AcDbEntity
8
0
100
AcDbCircle
10
-2.2202774999999999
20
-2.3802975000000002
30
0
40
0.033468749999999999
210
0
220
0
230
-1
0
CIRCLE
5
208
100
AcDbEntity
8
0
100
AcDbCircle
10
-2.1202649999999998
20
-2.1802725000000001
30
0
40
0.043312500000000011
210
0
220
0
230
-1
0
CIRCLE
5
209
100
AcDbEntity
8
0
100
AcDbCircle
10
-1.8702337499999999
20
-2.2802850000000001
30
0
40
0.043312500000000011
210
0
220
0
230
-1
0
CIRCLE
5
210
100
AcDbEntity
8
0
100
AcDbCircle
10
-1.8202275000000001
20
-1.6302037500000004
30
0
40
0.033468749999999999
210
0
220
0
230
-1
0
CIRCLE
5
211
100
AcDbEntity
8
0
100
AcDbCircle
10
-2.0202525000000002
20
-1.6302037500000004
30
0
40
0.078750000000000014
210
0
220
0
230
-1
0
CIRCLE
5
212
100
AcDbEntity
8
0
100
AcDbCircle
10
-2.2202774999999999
20
-1.6302037500000004
30
0
40
0.033468749999999999
210
0
220
0
230
-1
0
CIRCLE
5
213
100
AcDbEntity
8
0
100
AcDbCircle
10
-2.1202649999999998
20
-1.4301787500000003
30
0
40
0.043312500000000011
210
0
220
0
230
-1
0
CIRCLE
5
214
100
AcDbEntity
8
0
100
AcDbCircle
10
-1.8702337499999999
20
-1.5301912500000003
30
0
40
0.043312500000000011
210
0
220
0
230
-1
0
CIRCLE
5
215
100
AcDbEntity
8
0
100
AcDbCircle
10
-0.98634375000000019
20
-2.2978462500000001
30
0
40
0.012796875000000001
210
0
220
0
230
-1
0
CIRCLE
5
216
100
AcDbEntity
8
0
100
AcDbCircle
10
-1.2139312499999999
20
-2.2978462500000001
30
0
40
0.012796875000000001
210
0
220
0
230
-1
0
LINE
5
217
100
AcDbEntity
8
0
100
AcDbLine
10
0.93003753304481518
20
-2.1371962451934814
30
0
11
0.93003753304481518
21
-2.1686962151527407
31
0
0
LINE
5
218
100
AcDbEntity
8
0
100
AcDbLine
10
0.93003753304481518
20
-2.2958774471282961
30
0
11
0.93003753304481518
21
-2.339190037250519
31
0
0
LINE
5
219
100
AcDbEntity
8
0
100
AcDbLine
10
1.2702374339103699
20
-2.1371962451934814
30
0
11
1.2702374339103699
21
-2.1686962151527407
31
0
0
LINE
5
220
100
AcDbEntity
8
0
100
AcDbLine
10
1.2702374339103699
20
-2.2958774471282961
30
0
11
1.2702374339103699
21
-2.339190037250519
31
0
0
LWPOLYLINE
5
221
100
AcDbEntity
8
0
100
AcDbPolyline
90
24
70
1
43
0.0
10
6.2007748317718514
20
-3.6504562139511108
42
-0.41421290255204929
10
6.1007625961303722
20
-3.7504687500000005
10
3.5504436779022219
20
-3.7504687500000005
42
0.41421378231389638
10
3.4504311418533331
20
-3.8504812860488893
10
3.4504311418533331
20
-4.4498436355590831
42
-0.41422521950818508
10
3.3504186058044443
20
-4.5498600769042969
10
2.0002499699592593
20
-4.5505687379837045
42
0.13593199540264825
10
1.9487946867942814
20
-4.5648224687576304
10
1.4531816411018375
20
-4.8506063461303714
42
-0.42077344473014167
10
1.2282204258441927
20
-4.8005605745315556
10
0.61218674182891841
20
-3.7348487663269045
42
-0.071400986414286091
10
0.60007499098777772
20
-3.6504562139511116
10
0.60007499098777772
20
-2.1502687740325932
42
-0.41421378231389638
10
0.70008752703666688
20
-2.0502562379837039
10
1.5498393774032593
20
-2.0499019074440001
42
0.41421378231389744
10
1.5998456454277039
20
-1.9998956394195562
10
1.6001999759674077
20
-1.0501312530040741
42
-0.41421378231389638
10
1.7002125120162965
20
-0.95011871695518502
10
4.6005748558044433
20
-0.95011871695518502
42
-0.41421378231389849
10
4.7005873918533334
20
-1.0501312530040741
10
4.7005873918533334
20
-1.3001625180244447
42
0.41421378231389638
10
4.8005999279022218
20
-1.4001750540733338
10
6.1007625961303713
20
-1.4001750540733338
42
-0.41421246267100431
10
6.2007748317718505
20
-1.5001874399185182
0
ENDSEC
0
SECTION
2
OBJECTS
0
DICTIONARY
5
C
100
AcDbDictionary
3
ACAD_GROUP
350
D
3
ACAD_MLINESTYLE
350
17
0
DICTIONARY
5
D
100
AcDbDictionary
0
DICTIONARY
5
1A
330
C
100
AcDbDictionary
0
DICTIONARY
5
17
100
AcDbDictionary
0
ENDSEC
0
EOF
