0
SECTION
2
HEADER
9
$INSUNITS
70
1
9
$ACADVER
1
AC1014
9
$HANDSEED
5
FFFF
0
ENDSEC
0
SECTION
2
TABLES
0
TABLE
2
VPORT
5
8
100
AcDbSymbolTable
0
ENDTAB
0
TABLE
2
LTYPE
5
5
100
AcDbSymbolTable
0
LTYPE
5
14
100
AcDbSymbolTableRecord
100
AcDbLinetypeTableRecord
2
BYBLOCK
70
0
0
LTYPE
5
15
100
AcDbSymbolTableRecord
100
AcDbLinetypeTableRecord
2
BYLAYER
70
0
0
ENDTAB
0
TABLE
2
LAYER
5
2
100
AcDbSymbolTable
70
2
0
LAYER
5
50
100
AcDbSymbolTableRecord
100
AcDbLayerTableRecord
2
0
70
0
6
CONTINUOUS
0
ENDTAB
0
TABLE
2
STYLE
5
3
100
AcDbSymbolTable
70
1
0
STYLE
5
11
100
AcDbSymbolTableRecord
100
AcDbTextStyleTableRecord
2
STANDARD
70
0
0
ENDTAB
0
TABLE
2
VIEW
5
6
100
AcDbSymbolTable
70
0
0
ENDTAB
0
TABLE
2
UCS
5
7
100
AcDbSymbolTable
70
0
0
ENDTAB
0
TABLE
2
APPID
5
9
100
AcDbSymbolTable
70
2
0
APPID
5
12
100
AcDbSymbolTableRecord
100
AcDbRegAppTableRecord
2
ACAD
70
0
0
ENDTAB
0
TABLE
2
DIMSTYLE
5
A
100
AcDbSymbolTable
70
1
0
ENDTAB
0
TABLE
2
BLOCK_RECORD
5
1
100
AcDbSymbolTable
70
1
0
BLOCK_RECORD
5
1F
100
AcDbSymbolTableRecord
100
AcDbBlockTableRecord
2
*MODEL_SPACE
0
BLOCK_RECORD
5
1B
100
AcDbSymbolTableRecord
100
AcDbBlockTableRecord
2
*PAPER_SPACE
0
ENDTAB
0
ENDSEC
0
SECTION
2
BLOCKS
0
BLOCK
5
20
100
AcDbEntity
100
AcDbBlockBegin
2
*MODEL_SPACE
0
ENDBLK
5
21
100
AcDbEntity
100
AcDbBlockEnd
0
BLOCK
5
1C
100
AcDbEntity
100
AcDbBlockBegin
2
*PAPER_SPACE
0
ENDBLK
5
1D
100
AcDbEntity
100
AcDbBlockEnd
0
ENDSEC
0
SECTION
2
ENTITIES
0
CIRCLE
5
100
100
AcDbEntity
8
0
100
AcDbCircle
10
0.73999999105695635
20
-2.1899999735334257
30
0
40
0.043299999999999998
210
0
220
0
230
1
0
CIRCLE
5
101
100
AcDbEntity
8
0
100
AcDbCircle
10
4.5499999450123685
20
-1.0999999867062868
30
0
40
0.043300000000000075
210
0
220
0
230
1
0
CIRCLE
5
102
100
AcDbEntity
8
0
100
AcDbCircle
10
1.7499999450123678
20
-1.0999999867062868
30
0
40
0.043300000000000075
210
0
220
0
230
1
0
CIRCLE
5
103
100
AcDbEntity
8
0
100
AcDbCircle
10
4.5499999450123685
20
-3.5999999867062873
30
0
40
0.043300000000000075
210
0
220
0
230
1
0
CIRCLE
5
104
100
AcDbEntity
8
0
100
AcDbCircle
10
1.3599999450123672
20
-4.7149999867062862
30
0
40
0.043300000000000075
210
0
220
0
230
1
0
LWPOLYLINE
5
105
100
AcDbEntity
8
0
100
AcDbPolyline
90
24
70
1
43
0.0
10
4.9499999401782908
20
-1.1999999848935079
10
6.2999999238632789
20
-1.1999999848935072
42
-0.41421356355296179
10
6.4499999232589831
20
-1.3499999836849883
10
6.4499999232589831
20
-3.7999999540762635
42
-0.41421356355292183
10
6.2999999238632789
20
-3.9499999528677439
10
3.6999999552847829
20
-3.9499999528677439
42
0.41421356237309914
10
3.5999999564933036
20
-4.0499999516592204
10
3.5999999564933032
20
-4.5499999450123685
42
-0.41421356237308549
10
3.4499999583060812
20
-4.6999999431995887
10
2.2033119476191554
20
-4.6999999431995887
42
0.11921870445476447
10
1.9318448685881295
20
-4.7656610986633421
10
1.2996845088106275
20
-5.1301818478824242
42
-0.42106637972487537
10
1.0499999873105466
20
-5.059999938848919
10
0.44937403681296467
20
-4.0209428477052747
42
-0.1154515859247761
10
0.34999999395740328
20
-3.5963082330020653
10
0.34999999395740339
20
-1.9999999758296128
42
-0.41421356591276792
10
0.49999999395740308
20
-1.8499999776423914
10
1.3500000135048218
20
-1.8499999776423937
42
0.41421356237309503
10
1.450000012296307
20
-1.7499999788509109
10
1.4500000122963077
20
-0.94999998791480589
42
-0.41421356237309437
10
1.5999999968330896
20
-0.80000000337802435
10
4.6999999431995887
20
-0.80000000337802557
42
-0.41421357629010724
10
4.8499999348637193
20
-0.949999987914804
10
4.8499999348637202
20
-1.0999999867062868
42
0.41421354149757822
0
CIRCLE
5
106
100
AcDbEntity
8
0
100
AcDbCircle
10
0.4899999933531437
20
-1.9899999758296136
30
0
40
0.088582677165354354
210
0
220
0
230
1
0
CIRCLE
5
107
100
AcDbEntity
8
0
100
AcDbCircle
10
0.4899999933531437
20
-1.9899999758296136
30
0
40
0.04921259842519686
210
0
220
0
230
1
0
CIRCLE
5
108
100
AcDbEntity
8
0
100
AcDbCircle
10
1.1999999933531442
20
-5.0199999758296139
30
0
40
0.088582677165354354
210
0
220
0
230
1
0
CIRCLE
5
109
100
AcDbEntity
8
0
100
AcDbCircle
10
1.1999999933531442
20
-5.0199999758296139
30
0
40
0.04921259842519686
210
0
220
0
230
1
0
CIRCLE
5
110
100
AcDbEntity
8
0
100
AcDbCircle
10
6.3099999933531432
20
-1.3399999758296137
30
0
40
0.088582677165354354
210
0
220
0
230
1
0
CIRCLE
5
111
100
AcDbEntity
8
0
100
AcDbCircle
10
6.3099999933531432
20
-1.3399999758296137
30
0
40
0.04921259842519686
210
0
220
0
230
1
0
CIRCLE
5
112
100
AcDbEntity
8
0
100
AcDbCircle
10
6.3099999933531432
20
-3.8099999758296139
30
0
40
0.04921259842519686
210
0
220
0
230
1
0
CIRCLE
5
113
100
AcDbEntity
8
0
100
AcDbCircle
10
6.3099999933531432
20
-3.8099999758296139
30
0
40
0.088582677165354354
210
0
220
0
230
1
0
LINE
5
114
100
AcDbEntity
8
0
100
AcDbLine
10
1.2282204258441929
20
-4.8005605745315556
30
0
11
0.61218674182891841
21
-3.7348487663269045
31
0
0
LINE
5
115
100
AcDbEntity
8
0
100
AcDbLine
10
1.9487946867942811
20
-4.5648224687576304
30
0
11
1.4531816411018375
21
-4.8506063461303714
31
0
0
LWPOLYLINE
5
116
100
AcDbEntity
8
0
100
AcDbPolyline
90
24
70
1
43
0.0
10
1.6499999800594309
20
-0.90011871695518519
10
4.6499999438038486
20
-0.90011871695518464
42
-0.41456155748335527
10
4.7499999425953296
20
-0.99999998791480615
10
4.7499999425953296
20
-1.2499999848935077
42
0.41421356237308682
10
4.8499999413868098
20
-1.3499999836849883
10
6.0999999262803168
20
-1.3499999836849887
42
-0.41421356237309437
10
6.2499999244675388
20
-1.4999999818722094
10
6.2499999244675379
20
-3.6499999558890428
42
-0.41421356237308821
10
6.0999999262803177
20
-3.7999999540762635
10
3.5999999564933023
20
-3.7999999540762635
42
0.41421356237309093
10
3.4999999577018217
20
-3.899999952867744
10
3.4999999577018217
20
-4.4499999462208875
42
-0.41421356237309775
10
3.3499999595146006
20
-4.5999999444081086
10
2.0999999746210931
20
-4.5999999444081086
42
0.12343296373182437
10
1.8999999770381317
20
-4.6499999438038477
10
1.4431816411018377
20
-4.9106063461303711
42
-0.39346867141684927
10
1.1882204258441931
20
-4.8505605745315554
10
0.59999999274888349
20
-3.8299999537137075
42
-0.10728343223001005
10
0.55007499098777746
20
-3.5999999564933023
10
0.55007499098777746
20
-2.1499999740168332
42
-0.41436004856804542
10
0.6999999915403643
20
-1.9999999758296123
10
1.4999999818722094
20
-1.9999999758296123
42
0.41399503872223431
10
1.5499999812679497
20
-1.949999976433872
10
1.5503543997042113
20
-0.99999998791480649
42
-0.41330335618880659
0
LWPOLYLINE
5
117
100
AcDbEntity
8
0
100
AcDbPolyline
90
4
70
1
43
0.0
10
5.699999947429407
20
-3.5499999570975618
10
4.9999999558890424
20
-3.5499999570975618
42
0.99999999999999989
10
4.9999999558890424
20
-3.6999999552847829
10
5.699999947429407
20
-3.6999999552847829
42
0.99999999999999989
0
LINE
5
118
100
AcDbEntity
8
0
100
AcDbLine
10
4.9999999558890424
20
-3.4999999577018217
30
0
11
5.699999947429407
21
-3.4999999577018217
31
0
0
ARC
5
119
100
AcDbEntity
8
0
100
AcDbCircle
10
5.699999947429407
20
-3.6252343538509111
30
0
40
0.12523439614908935
210
0
220
0
230
1
100
AcDbArc
50
-90
51
90
0
ARC
5
120
100
AcDbEntity
8
0
100
AcDbCircle
10
4.9999999558890424
20
-3.6252343538509111
30
0
40
0.12523439614908935
210
0
220
-0
230
1
100
AcDbArc
50
90
51
270
0
LINE
5
121
100
AcDbEntity
8
0
100
AcDbLine
10
4.8747655597399531
20
-3.6252343538509111
30
0
11
4.8747655597399531
21
-3.7999999540762635
31
0
0
LINE
5
122
100
AcDbEntity
8
0
100
AcDbLine
10
5.8252343435784963
20
-3.6252343538509111
30
0
11
5.8252343435784963
21
-3.7999999540762635
31
0
0
LINE
5
123
100
AcDbEntity
8
0
100
AcDbLine
10
5.6499956339237762
20
-1.6499999800594303
30
0
11
5.2999999359484731
21
-1.6499999800594303
31
0
0
LWPOLYLINE
5
124
100
AcDbEntity
8
0
100
AcDbPolyline
90
4
70
1
43
0.0
10
5.6500393919542429
20
-1.4499999696474677
10
5.3000064035364618
20
-1.4499999608613665
42
1.0014517074347038
10
5.3002242158365354
20
-1.6001500886890971
10
5.6499999317186553
20
-1.59999998066369
42
1.0002631256447825
0
ARC
5
125
100
AcDbEntity
8
0
100
AcDbCircle
10
5.2999999359484722
20
-1.525087517066382
30
0
40
0.12491246299304821
210
0
220
-0
230
1
100
AcDbArc
50
89.999999999999588
51
270.0000000000004
0
LINE
5
126
100
AcDbEntity
8
0
100
AcDbLine
10
4.8005999279022218
20
-1.4001750540733338
30
0
11
6.1007625961303713
21
-1.4001750540733335
31
0
0
ARC
5
127
100
AcDbEntity
8
0
100
AcDbCircle
10
5.6499956339237762
20
-1.5250875170663818
30
0
40
0.12491246299304838
210
0
220
0
230
1
100
AcDbArc
50
-90
51
90
0
LINE
5
128
100
AcDbEntity
8
0
100
AcDbLine
10
5.1750874729554246
20
-1.525087517066382
30
0
11
5.1750874729554246
21
-1.3499999836849883
31
0
0
LINE
5
129
100
AcDbEntity
8
0
100
AcDbLine
10
5.7749080969168247
20
-1.5250875170663818
30
0
11
5.7749080969168247
21
-1.3499999836849883
31
0
0
ARC
5
130
100
AcDbEntity
8
0
100
AcDbCircle
10
2.349999955889043
20
-4.4252343538509109
30
0
40
0.12523439614908935
210
0
220
-0
230
1
100
AcDbArc
50
90
51
270
0
LINE
5
131
100
AcDbEntity
8
0
100
AcDbLine
10
2.349999955889043
20
-4.2999999577018215
30
0
11
3.0499999474294071
21
-4.2999999577018215
31
0
0
ARC
5
132
100
AcDbEntity
8
0
100
AcDbCircle
10
3.0499999474294071
20
-4.4252343538509109
30
0
40
0.12523439614908935
210
0
220
0
230
1
100
AcDbArc
50
-90
51
90
0
LWPOLYLINE
5
133
100
AcDbEntity
8
0
100
AcDbPolyline
90
4
70
1
43
0.0
10
2.349999955889043
20
-4.3499999570975616
42
0.99999999999999989
10
2.349999955889043
20
-4.4999999552847827
10
3.0499999474294071
20
-4.4999999552847827
42
0.99999999999999989
10
3.0499999474294071
20
-4.3499999570975616
0
LINE
5
134
100
AcDbEntity
8
0
100
AcDbLine
10
2.2247655597399536
20
-4.4252343538509109
30
0
11
2.2247655597399536
21
-4.5999999444081086
31
0
0
LINE
5
135
100
AcDbEntity
8
0
100
AcDbLine
10
3.1752343435784964
20
-4.4252343538509109
30
0
11
3.1752343435784964
21
-4.5999999444081086
31
0
0
ARC
5
136
100
AcDbEntity
8
0
100
AcDbCircle
10
2.9499999558890417
20
-1.0752343538509104
30
0
40
0.12523439614908935
210
0
220
0
230
1
100
AcDbArc
50
-90
51
90
0
LINE
5
137
100
AcDbEntity
8
0
100
AcDbLine
10
2.9499999558890417
20
-1.2004687499999998
30
0
11
2.2499999643486777
21
-1.2004687499999998
31
0
0
ARC
5
138
100
AcDbEntity
8
0
100
AcDbCircle
10
2.2499999643486777
20
-1.0752343538509104
30
0
40
0.12523439614908935
210
0
220
-0
230
1
100
AcDbArc
50
90
51
270
0
LWPOLYLINE
5
139
100
AcDbEntity
8
0
100
AcDbPolyline
90
4
70
1
43
0.0
10
2.9499999558890417
20
-1.1504687506042595
42
0.99999999999999989
10
2.9499999558890417
20
-1.0004687524170386
10
2.2499999643486777
20
-1.0004687524170386
42
0.99999999999999989
10
2.2499999643486777
20
-1.1504687506042595
0
LINE
5
140
100
AcDbEntity
8
0
100
AcDbLine
10
2.1247655681995883
20
-1.0752343538509104
30
0
11
2.1247655681995883
21
-0.90011871695518519
31
0
0
LINE
5
141
100
AcDbEntity
8
0
100
AcDbLine
10
3.0752343520381311
20
-1.0752343538509104
30
0
11
3.0752343520381311
21
-0.90011871695518497
31
0
0
LINE
5
142
100
AcDbEntity
8
0
100
AcDbLine
10
0.89302065659598306
20
-3.8519353932035121
30
0
11
1.2374034166101209
21
-4.4477027731574879
31
0
0
ARC
5
143
100
AcDbEntity
8
0
100
AcDbCircle
10
0.81249349982221009
20
-3.8984840385959219
30
0
40
0.093012898922332915
210
0
220
-0
230
1
100
AcDbArc
50
30.0300182316576
51
209.65025560651992
0
LINE
5
144
100
AcDbEntity
8
0
100
AcDbLine
10
1.2282204258441929
20
-4.8005605745315556
30
0
11
0.61218674182891841
21
-3.7348487663269045
31
0
0
ARC
5
145
100
AcDbEntity
8
0
100
AcDbCircle
10
1.1566433015029527
20
-4.4923463505325509
30
0
40
0.092278086201255424
210
0
220
0
230
1
100
AcDbArc
50
-149.96998176834197
51
28.933483739729645
0
LINE
5
146
100
AcDbEntity
8
0
100
AcDbLine
10
0.93836755660162308
20
-3.8285061615339222
30
0
11
1.2827503166157603
21
-4.4242735414878958
31
0
0
ARC
5
147
100
AcDbEntity
8
0
100
AcDbCircle
10
0.80960584433943861
20
-3.8993562789170388
30
0
40
0.14696706324170419
210
0
220
-0
230
1
100
AcDbArc
50
28.821443240465268
51
209.95785428026454
0
ARC
5
148
100
AcDbEntity
8
0
100
AcDbCircle
10
1.1486742902280089
20
-4.4865473597182257
30
0
40
0.14783236888081405
210
0
220
0
230
1
100
AcDbArc
50
-146.27044887618632
51
24.913288024380783
0
LINE
5
149
100
AcDbEntity
8
0
100
AcDbLine
10
0.73748229458357528
20
-3.7713035114791404
30
0
11
0.60815328177390149
21
-3.8441458847982393
31
0
0
LINE
5
150
100
AcDbEntity
8
0
100
AcDbLine
10
1.2299999851352117
20
-4.6099999442872566
30
0
11
1.0945614922544202
21
-4.6880626162295389
31
0
0
ENDSEC
0
SECTION
2
OBJECTS
0
DICTIONARY
5
C
100
AcDbDictionary
3
ACAD_GROUP
350
D
3
ACAD_MLINESTYLE
350
17
0
DICTIONARY
5
D
100
AcDbDictionary
0
DICTIONARY
5
1A
330
C
100
AcDbDictionary
0
DICTIONARY
5
17
100
AcDbDictionary
0
ENDSEC
0
EOF
