0
SECTION
2
HEADER
9
$INSUNITS
70
1
9
$ACADVER
1
AC1014
9
$HANDSEED
5
FFFF
0
ENDSEC
0
SECTION
2
TABLES
0
TABLE
2
VPORT
5
8
100
AcDbSymbolTable
0
ENDTAB
0
TABLE
2
LTYPE
5
5
100
AcDbSymbolTable
0
LTYPE
5
14
100
AcDbSymbolTableRecord
100
AcDbLinetypeTableRecord
2
BYBLOCK
70
0
0
LTYPE
5
15
100
AcDbSymbolTableRecord
100
AcDbLinetypeTableRecord
2
BYLAYER
70
0
0
ENDTAB
0
TABLE
2
LAYER
5
2
100
AcDbSymbolTable
70
2
0
LAYER
5
50
100
AcDbSymbolTableRecord
100
AcDbLayerTableRecord
2
0
70
0
6
CONTINUOUS
0
ENDTAB
0
TABLE
2
STYLE
5
3
100
AcDbSymbolTable
70
1
0
STYLE
5
11
100
AcDbSymbolTableRecord
100
AcDbTextStyleTableRecord
2
STANDARD
70
0
0
ENDTAB
0
TABLE
2
VIEW
5
6
100
AcDbSymbolTable
70
0
0
ENDTAB
0
TABLE
2
UCS
5
7
100
AcDbSymbolTable
70
0
0
ENDTAB
0
TABLE
2
APPID
5
9
100
AcDbSymbolTable
70
2
0
APPID
5
12
100
AcDbSymbolTableRecord
100
AcDbRegAppTableRecord
2
ACAD
70
0
0
ENDTAB
0
TABLE
2
DIMSTYLE
5
A
100
AcDbSymbolTable
70
1
0
ENDTAB
0
TABLE
2
BLOCK_RECORD
5
1
100
AcDbSymbolTable
70
1
0
BLOCK_RECORD
5
1F
100
AcDbSymbolTableRecord
100
AcDbBlockTableRecord
2
*MODEL_SPACE
0
BLOCK_RECORD
5
1B
100
AcDbSymbolTableRecord
100
AcDbBlockTableRecord
2
*PAPER_SPACE
0
ENDTAB
0
ENDSEC
0
SECTION
2
BLOCKS
0
BLOCK
5
20
100
AcDbEntity
100
AcDbBlockBegin
2
*MODEL_SPACE
0
ENDBLK
5
21
100
AcDbEntity
100
AcDbBlockEnd
0
BLOCK
5
1C
100
AcDbEntity
100
AcDbBlockBegin
2
*PAPER_SPACE
0
ENDBLK
5
1D
100
AcDbEntity
100
AcDbBlockEnd
0
ENDSEC
0
SECTION
2
ENTITIES
0
LWPOLYLINE
5
100
100
AcDbEntity
8
0
100
AcDbPolyline
90
24
70
1
43
0.0
10
1.8999999770381317
20
-4.6499999438038486
10
1.4431816411018377
20
-4.9106063461303711
42
-0.3934686714168476
10
1.1882204258441933
20
-4.8505605745315554
10
0.5999999927488836
20
-3.8299999537137075
42
-0.1072834322300099
10
0.55007499098777757
20
-3.5999999564933023
10
0.55007499098777768
20
-2.1999999734125737
42
-0.41447926308210892
10
0.7499999909361047
20
-2.0002562379837037
10
1.4499999824764689
20
-2.0002562379837037
42
0.41404914348173627
10
1.5501999759674077
20
-1.8999999770381317
10
1.5501999759674077
20
-1.0999999867062868
42
-0.41433267486699188
10
1.7499999788509115
20
-0.90011871695518464
10
4.5499999450123685
20
-0.90011871695518475
42
-0.41524690094096406
10
4.7505873918533323
20
-1.0999999867062871
10
4.7505873918533306
20
-1.2499999848935075
42
0.41645330923947294
10
4.8499999413868098
20
-1.3501750540733339
10
6.0499999268845785
20
-1.3501750540733342
42
-0.41282511921829484
10
6.2507748317718503
20
-1.5499999812679497
10
6.2507748317718494
20
-3.6504562139511108
42
-0.41421297583970018
10
6.1007625961303722
20
-3.8004687500000007
10
3.5999999564933023
20
-3.8004687500000007
42
0.41410290641147968
10
3.5004311418533325
20
-3.899999952867744
10
3.5004311418533325
20
-4.4498436355590831
42
-0.41420593756472657
10
3.3504186058044443
20
-4.5998600769042968
10
2.0999999746210931
20
-4.5998600769042968
42
0.12343967166980398
0
LINE
5
101
100
AcDbEntity
8
0
100
AcDbLine
10
1.3352618811272636
20
-4.5861002900391163
30
0
11
1.1104698869315934
21
-4.7156636314858718
31
0
0
ARC
5
102
100
AcDbEntity
8
0
100
AcDbCircle
10
1.3755861966078695
20
-4.6558596234660587
30
0
40
0.080575523697651558
210
0
220
-0
230
1
100
AcDbArc
50
24.644429280392753
51
120.03001823165923
0
LINE
5
103
100
AcDbEntity
8
0
100
AcDbLine
10
1.4488223404866867
20
-4.6222607804962186
30
0
11
1.5715430414628633
21
-4.837378543929491
31
0
0
LINE
5
104
100
AcDbEntity
8
0
100
AcDbLine
10
4.3999999468251474
20
-3.5499999570975613
30
0
11
4.3999999468251474
21
-3.7999999540762635
31
0
0
ARC
5
105
100
AcDbEntity
8
0
100
AcDbCircle
10
4.4999999456166275
20
-3.5499999570975613
30
0
40
0.099999998791480624
210
0
220
-0
230
1
100
AcDbArc
50
90
51
180
0
LINE
5
106
100
AcDbEntity
8
0
100
AcDbLine
10
4.5999999444081086
20
-3.4499999583060807
30
0
11
4.4999999456166275
21
-3.4499999583060807
31
0
0
ARC
5
107
100
AcDbEntity
8
0
100
AcDbCircle
10
4.5999999444081086
20
-3.54999995709756
30
0
40
0.099999998791479916
210
0
220
0
230
1
100
AcDbArc
50
0
51
90
0
LINE
5
108
100
AcDbEntity
8
0
100
AcDbLine
10
4.6999999431995887
20
-3.54999995709756
30
0
11
4.6999999431995887
21
-3.8004687499999998
31
0
0
LINE
5
109
100
AcDbEntity
8
0
100
AcDbLine
10
4.4999999456166275
20
-1.2499999848935075
30
0
11
4.7505873918533306
21
-1.2499999848935075
31
0
0
ARC
5
110
100
AcDbEntity
8
0
100
AcDbCircle
10
4.4999999456166275
20
-1.1499999861020274
30
0
40
0.099999998791480624
210
0
220
0
230
1
100
AcDbArc
50
180
51
270
0
LINE
5
111
100
AcDbEntity
8
0
100
AcDbLine
10
4.3999999468251474
20
-1.1499999861020274
30
0
11
4.3999999468251483
21
-0.90011871695518464
31
0
0
LINE
5
112
100
AcDbEntity
8
0
100
AcDbLine
10
1.8999999770381317
20
-1.1499999861020271
30
0
11
1.8999999770381328
21
-0.90011871695518519
31
0
0
ARC
5
113
100
AcDbEntity
8
0
100
AcDbCircle
10
1.8000372715373842
20
-1.1500372793927596
30
0
40
0.099962712457289576
210
0
220
0
230
1
100
AcDbArc
50
-90.021375452508266
51
0.021375452504216158
0
LINE
5
114
100
AcDbEntity
8
0
100
AcDbLine
10
1.7999999782466511
20
-1.2499999848935073
30
0
11
1.5501999759674077
21
-1.2499999848935073
31
0
0
LINE
5
115
100
AcDbEntity
8
0
100
AcDbLine
10
0.89999999721272927
20
-2.2500208218643016
30
0
11
0.89999999721272927
21
-2.0002562379837037
31
0
0
ARC
5
116
100
AcDbEntity
8
0
100
AcDbCircle
10
0.79999999033184443
20
-2.2499999625433529
30
0
40
0.10000000905644116
210
0
220
0
230
1
100
AcDbArc
50
270
51
359.98804849049299
0
LINE
5
117
100
AcDbEntity
8
0
100
AcDbLine
10
0.79999999033184443
20
-2.3499999715997939
30
0
11
0.55007499098777757
21
-2.3499999715997939
31
0
0
CIRCLE
5
118
100
AcDbEntity
8
0
100
AcDbCircle
10
0.73999999105695635
20
-2.1899999735334257
30
0
40
0.043299999999999998
210
0
220
0
230
1
0
CIRCLE
5
119
100
AcDbEntity
8
0
100
AcDbCircle
10
4.5499999450123685
20
-3.5999999867062873
30
0
40
0.043300000000000075
210
0
220
0
230
1
0
CIRCLE
5
120
100
AcDbEntity
8
0
100
AcDbCircle
10
1.3599999450123672
20
-4.7149999867062862
30
0
40
0.043300000000000075
210
0
220
0
230
1
0
CIRCLE
5
121
100
AcDbEntity
8
0
100
AcDbCircle
10
4.5499999450123685
20
-1.0999999867062868
30
0
40
0.043300000000000075
210
0
220
0
230
1
0
CIRCLE
5
122
100
AcDbEntity
8
0
100
AcDbCircle
10
1.7499999450123678
20
-1.0999999867062868
30
0
40
0.043300000000000075
210
0
220
0
230
1
0
CIRCLE
5
123
100
AcDbEntity
8
0
100
AcDbCircle
10
0.73999999105695635
20
-2.1899999735334257
30
0
40
0.043299999999999998
210
0
220
0
230
1
0
CIRCLE
5
124
100
AcDbEntity
8
0
100
AcDbCircle
10
4.5499999450123685
20
-1.0999999867062868
30
0
40
0.043300000000000075
210
0
220
0
230
1
0
CIRCLE
5
125
100
AcDbEntity
8
0
100
AcDbCircle
10
1.7499999450123678
20
-1.0999999867062868
30
0
40
0.043300000000000075
210
0
220
0
230
1
0
CIRCLE
5
126
100
AcDbEntity
8
0
100
AcDbCircle
10
4.5499999450123685
20
-3.5999999867062873
30
0
40
0.043300000000000075
210
0
220
0
230
1
0
CIRCLE
5
127
100
AcDbEntity
8
0
100
AcDbCircle
10
1.3599999450123672
20
-4.7149999867062862
30
0
40
0.043300000000000075
210
0
220
0
230
1
0
LINE
5
128
100
AcDbEntity
8
0
100
AcDbLine
10
2.019999975587909
20
-1.6299999803011338
30
0
11
2.3949999755879086
21
-1.6299999803011338
31
0
0
LINE
5
129
100
AcDbEntity
8
0
100
AcDbLine
10
2.019999975587909
20
-1.6299999803011338
30
0
11
2.019999975587909
21
-1.2549999803011338
31
0
0
LWPOLYLINE
5
130
100
AcDbEntity
8
0
100
AcDbPolyline
90
12
70
1
43
0.0
10
1.6449999755879083
20
-2.0049999803011338
10
1.6449999755879083
20
-1.2549999803011338
10
2.3949999755879086
20
-2.0049999803011338
10
1.6449999755879083
20
-2.0049999803011338
10
1.6449999755879083
20
-1.2549999803011338
10
2.3949999755879086
20
-1.2549999803011338
10
1.6449999755879083
20
-2.0049999803011338
10
1.6449999755879083
20
-2.7549999803011338
10
2.3949999755879086
20
-2.7549999803011338
10
2.3949999755879086
20
-2.0049999803011338
10
2.3949999755879086
20
-1.2549999803011338
10
2.3949999755879086
20
-2.0049999803011338
0
LINE
5
131
100
AcDbEntity
8
0
100
AcDbLine
10
1.6449999755879083
20
-1.2549999803011338
30
0
11
2.3949999755879086
21
-1.2549999803011338
31
0
0
LWPOLYLINE
5
132
100
AcDbEntity
8
0
100
AcDbPolyline
90
6
70
1
43
0.0
10
3.1449999665240127
20
-1.1549999815096537
10
3.1449999665240127
20
-1.9049999815096526
10
2.3949999665240127
20
-1.1549999815096537
10
2.3949999665240127
20
-1.9049999815096526
10
3.1449999665240127
20
-1.9049999815096526
10
2.3949999665240127
20
-1.9049999815096526
0
LINE
5
133
100
AcDbEntity
8
0
100
AcDbLine
10
2.3949999665240127
20
-1.1549999815096537
30
0
11
3.1449999665240127
21
-1.1549999815096537
31
0
0
LWPOLYLINE
5
134
100
AcDbEntity
8
0
100
AcDbPolyline
90
3
70
1
43
0.0
10
3.1449999574601177
20
-1.7049999839266921
10
3.1449999574601177
20
-0.95499998392669261
10
3.8949999574601182
20
-1.7049999839266921
0
LWPOLYLINE
5
135
100
AcDbEntity
8
0
100
AcDbPolyline
90
3
70
1
43
0.0
10
3.8949999574601182
20
-0.95499998392669261
10
3.8949999574601182
20
-1.7049999839266921
10
3.1449999574601177
20
-1.7049999839266921
0
LINE
5
136
100
AcDbEntity
8
0
100
AcDbLine
10
3.1449999574601177
20
-0.95499998392669261
30
0
11
3.8949999574601182
21
-0.95499998392669261
31
0
0
LWPOLYLINE
5
137
100
AcDbEntity
8
0
100
AcDbPolyline
90
11
70
1
43
0.0
10
4.6449999483962223
20
-1.9049999815096526
10
3.8949999483962223
20
-1.9049999815096526
10
4.6449999483962223
20
-1.1549999815096537
10
4.6449999483962223
20
-1.9049999815096526
10
3.8949999483962223
20
-1.9049999815096526
10
3.8949999483962223
20
-2.6549999815096528
10
3.894999948396221
20
-3.4049999815096545
10
4.6449999483962223
20
-3.4049999815096523
10
4.6449999483962223
20
-2.6549999815096528
10
3.8949999483962223
20
-2.6549999815096528
10
4.6449999483962223
20
-2.6549999815096528
0
LINE
5
138
100
AcDbEntity
8
0
100
AcDbLine
10
3.8949999483962223
20
-1.9049999815096526
30
0
11
3.8949999483962223
21
-1.1549999815096537
31
0
0
LINE
5
139
100
AcDbEntity
8
0
100
AcDbLine
10
3.8949999483962223
20
-1.1549999815096537
30
0
11
4.6449999483962223
21
-1.1549999815096537
31
0
0
LINE
5
140
100
AcDbEntity
8
0
100
AcDbLine
10
4.6449999483962223
20
-1.9049999815096526
30
0
11
3.8949999483962223
21
-1.1549999815096537
31
0
0
LWPOLYLINE
5
141
100
AcDbEntity
8
0
100
AcDbPolyline
90
13
70
1
43
0.0
10
5.3949999393323269
20
-1.4549999778840952
10
5.3949999393323269
20
-2.204999977884095
10
4.6449999393323278
20
-1.4549999778840952
10
5.3949999393323269
20
-1.4549999778840952
10
6.144999939332326
20
-1.4549999778840945
10
6.144999939332326
20
-2.204999977884095
10
6.144999939332326
20
-2.9549999778840954
10
5.3949999393323269
20
-2.9549999778840954
10
5.3949999393323269
20
-2.204999977884095
10
6.144999939332326
20
-2.204999977884095
10
5.3949999393323269
20
-2.204999977884095
10
4.6449999393323278
20
-2.204999977884095
10
5.3949999393323269
20
-2.204999977884095
0
LINE
5
142
100
AcDbEntity
8
0
100
AcDbLine
10
4.6449999393323278
20
-2.204999977884095
30
0
11
4.6449999393323278
21
-1.4549999778840952
31
0
0
LINE
5
143
100
AcDbEntity
8
0
100
AcDbLine
10
4.6449999393323278
20
-2.204999977884095
30
0
11
5.3949999393323269
21
-1.4549999778840952
31
0
0
LWPOLYLINE
5
144
100
AcDbEntity
8
0
100
AcDbPolyline
90
4
70
1
43
0.0
10
2.3949999755879086
20
-2.7549999803011338
10
1.6449999755879083
20
-2.7549999803011338
10
1.6449999755879083
20
-3.5049999803011338
10
2.3949999755879086
20
-3.5049999803011338
0
LINE
5
145
100
AcDbEntity
8
0
100
AcDbLine
10
1.6449999755879083
20
-2.0049999803011338
30
0
11
2.3949999755879086
21
-2.0049999803011338
31
0
0
LINE
5
146
100
AcDbEntity
8
0
100
AcDbLine
10
3.1449999665240127
20
-1.9049999815096526
30
0
11
3.1449999665240127
21
-2.6549999815096528
31
0
0
LWPOLYLINE
5
147
100
AcDbEntity
8
0
100
AcDbPolyline
90
4
70
1
43
0.0
10
3.1449999665240127
20
-2.6549999815096528
10
2.3949999665240127
20
-2.6549999815096528
10
2.3949999665240127
20
-3.4049999815096523
10
3.1449999665240127
20
-3.4049999815096523
0
LINE
5
148
100
AcDbEntity
8
0
100
AcDbLine
10
2.3949999665240127
20
-2.6549999815096528
30
0
11
2.3949999665240127
21
-1.9049999815096526
31
0
0
LINE
5
149
100
AcDbEntity
8
0
100
AcDbLine
10
3.8949999574601182
20
-1.7049999839266921
30
0
11
3.8949999574601182
21
-2.4549999839266916
31
0
0
LINE
5
150
100
AcDbEntity
8
0
100
AcDbLine
10
3.1449999574601177
20
-2.4549999839266916
30
0
11
3.1449999574601177
21
-1.7049999839266921
31
0
0
LWPOLYLINE
5
151
100
AcDbEntity
8
0
100
AcDbPolyline
90
4
70
1
43
0.0
10
3.8949999574601182
20
-2.4549999839266916
10
3.1449999574601177
20
-2.4549999839266916
10
3.1449999574601164
20
-3.2049999839266934
10
3.8949999574601182
20
-3.2049999839266916
0
LWPOLYLINE
5
152
100
AcDbEntity
8
0
100
AcDbPolyline
90
4
70
1
43
0.0
10
5.3949999393323269
20
-2.9549999778840954
10
4.6449999393323278
20
-2.9549999778840954
10
4.6449999393323251
20
-3.7049999778840963
10
5.3949999393323269
20
-3.7049999778840954
0
LINE
5
153
100
AcDbEntity
8
0
100
AcDbLine
10
4.6449999393323278
20
-2.9549999778840954
30
0
11
4.6449999393323278
21
-2.204999977884095
31
0
0
LINE
5
154
100
AcDbEntity
8
0
100
AcDbLine
10
5.3949999393323269
20
-2.9549999778840954
30
0
11
5.3949999393323269
21
-2.204999977884095
31
0
0
LWPOLYLINE
5
155
100
AcDbEntity
8
0
100
AcDbPolyline
90
4
70
1
43
0.0
10
6.144999939332326
20
-2.9549999778840954
10
5.3949999393323269
20
-2.9549999778840954
10
5.3949999393323269
20
-3.7049999778840954
10
6.144999939332326
20
-3.7049999778840954
0
LINE
5
156
100
AcDbEntity
8
0
100
AcDbLine
10
2.3949999665240127
20
-2.6549999815096528
30
0
11
3.1449999665240127
21
-2.6549999815096528
31
0
0
LINE
5
157
100
AcDbEntity
8
0
100
AcDbLine
10
3.1449999574601177
20
-2.4549999839266916
30
0
11
3.8949999574601182
21
-2.4549999839266916
31
0
0
LINE
5
158
100
AcDbEntity
8
0
100
AcDbLine
10
4.6449999393323278
20
-2.9549999778840954
30
0
11
5.3949999393323269
21
-2.9549999778840954
31
0
0
LWPOLYLINE
5
159
100
AcDbEntity
8
0
100
AcDbPolyline
90
4
70
1
43
0.0
10
2.6949999719623503
20
-4.4949999502090012
10
2.6949999719623503
20
-3.7449999502090008
10
1.9449999719623501
20
-3.7449999502090008
10
1.9449999719623501
20
-4.4949999502090012
0
LINE
5
160
100
AcDbEntity
8
0
100
AcDbLine
10
2.6949999719623503
20
-3.7449999502090008
30
0
11
1.9449999719623501
21
-4.4949999502090012
31
0
0
LINE
5
161
100
AcDbEntity
8
0
100
AcDbLine
10
1.9449999719623501
20
-3.7449999502090008
30
0
11
2.6949999719623503
21
-4.4949999502090012
31
0
0
LWPOLYLINE
5
162
100
AcDbEntity
8
0
100
AcDbPolyline
90
4
70
1
43
0.0
10
2.6949999628984549
20
-4.3949999514175211
10
2.6949999628984549
20
-3.6449999514175206
10
3.4449999628984553
20
-3.6449999514175206
10
3.4449999628984553
20
-4.3949999514175211
0
LINE
5
163
100
AcDbEntity
8
0
100
AcDbLine
10
3.4449999628984553
20
-4.3949999514175211
30
0
11
2.6949999628984549
21
-3.6449999514175206
31
0
0
LINE
5
164
100
AcDbEntity
8
0
100
AcDbLine
10
2.6949999628984549
20
-4.3949999514175211
30
0
11
3.4449999628984553
21
-3.6449999514175206
31
0
0
LINE
5
165
100
AcDbEntity
8
0
100
AcDbLine
10
1.2699737717700441
20
-4.1251653540795665
30
0
11
1.5947332981892093
21
-3.9376653540795674
31
0
0
LINE
5
166
100
AcDbEntity
8
0
100
AcDbLine
10
1.2699737717700441
20
-4.1251653540795665
30
0
11
0.94521424535087928
21
-4.3126653540795656
31
0
0
LWPOLYLINE
5
167
100
AcDbEntity
8
0
100
AcDbPolyline
90
3
70
1
43
0.0
10
0.94521424535087928
20
-4.3126653540795656
10
1.1327142453508787
20
-4.6374248804987284
10
0.75771424535087983
20
-3.9879058276604002
0
LINE
5
168
100
AcDbEntity
8
0
100
AcDbLine
10
1.4072332981892099
20
-3.6129058276604016
30
0
11
0.75771424535087983
21
-3.9879058276604002
31
0
0
LINE
5
169
100
AcDbEntity
8
0
100
AcDbLine
10
1.1327142453508787
20
-4.6374248804987284
30
0
11
1.7822332981892084
21
-4.262424880498731
31
0
0
LINE
5
170
100
AcDbEntity
8
0
100
AcDbLine
10
1.7822332981892084
20
-4.262424880498731
30
0
11
1.4072332981892099
21
-3.6129058276604016
31
0
0
LWPOLYLINE
5
171
100
AcDbEntity
8
0
100
AcDbPolyline
90
24
70
1
43
0.0
10
0.49999999395740302
20
-3.6399999560098939
10
0.49999999395740335
20
-2.1499999740168332
42
-0.41421387187884823
10
0.70000014264020061
20
-1.9500000366778079
10
1.3999999830807286
20
-1.9500000366778079
42
0.41421364971334312
10
1.5000000122963069
20
-1.8499999776423914
10
1.500000012296308
20
-1.0499999873105474
42
-0.41421358693755483
10
1.6999999794551706
20
-0.85000000337802462
10
4.6499999438038495
20
-0.85000000337802462
42
-0.41421357281085674
10
4.8499999348637202
20
-1.0499999873105466
10
4.8499999348637202
20
-1.0999999867062868
42
0.41421354149757822
10
4.9499999401782908
20
-1.1999999848935072
10
6.1999999250717988
20
-1.1999999848935079
42
-0.41421356237315676
10
6.3999999232589841
20
-1.3999999830807286
10
6.3999999232589841
20
-3.7499999546805234
42
-0.41421356237304385
10
6.1999999250717996
20
-3.9499999528677439
10
3.6499999558890419
20
-3.9499999528677439
42
0.4142135588334161
10
3.5499999564933042
20
-4.0499999510549651
10
3.5499999564933042
20
-4.4999999456166275
42
-0.4142135623730841
10
3.3999999589103411
20
-4.6499999431995898
10
2.1068027587248936
20
-4.6499999431995889
42
0.14849071781452419
10
1.8324666958824529
20
-4.7333095966306011
10
1.4299999827181726
20
-4.9699999399365868
42
-0.41912442728754357
10
1.1739029252649786
20
-4.9012843359138651
10
0.5470080559553111
20
-3.8167831437523336
42
-0.13288842682094915
0
LINE
5
172
100
AcDbEntity
8
0
100
AcDbLine
10
1.2699737717700441
20
-4.1251653540795665
30
0
11
1.4574737717700437
21
-4.449924880498731
31
0
0
LINE
5
173
100
AcDbEntity
8
0
100
AcDbLine
10
1.2699737717700441
20
-4.1251653540795665
30
0
11
1.082473771770045
21
-3.8004058276604002
31
0
0
ENDSEC
0
SECTION
2
OBJECTS
0
DICTIONARY
5
C
100
AcDbDictionary
3
ACAD_GROUP
350
D
3
ACAD_MLINESTYLE
350
17
0
DICTIONARY
5
D
100
AcDbDictionary
0
DICTIONARY
5
1A
330
C
100
AcDbDictionary
0
DICTIONARY
5
17
100
AcDbDictionary
0
ENDSEC
0
EOF
