<?xml version="1.0" standalone="no"?>
 <!DOCTYPE svg PUBLIC "-//W3C//DTD SVG 1.1//EN" 
 "http://www.w3.org/Graphics/SVG/1.1/DTD/svg11.dtd"> 
<svg
  xmlns:svg="http://www.w3.org/2000/svg"
  xmlns="http://www.w3.org/2000/svg"
  xmlns:xlink="http://www.w3.org/1999/xlink"
  version="1.1"
  width="297.0022mm" height="210.0072mm" viewBox="0.0000 0.0000 297.0022 210.0072">
<title>SVG Image created as usb-board-Edge_Cuts.svg date 2024/07/08 13:03:46 </title>
  <desc>Image generated by PCBNEW </desc>
<g style="fill:#000000; fill-opacity:1.0000;stroke:#000000; stroke-opacity:1.0000;
stroke-linecap:round; stroke-linejoin:round;"
 transform="translate(0 0) scale(1 1)">
</g>
<g style="fill:none; 
stroke:#000000; stroke-width:0.1000; stroke-opacity:1; 
stroke-linecap:round; stroke-linejoin:round;">
<path d="M78.7400 26.6700 A1.2700 1.2700 0.0 0 0 77.4700 27.9400" />
<path d="M29.2100 45.7200 A1.2700 1.2700 0.0 0 0 27.9400 46.9900" />
<path d="M26.6700 55.8800 A1.2700 1.2700 0.0 0 0 27.9400 54.6100" />
<path d="M19.0500 54.6100 A1.2700 1.2700 0.0 0 0 20.3200 55.8800" />
<path d="M20.3200 35.5600 A1.2700 1.2700 0.0 0 0 19.0500 36.8300" />
<path d="M95.2500 45.7200 A1.2700 1.2700 0.0 0 0 96.5200 44.4500" />
<path d="M96.5200 40.6400 A1.2700 1.2700 0.0 0 0 95.2500 39.3700" />
<path d="M93.9800 38.1000 A1.2700 1.2700 0.0 0 0 95.2500 39.3700" />
<path d="M93.9800 27.9400 A1.2700 1.2700 0.0 0 0 92.7100 26.6700" />
<path d="M96.5200 44.4500
L96.5200 40.6400
" />
<path d="M74.9300 35.5600 A2.5400 2.5400 0.0 0 0 77.4700 33.0200" />
<path d="M20.3200 35.5600
L74.9300 35.5600
" />
<path d="M19.0500 54.6100
L19.0500 36.8300
" />
<path d="M26.6700 55.8800
L20.3200 55.8800
" />
<path d="M27.9400 46.9900
L27.9400 54.6100
" />
<path d="M95.2500 45.7200
L29.2100 45.7200
" />
<path d="M92.7100 26.6700
L78.7400 26.6700
" />
<path d="M77.4700 33.0200
L77.4700 27.9400
" />
<path d="M93.9800 27.9400
L93.9800 38.1000
" />
<path d="M78.7400 26.6700 A1.2700 1.2700 0.0 0 0 77.4700 27.9400" />
<path d="M29.2100 45.7200 A1.2700 1.2700 0.0 0 0 27.9400 46.9900" />
<path d="M26.6700 55.8800 A1.2700 1.2700 0.0 0 0 27.9400 54.6100" />
<path d="M19.0500 54.6100 A1.2700 1.2700 0.0 0 0 20.3200 55.8800" />
<path d="M20.3200 35.5600 A1.2700 1.2700 0.0 0 0 19.0500 36.8300" />
<path d="M95.2500 45.7200 A1.2700 1.2700 0.0 0 0 96.5200 44.4500" />
<path d="M96.5200 40.6400 A1.2700 1.2700 0.0 0 0 95.2500 39.3700" />
<path d="M93.9800 38.1000 A1.2700 1.2700 0.0 0 0 95.2500 39.3700" />
<path d="M93.9800 27.9400 A1.2700 1.2700 0.0 0 0 92.7100 26.6700" />
<path d="M96.5200 44.4500
L96.5200 40.6400
" />
<path d="M74.9300 35.5600 A2.5400 2.5400 0.0 0 0 77.4700 33.0200" />
<path d="M20.3200 35.5600
L74.9300 35.5600
" />
<path d="M19.0500 54.6100
L19.0500 36.8300
" />
<path d="M26.6700 55.8800
L20.3200 55.8800
" />
<path d="M27.9400 46.9900
L27.9400 54.6100
" />
<path d="M95.2500 45.7200
L29.2100 45.7200
" />
<path d="M92.7100 26.6700
L78.7400 26.6700
" />
<path d="M77.4700 33.0200
L77.4700 27.9400
" />
<path d="M93.9800 27.9400
L93.9800 38.1000
" />
</g> 
</svg>
