<?xml version="1.0" standalone="no"?>
 <!DOCTYPE svg PUBLIC "-//W3C//DTD SVG 1.1//EN" 
 "http://www.w3.org/Graphics/SVG/1.1/DTD/svg11.dtd"> 
<svg
  xmlns:svg="http://www.w3.org/2000/svg"
  xmlns="http://www.w3.org/2000/svg"
  xmlns:xlink="http://www.w3.org/1999/xlink"
  version="1.1"
  width="297.0022mm" height="210.0072mm" viewBox="0.0000 0.0000 297.0022 210.0072">
<title>SVG Image created as usb-board-B_Mask.svg date 2024/07/08 13:03:46 </title>
  <desc>Image generated by PCBNEW </desc>
<g style="fill:#000000; fill-opacity:1.0000;stroke:#000000; stroke-opacity:1.0000;
stroke-linecap:round; stroke-linejoin:round;"
 transform="translate(0 0) scale(1 1)">
</g>
<g style="fill:#000000; fill-opacity:1.0000; stroke:none;">
<circle cx="21.0980" cy="45.7600" r="0.4500" /> 
</g>
<g style="fill:#000000; fill-opacity:1.0000; stroke:none;">
<circle cx="21.0980" cy="50.7600" r="0.4500" /> 
</g>
<g style="fill:#000000; fill-opacity:1.0000; stroke:none;">
<circle cx="22.2250" cy="38.7350" r="2.2000" /> 
</g>
<g style="fill:#000000; fill-opacity:1.0000; stroke:none;">
<circle cx="93.3450" cy="42.5450" r="2.2000" /> 
<path style="fill:#000000; fill-opacity:1.0000; stroke:none;fill-rule:evenodd;"
d="M 79.5230,31.1600
79.5995,31.1752
79.6644,31.2186
79.7078,31.2835
79.7230,31.3600
79.7230,31.7600
79.7078,31.8365
79.6644,31.9014
79.5995,31.9448
79.5230,31.9600
78.9730,31.9600
78.8965,31.9448
78.8316,31.9014
78.7882,31.8365
78.7730,31.7600
78.7730,31.3600
78.7882,31.2835
78.8316,31.2186
78.8965,31.1752
78.9730,31.1600
Z" /> 
<path style="fill:#000000; fill-opacity:1.0000; stroke:none;fill-rule:evenodd;"
d="M 79.5230,32.8100
79.5995,32.8252
79.6644,32.8686
79.7078,32.9335
79.7230,33.0100
79.7230,33.4100
79.7078,33.4865
79.6644,33.5514
79.5995,33.5948
79.5230,33.6100
78.9730,33.6100
78.8965,33.5948
78.8316,33.5514
78.7882,33.4865
78.7730,33.4100
78.7730,33.0100
78.7882,32.9335
78.8316,32.8686
78.8965,32.8252
78.9730,32.8100
Z" /> 
<path style="fill:#000000; fill-opacity:1.0000; stroke:none;fill-rule:evenodd;"
d="M 61.8426,42.1850
61.8274,42.2615
61.7840,42.3264
61.7191,42.3698
61.6426,42.3850
61.2426,42.3850
61.1661,42.3698
61.1012,42.3264
61.0578,42.2615
61.0426,42.1850
61.0426,41.6350
61.0578,41.5585
61.1012,41.4936
61.1661,41.4502
61.2426,41.4350
61.6426,41.4350
61.7191,41.4502
61.7840,41.4936
61.8274,41.5585
61.8426,41.6350
Z" /> 
<path style="fill:#000000; fill-opacity:1.0000; stroke:none;fill-rule:evenodd;"
d="M 60.1926,42.1850
60.1774,42.2615
60.1340,42.3264
60.0691,42.3698
59.9926,42.3850
59.5926,42.3850
59.5161,42.3698
59.4512,42.3264
59.4078,42.2615
59.3926,42.1850
59.3926,41.6350
59.4078,41.5585
59.4512,41.4936
59.5161,41.4502
59.5926,41.4350
59.9926,41.4350
60.0691,41.4502
60.1340,41.4936
60.1774,41.5585
60.1926,41.6350
Z" /> 
<path style="fill:#000000; fill-opacity:1.0000; stroke:none;fill-rule:evenodd;"
d="M 61.8426,44.3440
61.8274,44.4205
61.7840,44.4854
61.7191,44.5288
61.6426,44.5440
61.2426,44.5440
61.1661,44.5288
61.1012,44.4854
61.0578,44.4205
61.0426,44.3440
61.0426,43.7940
61.0578,43.7175
61.1012,43.6526
61.1661,43.6092
61.2426,43.5940
61.6426,43.5940
61.7191,43.6092
61.7840,43.6526
61.8274,43.7175
61.8426,43.7940
Z" /> 
<path style="fill:#000000; fill-opacity:1.0000; stroke:none;fill-rule:evenodd;"
d="M 60.1926,44.3440
60.1774,44.4205
60.1340,44.4854
60.0691,44.5288
59.9926,44.5440
59.5926,44.5440
59.5161,44.5288
59.4512,44.4854
59.4078,44.4205
59.3926,44.3440
59.3926,43.7940
59.4078,43.7175
59.4512,43.6526
59.5161,43.6092
59.5926,43.5940
59.9926,43.5940
60.0691,43.6092
60.1340,43.6526
60.1774,43.7175
60.1926,43.7940
Z" /> 
<path style="fill:#000000; fill-opacity:1.0000; stroke:none;fill-rule:evenodd;"
d="M 60.1306,38.0180
60.2071,38.0332
60.2720,38.0766
60.3154,38.1415
60.3306,38.2180
60.3306,38.6180
60.3154,38.6945
60.2720,38.7594
60.2071,38.8028
60.1306,38.8180
59.5806,38.8180
59.5041,38.8028
59.4392,38.7594
59.3958,38.6945
59.3806,38.6180
59.3806,38.2180
59.3958,38.1415
59.4392,38.0766
59.5041,38.0332
59.5806,38.0180
Z" /> 
<path style="fill:#000000; fill-opacity:1.0000; stroke:none;fill-rule:evenodd;"
d="M 60.1306,39.6680
60.2071,39.6832
60.2720,39.7266
60.3154,39.7915
60.3306,39.8680
60.3306,40.2680
60.3154,40.3445
60.2720,40.4094
60.2071,40.4528
60.1306,40.4680
59.5806,40.4680
59.5041,40.4528
59.4392,40.4094
59.3958,40.3445
59.3806,40.2680
59.3806,39.8680
59.3958,39.7915
59.4392,39.7266
59.5041,39.6832
59.5806,39.6680
Z" /> 
<path style="fill:#000000; fill-opacity:1.0000; stroke:none;fill-rule:evenodd;"
d="M 55.2016,43.8190
55.2187,43.7329
55.2675,43.6599
55.3405,43.6111
55.4266,43.5940
55.8766,43.5940
55.9627,43.6111
56.0357,43.6599
56.0845,43.7329
56.1016,43.8190
56.1016,44.3190
56.0845,44.4051
56.0357,44.4781
55.9627,44.5269
55.8766,44.5440
55.4266,44.5440
55.3405,44.5269
55.2675,44.4781
55.2187,44.4051
55.2016,44.3190
Z" /> 
<path style="fill:#000000; fill-opacity:1.0000; stroke:none;fill-rule:evenodd;"
d="M 56.7516,43.8190
56.7687,43.7329
56.8175,43.6599
56.8905,43.6111
56.9766,43.5940
57.4266,43.5940
57.5127,43.6111
57.5857,43.6599
57.6345,43.7329
57.6516,43.8190
57.6516,44.3190
57.6345,44.4051
57.5857,44.4781
57.5127,44.5269
57.4266,44.5440
56.9766,44.5440
56.8905,44.5269
56.8175,44.4781
56.7687,44.4051
56.7516,44.3190
Z" /> 
</g>
<g style="fill:#000000; fill-opacity:1.0000; stroke:none;">
<circle cx="82.8350" cy="32.9580" r="0.3250" /> 
</g>
<g style="fill:#000000; fill-opacity:1.0000; stroke:none;">
<circle cx="88.6150" cy="32.9580" r="0.3250" /> 
<path style="fill:#000000; fill-opacity:1.0000; stroke:none;fill-rule:evenodd;"
d="M 82.2250,33.6080
82.2364,33.5506
82.2689,33.5019
82.3176,33.4694
82.3750,33.4580
82.6750,33.4580
82.7324,33.4694
82.7811,33.5019
82.8136,33.5506
82.8250,33.6080
82.8250,34.4580
82.8136,34.5154
82.7811,34.5641
82.7324,34.5966
82.6750,34.6080
82.3750,34.6080
82.3176,34.5966
82.2689,34.5641
82.2364,34.5154
82.2250,34.4580
Z" /> 
<path style="fill:#000000; fill-opacity:1.0000; stroke:none;fill-rule:evenodd;"
d="M 83.0250,33.6080
83.0364,33.5506
83.0689,33.5019
83.1176,33.4694
83.1750,33.4580
83.4750,33.4580
83.5324,33.4694
83.5811,33.5019
83.6136,33.5506
83.6250,33.6080
83.6250,34.4580
83.6136,34.5154
83.5811,34.5641
83.5324,34.5966
83.4750,34.6080
83.1750,34.6080
83.1176,34.5966
83.0689,34.5641
83.0364,34.5154
83.0250,34.4580
Z" /> 
<path style="fill:#000000; fill-opacity:1.0000; stroke:none;fill-rule:evenodd;"
d="M 84.3250,33.5330
84.3307,33.5043
84.3470,33.4800
84.3713,33.4637
84.4000,33.4580
84.5500,33.4580
84.5787,33.4637
84.6030,33.4800
84.6193,33.5043
84.6250,33.5330
84.6250,34.5330
84.6193,34.5617
84.6030,34.5860
84.5787,34.6023
84.5500,34.6080
84.4000,34.6080
84.3713,34.6023
84.3470,34.5860
84.3307,34.5617
84.3250,34.5330
Z" /> 
<path style="fill:#000000; fill-opacity:1.0000; stroke:none;fill-rule:evenodd;"
d="M 85.3250,33.5330
85.3307,33.5043
85.3470,33.4800
85.3713,33.4637
85.4000,33.4580
85.5500,33.4580
85.5787,33.4637
85.6030,33.4800
85.6193,33.5043
85.6250,33.5330
85.6250,34.5330
85.6193,34.5617
85.6030,34.5860
85.5787,34.6023
85.5500,34.6080
85.4000,34.6080
85.3713,34.6023
85.3470,34.5860
85.3307,34.5617
85.3250,34.5330
Z" /> 
<path style="fill:#000000; fill-opacity:1.0000; stroke:none;fill-rule:evenodd;"
d="M 85.8250,33.5330
85.8307,33.5043
85.8470,33.4800
85.8713,33.4637
85.9000,33.4580
86.0500,33.4580
86.0787,33.4637
86.1030,33.4800
86.1193,33.5043
86.1250,33.5330
86.1250,34.5330
86.1193,34.5617
86.1030,34.5860
86.0787,34.6023
86.0500,34.6080
85.9000,34.6080
85.8713,34.6023
85.8470,34.5860
85.8307,34.5617
85.8250,34.5330
Z" /> 
<path style="fill:#000000; fill-opacity:1.0000; stroke:none;fill-rule:evenodd;"
d="M 86.8250,33.5330
86.8307,33.5043
86.8470,33.4800
86.8713,33.4637
86.9000,33.4580
87.0500,33.4580
87.0787,33.4637
87.1030,33.4800
87.1193,33.5043
87.1250,33.5330
87.1250,34.5330
87.1193,34.5617
87.1030,34.5860
87.0787,34.6023
87.0500,34.6080
86.9000,34.6080
86.8713,34.6023
86.8470,34.5860
86.8307,34.5617
86.8250,34.5330
Z" /> 
<path style="fill:#000000; fill-opacity:1.0000; stroke:none;fill-rule:evenodd;"
d="M 87.8250,33.6080
87.8364,33.5506
87.8689,33.5019
87.9176,33.4694
87.9750,33.4580
88.2750,33.4580
88.3324,33.4694
88.3811,33.5019
88.4136,33.5506
88.4250,33.6080
88.4250,34.4580
88.4136,34.5154
88.3811,34.5641
88.3324,34.5966
88.2750,34.6080
87.9750,34.6080
87.9176,34.5966
87.8689,34.5641
87.8364,34.5154
87.8250,34.4580
Z" /> 
<path style="fill:#000000; fill-opacity:1.0000; stroke:none;fill-rule:evenodd;"
d="M 88.6250,33.6080
88.6364,33.5506
88.6689,33.5019
88.7176,33.4694
88.7750,33.4580
89.0750,33.4580
89.1324,33.4694
89.1811,33.5019
89.2136,33.5506
89.2250,33.6080
89.2250,34.4580
89.2136,34.5154
89.1811,34.5641
89.1324,34.5966
89.0750,34.6080
88.7750,34.6080
88.7176,34.5966
88.6689,34.5641
88.6364,34.5154
88.6250,34.4580
Z" /> 
<path style="fill:#000000; fill-opacity:1.0000; stroke:none;fill-rule:evenodd;"
d="M 88.6250,33.6080
88.6364,33.5506
88.6689,33.5019
88.7176,33.4694
88.7750,33.4580
89.0750,33.4580
89.1324,33.4694
89.1811,33.5019
89.2136,33.5506
89.2250,33.6080
89.2250,34.4580
89.2136,34.5154
89.1811,34.5641
89.1324,34.5966
89.0750,34.6080
88.7750,34.6080
88.7176,34.5966
88.6689,34.5641
88.6364,34.5154
88.6250,34.4580
Z" /> 
<path style="fill:#000000; fill-opacity:1.0000; stroke:none;fill-rule:evenodd;"
d="M 87.8250,33.6080
87.8364,33.5506
87.8689,33.5019
87.9176,33.4694
87.9750,33.4580
88.2750,33.4580
88.3324,33.4694
88.3811,33.5019
88.4136,33.5506
88.4250,33.6080
88.4250,34.4580
88.4136,34.5154
88.3811,34.5641
88.3324,34.5966
88.2750,34.6080
87.9750,34.6080
87.9176,34.5966
87.8689,34.5641
87.8364,34.5154
87.8250,34.4580
Z" /> 
<path style="fill:#000000; fill-opacity:1.0000; stroke:none;fill-rule:evenodd;"
d="M 87.3250,33.5330
87.3307,33.5043
87.3470,33.4800
87.3713,33.4637
87.4000,33.4580
87.5500,33.4580
87.5787,33.4637
87.6030,33.4800
87.6193,33.5043
87.6250,33.5330
87.6250,34.5330
87.6193,34.5617
87.6030,34.5860
87.5787,34.6023
87.5500,34.6080
87.4000,34.6080
87.3713,34.6023
87.3470,34.5860
87.3307,34.5617
87.3250,34.5330
Z" /> 
<path style="fill:#000000; fill-opacity:1.0000; stroke:none;fill-rule:evenodd;"
d="M 86.3250,33.5330
86.3307,33.5043
86.3470,33.4800
86.3713,33.4637
86.4000,33.4580
86.5500,33.4580
86.5787,33.4637
86.6030,33.4800
86.6193,33.5043
86.6250,33.5330
86.6250,34.5330
86.6193,34.5617
86.6030,34.5860
86.5787,34.6023
86.5500,34.6080
86.4000,34.6080
86.3713,34.6023
86.3470,34.5860
86.3307,34.5617
86.3250,34.5330
Z" /> 
<path style="fill:#000000; fill-opacity:1.0000; stroke:none;fill-rule:evenodd;"
d="M 84.8250,33.5330
84.8307,33.5043
84.8470,33.4800
84.8713,33.4637
84.9000,33.4580
85.0500,33.4580
85.0787,33.4637
85.1030,33.4800
85.1193,33.5043
85.1250,33.5330
85.1250,34.5330
85.1193,34.5617
85.1030,34.5860
85.0787,34.6023
85.0500,34.6080
84.9000,34.6080
84.8713,34.6023
84.8470,34.5860
84.8307,34.5617
84.8250,34.5330
Z" /> 
<path style="fill:#000000; fill-opacity:1.0000; stroke:none;fill-rule:evenodd;"
d="M 83.8250,33.5330
83.8307,33.5043
83.8470,33.4800
83.8713,33.4637
83.9000,33.4580
84.0500,33.4580
84.0787,33.4637
84.1030,33.4800
84.1193,33.5043
84.1250,33.5330
84.1250,34.5330
84.1193,34.5617
84.1030,34.5860
84.0787,34.6023
84.0500,34.6080
83.9000,34.6080
83.8713,34.6023
83.8470,34.5860
83.8307,34.5617
83.8250,34.5330
Z" /> 
<path style="fill:#000000; fill-opacity:1.0000; stroke:none;fill-rule:evenodd;"
d="M 83.0250,33.6080
83.0364,33.5506
83.0689,33.5019
83.1176,33.4694
83.1750,33.4580
83.4750,33.4580
83.5324,33.4694
83.5811,33.5019
83.6136,33.5506
83.6250,33.6080
83.6250,34.4580
83.6136,34.5154
83.5811,34.5641
83.5324,34.5966
83.4750,34.6080
83.1750,34.6080
83.1176,34.5966
83.0689,34.5641
83.0364,34.5154
83.0250,34.4580
Z" /> 
<path style="fill:#000000; fill-opacity:1.0000; stroke:none;fill-rule:evenodd;"
d="M 82.2250,33.6080
82.2364,33.5506
82.2689,33.5019
82.3176,33.4694
82.3750,33.4580
82.6750,33.4580
82.7324,33.4694
82.7811,33.5019
82.8136,33.5506
82.8250,33.6080
82.8250,34.4580
82.8136,34.5154
82.7811,34.5641
82.7324,34.5966
82.6750,34.6080
82.3750,34.6080
82.3176,34.5966
82.2689,34.5641
82.2364,34.5154
82.2250,34.4580
Z" /> 
</g>
<g style="fill:none; 
stroke:#000000; stroke-width:1.0000; stroke-opacity:1; 
stroke-linecap:round; stroke-linejoin:round;">
<path d="M81.4050 28.8780
L81.4050 29.6780
" />
<path d="M81.4050 32.9080
L81.4050 34.0080
" />
<path d="M90.0450 28.8780
L90.0450 29.6780
" />
<path d="M90.0450 32.9080
L90.0450 34.0080
" />
<path style="fill:#000000; fill-opacity:1.0000; stroke:none;fill-rule:evenodd;"
d="M 57.3931,42.4400
57.3357,42.4286
57.2870,42.3961
57.2545,42.3474
57.2431,42.2900
57.2431,41.2650
57.2545,41.2076
57.2870,41.1589
57.3357,41.1264
57.3931,41.1150
57.6931,41.1150
57.7505,41.1264
57.7992,41.1589
57.8317,41.2076
57.8431,41.2650
57.8431,42.2900
57.8317,42.3474
57.7992,42.3961
57.7505,42.4286
57.6931,42.4400
Z" /> 
<path style="fill:#000000; fill-opacity:1.0000; stroke:none;fill-rule:evenodd;"
d="M 56.4431,42.4400
56.3857,42.4286
56.3370,42.3961
56.3045,42.3474
56.2931,42.2900
56.2931,41.2650
56.3045,41.2076
56.3370,41.1589
56.3857,41.1264
56.4431,41.1150
56.7431,41.1150
56.8005,41.1264
56.8492,41.1589
56.8817,41.2076
56.8931,41.2650
56.8931,42.2900
56.8817,42.3474
56.8492,42.3961
56.8005,42.4286
56.7431,42.4400
Z" /> 
<path style="fill:#000000; fill-opacity:1.0000; stroke:none;fill-rule:evenodd;"
d="M 55.4931,42.4400
55.4357,42.4286
55.3870,42.3961
55.3545,42.3474
55.3431,42.2900
55.3431,41.2650
55.3545,41.2076
55.3870,41.1589
55.4357,41.1264
55.4931,41.1150
55.7931,41.1150
55.8505,41.1264
55.8992,41.1589
55.9317,41.2076
55.9431,41.2650
55.9431,42.2900
55.9317,42.3474
55.8992,42.3961
55.8505,42.4286
55.7931,42.4400
Z" /> 
<path style="fill:#000000; fill-opacity:1.0000; stroke:none;fill-rule:evenodd;"
d="M 55.4931,40.1650
55.4357,40.1536
55.3870,40.1211
55.3545,40.0724
55.3431,40.0150
55.3431,38.9900
55.3545,38.9326
55.3870,38.8839
55.4357,38.8514
55.4931,38.8400
55.7931,38.8400
55.8505,38.8514
55.8992,38.8839
55.9317,38.9326
55.9431,38.9900
55.9431,40.0150
55.9317,40.0724
55.8992,40.1211
55.8505,40.1536
55.7931,40.1650
Z" /> 
<path style="fill:#000000; fill-opacity:1.0000; stroke:none;fill-rule:evenodd;"
d="M 57.3931,40.1650
57.3357,40.1536
57.2870,40.1211
57.2545,40.0724
57.2431,40.0150
57.2431,38.9900
57.2545,38.9326
57.2870,38.8839
57.3357,38.8514
57.3931,38.8400
57.6931,38.8400
57.7505,38.8514
57.7992,38.8839
57.8317,38.9326
57.8431,38.9900
57.8431,40.0150
57.8317,40.0724
57.7992,40.1211
57.7505,40.1536
57.6931,40.1650
Z" /> 
<path style="fill:#000000; fill-opacity:1.0000; stroke:none;fill-rule:evenodd;"
d="M 92.4770,31.1600
92.5535,31.1752
92.6184,31.2186
92.6618,31.2835
92.6770,31.3600
92.6770,31.7600
92.6618,31.8365
92.6184,31.9014
92.5535,31.9448
92.4770,31.9600
91.9270,31.9600
91.8505,31.9448
91.7856,31.9014
91.7422,31.8365
91.7270,31.7600
91.7270,31.3600
91.7422,31.2835
91.7856,31.2186
91.8505,31.1752
91.9270,31.1600
Z" /> 
<path style="fill:#000000; fill-opacity:1.0000; stroke:none;fill-rule:evenodd;"
d="M 92.4770,32.8100
92.5535,32.8252
92.6184,32.8686
92.6618,32.9335
92.6770,33.0100
92.6770,33.4100
92.6618,33.4865
92.6184,33.5514
92.5535,33.5948
92.4770,33.6100
91.9270,33.6100
91.8505,33.5948
91.7856,33.5514
91.7422,33.4865
91.7270,33.4100
91.7270,33.0100
91.7422,32.9335
91.7856,32.8686
91.8505,32.8252
91.9270,32.8100
Z" /> 
<path style="fill:#000000; fill-opacity:1.0000; stroke:none;fill-rule:evenodd;"
d="M 87.6750,36.5800
87.6921,36.4939
87.7409,36.4209
87.8139,36.3721
87.9000,36.3550
88.3500,36.3550
88.4361,36.3721
88.5091,36.4209
88.5579,36.4939
88.5750,36.5800
88.5750,37.0800
88.5579,37.1661
88.5091,37.2391
88.4361,37.2879
88.3500,37.3050
87.9000,37.3050
87.8139,37.2879
87.7409,37.2391
87.6921,37.1661
87.6750,37.0800
Z" /> 
<path style="fill:#000000; fill-opacity:1.0000; stroke:none;fill-rule:evenodd;"
d="M 89.2250,36.5800
89.2421,36.4939
89.2909,36.4209
89.3639,36.3721
89.4500,36.3550
89.9000,36.3550
89.9861,36.3721
90.0591,36.4209
90.1079,36.4939
90.1250,36.5800
90.1250,37.0800
90.1079,37.1661
90.0591,37.2391
89.9861,37.2879
89.9000,37.3050
89.4500,37.3050
89.3639,37.2879
89.2909,37.2391
89.2421,37.1661
89.2250,37.0800
Z" /> 
<path style="fill:#000000; fill-opacity:1.0000; stroke:none;fill-rule:evenodd;"
d="M 81.3250,36.5800
81.3421,36.4939
81.3909,36.4209
81.4639,36.3721
81.5500,36.3550
82.0000,36.3550
82.0861,36.3721
82.1591,36.4209
82.2079,36.4939
82.2250,36.5800
82.2250,37.0800
82.2079,37.1661
82.1591,37.2391
82.0861,37.2879
82.0000,37.3050
81.5500,37.3050
81.4639,37.2879
81.3909,37.2391
81.3421,37.1661
81.3250,37.0800
Z" /> 
<path style="fill:#000000; fill-opacity:1.0000; stroke:none;fill-rule:evenodd;"
d="M 82.8750,36.5800
82.8921,36.4939
82.9409,36.4209
83.0139,36.3721
83.1000,36.3550
83.5500,36.3550
83.6361,36.3721
83.7091,36.4209
83.7579,36.4939
83.7750,36.5800
83.7750,37.0800
83.7579,37.1661
83.7091,37.2391
83.6361,37.2879
83.5500,37.3050
83.1000,37.3050
83.0139,37.2879
82.9409,37.2391
82.8921,37.1661
82.8750,37.0800
Z" /> 
<path style="fill:#000000; fill-opacity:1.0000; stroke:none;fill-rule:evenodd;"
d="M 55.3286,37.0880
55.3457,37.0019
55.3945,36.9289
55.4675,36.8801
55.5536,36.8630
56.0036,36.8630
56.0897,36.8801
56.1627,36.9289
56.2115,37.0019
56.2286,37.0880
56.2286,37.5880
56.2115,37.6741
56.1627,37.7471
56.0897,37.7959
56.0036,37.8130
55.5536,37.8130
55.4675,37.7959
55.3945,37.7471
55.3457,37.6741
55.3286,37.5880
Z" /> 
<path style="fill:#000000; fill-opacity:1.0000; stroke:none;fill-rule:evenodd;"
d="M 56.8786,37.0880
56.8957,37.0019
56.9445,36.9289
57.0175,36.8801
57.1036,36.8630
57.5536,36.8630
57.6397,36.8801
57.7127,36.9289
57.7615,37.0019
57.7786,37.0880
57.7786,37.5880
57.7615,37.6741
57.7127,37.7471
57.6397,37.7959
57.5536,37.8130
57.1036,37.8130
57.0175,37.7959
56.9445,37.7471
56.8957,37.6741
56.8786,37.5880
Z" /> 
</g>
<g style="fill:none; 
stroke:#000000; stroke-width:0.1000; stroke-opacity:1; 
stroke-linecap:round; stroke-linejoin:round;">
<path d="M78.7400 26.6700 A1.2700 1.2700 0.0 0 0 77.4700 27.9400" />
<path d="M29.2100 45.7200 A1.2700 1.2700 0.0 0 0 27.9400 46.9900" />
<path d="M26.6700 55.8800 A1.2700 1.2700 0.0 0 0 27.9400 54.6100" />
<path d="M19.0500 54.6100 A1.2700 1.2700 0.0 0 0 20.3200 55.8800" />
<path d="M20.3200 35.5600 A1.2700 1.2700 0.0 0 0 19.0500 36.8300" />
<path d="M95.2500 45.7200 A1.2700 1.2700 0.0 0 0 96.5200 44.4500" />
<path d="M96.5200 40.6400 A1.2700 1.2700 0.0 0 0 95.2500 39.3700" />
<path d="M93.9800 38.1000 A1.2700 1.2700 0.0 0 0 95.2500 39.3700" />
<path d="M93.9800 27.9400 A1.2700 1.2700 0.0 0 0 92.7100 26.6700" />
<path d="M96.5200 44.4500
L96.5200 40.6400
" />
<path d="M74.9300 35.5600 A2.5400 2.5400 0.0 0 0 77.4700 33.0200" />
<path d="M20.3200 35.5600
L74.9300 35.5600
" />
<path d="M19.0500 54.6100
L19.0500 36.8300
" />
<path d="M26.6700 55.8800
L20.3200 55.8800
" />
<path d="M27.9400 46.9900
L27.9400 54.6100
" />
<path d="M95.2500 45.7200
L29.2100 45.7200
" />
<path d="M92.7100 26.6700
L78.7400 26.6700
" />
<path d="M77.4700 33.0200
L77.4700 27.9400
" />
<path d="M93.9800 27.9400
L93.9800 38.1000
" />
</g> 
</svg>
