<?xml version="1.0" standalone="no"?>
 <!DOCTYPE svg PUBLIC "-//W3C//DTD SVG 1.1//EN" 
 "http://www.w3.org/Graphics/SVG/1.1/DTD/svg11.dtd"> 
<svg
  xmlns:svg="http://www.w3.org/2000/svg"
  xmlns="http://www.w3.org/2000/svg"
  xmlns:xlink="http://www.w3.org/1999/xlink"
  version="1.1"
  width="297.0022mm" height="210.0072mm" viewBox="0.0000 0.0000 297.0022 210.0072">
<title>SVG Image created as usb-board-F_Mask.svg date 2024/07/08 13:03:46 </title>
  <desc>Image generated by PCBNEW </desc>
<g style="fill:#000000; fill-opacity:1.0000;stroke:#000000; stroke-opacity:1.0000;
stroke-linecap:round; stroke-linejoin:round;"
 transform="translate(0 0) scale(1 1)">
</g>
<g style="fill:#000000; fill-opacity:1.0000; stroke:none;">
<circle cx="21.0980" cy="45.7600" r="0.4500" /> 
</g>
<g style="fill:#000000; fill-opacity:1.0000; stroke:none;">
<circle cx="21.0980" cy="50.7600" r="0.4500" /> 
<path style="fill:#000000; fill-opacity:1.0000; stroke:none;fill-rule:evenodd;"
d="M 22.0980,45.7120
22.0590,45.7042
22.0259,45.6821
22.0038,45.6490
21.9960,45.6100
21.9960,44.9100
22.0038,44.8710
22.0259,44.8379
22.0590,44.8158
22.0980,44.8080
23.5980,44.8080
23.6370,44.8158
23.6701,44.8379
23.6922,44.8710
23.7000,44.9100
23.7000,45.6100
23.6922,45.6490
23.6701,45.6821
23.6370,45.7042
23.5980,45.7120
Z" /> 
<path style="fill:#000000; fill-opacity:1.0000; stroke:none;fill-rule:evenodd;"
d="M 22.0980,47.2120
22.0590,47.2042
22.0259,47.1821
22.0038,47.1490
21.9960,47.1100
21.9960,46.4100
22.0038,46.3710
22.0259,46.3379
22.0590,46.3158
22.0980,46.3080
23.5980,46.3080
23.6370,46.3158
23.6701,46.3379
23.6922,46.3710
23.7000,46.4100
23.7000,47.1100
23.6922,47.1490
23.6701,47.1821
23.6370,47.2042
23.5980,47.2120
Z" /> 
<path style="fill:#000000; fill-opacity:1.0000; stroke:none;fill-rule:evenodd;"
d="M 22.0980,50.2120
22.0590,50.2042
22.0259,50.1821
22.0038,50.1490
21.9960,50.1100
21.9960,49.4100
22.0038,49.3710
22.0259,49.3379
22.0590,49.3158
22.0980,49.3080
23.5980,49.3080
23.6370,49.3158
23.6701,49.3379
23.6922,49.3710
23.7000,49.4100
23.7000,50.1100
23.6922,50.1490
23.6701,50.1821
23.6370,50.2042
23.5980,50.2120
Z" /> 
<path style="fill:#000000; fill-opacity:1.0000; stroke:none;fill-rule:evenodd;"
d="M 22.0980,51.7120
22.0590,51.7042
22.0259,51.6821
22.0038,51.6490
21.9960,51.6100
21.9960,50.9100
22.0038,50.8710
22.0259,50.8379
22.0590,50.8158
22.0980,50.8080
23.5980,50.8080
23.6370,50.8158
23.6701,50.8379
23.6922,50.8710
23.7000,50.9100
23.7000,51.6100
23.6922,51.6490
23.6701,51.6821
23.6370,51.7042
23.5980,51.7120
Z" /> 
<path style="fill:#000000; fill-opacity:1.0000; stroke:none;fill-rule:evenodd;"
d="M 22.5980,42.5080
22.6370,42.5158
22.6701,42.5379
22.6922,42.5710
22.7000,42.6100
22.7000,43.6100
22.6922,43.6490
22.6701,43.6821
22.6370,43.7042
22.5980,43.7120
21.7980,43.7120
21.7590,43.7042
21.7259,43.6821
21.7038,43.6490
21.6960,43.6100
21.6960,42.6100
21.7038,42.5710
21.7259,42.5379
21.7590,42.5158
21.7980,42.5080
Z" /> 
<path style="fill:#000000; fill-opacity:1.0000; stroke:none;fill-rule:evenodd;"
d="M 20.3980,42.5080
20.4370,42.5158
20.4701,42.5379
20.4922,42.5710
20.5000,42.6100
20.5000,43.6100
20.4922,43.6490
20.4701,43.6821
20.4370,43.7042
20.3980,43.7120
19.5980,43.7120
19.5590,43.7042
19.5259,43.6821
19.5038,43.6490
19.4960,43.6100
19.4960,42.6100
19.5038,42.5710
19.5259,42.5379
19.5590,42.5158
19.5980,42.5080
Z" /> 
<path style="fill:#000000; fill-opacity:1.0000; stroke:none;fill-rule:evenodd;"
d="M 22.5980,52.8080
22.6370,52.8158
22.6701,52.8379
22.6922,52.8710
22.7000,52.9100
22.7000,53.9100
22.6922,53.9490
22.6701,53.9821
22.6370,54.0042
22.5980,54.0120
21.7980,54.0120
21.7590,54.0042
21.7259,53.9821
21.7038,53.9490
21.6960,53.9100
21.6960,52.9100
21.7038,52.8710
21.7259,52.8379
21.7590,52.8158
21.7980,52.8080
Z" /> 
<path style="fill:#000000; fill-opacity:1.0000; stroke:none;fill-rule:evenodd;"
d="M 20.3980,52.8080
20.4370,52.8158
20.4701,52.8379
20.4922,52.8710
20.5000,52.9100
20.5000,53.9100
20.4922,53.9490
20.4701,53.9821
20.4370,54.0042
20.3980,54.0120
19.5980,54.0120
19.5590,54.0042
19.5259,53.9821
19.5038,53.9490
19.4960,53.9100
19.4960,52.9100
19.5038,52.8710
19.5259,52.8379
19.5590,52.8158
19.5980,52.8080
Z" /> 
<path style="fill:#000000; fill-opacity:1.0000; stroke:none;fill-rule:evenodd;"
d="M 74.0751,41.5394
74.0918,41.4557
74.1392,41.3848
74.2101,41.3374
74.2938,41.3207
74.7313,41.3207
74.8151,41.3374
74.8860,41.3848
74.9334,41.4557
74.9501,41.5394
74.9501,42.0519
74.9334,42.1357
74.8860,42.2066
74.8151,42.2540
74.7313,42.2707
74.2938,42.2707
74.2101,42.2540
74.1392,42.2066
74.0918,42.1357
74.0751,42.0519
Z" /> 
<path style="fill:#000000; fill-opacity:1.0000; stroke:none;fill-rule:evenodd;"
d="M 75.6501,41.5394
75.6668,41.4557
75.7142,41.3848
75.7851,41.3374
75.8688,41.3207
76.3063,41.3207
76.3901,41.3374
76.4610,41.3848
76.5084,41.4557
76.5251,41.5394
76.5251,42.0519
76.5084,42.1357
76.4610,42.2066
76.3901,42.2540
76.3063,42.2707
75.8688,42.2707
75.7851,42.2540
75.7142,42.2066
75.6668,42.1357
75.6501,42.0519
Z" /> 
<path style="fill:#000000; fill-opacity:1.0000; stroke:none;fill-rule:evenodd;"
d="M 68.0726,39.6960
68.0840,39.6386
68.1165,39.5899
68.1652,39.5574
68.2226,39.5460
68.5226,39.5460
68.5800,39.5574
68.6287,39.5899
68.6612,39.6386
68.6726,39.6960
68.6726,40.9460
68.6612,41.0034
68.6287,41.0521
68.5800,41.0846
68.5226,41.0960
68.2226,41.0960
68.1652,41.0846
68.1165,41.0521
68.0840,41.0034
68.0726,40.9460
Z" /> 
<path style="fill:#000000; fill-opacity:1.0000; stroke:none;fill-rule:evenodd;"
d="M 69.0726,39.6960
69.0840,39.6386
69.1165,39.5899
69.1652,39.5574
69.2226,39.5460
69.5226,39.5460
69.5800,39.5574
69.6287,39.5899
69.6612,39.6386
69.6726,39.6960
69.6726,40.9460
69.6612,41.0034
69.6287,41.0521
69.5800,41.0846
69.5226,41.0960
69.2226,41.0960
69.1652,41.0846
69.1165,41.0521
69.0840,41.0034
69.0726,40.9460
Z" /> 
<path style="fill:#000000; fill-opacity:1.0000; stroke:none;fill-rule:evenodd;"
d="M 66.4726,43.5460
66.4916,43.4503
66.5458,43.3692
66.6269,43.3150
66.7226,43.2960
67.4226,43.2960
67.5183,43.3150
67.5994,43.3692
67.6536,43.4503
67.6726,43.5460
67.6726,44.8460
67.6536,44.9417
67.5994,45.0228
67.5183,45.0770
67.4226,45.0960
66.7226,45.0960
66.6269,45.0770
66.5458,45.0228
66.4916,44.9417
66.4726,44.8460
Z" /> 
<path style="fill:#000000; fill-opacity:1.0000; stroke:none;fill-rule:evenodd;"
d="M 70.0726,43.5460
70.0916,43.4503
70.1458,43.3692
70.2269,43.3150
70.3226,43.2960
71.0226,43.2960
71.1183,43.3150
71.1994,43.3692
71.2536,43.4503
71.2726,43.5460
71.2726,44.8460
71.2536,44.9417
71.1994,45.0228
71.1183,45.0770
71.0226,45.0960
70.3226,45.0960
70.2269,45.0770
70.1458,45.0228
70.0916,44.9417
70.0726,44.8460
Z" /> 
</g>
<g style="fill:#000000; fill-opacity:1.0000; stroke:none;">
<circle cx="22.2250" cy="38.7350" r="2.2000" /> 
</g>
<g style="fill:#000000; fill-opacity:1.0000; stroke:none;">
<circle cx="93.3450" cy="42.5450" r="2.2000" /> 
<path style="fill:#000000; fill-opacity:1.0000; stroke:none;fill-rule:evenodd;"
d="M 76.4051,43.8299
76.3884,43.9137
76.3410,43.9846
76.2701,44.0320
76.1863,44.0487
75.7488,44.0487
75.6651,44.0320
75.5942,43.9846
75.5468,43.9137
75.5301,43.8299
75.5301,43.3175
75.5468,43.2337
75.5942,43.1628
75.6651,43.1154
75.7488,43.0987
76.1863,43.0987
76.2701,43.1154
76.3410,43.1628
76.3884,43.2337
76.4051,43.3175
Z" /> 
<path style="fill:#000000; fill-opacity:1.0000; stroke:none;fill-rule:evenodd;"
d="M 74.8301,43.8299
74.8134,43.9137
74.7660,43.9846
74.6951,44.0320
74.6114,44.0487
74.1739,44.0487
74.0901,44.0320
74.0192,43.9846
73.9718,43.9137
73.9551,43.8299
73.9551,43.3175
73.9718,43.2337
74.0192,43.1628
74.0901,43.1154
74.1739,43.0987
74.6114,43.0987
74.6951,43.1154
74.7660,43.1628
74.8134,43.2337
74.8301,43.3175
Z" /> 
</g>
<g style="fill:#000000; fill-opacity:1.0000; stroke:none;">
<circle cx="82.8350" cy="32.9580" r="0.3250" /> 
</g>
<g style="fill:#000000; fill-opacity:1.0000; stroke:none;">
<circle cx="88.6150" cy="32.9580" r="0.3250" /> 
</g>
<g style="fill:none; 
stroke:#000000; stroke-width:1.0000; stroke-opacity:1; 
stroke-linecap:round; stroke-linejoin:round;">
<path d="M81.4050 28.8780
L81.4050 29.6780
" />
<path d="M81.4050 32.9080
L81.4050 34.0080
" />
<path d="M90.0450 28.8780
L90.0450 29.6780
" />
<path d="M90.0450 32.9080
L90.0450 34.0080
" />
<path style="fill:#000000; fill-opacity:1.0000; stroke:none;fill-rule:evenodd;"
d="M 83.7980,39.7676
83.8094,39.7102
83.8419,39.6615
83.8906,39.6290
83.9480,39.6176
84.2480,39.6176
84.3054,39.6290
84.3541,39.6615
84.3866,39.7102
84.3980,39.7676
84.3980,41.0176
84.3866,41.0750
84.3541,41.1237
84.3054,41.1562
84.2480,41.1676
83.9480,41.1676
83.8906,41.1562
83.8419,41.1237
83.8094,41.0750
83.7980,41.0176
Z" /> 
<path style="fill:#000000; fill-opacity:1.0000; stroke:none;fill-rule:evenodd;"
d="M 84.7980,39.7676
84.8094,39.7102
84.8419,39.6615
84.8906,39.6290
84.9480,39.6176
85.2480,39.6176
85.3054,39.6290
85.3541,39.6615
85.3866,39.7102
85.3980,39.7676
85.3980,41.0176
85.3866,41.0750
85.3541,41.1237
85.3054,41.1562
85.2480,41.1676
84.9480,41.1676
84.8906,41.1562
84.8419,41.1237
84.8094,41.0750
84.7980,41.0176
Z" /> 
<path style="fill:#000000; fill-opacity:1.0000; stroke:none;fill-rule:evenodd;"
d="M 85.7980,39.7676
85.8094,39.7102
85.8419,39.6615
85.8906,39.6290
85.9480,39.6176
86.2480,39.6176
86.3054,39.6290
86.3541,39.6615
86.3866,39.7102
86.3980,39.7676
86.3980,41.0176
86.3866,41.0750
86.3541,41.1237
86.3054,41.1562
86.2480,41.1676
85.9480,41.1676
85.8906,41.1562
85.8419,41.1237
85.8094,41.0750
85.7980,41.0176
Z" /> 
<path style="fill:#000000; fill-opacity:1.0000; stroke:none;fill-rule:evenodd;"
d="M 86.7980,39.7676
86.8094,39.7102
86.8419,39.6615
86.8906,39.6290
86.9480,39.6176
87.2480,39.6176
87.3054,39.6290
87.3541,39.6615
87.3866,39.7102
87.3980,39.7676
87.3980,41.0176
87.3866,41.0750
87.3541,41.1237
87.3054,41.1562
87.2480,41.1676
86.9480,41.1676
86.8906,41.1562
86.8419,41.1237
86.8094,41.0750
86.7980,41.0176
Z" /> 
<path style="fill:#000000; fill-opacity:1.0000; stroke:none;fill-rule:evenodd;"
d="M 82.1980,43.6176
82.2170,43.5219
82.2712,43.4408
82.3523,43.3866
82.4480,43.3676
83.1480,43.3676
83.2437,43.3866
83.3248,43.4408
83.3790,43.5219
83.3980,43.6176
83.3980,44.9176
83.3790,45.0133
83.3248,45.0944
83.2437,45.1486
83.1480,45.1676
82.4480,45.1676
82.3523,45.1486
82.2712,45.0944
82.2170,45.0133
82.1980,44.9176
Z" /> 
<path style="fill:#000000; fill-opacity:1.0000; stroke:none;fill-rule:evenodd;"
d="M 87.7980,43.6176
87.8170,43.5219
87.8712,43.4408
87.9523,43.3866
88.0480,43.3676
88.7480,43.3676
88.8437,43.3866
88.9248,43.4408
88.9790,43.5219
88.9980,43.6176
88.9980,44.9176
88.9790,45.0133
88.9248,45.0944
88.8437,45.1486
88.7480,45.1676
88.0480,45.1676
87.9523,45.1486
87.8712,45.0944
87.8170,45.0133
87.7980,44.9176
Z" /> 
</g>
<g style="fill:none; 
stroke:#000000; stroke-width:0.1000; stroke-opacity:1; 
stroke-linecap:round; stroke-linejoin:round;">
<path d="M78.7400 26.6700 A1.2700 1.2700 0.0 0 0 77.4700 27.9400" />
<path d="M29.2100 45.7200 A1.2700 1.2700 0.0 0 0 27.9400 46.9900" />
<path d="M26.6700 55.8800 A1.2700 1.2700 0.0 0 0 27.9400 54.6100" />
<path d="M19.0500 54.6100 A1.2700 1.2700 0.0 0 0 20.3200 55.8800" />
<path d="M20.3200 35.5600 A1.2700 1.2700 0.0 0 0 19.0500 36.8300" />
<path d="M95.2500 45.7200 A1.2700 1.2700 0.0 0 0 96.5200 44.4500" />
<path d="M96.5200 40.6400 A1.2700 1.2700 0.0 0 0 95.2500 39.3700" />
<path d="M93.9800 38.1000 A1.2700 1.2700 0.0 0 0 95.2500 39.3700" />
<path d="M93.9800 27.9400 A1.2700 1.2700 0.0 0 0 92.7100 26.6700" />
<path d="M96.5200 44.4500
L96.5200 40.6400
" />
<path d="M74.9300 35.5600 A2.5400 2.5400 0.0 0 0 77.4700 33.0200" />
<path d="M20.3200 35.5600
L74.9300 35.5600
" />
<path d="M19.0500 54.6100
L19.0500 36.8300
" />
<path d="M26.6700 55.8800
L20.3200 55.8800
" />
<path d="M27.9400 46.9900
L27.9400 54.6100
" />
<path d="M95.2500 45.7200
L29.2100 45.7200
" />
<path d="M92.7100 26.6700
L78.7400 26.6700
" />
<path d="M77.4700 33.0200
L77.4700 27.9400
" />
<path d="M93.9800 27.9400
L93.9800 38.1000
" />
</g> 
</svg>
