<?xml version="1.0" standalone="no"?>
 <!DOCTYPE svg PUBLIC "-//W3C//DTD SVG 1.1//EN" 
 "http://www.w3.org/Graphics/SVG/1.1/DTD/svg11.dtd"> 
<svg
  xmlns:svg="http://www.w3.org/2000/svg"
  xmlns="http://www.w3.org/2000/svg"
  xmlns:xlink="http://www.w3.org/1999/xlink"
  version="1.1"
  width="297.0022mm" height="210.0072mm" viewBox="0.0000 0.0000 297.0022 210.0072">
<title>SVG Image created as rev2-User_Drawings.svg date 2024/07/07 14:44:41 </title>
  <desc>Image generated by PCBNEW </desc>
<g style="fill:#000000; fill-opacity:1.0000;stroke:#000000; stroke-opacity:1.0000;
stroke-linecap:round; stroke-linejoin:round;"
 transform="translate(0 0) scale(1 1)">
</g>
<g style="fill:none; 
stroke:#000000; stroke-width:0.1500; stroke-opacity:1; 
stroke-linecap:round; stroke-linejoin:round;">
<path d="M115.5700 413.5120
L115.5700 422.2750
" />
<path d="M115.5700 125.7300
L115.5700 208.1530
" />
<path d="M106.5530 383.1590
L115.4430 416.4330
" />
<path style="fill:none; 
stroke:#000000; stroke-width:0.1500; stroke-opacity:1; 
stroke-linecap:round; stroke-linejoin:round;fill:none"
d="M 137.4140,126.6190
199.3900,126.6190
199.3900,160.6550
137.4140,160.6550
Z" /> 
<path d="M115.5700 125.7300 A290.8300 290.8300 0.0 0 0 40.2314 135.6575" />
<path d="M40.2548 135.7447
L106.5530 383.1590
" />
<path d="M115.5700 208.1530
L115.5700 413.5120
" />
<g transform="rotate(-90.000000 124.5800 271.1450)">
<text x="124.5800" y="271.6450"
textLength="10.8214" font-size="1.3333" lengthAdjust="spacingAndGlyphs"
text-anchor="middle" opacity="0">290.8300 mm</text>
</g>
<g class="stroked-text"><desc>290.8300 mm</desc>
<path d="M124.1301 276.2402
L124.0824 276.1926
" />
<path d="M124.0824 276.1926
L124.0348 276.0974
" />
<path d="M124.0348 276.0974
L124.0348 275.8593
" />
<path d="M124.0348 275.8593
L124.0824 275.7640
" />
<path d="M124.0824 275.7640
L124.1301 275.7164
" />
<path d="M124.1301 275.7164
L124.2253 275.6688
" />
<path d="M124.2253 275.6688
L124.3205 275.6688
" />
<path d="M124.3205 275.6688
L124.4634 275.7164
" />
<path d="M124.4634 275.7164
L125.0348 276.2879
" />
<path d="M125.0348 276.2879
L125.0348 275.6688
" />
<path d="M125.0348 275.1926
L125.0348 275.0021
" />
<path d="M125.0348 275.0021
L124.9872 274.9069
" />
<path d="M124.9872 274.9069
L124.9396 274.8593
" />
<path d="M124.9396 274.8593
L124.7967 274.7640
" />
<path d="M124.7967 274.7640
L124.6062 274.7164
" />
<path d="M124.6062 274.7164
L124.2253 274.7164
" />
<path d="M124.2253 274.7164
L124.1301 274.7640
" />
<path d="M124.1301 274.7640
L124.0824 274.8117
" />
<path d="M124.0824 274.8117
L124.0348 274.9069
" />
<path d="M124.0348 274.9069
L124.0348 275.0974
" />
<path d="M124.0348 275.0974
L124.0824 275.1926
" />
<path d="M124.0824 275.1926
L124.1301 275.2402
" />
<path d="M124.1301 275.2402
L124.2253 275.2879
" />
<path d="M124.2253 275.2879
L124.4634 275.2879
" />
<path d="M124.4634 275.2879
L124.5586 275.2402
" />
<path d="M124.5586 275.2402
L124.6062 275.1926
" />
<path d="M124.6062 275.1926
L124.6539 275.0974
" />
<path d="M124.6539 275.0974
L124.6539 274.9069
" />
<path d="M124.6539 274.9069
L124.6062 274.8117
" />
<path d="M124.6062 274.8117
L124.5586 274.7640
" />
<path d="M124.5586 274.7640
L124.4634 274.7164
" />
<path d="M124.0348 274.0974
L124.0348 274.0021
" />
<path d="M124.0348 274.0021
L124.0824 273.9069
" />
<path d="M124.0824 273.9069
L124.1301 273.8593
" />
<path d="M124.1301 273.8593
L124.2253 273.8117
" />
<path d="M124.2253 273.8117
L124.4158 273.7640
" />
<path d="M124.4158 273.7640
L124.6539 273.7640
" />
<path d="M124.6539 273.7640
L124.8443 273.8117
" />
<path d="M124.8443 273.8117
L124.9396 273.8593
" />
<path d="M124.9396 273.8593
L124.9872 273.9069
" />
<path d="M124.9872 273.9069
L125.0348 274.0021
" />
<path d="M125.0348 274.0021
L125.0348 274.0974
" />
<path d="M125.0348 274.0974
L124.9872 274.1926
" />
<path d="M124.9872 274.1926
L124.9396 274.2402
" />
<path d="M124.9396 274.2402
L124.8443 274.2879
" />
<path d="M124.8443 274.2879
L124.6539 274.3355
" />
<path d="M124.6539 274.3355
L124.4158 274.3355
" />
<path d="M124.4158 274.3355
L124.2253 274.2879
" />
<path d="M124.2253 274.2879
L124.1301 274.2402
" />
<path d="M124.1301 274.2402
L124.0824 274.1926
" />
<path d="M124.0824 274.1926
L124.0348 274.0974
" />
<path d="M124.9396 273.3355
L124.9872 273.2879
" />
<path d="M124.9872 273.2879
L125.0348 273.3355
" />
<path d="M125.0348 273.3355
L124.9872 273.3831
" />
<path d="M124.9872 273.3831
L124.9396 273.3355
" />
<path d="M124.9396 273.3355
L125.0348 273.3355
" />
<path d="M124.4634 272.7164
L124.4158 272.8117
" />
<path d="M124.4158 272.8117
L124.3682 272.8593
" />
<path d="M124.3682 272.8593
L124.2729 272.9069
" />
<path d="M124.2729 272.9069
L124.2253 272.9069
" />
<path d="M124.2253 272.9069
L124.1301 272.8593
" />
<path d="M124.1301 272.8593
L124.0824 272.8117
" />
<path d="M124.0824 272.8117
L124.0348 272.7164
" />
<path d="M124.0348 272.7164
L124.0348 272.5260
" />
<path d="M124.0348 272.5260
L124.0824 272.4307
" />
<path d="M124.0824 272.4307
L124.1301 272.3831
" />
<path d="M124.1301 272.3831
L124.2253 272.3355
" />
<path d="M124.2253 272.3355
L124.2729 272.3355
" />
<path d="M124.2729 272.3355
L124.3682 272.3831
" />
<path d="M124.3682 272.3831
L124.4158 272.4307
" />
<path d="M124.4158 272.4307
L124.4634 272.5260
" />
<path d="M124.4634 272.5260
L124.4634 272.7164
" />
<path d="M124.4634 272.7164
L124.5110 272.8117
" />
<path d="M124.5110 272.8117
L124.5586 272.8593
" />
<path d="M124.5586 272.8593
L124.6539 272.9069
" />
<path d="M124.6539 272.9069
L124.8443 272.9069
" />
<path d="M124.8443 272.9069
L124.9396 272.8593
" />
<path d="M124.9396 272.8593
L124.9872 272.8117
" />
<path d="M124.9872 272.8117
L125.0348 272.7164
" />
<path d="M125.0348 272.7164
L125.0348 272.5260
" />
<path d="M125.0348 272.5260
L124.9872 272.4307
" />
<path d="M124.9872 272.4307
L124.9396 272.3831
" />
<path d="M124.9396 272.3831
L124.8443 272.3355
" />
<path d="M124.8443 272.3355
L124.6539 272.3355
" />
<path d="M124.6539 272.3355
L124.5586 272.3831
" />
<path d="M124.5586 272.3831
L124.5110 272.4307
" />
<path d="M124.5110 272.4307
L124.4634 272.5260
" />
<path d="M124.0348 272.0021
L124.0348 271.3831
" />
<path d="M124.0348 271.3831
L124.4158 271.7164
" />
<path d="M124.4158 271.7164
L124.4158 271.5736
" />
<path d="M124.4158 271.5736
L124.4634 271.4783
" />
<path d="M124.4634 271.4783
L124.5110 271.4307
" />
<path d="M124.5110 271.4307
L124.6062 271.3831
" />
<path d="M124.6062 271.3831
L124.8443 271.3831
" />
<path d="M124.8443 271.3831
L124.9396 271.4307
" />
<path d="M124.9396 271.4307
L124.9872 271.4783
" />
<path d="M124.9872 271.4783
L125.0348 271.5736
" />
<path d="M125.0348 271.5736
L125.0348 271.8593
" />
<path d="M125.0348 271.8593
L124.9872 271.9545
" />
<path d="M124.9872 271.9545
L124.9396 272.0021
" />
<path d="M124.0348 270.7640
L124.0348 270.6688
" />
<path d="M124.0348 270.6688
L124.0824 270.5736
" />
<path d="M124.0824 270.5736
L124.1301 270.5260
" />
<path d="M124.1301 270.5260
L124.2253 270.4783
" />
<path d="M124.2253 270.4783
L124.4158 270.4307
" />
<path d="M124.4158 270.4307
L124.6539 270.4307
" />
<path d="M124.6539 270.4307
L124.8443 270.4783
" />
<path d="M124.8443 270.4783
L124.9396 270.5260
" />
<path d="M124.9396 270.5260
L124.9872 270.5736
" />
<path d="M124.9872 270.5736
L125.0348 270.6688
" />
<path d="M125.0348 270.6688
L125.0348 270.7640
" />
<path d="M125.0348 270.7640
L124.9872 270.8593
" />
<path d="M124.9872 270.8593
L124.9396 270.9069
" />
<path d="M124.9396 270.9069
L124.8443 270.9545
" />
<path d="M124.8443 270.9545
L124.6539 271.0021
" />
<path d="M124.6539 271.0021
L124.4158 271.0021
" />
<path d="M124.4158 271.0021
L124.2253 270.9545
" />
<path d="M124.2253 270.9545
L124.1301 270.9069
" />
<path d="M124.1301 270.9069
L124.0824 270.8593
" />
<path d="M124.0824 270.8593
L124.0348 270.7640
" />
<path d="M124.0348 269.8117
L124.0348 269.7164
" />
<path d="M124.0348 269.7164
L124.0824 269.6212
" />
<path d="M124.0824 269.6212
L124.1301 269.5736
" />
<path d="M124.1301 269.5736
L124.2253 269.5260
" />
<path d="M124.2253 269.5260
L124.4158 269.4783
" />
<path d="M124.4158 269.4783
L124.6539 269.4783
" />
<path d="M124.6539 269.4783
L124.8443 269.5260
" />
<path d="M124.8443 269.5260
L124.9396 269.5736
" />
<path d="M124.9396 269.5736
L124.9872 269.6212
" />
<path d="M124.9872 269.6212
L125.0348 269.7164
" />
<path d="M125.0348 269.7164
L125.0348 269.8117
" />
<path d="M125.0348 269.8117
L124.9872 269.9069
" />
<path d="M124.9872 269.9069
L124.9396 269.9545
" />
<path d="M124.9396 269.9545
L124.8443 270.0021
" />
<path d="M124.8443 270.0021
L124.6539 270.0498
" />
<path d="M124.6539 270.0498
L124.4158 270.0498
" />
<path d="M124.4158 270.0498
L124.2253 270.0021
" />
<path d="M124.2253 270.0021
L124.1301 269.9545
" />
<path d="M124.1301 269.9545
L124.0824 269.9069
" />
<path d="M124.0824 269.9069
L124.0348 269.8117
" />
<path d="M125.0348 268.2879
L124.3682 268.2879
" />
<path d="M124.4634 268.2879
L124.4158 268.2402
" />
<path d="M124.4158 268.2402
L124.3682 268.1450
" />
<path d="M124.3682 268.1450
L124.3682 268.0021
" />
<path d="M124.3682 268.0021
L124.4158 267.9069
" />
<path d="M124.4158 267.9069
L124.5110 267.8593
" />
<path d="M124.5110 267.8593
L125.0348 267.8593
" />
<path d="M124.5110 267.8593
L124.4158 267.8117
" />
<path d="M124.4158 267.8117
L124.3682 267.7164
" />
<path d="M124.3682 267.7164
L124.3682 267.5736
" />
<path d="M124.3682 267.5736
L124.4158 267.4783
" />
<path d="M124.4158 267.4783
L124.5110 267.4307
" />
<path d="M124.5110 267.4307
L125.0348 267.4307
" />
<path d="M125.0348 266.9545
L124.3682 266.9545
" />
<path d="M124.4634 266.9545
L124.4158 266.9069
" />
<path d="M124.4158 266.9069
L124.3682 266.8117
" />
<path d="M124.3682 266.8117
L124.3682 266.6688
" />
<path d="M124.3682 266.6688
L124.4158 266.5736
" />
<path d="M124.4158 266.5736
L124.5110 266.5260
" />
<path d="M124.5110 266.5260
L125.0348 266.5260
" />
<path d="M124.5110 266.5260
L124.4158 266.4783
" />
<path d="M124.4158 266.4783
L124.3682 266.3831
" />
<path d="M124.3682 266.3831
L124.3682 266.2402
" />
<path d="M124.3682 266.2402
L124.4158 266.1450
" />
<path d="M124.4158 266.1450
L124.5110 266.0974
" />
<path d="M124.5110 266.0974
L125.0348 266.0974
" />
</g></g>
<g style="fill:none; 
stroke:#000000; stroke-width:0.1000; stroke-opacity:1; 
stroke-linecap:round; stroke-linejoin:round;">
<path d="M116.0700 125.7300
L126.3164 125.7300
" />
<path d="M116.0700 416.5600
L126.3164 416.5600
" />
<path d="M125.7300 125.7300
L125.7300 416.5600
" />
<path d="M125.7300 125.7300
L125.7300 416.5600
" />
<path d="M125.7300 125.7300
L126.3164 126.8565
" />
<path d="M125.7300 125.7300
L125.1436 126.8565
" />
<path d="M125.7300 416.5600
L125.1436 415.4335
" />
<path d="M125.7300 416.5600
L126.3164 415.4335
" />
</g>
<g style="fill:none; 
stroke:#000000; stroke-width:0.1500; stroke-opacity:1; 
stroke-linecap:round; stroke-linejoin:round;">
<text x="41.2750" y="94.0725"
textLength="5.2024" font-size="1.3333" lengthAdjust="spacingAndGlyphs"
text-anchor="middle" opacity="0">SW128</text>
<g class="stroked-text"><desc>SW128</desc>
<path d="M38.9893 93.9797
L39.1321 94.0273
" />
<path d="M39.1321 94.0273
L39.3702 94.0273
" />
<path d="M39.3702 94.0273
L39.4655 93.9797
" />
<path d="M39.4655 93.9797
L39.5131 93.9321
" />
<path d="M39.5131 93.9321
L39.5607 93.8368
" />
<path d="M39.5607 93.8368
L39.5607 93.7416
" />
<path d="M39.5607 93.7416
L39.5131 93.6464
" />
<path d="M39.5131 93.6464
L39.4655 93.5987
" />
<path d="M39.4655 93.5987
L39.3702 93.5511
" />
<path d="M39.3702 93.5511
L39.1798 93.5035
" />
<path d="M39.1798 93.5035
L39.0845 93.4559
" />
<path d="M39.0845 93.4559
L39.0369 93.4083
" />
<path d="M39.0369 93.4083
L38.9893 93.3130
" />
<path d="M38.9893 93.3130
L38.9893 93.2178
" />
<path d="M38.9893 93.2178
L39.0369 93.1226
" />
<path d="M39.0369 93.1226
L39.0845 93.0749
" />
<path d="M39.0845 93.0749
L39.1798 93.0273
" />
<path d="M39.1798 93.0273
L39.4179 93.0273
" />
<path d="M39.4179 93.0273
L39.5607 93.0749
" />
<path d="M39.8940 93.0273
L40.1321 94.0273
" />
<path d="M40.1321 94.0273
L40.3226 93.3130
" />
<path d="M40.3226 93.3130
L40.5131 94.0273
" />
<path d="M40.5131 94.0273
L40.7512 93.0273
" />
<path d="M41.6560 94.0273
L41.0845 94.0273
" />
<path d="M41.3702 94.0273
L41.3702 93.0273
" />
<path d="M41.3702 93.0273
L41.2750 93.1702
" />
<path d="M41.2750 93.1702
L41.1798 93.2654
" />
<path d="M41.1798 93.2654
L41.0845 93.3130
" />
<path d="M42.0369 93.1226
L42.0845 93.0749
" />
<path d="M42.0845 93.0749
L42.1798 93.0273
" />
<path d="M42.1798 93.0273
L42.4179 93.0273
" />
<path d="M42.4179 93.0273
L42.5131 93.0749
" />
<path d="M42.5131 93.0749
L42.5607 93.1226
" />
<path d="M42.5607 93.1226
L42.6083 93.2178
" />
<path d="M42.6083 93.2178
L42.6083 93.3130
" />
<path d="M42.6083 93.3130
L42.5607 93.4559
" />
<path d="M42.5607 93.4559
L41.9893 94.0273
" />
<path d="M41.9893 94.0273
L42.6083 94.0273
" />
<path d="M43.1798 93.4559
L43.0845 93.4083
" />
<path d="M43.0845 93.4083
L43.0369 93.3607
" />
<path d="M43.0369 93.3607
L42.9893 93.2654
" />
<path d="M42.9893 93.2654
L42.9893 93.2178
" />
<path d="M42.9893 93.2178
L43.0369 93.1226
" />
<path d="M43.0369 93.1226
L43.0845 93.0749
" />
<path d="M43.0845 93.0749
L43.1798 93.0273
" />
<path d="M43.1798 93.0273
L43.3702 93.0273
" />
<path d="M43.3702 93.0273
L43.4655 93.0749
" />
<path d="M43.4655 93.0749
L43.5131 93.1226
" />
<path d="M43.5131 93.1226
L43.5607 93.2178
" />
<path d="M43.5607 93.2178
L43.5607 93.2654
" />
<path d="M43.5607 93.2654
L43.5131 93.3607
" />
<path d="M43.5131 93.3607
L43.4655 93.4083
" />
<path d="M43.4655 93.4083
L43.3702 93.4559
" />
<path d="M43.3702 93.4559
L43.1798 93.4559
" />
<path d="M43.1798 93.4559
L43.0845 93.5035
" />
<path d="M43.0845 93.5035
L43.0369 93.5511
" />
<path d="M43.0369 93.5511
L42.9893 93.6464
" />
<path d="M42.9893 93.6464
L42.9893 93.8368
" />
<path d="M42.9893 93.8368
L43.0369 93.9321
" />
<path d="M43.0369 93.9321
L43.0845 93.9797
" />
<path d="M43.0845 93.9797
L43.1798 94.0273
" />
<path d="M43.1798 94.0273
L43.3702 94.0273
" />
<path d="M43.3702 94.0273
L43.4655 93.9797
" />
<path d="M43.4655 93.9797
L43.5131 93.9321
" />
<path d="M43.5131 93.9321
L43.5607 93.8368
" />
<path d="M43.5607 93.8368
L43.5607 93.6464
" />
<path d="M43.5607 93.6464
L43.5131 93.5511
" />
<path d="M43.5131 93.5511
L43.4655 93.5035
" />
<path d="M43.4655 93.5035
L43.3702 93.4559
" />
</g></g>
<g style="fill:none; 
stroke:#000000; stroke-width:0.1200; stroke-opacity:1; 
stroke-linecap:round; stroke-linejoin:round;">
<path d="M127.0000 78.7400
L146.0500 78.7400
" />
<path d="M127.0000 97.7900
L127.0000 78.7400
" />
<path d="M129.5250 81.2650
L129.5250 95.2650
" />
<path d="M129.5250 81.2650
L143.5250 81.2650
" />
<path d="M143.5250 81.2650
L143.5250 95.2650
" />
<path d="M143.5250 95.2650
L129.5250 95.2650
" />
<path d="M146.0500 78.7400
L146.0500 97.7900
" />
<path d="M146.0500 97.7900
L127.0000 97.7900
" />
<path d="M127.0000 97.7900
L146.0500 97.7900
" />
<path d="M127.0000 116.8400
L127.0000 97.7900
" />
<path d="M129.5250 100.3150
L129.5250 114.3150
" />
<path d="M129.5250 100.3150
L143.5250 100.3150
" />
<path d="M143.5250 100.3150
L143.5250 114.3150
" />
<path d="M143.5250 114.3150
L129.5250 114.3150
" />
<path d="M146.0500 97.7900
L146.0500 116.8400
" />
<path d="M146.0500 116.8400
L127.0000 116.8400
" />
<path d="M35.3243 117.3438
L53.7252 112.4133
" />
<path d="M38.4168 119.1293
L42.0403 132.6522
" />
<path d="M38.4168 119.1293
L51.9397 115.5058
" />
<path d="M40.2548 135.7447
L35.3243 117.3438
" />
<path d="M51.9397 115.5058
L55.5632 129.0287
" />
<path d="M53.7252 112.4133
L58.6557 130.8142
" />
<path d="M55.5632 129.0287
L42.0403 132.6522
" />
<path d="M58.6557 130.8142
L40.2548 135.7447
" />
<path d="M31.7500 54.6100
L50.8000 54.6100
" />
<path d="M31.7500 73.6600
L31.7500 54.6100
" />
<path d="M34.2750 57.1350
L34.2750 71.1350
" />
<path d="M34.2750 57.1350
L48.2750 57.1350
" />
<path d="M48.2750 57.1350
L48.2750 71.1350
" />
<path d="M48.2750 71.1350
L34.2750 71.1350
" />
<path d="M50.8000 54.6100
L50.8000 73.6600
" />
<path d="M50.8000 73.6600
L31.7500 73.6600
" />
<path d="M107.9500 49.5300
L127.0000 49.5300
" />
<path d="M107.9500 68.5800
L107.9500 49.5300
" />
<path d="M110.4750 52.0550
L110.4750 66.0550
" />
<path d="M110.4750 52.0550
L124.4750 52.0550
" />
<path d="M124.4750 52.0550
L124.4750 66.0550
" />
<path d="M124.4750 66.0550
L110.4750 66.0550
" />
<path d="M127.0000 49.5300
L127.0000 68.5800
" />
<path d="M127.0000 68.5800
L107.9500 68.5800
" />
<path d="M88.9000 25.4000
L107.9500 25.4000
" />
<path d="M88.9000 44.4500
L88.9000 25.4000
" />
<path d="M91.4250 27.9250
L91.4250 41.9250
" />
<path d="M91.4250 27.9250
L105.4250 27.9250
" />
<path d="M105.4250 27.9250
L105.4250 41.9250
" />
<path d="M105.4250 41.9250
L91.4250 41.9250
" />
<path d="M107.9500 25.4000
L107.9500 44.4500
" />
<path d="M107.9500 44.4500
L88.9000 44.4500
" />
<path d="M50.8000 33.0200
L69.8500 33.0200
" />
<path d="M50.8000 52.0700
L50.8000 33.0200
" />
<path d="M53.3250 35.5450
L53.3250 49.5450
" />
<path d="M53.3250 35.5450
L67.3250 35.5450
" />
<path d="M67.3250 35.5450
L67.3250 49.5450
" />
<path d="M67.3250 49.5450
L53.3250 49.5450
" />
<path d="M69.8500 33.0200
L69.8500 52.0700
" />
<path d="M69.8500 52.0700
L50.8000 52.0700
" />
<path d="M88.9000 63.5000
L107.9500 63.5000
" />
<path d="M88.9000 82.5500
L88.9000 63.5000
" />
<path d="M91.4250 66.0250
L91.4250 80.0250
" />
<path d="M91.4250 66.0250
L105.4250 66.0250
" />
<path d="M105.4250 66.0250
L105.4250 80.0250
" />
<path d="M105.4250 80.0250
L91.4250 80.0250
" />
<path d="M107.9500 63.5000
L107.9500 82.5500
" />
<path d="M107.9500 82.5500
L88.9000 82.5500
" />
<path d="M146.0500 40.6400
L165.1000 40.6400
" />
<path d="M146.0500 59.6900
L146.0500 40.6400
" />
<path d="M148.5750 43.1650
L148.5750 57.1650
" />
<path d="M148.5750 43.1650
L162.5750 43.1650
" />
<path d="M162.5750 43.1650
L162.5750 57.1650
" />
<path d="M162.5750 57.1650
L148.5750 57.1650
" />
<path d="M165.1000 40.6400
L165.1000 59.6900
" />
<path d="M165.1000 59.6900
L146.0500 59.6900
" />
<path d="M31.7500 73.6600
L50.8000 73.6600
" />
<path d="M31.7500 92.7100
L31.7500 73.6600
" />
<path d="M34.2750 76.1850
L34.2750 90.1850
" />
<path d="M34.2750 76.1850
L48.2750 76.1850
" />
<path d="M48.2750 76.1850
L48.2750 90.1850
" />
<path d="M48.2750 90.1850
L34.2750 90.1850
" />
<path d="M50.8000 73.6600
L50.8000 92.7100
" />
<path d="M50.8000 92.7100
L31.7500 92.7100
" />
<path d="M146.0500 78.7400
L165.1000 78.7400
" />
<path d="M146.0500 97.7900
L146.0500 78.7400
" />
<path d="M148.5750 81.2650
L148.5750 95.2650
" />
<path d="M148.5750 81.2650
L162.5750 81.2650
" />
<path d="M162.5750 81.2650
L162.5750 95.2650
" />
<path d="M162.5750 95.2650
L148.5750 95.2650
" />
<path d="M165.1000 78.7400
L165.1000 97.7900
" />
<path d="M165.1000 97.7900
L146.0500 97.7900
" />
<path d="M88.9000 82.5500
L107.9500 82.5500
" />
<path d="M88.9000 101.6000
L88.9000 82.5500
" />
<path d="M91.4250 85.0750
L91.4250 99.0750
" />
<path d="M91.4250 85.0750
L105.4250 85.0750
" />
<path d="M105.4250 85.0750
L105.4250 99.0750
" />
<path d="M105.4250 99.0750
L91.4250 99.0750
" />
<path d="M107.9500 82.5500
L107.9500 101.6000
" />
<path d="M107.9500 101.6000
L88.9000 101.6000
" />
<path d="M88.9000 44.4500
L107.9500 44.4500
" />
<path d="M88.9000 63.5000
L88.9000 44.4500
" />
<path d="M91.4250 46.9750
L91.4250 60.9750
" />
<path d="M91.4250 46.9750
L105.4250 46.9750
" />
<path d="M105.4250 46.9750
L105.4250 60.9750
" />
<path d="M105.4250 60.9750
L91.4250 60.9750
" />
<path d="M107.9500 44.4500
L107.9500 63.5000
" />
<path d="M107.9500 63.5000
L88.9000 63.5000
" />
<path d="M50.8000 90.1700
L69.8500 90.1700
" />
<path d="M50.8000 109.2200
L50.8000 90.1700
" />
<path d="M53.3250 92.6950
L53.3250 106.6950
" />
<path d="M53.3250 92.6950
L67.3250 92.6950
" />
<path d="M67.3250 92.6950
L67.3250 106.6950
" />
<path d="M67.3250 106.6950
L53.3250 106.6950
" />
<path d="M69.8500 90.1700
L69.8500 109.2200
" />
<path d="M69.8500 109.2200
L50.8000 109.2200
" />
<path d="M31.7500 92.7100
L50.8000 92.7100
" />
<path d="M31.7500 111.7600
L31.7500 92.7100
" />
<path d="M34.2750 95.2350
L34.2750 109.2350
" />
<path d="M34.2750 95.2350
L48.2750 95.2350
" />
<path d="M48.2750 95.2350
L48.2750 109.2350
" />
<path d="M48.2750 109.2350
L34.2750 109.2350
" />
<path d="M50.8000 92.7100
L50.8000 111.7600
" />
<path d="M50.8000 111.7600
L31.7500 111.7600
" />
<path d="M50.8000 52.0700
L69.8500 52.0700
" />
<path d="M50.8000 71.1200
L50.8000 52.0700
" />
<path d="M53.3250 54.5950
L53.3250 68.5950
" />
<path d="M53.3250 54.5950
L67.3250 54.5950
" />
<path d="M67.3250 54.5950
L67.3250 68.5950
" />
<path d="M67.3250 68.5950
L53.3250 68.5950
" />
<path d="M69.8500 52.0700
L69.8500 71.1200
" />
<path d="M69.8500 71.1200
L50.8000 71.1200
" />
<path d="M69.8500 68.5800
L88.9000 68.5800
" />
<path d="M69.8500 87.6300
L69.8500 68.5800
" />
<path d="M72.3750 71.1050
L72.3750 85.1050
" />
<path d="M72.3750 71.1050
L86.3750 71.1050
" />
<path d="M86.3750 71.1050
L86.3750 85.1050
" />
<path d="M86.3750 85.1050
L72.3750 85.1050
" />
<path d="M88.9000 68.5800
L88.9000 87.6300
" />
<path d="M88.9000 87.6300
L69.8500 87.6300
" />
<path d="M146.0500 59.6900
L165.1000 59.6900
" />
<path d="M146.0500 78.7400
L146.0500 59.6900
" />
<path d="M148.5750 62.2150
L148.5750 76.2150
" />
<path d="M148.5750 62.2150
L162.5750 62.2150
" />
<path d="M162.5750 62.2150
L162.5750 76.2150
" />
<path d="M162.5750 76.2150
L148.5750 76.2150
" />
<path d="M165.1000 59.6900
L165.1000 78.7400
" />
<path d="M165.1000 78.7400
L146.0500 78.7400
" />
<path d="M75.8064 108.4354
L94.7839 106.7751
" />
<path d="M77.4667 127.4129
L75.8064 108.4354
" />
<path d="M78.5419 110.7307
L79.7621 124.6775
" />
<path d="M78.5419 110.7307
L92.4886 109.5105
" />
<path d="M92.4886 109.5105
L93.7088 123.4573
" />
<path d="M93.7088 123.4573
L79.7621 124.6775
" />
<path d="M94.7839 106.7751
L96.4442 125.7526
" />
<path d="M96.4442 125.7526
L77.4667 127.4129
" />
<path d="M127.0000 40.6400
L146.0500 40.6400
" />
<path d="M127.0000 59.6900
L127.0000 40.6400
" />
<path d="M129.5250 43.1650
L129.5250 57.1650
" />
<path d="M129.5250 43.1650
L143.5250 43.1650
" />
<path d="M143.5250 43.1650
L143.5250 57.1650
" />
<path d="M143.5250 57.1650
L129.5250 57.1650
" />
<path d="M146.0500 40.6400
L146.0500 59.6900
" />
<path d="M146.0500 59.6900
L127.0000 59.6900
" />
<path d="M127.0000 59.6900
L146.0500 59.6900
" />
<path d="M127.0000 78.7400
L127.0000 59.6900
" />
<path d="M129.5250 62.2150
L129.5250 76.2150
" />
<path d="M129.5250 62.2150
L143.5250 62.2150
" />
<path d="M143.5250 62.2150
L143.5250 76.2150
" />
<path d="M143.5250 76.2150
L129.5250 76.2150
" />
<path d="M146.0500 59.6900
L146.0500 78.7400
" />
<path d="M146.0500 78.7400
L127.0000 78.7400
" />
<path d="M31.7500 35.5600
L50.8000 35.5600
" />
<path d="M31.7500 54.6100
L31.7500 35.5600
" />
<path d="M34.2750 38.0850
L34.2750 52.0850
" />
<path d="M34.2750 38.0850
L48.2750 38.0850
" />
<path d="M48.2750 38.0850
L48.2750 52.0850
" />
<path d="M48.2750 52.0850
L34.2750 52.0850
" />
<path d="M50.8000 35.5600
L50.8000 54.6100
" />
<path d="M50.8000 54.6100
L31.7500 54.6100
" />
<path d="M50.8000 71.1200
L69.8500 71.1200
" />
<path d="M50.8000 90.1700
L50.8000 71.1200
" />
<path d="M53.3250 73.6450
L53.3250 87.6450
" />
<path d="M53.3250 73.6450
L67.3250 73.6450
" />
<path d="M67.3250 73.6450
L67.3250 87.6450
" />
<path d="M67.3250 87.6450
L53.3250 87.6450
" />
<path d="M69.8500 71.1200
L69.8500 90.1700
" />
<path d="M69.8500 90.1700
L50.8000 90.1700
" />
<path d="M69.8500 49.5300
L88.9000 49.5300
" />
<path d="M69.8500 68.5800
L69.8500 49.5300
" />
<path d="M72.3750 52.0550
L72.3750 66.0550
" />
<path d="M72.3750 52.0550
L86.3750 52.0550
" />
<path d="M86.3750 52.0550
L86.3750 66.0550
" />
<path d="M86.3750 66.0550
L72.3750 66.0550
" />
<path d="M88.9000 49.5300
L88.9000 68.5800
" />
<path d="M88.9000 68.5800
L69.8500 68.5800
" />
<path d="M69.8500 30.4800
L88.9000 30.4800
" />
<path d="M69.8500 49.5300
L69.8500 30.4800
" />
<path d="M72.3750 33.0050
L72.3750 47.0050
" />
<path d="M72.3750 33.0050
L86.3750 33.0050
" />
<path d="M86.3750 33.0050
L86.3750 47.0050
" />
<path d="M86.3750 47.0050
L72.3750 47.0050
" />
<path d="M88.9000 30.4800
L88.9000 49.5300
" />
<path d="M88.9000 49.5300
L69.8500 49.5300
" />
<path d="M96.5200 106.6800
L115.5700 106.6800
" />
<path d="M96.5200 125.7300
L96.5200 106.6800
" />
<path d="M99.0450 109.2050
L99.0450 123.2050
" />
<path d="M99.0450 109.2050
L113.0450 109.2050
" />
<path d="M113.0450 109.2050
L113.0450 123.2050
" />
<path d="M113.0450 123.2050
L99.0450 123.2050
" />
<path d="M115.5700 106.6800
L115.5700 125.7300
" />
<path d="M115.5700 125.7300
L96.5200 125.7300
" />
<path d="M107.9500 87.6300
L127.0000 87.6300
" />
<path d="M107.9500 106.6800
L107.9500 87.6300
" />
<path d="M110.4750 90.1550
L110.4750 104.1550
" />
<path d="M110.4750 90.1550
L124.4750 90.1550
" />
<path d="M124.4750 90.1550
L124.4750 104.1550
" />
<path d="M124.4750 104.1550
L110.4750 104.1550
" />
<path d="M127.0000 87.6300
L127.0000 106.6800
" />
<path d="M127.0000 106.6800
L107.9500 106.6800
" />
<path d="M107.9500 30.4800
L127.0000 30.4800
" />
<path d="M107.9500 49.5300
L107.9500 30.4800
" />
<path d="M110.4750 33.0050
L110.4750 47.0050
" />
<path d="M110.4750 33.0050
L124.4750 33.0050
" />
<path d="M124.4750 33.0050
L124.4750 47.0050
" />
<path d="M124.4750 47.0050
L110.4750 47.0050
" />
<path d="M127.0000 30.4800
L127.0000 49.5300
" />
<path d="M127.0000 49.5300
L107.9500 49.5300
" />
<path d="M69.8500 87.6300
L88.9000 87.6300
" />
<path d="M69.8500 106.6800
L69.8500 87.6300
" />
<path d="M72.3750 90.1550
L72.3750 104.1550
" />
<path d="M72.3750 90.1550
L86.3750 90.1550
" />
<path d="M86.3750 90.1550
L86.3750 104.1550
" />
<path d="M86.3750 104.1550
L72.3750 104.1550
" />
<path d="M88.9000 87.6300
L88.9000 106.6800
" />
<path d="M88.9000 106.6800
L69.8500 106.6800
" />
<path d="M107.9500 68.5800
L127.0000 68.5800
" />
<path d="M107.9500 87.6300
L107.9500 68.5800
" />
<path d="M110.4750 71.1050
L110.4750 85.1050
" />
<path d="M110.4750 71.1050
L124.4750 71.1050
" />
<path d="M124.4750 71.1050
L124.4750 85.1050
" />
<path d="M124.4750 85.1050
L110.4750 85.1050
" />
<path d="M127.0000 68.5800
L127.0000 87.6300
" />
<path d="M127.0000 87.6300
L107.9500 87.6300
" />
<path d="M55.3867 112.0347
L74.1473 108.7267
" />
<path d="M58.3118 114.0829
L60.7429 127.8702
" />
<path d="M58.3118 114.0829
L72.0991 111.6518
" />
<path d="M58.6947 130.7953
L55.3867 112.0347
" />
<path d="M72.0991 111.6518
L74.5302 125.4391
" />
<path d="M74.1473 108.7267
L77.4553 127.4873
" />
<path d="M74.5302 125.4391
L60.7429 127.8702
" />
<path d="M77.4553 127.4873
L58.6947 130.7953
" />
<path d="M146.0500 97.7900
L165.1000 97.7900
" />
<path d="M146.0500 116.8400
L146.0500 97.7900
" />
<path d="M148.5750 100.3150
L148.5750 114.3150
" />
<path d="M148.5750 100.3150
L162.5750 100.3150
" />
<path d="M162.5750 100.3150
L162.5750 114.3150
" />
<path d="M162.5750 114.3150
L148.5750 114.3150
" />
<path d="M165.1000 97.7900
L165.1000 116.8400
" />
<path d="M165.1000 116.8400
L146.0500 116.8400
" />
</g>
<g style="fill:none; 
stroke:#000000; stroke-width:0.1000; stroke-opacity:1; 
stroke-linecap:round; stroke-linejoin:round;">
<path d="M127.0000 107.6960 A1.0160 1.0160 0.0 0 0 125.9840 106.6800" />
<path d="M116.5860 106.6800 A1.0160 1.0160 0.0 0 0 115.5700 107.6960" />
<path d="M127.0000 115.3160 A1.5240 1.5240 0.0 0 0 128.5240 116.8400" />
<path d="M115.5700 107.6960
L115.5700 119.3800
" />
<path d="M125.9840 106.6800
L116.5860 106.6800
" />
<path d="M127.0000 115.3160
L127.0000 107.6960
" />
<path d="M33.0200 111.7600
L50.8000 111.7600
" />
<path d="M33.0200 35.5600 A1.2700 1.2700 0.0 0 0 31.7500 36.8300" />
<path d="M87.6300 30.4800 A1.2700 1.2700 0.0 0 0 88.8910 29.2100" />
<path d="M31.7500 36.8300
L31.7500 110.4900
" />
<path d="M68.5800 33.0200
L52.0700 33.0200
" />
<path d="M107.9410 26.6700
L107.9410 29.2100
" />
<path d="M40.2625 135.6492
L35.3060 117.3480
" />
<path d="M114.3000 125.7300 A1.2700 1.2700 0.0 0 0 115.5700 124.4600" />
<path d="M126.9910 31.7500 A1.2700 1.2700 0.0 0 0 125.7210 30.4800" />
<path d="M165.0910 43.1800
L165.1000 114.3000
" />
<path d="M49.5300 35.5600 A1.2700 1.2700 0.0 0 0 50.8000 34.2900" />
<path d="M68.5800 33.0200 A1.2700 1.2700 0.0 0 0 69.8500 31.7500" />
<path d="M165.0910 43.1800 A2.5400 2.5400 0.0 0 0 162.5510 40.6400" />
<path d="M90.1610 25.4000 A1.2700 1.2700 0.0 0 0 88.8910 26.6700" />
<path d="M126.9910 31.7500
L126.9910 39.3700
" />
<path d="M52.0700 33.0200 A1.2700 1.2700 0.0 0 0 50.8000 34.2900" />
<path d="M107.9410 26.6700 A1.2700 1.2700 0.0 0 0 106.6710 25.4000" />
<path d="M71.1200 30.4800 A1.2700 1.2700 0.0 0 0 69.8500 31.7500" />
<path d="M50.8000 113.1570
L50.8000 111.7600
" />
<path d="M162.5600 116.8400 A2.5400 2.5400 0.0 0 0 165.1000 114.3000" />
<path d="M115.5700 119.3800
L115.5700 124.4600
" />
<path d="M50.8000 113.1570
L35.3060 117.3480
" />
<path d="M128.2610 40.6400
L162.5510 40.6400
" />
<path d="M114.3000 125.7300 A290.8328 290.8328 0.0 0 0 40.2618 135.6465" />
<path d="M31.7500 110.4900 A1.2700 1.2700 0.0 0 0 33.0200 111.7600" />
<path d="M90.1610 25.4000
L106.6710 25.4000
" />
<path d="M126.9910 39.3700 A1.2700 1.2700 0.0 0 0 128.2610 40.6400" />
<path d="M162.5600 116.8400
L128.5240 116.8400
" />
<path d="M88.8910 26.6700
L88.8910 29.2100
" />
<path d="M87.6300 30.4800
L71.1200 30.4800
" />
<path d="M109.2110 30.4800
L125.7210 30.4800
" />
<path d="M107.9410 29.2100 A1.2700 1.2700 0.0 0 0 109.2110 30.4800" />
<path d="M49.5300 35.5600
L33.0200 35.5600
" />
</g> 
</svg>
