<?xml version="1.0" standalone="no"?>
 <!DOCTYPE svg PUBLIC "-//W3C//DTD SVG 1.1//EN" 
 "http://www.w3.org/Graphics/SVG/1.1/DTD/svg11.dtd"> 
<svg
  xmlns:svg="http://www.w3.org/2000/svg"
  xmlns="http://www.w3.org/2000/svg"
  xmlns:xlink="http://www.w3.org/1999/xlink"
  version="1.1"
  width="297.0022mm" height="210.0072mm" viewBox="0.0000 0.0000 297.0022 210.0072">
<title>SVG Image created as rev2-F_Courtyard.svg date 2024/07/07 14:44:41 </title>
  <desc>Image generated by PCBNEW </desc>
<g style="fill:#000000; fill-opacity:1.0000;stroke:#000000; stroke-opacity:1.0000;
stroke-linecap:round; stroke-linejoin:round;"
 transform="translate(0 0) scale(1 1)">
</g>
<g style="fill:none; 
stroke:#000000; stroke-width:0.0500; stroke-opacity:1; 
stroke-linecap:round; stroke-linejoin:round;">
<circle cx="146.0500" cy="59.6900" r="2.4500" /> 
<circle cx="146.0500" cy="97.7900" r="2.4500" /> 
<circle cx="50.8000" cy="52.0700" r="2.4500" /> 
<circle cx="55.8800" cy="116.8400" r="2.4500" /> 
</g>
<g style="fill:none; 
stroke:#000000; stroke-width:0.1000; stroke-opacity:1; 
stroke-linecap:round; stroke-linejoin:round;">
<path d="M127.0000 107.6960 A1.0160 1.0160 0.0 0 0 125.9840 106.6800" />
<path d="M116.5860 106.6800 A1.0160 1.0160 0.0 0 0 115.5700 107.6960" />
<path d="M127.0000 115.3160 A1.5240 1.5240 0.0 0 0 128.5240 116.8400" />
<path d="M115.5700 107.6960
L115.5700 119.3800
" />
<path d="M125.9840 106.6800
L116.5860 106.6800
" />
<path d="M127.0000 115.3160
L127.0000 107.6960
" />
<path d="M33.0200 111.7600
L50.8000 111.7600
" />
<path d="M33.0200 35.5600 A1.2700 1.2700 0.0 0 0 31.7500 36.8300" />
<path d="M87.6300 30.4800 A1.2700 1.2700 0.0 0 0 88.8910 29.2100" />
<path d="M31.7500 36.8300
L31.7500 110.4900
" />
<path d="M68.5800 33.0200
L52.0700 33.0200
" />
<path d="M107.9410 26.6700
L107.9410 29.2100
" />
<path d="M40.2625 135.6492
L35.3060 117.3480
" />
<path d="M114.3000 125.7300 A1.2700 1.2700 0.0 0 0 115.5700 124.4600" />
<path d="M126.9910 31.7500 A1.2700 1.2700 0.0 0 0 125.7210 30.4800" />
<path d="M165.0910 43.1800
L165.1000 114.3000
" />
<path d="M49.5300 35.5600 A1.2700 1.2700 0.0 0 0 50.8000 34.2900" />
<path d="M68.5800 33.0200 A1.2700 1.2700 0.0 0 0 69.8500 31.7500" />
<path d="M165.0910 43.1800 A2.5400 2.5400 0.0 0 0 162.5510 40.6400" />
<path d="M90.1610 25.4000 A1.2700 1.2700 0.0 0 0 88.8910 26.6700" />
<path d="M126.9910 31.7500
L126.9910 39.3700
" />
<path d="M52.0700 33.0200 A1.2700 1.2700 0.0 0 0 50.8000 34.2900" />
<path d="M107.9410 26.6700 A1.2700 1.2700 0.0 0 0 106.6710 25.4000" />
<path d="M71.1200 30.4800 A1.2700 1.2700 0.0 0 0 69.8500 31.7500" />
<path d="M50.8000 113.1570
L50.8000 111.7600
" />
<path d="M162.5600 116.8400 A2.5400 2.5400 0.0 0 0 165.1000 114.3000" />
<path d="M115.5700 119.3800
L115.5700 124.4600
" />
<path d="M50.8000 113.1570
L35.3060 117.3480
" />
<path d="M128.2610 40.6400
L162.5510 40.6400
" />
<path d="M114.3000 125.7300 A290.8328 290.8328 0.0 0 0 40.2618 135.6465" />
<path d="M31.7500 110.4900 A1.2700 1.2700 0.0 0 0 33.0200 111.7600" />
<path d="M90.1610 25.4000
L106.6710 25.4000
" />
<path d="M126.9910 39.3700 A1.2700 1.2700 0.0 0 0 128.2610 40.6400" />
<path d="M162.5600 116.8400
L128.5240 116.8400
" />
<path d="M88.8910 26.6700
L88.8910 29.2100
" />
<path d="M87.6300 30.4800
L71.1200 30.4800
" />
<path d="M109.2110 30.4800
L125.7210 30.4800
" />
<path d="M107.9410 29.2100 A1.2700 1.2700 0.0 0 0 109.2110 30.4800" />
<path d="M49.5300 35.5600
L33.0200 35.5600
" />
</g> 
</svg>
