<?xml version="1.0" standalone="no"?>
 <!DOCTYPE svg PUBLIC "-//W3C//DTD SVG 1.1//EN" 
 "http://www.w3.org/Graphics/SVG/1.1/DTD/svg11.dtd"> 
<svg
  xmlns:svg="http://www.w3.org/2000/svg"
  xmlns="http://www.w3.org/2000/svg"
  xmlns:xlink="http://www.w3.org/1999/xlink"
  version="1.1"
  width="297.0022mm" height="210.0072mm" viewBox="0.0000 0.0000 297.0022 210.0072">
<title>SVG Image created as rev2-B_Mask.svg date 2024/07/07 14:44:41 </title>
  <desc>Image generated by PCBNEW </desc>
<g style="fill:#000000; fill-opacity:1.0000;stroke:#000000; stroke-opacity:1.0000;
stroke-linecap:round; stroke-linejoin:round;"
 transform="translate(0 0) scale(1 1)">
</g>
<g style="fill:#000000; fill-opacity:1.0000; stroke:none;">
<circle cx="146.0500" cy="59.6900" r="1.3000" /> 
</g>
<g style="fill:#000000; fill-opacity:1.0000; stroke:none;">
<circle cx="146.0500" cy="59.6900" r="2.2000" /> 
</g>
<g style="fill:#000000; fill-opacity:1.0000; stroke:none;">
<circle cx="131.4450" cy="88.2650" r="0.8750" /> 
</g>
<g style="fill:#000000; fill-opacity:1.0000; stroke:none;">
<circle cx="136.5250" cy="88.2650" r="2.0000" /> 
</g>
<g style="fill:#000000; fill-opacity:1.0000; stroke:none;">
<circle cx="141.6050" cy="88.2650" r="0.8750" /> 
</g>
<g style="fill:#000000; fill-opacity:1.0000; stroke:none;">
<circle cx="132.7150" cy="85.7250" r="1.1000" /> 
</g>
<g style="fill:#000000; fill-opacity:1.0000; stroke:none;">
<circle cx="139.0650" cy="83.1850" r="1.1000" /> 
</g>
<g style="fill:#000000; fill-opacity:1.0000; stroke:none;">
<circle cx="131.4450" cy="107.3150" r="0.8750" /> 
</g>
<g style="fill:#000000; fill-opacity:1.0000; stroke:none;">
<circle cx="136.5250" cy="107.3150" r="2.0000" /> 
</g>
<g style="fill:#000000; fill-opacity:1.0000; stroke:none;">
<circle cx="141.6050" cy="107.3150" r="0.8750" /> 
</g>
<g style="fill:#000000; fill-opacity:1.0000; stroke:none;">
<circle cx="132.7150" cy="104.7750" r="1.1000" /> 
</g>
<g style="fill:#000000; fill-opacity:1.0000; stroke:none;">
<circle cx="139.0650" cy="102.2350" r="1.1000" /> 
</g>
<g style="fill:#000000; fill-opacity:1.0000; stroke:none;">
<circle cx="42.0831" cy="125.3938" r="0.8750" /> 
</g>
<g style="fill:#000000; fill-opacity:1.0000; stroke:none;">
<circle cx="46.9900" cy="124.0790" r="2.0000" /> 
</g>
<g style="fill:#000000; fill-opacity:1.0000; stroke:none;">
<circle cx="51.8969" cy="122.7642" r="0.8750" /> 
</g>
<g style="fill:#000000; fill-opacity:1.0000; stroke:none;">
<circle cx="42.6524" cy="122.6116" r="1.1000" /> 
</g>
<g style="fill:#000000; fill-opacity:1.0000; stroke:none;">
<circle cx="48.1287" cy="118.5147" r="1.1000" /> 
</g>
<g style="fill:#000000; fill-opacity:1.0000; stroke:none;">
<circle cx="146.0500" cy="97.7900" r="1.3000" /> 
</g>
<g style="fill:#000000; fill-opacity:1.0000; stroke:none;">
<circle cx="146.0500" cy="97.7900" r="2.2000" /> 
</g>
<g style="fill:#000000; fill-opacity:1.0000; stroke:none;">
<circle cx="36.1950" cy="64.1350" r="0.8750" /> 
</g>
<g style="fill:#000000; fill-opacity:1.0000; stroke:none;">
<circle cx="41.2750" cy="64.1350" r="2.0000" /> 
</g>
<g style="fill:#000000; fill-opacity:1.0000; stroke:none;">
<circle cx="46.3550" cy="64.1350" r="0.8750" /> 
</g>
<g style="fill:#000000; fill-opacity:1.0000; stroke:none;">
<circle cx="37.4650" cy="61.5950" r="1.1000" /> 
</g>
<g style="fill:#000000; fill-opacity:1.0000; stroke:none;">
<circle cx="43.8150" cy="59.0550" r="1.1000" /> 
</g>
<g style="fill:#000000; fill-opacity:1.0000; stroke:none;">
<circle cx="50.8000" cy="52.0700" r="1.3000" /> 
</g>
<g style="fill:#000000; fill-opacity:1.0000; stroke:none;">
<circle cx="50.8000" cy="52.0700" r="2.2000" /> 
</g>
<g style="fill:#000000; fill-opacity:1.0000; stroke:none;">
<circle cx="112.3950" cy="59.0550" r="0.8750" /> 
</g>
<g style="fill:#000000; fill-opacity:1.0000; stroke:none;">
<circle cx="117.4750" cy="59.0550" r="2.0000" /> 
</g>
<g style="fill:#000000; fill-opacity:1.0000; stroke:none;">
<circle cx="122.5550" cy="59.0550" r="0.8750" /> 
</g>
<g style="fill:#000000; fill-opacity:1.0000; stroke:none;">
<circle cx="113.6650" cy="56.5150" r="1.1000" /> 
</g>
<g style="fill:#000000; fill-opacity:1.0000; stroke:none;">
<circle cx="120.0150" cy="53.9750" r="1.1000" /> 
</g>
<g style="fill:#000000; fill-opacity:1.0000; stroke:none;">
<circle cx="93.3450" cy="34.9250" r="0.8750" /> 
</g>
<g style="fill:#000000; fill-opacity:1.0000; stroke:none;">
<circle cx="98.4250" cy="34.9250" r="2.0000" /> 
</g>
<g style="fill:#000000; fill-opacity:1.0000; stroke:none;">
<circle cx="103.5050" cy="34.9250" r="0.8750" /> 
</g>
<g style="fill:#000000; fill-opacity:1.0000; stroke:none;">
<circle cx="94.6150" cy="32.3850" r="1.1000" /> 
</g>
<g style="fill:#000000; fill-opacity:1.0000; stroke:none;">
<circle cx="100.9650" cy="29.8450" r="1.1000" /> 
</g>
<g style="fill:#000000; fill-opacity:1.0000; stroke:none;">
<circle cx="55.2450" cy="42.5450" r="0.8750" /> 
</g>
<g style="fill:#000000; fill-opacity:1.0000; stroke:none;">
<circle cx="60.3250" cy="42.5450" r="2.0000" /> 
</g>
<g style="fill:#000000; fill-opacity:1.0000; stroke:none;">
<circle cx="65.4050" cy="42.5450" r="0.8750" /> 
</g>
<g style="fill:#000000; fill-opacity:1.0000; stroke:none;">
<circle cx="56.5150" cy="40.0050" r="1.1000" /> 
</g>
<g style="fill:#000000; fill-opacity:1.0000; stroke:none;">
<circle cx="62.8650" cy="37.4650" r="1.1000" /> 
</g>
<g style="fill:#000000; fill-opacity:1.0000; stroke:none;">
<circle cx="93.3450" cy="73.0250" r="0.8750" /> 
</g>
<g style="fill:#000000; fill-opacity:1.0000; stroke:none;">
<circle cx="98.4250" cy="73.0250" r="2.0000" /> 
</g>
<g style="fill:#000000; fill-opacity:1.0000; stroke:none;">
<circle cx="103.5050" cy="73.0250" r="0.8750" /> 
</g>
<g style="fill:#000000; fill-opacity:1.0000; stroke:none;">
<circle cx="94.6150" cy="70.4850" r="1.1000" /> 
</g>
<g style="fill:#000000; fill-opacity:1.0000; stroke:none;">
<circle cx="100.9650" cy="67.9450" r="1.1000" /> 
</g>
<g style="fill:#000000; fill-opacity:1.0000; stroke:none;">
<circle cx="150.4950" cy="50.1650" r="0.8750" /> 
</g>
<g style="fill:#000000; fill-opacity:1.0000; stroke:none;">
<circle cx="155.5750" cy="50.1650" r="2.0000" /> 
</g>
<g style="fill:#000000; fill-opacity:1.0000; stroke:none;">
<circle cx="160.6550" cy="50.1650" r="0.8750" /> 
</g>
<g style="fill:#000000; fill-opacity:1.0000; stroke:none;">
<circle cx="151.7650" cy="47.6250" r="1.1000" /> 
</g>
<g style="fill:#000000; fill-opacity:1.0000; stroke:none;">
<circle cx="158.1150" cy="45.0850" r="1.1000" /> 
</g>
<g style="fill:#000000; fill-opacity:1.0000; stroke:none;">
<circle cx="36.1950" cy="83.1850" r="0.8750" /> 
</g>
<g style="fill:#000000; fill-opacity:1.0000; stroke:none;">
<circle cx="41.2750" cy="83.1850" r="2.0000" /> 
</g>
<g style="fill:#000000; fill-opacity:1.0000; stroke:none;">
<circle cx="46.3550" cy="83.1850" r="0.8750" /> 
</g>
<g style="fill:#000000; fill-opacity:1.0000; stroke:none;">
<circle cx="37.4650" cy="80.6450" r="1.1000" /> 
</g>
<g style="fill:#000000; fill-opacity:1.0000; stroke:none;">
<circle cx="43.8150" cy="78.1050" r="1.1000" /> 
</g>
<g style="fill:#000000; fill-opacity:1.0000; stroke:none;">
<circle cx="150.4950" cy="88.2650" r="0.8750" /> 
</g>
<g style="fill:#000000; fill-opacity:1.0000; stroke:none;">
<circle cx="155.5750" cy="88.2650" r="2.0000" /> 
</g>
<g style="fill:#000000; fill-opacity:1.0000; stroke:none;">
<circle cx="160.6550" cy="88.2650" r="0.8750" /> 
</g>
<g style="fill:#000000; fill-opacity:1.0000; stroke:none;">
<circle cx="151.7650" cy="85.7250" r="1.1000" /> 
</g>
<g style="fill:#000000; fill-opacity:1.0000; stroke:none;">
<circle cx="158.1150" cy="83.1850" r="1.1000" /> 
</g>
<g style="fill:#000000; fill-opacity:1.0000; stroke:none;">
<circle cx="93.3450" cy="92.0750" r="0.8750" /> 
</g>
<g style="fill:#000000; fill-opacity:1.0000; stroke:none;">
<circle cx="98.4250" cy="92.0750" r="2.0000" /> 
</g>
<g style="fill:#000000; fill-opacity:1.0000; stroke:none;">
<circle cx="103.5050" cy="92.0750" r="0.8750" /> 
</g>
<g style="fill:#000000; fill-opacity:1.0000; stroke:none;">
<circle cx="94.6150" cy="89.5350" r="1.1000" /> 
</g>
<g style="fill:#000000; fill-opacity:1.0000; stroke:none;">
<circle cx="100.9650" cy="86.9950" r="1.1000" /> 
</g>
<g style="fill:#000000; fill-opacity:1.0000; stroke:none;">
<circle cx="93.3450" cy="53.9750" r="0.8750" /> 
</g>
<g style="fill:#000000; fill-opacity:1.0000; stroke:none;">
<circle cx="98.4250" cy="53.9750" r="2.0000" /> 
</g>
<g style="fill:#000000; fill-opacity:1.0000; stroke:none;">
<circle cx="103.5050" cy="53.9750" r="0.8750" /> 
</g>
<g style="fill:#000000; fill-opacity:1.0000; stroke:none;">
<circle cx="94.6150" cy="51.4350" r="1.1000" /> 
</g>
<g style="fill:#000000; fill-opacity:1.0000; stroke:none;">
<circle cx="100.9650" cy="48.8950" r="1.1000" /> 
</g>
<g style="fill:#000000; fill-opacity:1.0000; stroke:none;">
<circle cx="55.2450" cy="99.6950" r="0.8750" /> 
</g>
<g style="fill:#000000; fill-opacity:1.0000; stroke:none;">
<circle cx="60.3250" cy="99.6950" r="2.0000" /> 
</g>
<g style="fill:#000000; fill-opacity:1.0000; stroke:none;">
<circle cx="65.4050" cy="99.6950" r="0.8750" /> 
</g>
<g style="fill:#000000; fill-opacity:1.0000; stroke:none;">
<circle cx="56.5150" cy="97.1550" r="1.1000" /> 
</g>
<g style="fill:#000000; fill-opacity:1.0000; stroke:none;">
<circle cx="62.8650" cy="94.6150" r="1.1000" /> 
</g>
<g style="fill:#000000; fill-opacity:1.0000; stroke:none;">
<circle cx="36.1950" cy="102.2350" r="0.8750" /> 
</g>
<g style="fill:#000000; fill-opacity:1.0000; stroke:none;">
<circle cx="41.2750" cy="102.2350" r="2.0000" /> 
</g>
<g style="fill:#000000; fill-opacity:1.0000; stroke:none;">
<circle cx="46.3550" cy="102.2350" r="0.8750" /> 
</g>
<g style="fill:#000000; fill-opacity:1.0000; stroke:none;">
<circle cx="37.4650" cy="99.6950" r="1.1000" /> 
</g>
<g style="fill:#000000; fill-opacity:1.0000; stroke:none;">
<circle cx="43.8150" cy="97.1550" r="1.1000" /> 
</g>
<g style="fill:#000000; fill-opacity:1.0000; stroke:none;">
<circle cx="55.2450" cy="61.5950" r="0.8750" /> 
</g>
<g style="fill:#000000; fill-opacity:1.0000; stroke:none;">
<circle cx="60.3250" cy="61.5950" r="2.0000" /> 
</g>
<g style="fill:#000000; fill-opacity:1.0000; stroke:none;">
<circle cx="65.4050" cy="61.5950" r="0.8750" /> 
</g>
<g style="fill:#000000; fill-opacity:1.0000; stroke:none;">
<circle cx="56.5150" cy="59.0550" r="1.1000" /> 
</g>
<g style="fill:#000000; fill-opacity:1.0000; stroke:none;">
<circle cx="62.8650" cy="56.5150" r="1.1000" /> 
</g>
<g style="fill:#000000; fill-opacity:1.0000; stroke:none;">
<circle cx="74.2950" cy="78.1050" r="0.8750" /> 
</g>
<g style="fill:#000000; fill-opacity:1.0000; stroke:none;">
<circle cx="79.3750" cy="78.1050" r="2.0000" /> 
</g>
<g style="fill:#000000; fill-opacity:1.0000; stroke:none;">
<circle cx="84.4550" cy="78.1050" r="0.8750" /> 
</g>
<g style="fill:#000000; fill-opacity:1.0000; stroke:none;">
<circle cx="75.5650" cy="75.5650" r="1.1000" /> 
</g>
<g style="fill:#000000; fill-opacity:1.0000; stroke:none;">
<circle cx="81.9150" cy="73.0250" r="1.1000" /> 
</g>
<g style="fill:#000000; fill-opacity:1.0000; stroke:none;">
<circle cx="150.4950" cy="69.2150" r="0.8750" /> 
</g>
<g style="fill:#000000; fill-opacity:1.0000; stroke:none;">
<circle cx="155.5750" cy="69.2150" r="2.0000" /> 
</g>
<g style="fill:#000000; fill-opacity:1.0000; stroke:none;">
<circle cx="160.6550" cy="69.2150" r="0.8750" /> 
</g>
<g style="fill:#000000; fill-opacity:1.0000; stroke:none;">
<circle cx="151.7650" cy="66.6750" r="1.1000" /> 
</g>
<g style="fill:#000000; fill-opacity:1.0000; stroke:none;">
<circle cx="158.1150" cy="64.1350" r="1.1000" /> 
</g>
<g style="fill:#000000; fill-opacity:1.0000; stroke:none;">
<circle cx="81.0647" cy="117.5368" r="0.8750" /> 
</g>
<g style="fill:#000000; fill-opacity:1.0000; stroke:none;">
<circle cx="86.1253" cy="117.0940" r="2.0000" /> 
</g>
<g style="fill:#000000; fill-opacity:1.0000; stroke:none;">
<circle cx="91.1860" cy="116.6512" r="0.8750" /> 
</g>
<g style="fill:#000000; fill-opacity:1.0000; stroke:none;">
<circle cx="82.1085" cy="114.8957" r="1.1000" /> 
</g>
<g style="fill:#000000; fill-opacity:1.0000; stroke:none;">
<circle cx="88.2129" cy="111.8120" r="1.1000" /> 
</g>
<g style="fill:#000000; fill-opacity:1.0000; stroke:none;">
<circle cx="131.4450" cy="50.1650" r="0.8750" /> 
</g>
<g style="fill:#000000; fill-opacity:1.0000; stroke:none;">
<circle cx="136.5250" cy="50.1650" r="2.0000" /> 
</g>
<g style="fill:#000000; fill-opacity:1.0000; stroke:none;">
<circle cx="141.6050" cy="50.1650" r="0.8750" /> 
</g>
<g style="fill:#000000; fill-opacity:1.0000; stroke:none;">
<circle cx="132.7150" cy="47.6250" r="1.1000" /> 
</g>
<g style="fill:#000000; fill-opacity:1.0000; stroke:none;">
<circle cx="139.0650" cy="45.0850" r="1.1000" /> 
</g>
<g style="fill:#000000; fill-opacity:1.0000; stroke:none;">
<circle cx="131.4450" cy="69.2150" r="0.8750" /> 
</g>
<g style="fill:#000000; fill-opacity:1.0000; stroke:none;">
<circle cx="136.5250" cy="69.2150" r="2.0000" /> 
</g>
<g style="fill:#000000; fill-opacity:1.0000; stroke:none;">
<circle cx="141.6050" cy="69.2150" r="0.8750" /> 
</g>
<g style="fill:#000000; fill-opacity:1.0000; stroke:none;">
<circle cx="132.7150" cy="66.6750" r="1.1000" /> 
</g>
<g style="fill:#000000; fill-opacity:1.0000; stroke:none;">
<circle cx="139.0650" cy="64.1350" r="1.1000" /> 
</g>
<g style="fill:#000000; fill-opacity:1.0000; stroke:none;">
<circle cx="36.1950" cy="45.0850" r="0.8750" /> 
</g>
<g style="fill:#000000; fill-opacity:1.0000; stroke:none;">
<circle cx="41.2750" cy="45.0850" r="2.0000" /> 
</g>
<g style="fill:#000000; fill-opacity:1.0000; stroke:none;">
<circle cx="46.3550" cy="45.0850" r="0.8750" /> 
</g>
<g style="fill:#000000; fill-opacity:1.0000; stroke:none;">
<circle cx="37.4650" cy="42.5450" r="1.1000" /> 
</g>
<g style="fill:#000000; fill-opacity:1.0000; stroke:none;">
<circle cx="43.8150" cy="40.0050" r="1.1000" /> 
</g>
<g style="fill:#000000; fill-opacity:1.0000; stroke:none;">
<circle cx="55.2450" cy="80.6450" r="0.8750" /> 
</g>
<g style="fill:#000000; fill-opacity:1.0000; stroke:none;">
<circle cx="60.3250" cy="80.6450" r="2.0000" /> 
</g>
<g style="fill:#000000; fill-opacity:1.0000; stroke:none;">
<circle cx="65.4050" cy="80.6450" r="0.8750" /> 
</g>
<g style="fill:#000000; fill-opacity:1.0000; stroke:none;">
<circle cx="56.5150" cy="78.1050" r="1.1000" /> 
</g>
<g style="fill:#000000; fill-opacity:1.0000; stroke:none;">
<circle cx="62.8650" cy="75.5650" r="1.1000" /> 
</g>
<g style="fill:#000000; fill-opacity:1.0000; stroke:none;">
<circle cx="74.2950" cy="59.0550" r="0.8750" /> 
</g>
<g style="fill:#000000; fill-opacity:1.0000; stroke:none;">
<circle cx="79.3750" cy="59.0550" r="2.0000" /> 
</g>
<g style="fill:#000000; fill-opacity:1.0000; stroke:none;">
<circle cx="84.4550" cy="59.0550" r="0.8750" /> 
</g>
<g style="fill:#000000; fill-opacity:1.0000; stroke:none;">
<circle cx="75.5650" cy="56.5150" r="1.1000" /> 
</g>
<g style="fill:#000000; fill-opacity:1.0000; stroke:none;">
<circle cx="81.9150" cy="53.9750" r="1.1000" /> 
</g>
<g style="fill:#000000; fill-opacity:1.0000; stroke:none;">
<circle cx="74.2950" cy="40.0050" r="0.8750" /> 
</g>
<g style="fill:#000000; fill-opacity:1.0000; stroke:none;">
<circle cx="79.3750" cy="40.0050" r="2.0000" /> 
</g>
<g style="fill:#000000; fill-opacity:1.0000; stroke:none;">
<circle cx="84.4550" cy="40.0050" r="0.8750" /> 
</g>
<g style="fill:#000000; fill-opacity:1.0000; stroke:none;">
<circle cx="75.5650" cy="37.4650" r="1.1000" /> 
</g>
<g style="fill:#000000; fill-opacity:1.0000; stroke:none;">
<circle cx="81.9150" cy="34.9250" r="1.1000" /> 
</g>
<g style="fill:#000000; fill-opacity:1.0000; stroke:none;">
<circle cx="100.9650" cy="116.2050" r="0.8750" /> 
</g>
<g style="fill:#000000; fill-opacity:1.0000; stroke:none;">
<circle cx="106.0450" cy="116.2050" r="2.0000" /> 
</g>
<g style="fill:#000000; fill-opacity:1.0000; stroke:none;">
<circle cx="111.1250" cy="116.2050" r="0.8750" /> 
</g>
<g style="fill:#000000; fill-opacity:1.0000; stroke:none;">
<circle cx="102.2350" cy="113.6650" r="1.1000" /> 
</g>
<g style="fill:#000000; fill-opacity:1.0000; stroke:none;">
<circle cx="108.5850" cy="111.1250" r="1.1000" /> 
</g>
<g style="fill:#000000; fill-opacity:1.0000; stroke:none;">
<circle cx="112.3950" cy="97.1550" r="0.8750" /> 
</g>
<g style="fill:#000000; fill-opacity:1.0000; stroke:none;">
<circle cx="117.4750" cy="97.1550" r="2.0000" /> 
</g>
<g style="fill:#000000; fill-opacity:1.0000; stroke:none;">
<circle cx="122.5550" cy="97.1550" r="0.8750" /> 
</g>
<g style="fill:#000000; fill-opacity:1.0000; stroke:none;">
<circle cx="113.6650" cy="94.6150" r="1.1000" /> 
</g>
<g style="fill:#000000; fill-opacity:1.0000; stroke:none;">
<circle cx="120.0150" cy="92.0750" r="1.1000" /> 
</g>
<g style="fill:#000000; fill-opacity:1.0000; stroke:none;">
<circle cx="55.8800" cy="116.8400" r="1.3000" /> 
</g>
<g style="fill:#000000; fill-opacity:1.0000; stroke:none;">
<circle cx="55.8800" cy="116.8400" r="2.2000" /> 
</g>
<g style="fill:#000000; fill-opacity:1.0000; stroke:none;">
<circle cx="112.3950" cy="40.0050" r="0.8750" /> 
</g>
<g style="fill:#000000; fill-opacity:1.0000; stroke:none;">
<circle cx="117.4750" cy="40.0050" r="2.0000" /> 
</g>
<g style="fill:#000000; fill-opacity:1.0000; stroke:none;">
<circle cx="122.5550" cy="40.0050" r="0.8750" /> 
</g>
<g style="fill:#000000; fill-opacity:1.0000; stroke:none;">
<circle cx="113.6650" cy="37.4650" r="1.1000" /> 
</g>
<g style="fill:#000000; fill-opacity:1.0000; stroke:none;">
<circle cx="120.0150" cy="34.9250" r="1.1000" /> 
</g>
<g style="fill:#000000; fill-opacity:1.0000; stroke:none;">
<circle cx="74.2950" cy="97.1550" r="0.8750" /> 
</g>
<g style="fill:#000000; fill-opacity:1.0000; stroke:none;">
<circle cx="79.3750" cy="97.1550" r="2.0000" /> 
</g>
<g style="fill:#000000; fill-opacity:1.0000; stroke:none;">
<circle cx="84.4550" cy="97.1550" r="0.8750" /> 
</g>
<g style="fill:#000000; fill-opacity:1.0000; stroke:none;">
<circle cx="75.5650" cy="94.6150" r="1.1000" /> 
</g>
<g style="fill:#000000; fill-opacity:1.0000; stroke:none;">
<circle cx="81.9150" cy="92.0750" r="1.1000" /> 
</g>
<g style="fill:#000000; fill-opacity:1.0000; stroke:none;">
<circle cx="112.3950" cy="78.1050" r="0.8750" /> 
</g>
<g style="fill:#000000; fill-opacity:1.0000; stroke:none;">
<circle cx="117.4750" cy="78.1050" r="2.0000" /> 
</g>
<g style="fill:#000000; fill-opacity:1.0000; stroke:none;">
<circle cx="122.5550" cy="78.1050" r="0.8750" /> 
</g>
<g style="fill:#000000; fill-opacity:1.0000; stroke:none;">
<circle cx="113.6650" cy="75.5650" r="1.1000" /> 
</g>
<g style="fill:#000000; fill-opacity:1.0000; stroke:none;">
<circle cx="120.0150" cy="73.0250" r="1.1000" /> 
</g>
<g style="fill:#000000; fill-opacity:1.0000; stroke:none;">
<circle cx="61.4182" cy="120.6431" r="0.8750" /> 
</g>
<g style="fill:#000000; fill-opacity:1.0000; stroke:none;">
<circle cx="66.4210" cy="119.7610" r="2.0000" /> 
</g>
<g style="fill:#000000; fill-opacity:1.0000; stroke:none;">
<circle cx="71.4238" cy="118.8789" r="0.8750" /> 
</g>
<g style="fill:#000000; fill-opacity:1.0000; stroke:none;">
<circle cx="62.2278" cy="117.9212" r="1.1000" /> 
</g>
<g style="fill:#000000; fill-opacity:1.0000; stroke:none;">
<circle cx="68.0403" cy="114.3171" r="1.1000" /> 
</g>
<g style="fill:#000000; fill-opacity:1.0000; stroke:none;">
<circle cx="150.4950" cy="107.3150" r="0.8750" /> 
</g>
<g style="fill:#000000; fill-opacity:1.0000; stroke:none;">
<circle cx="155.5750" cy="107.3150" r="2.0000" /> 
</g>
<g style="fill:#000000; fill-opacity:1.0000; stroke:none;">
<circle cx="160.6550" cy="107.3150" r="0.8750" /> 
</g>
<g style="fill:#000000; fill-opacity:1.0000; stroke:none;">
<circle cx="151.7650" cy="104.7750" r="1.1000" /> 
</g>
<g style="fill:#000000; fill-opacity:1.0000; stroke:none;">
<circle cx="158.1150" cy="102.2350" r="1.1000" /> 
<path style="fill:#000000; fill-opacity:1.0000; stroke:none;fill-rule:evenodd;"
d="M 130.5782,81.5990
130.6620,81.6157
130.7329,81.6631
130.7803,81.7340
130.7970,81.8177
130.7970,82.2552
130.7803,82.3390
130.7329,82.4099
130.6620,82.4573
130.5782,82.4740
130.0657,82.4740
129.9820,82.4573
129.9111,82.4099
129.8637,82.3390
129.8470,82.2552
129.8470,81.8177
129.8637,81.7340
129.9111,81.6631
129.9820,81.6157
130.0657,81.5990
Z" /> 
<path style="fill:#000000; fill-opacity:1.0000; stroke:none;fill-rule:evenodd;"
d="M 130.5782,83.1740
130.6620,83.1907
130.7329,83.2381
130.7803,83.3090
130.7970,83.3927
130.7970,83.8302
130.7803,83.9140
130.7329,83.9849
130.6620,84.0323
130.5782,84.0490
130.0657,84.0490
129.9820,84.0323
129.9111,83.9849
129.8637,83.9140
129.8470,83.8302
129.8470,83.3927
129.8637,83.3090
129.9111,83.2381
129.9820,83.1907
130.0657,83.1740
Z" /> 
<path style="fill:#000000; fill-opacity:1.0000; stroke:none;fill-rule:evenodd;"
d="M 80.2604,124.3698
80.1756,124.3605
80.1008,124.3194
80.0473,124.2528
80.0235,124.1709
79.9853,123.7351
79.9946,123.6502
80.0357,123.5754
80.1022,123.5220
80.1842,123.4981
80.6947,123.4534
80.7796,123.4627
80.8544,123.5038
80.9078,123.5703
80.9317,123.6523
80.9698,124.0881
80.9605,124.1729
80.9195,124.2478
80.8529,124.3012
80.7710,124.3251
Z" /> 
<path style="fill:#000000; fill-opacity:1.0000; stroke:none;fill-rule:evenodd;"
d="M 80.1232,122.8007
80.0383,122.7915
79.9635,122.7504
79.9101,122.6838
79.8862,122.6019
79.8481,122.1661
79.8573,122.0812
79.8984,122.0064
79.9650,121.9530
80.0469,121.9291
80.5575,121.8844
80.6423,121.8937
80.7171,121.9348
80.7706,122.0013
80.7944,122.0833
80.8326,122.5191
80.8233,122.6039
80.7822,122.6788
80.7157,122.7322
80.6337,122.7561
Z" /> 
<path style="fill:#000000; fill-opacity:1.0000; stroke:none;fill-rule:evenodd;"
d="M 98.4520,118.5636
98.5008,118.6366
98.5179,118.7227
98.5008,118.8088
98.4520,118.8818
98.1338,119.2000
98.0608,119.2487
97.9747,119.2659
97.8886,119.2487
97.8156,119.2000
97.4620,118.8464
97.4133,118.7734
97.3961,118.6873
97.4133,118.6012
97.4620,118.5282
97.7802,118.2100
97.8532,118.1612
97.9393,118.1441
98.0254,118.1612
98.0984,118.2100
Z" /> 
<path style="fill:#000000; fill-opacity:1.0000; stroke:none;fill-rule:evenodd;"
d="M 97.3560,119.6596
97.4047,119.7326
97.4219,119.8187
97.4047,119.9048
97.3560,119.9778
97.0378,120.2960
96.9648,120.3448
96.8787,120.3619
96.7926,120.3448
96.7196,120.2960
96.3660,119.9424
96.3172,119.8694
96.3001,119.7833
96.3172,119.6972
96.3660,119.6242
96.6842,119.3060
96.7572,119.2573
96.8433,119.2401
96.9294,119.2573
97.0024,119.3060
Z" /> 
<path style="fill:#000000; fill-opacity:1.0000; stroke:none;fill-rule:evenodd;"
d="M 73.4282,71.4390
73.5120,71.4557
73.5829,71.5031
73.6303,71.5740
73.6470,71.6577
73.6470,72.0952
73.6303,72.1790
73.5829,72.2499
73.5120,72.2973
73.4282,72.3140
72.9158,72.3140
72.8320,72.2973
72.7611,72.2499
72.7137,72.1790
72.6970,72.0952
72.6970,71.6577
72.7137,71.5740
72.7611,71.5031
72.8320,71.4557
72.9158,71.4390
Z" /> 
<path style="fill:#000000; fill-opacity:1.0000; stroke:none;fill-rule:evenodd;"
d="M 73.4282,73.0140
73.5120,73.0307
73.5829,73.0781
73.6303,73.1490
73.6470,73.2327
73.6470,73.6702
73.6303,73.7540
73.5829,73.8249
73.5120,73.8723
73.4282,73.8890
72.9158,73.8890
72.8320,73.8723
72.7611,73.8249
72.7137,73.7540
72.6970,73.6702
72.6970,73.2327
72.7137,73.1490
72.7611,73.0781
72.8320,73.0307
72.9158,73.0140
Z" /> 
<path style="fill:#000000; fill-opacity:1.0000; stroke:none;fill-rule:evenodd;"
d="M 149.6082,100.6490
149.6920,100.6657
149.7629,100.7131
149.8103,100.7840
149.8270,100.8678
149.8270,101.3053
149.8103,101.3890
149.7629,101.4599
149.6920,101.5073
149.6082,101.5240
149.0957,101.5240
149.0120,101.5073
148.9411,101.4599
148.8937,101.3890
148.8770,101.3053
148.8770,100.8678
148.8937,100.7840
148.9411,100.7131
149.0120,100.6657
149.0957,100.6490
Z" /> 
<path style="fill:#000000; fill-opacity:1.0000; stroke:none;fill-rule:evenodd;"
d="M 149.6082,102.2240
149.6920,102.2407
149.7629,102.2881
149.8103,102.3590
149.8270,102.4427
149.8270,102.8802
149.8103,102.9640
149.7629,103.0349
149.6920,103.0823
149.6082,103.0990
149.0957,103.0990
149.0120,103.0823
148.9411,103.0349
148.8937,102.9640
148.8770,102.8802
148.8770,102.4427
148.8937,102.3590
148.9411,102.2881
149.0120,102.2407
149.0957,102.2240
Z" /> 
<path style="fill:#000000; fill-opacity:1.0000; stroke:none;fill-rule:evenodd;"
d="M 108.3520,96.3110
108.4285,96.3262
108.4934,96.3696
108.5368,96.4345
108.5520,96.5110
108.5520,96.9110
108.5368,96.9875
108.4934,97.0524
108.4285,97.0958
108.3520,97.1110
107.8020,97.1110
107.7255,97.0958
107.6606,97.0524
107.6172,96.9875
107.6020,96.9110
107.6020,96.5110
107.6172,96.4345
107.6606,96.3696
107.7255,96.3262
107.8020,96.3110
Z" /> 
<path style="fill:#000000; fill-opacity:1.0000; stroke:none;fill-rule:evenodd;"
d="M 108.3520,97.9610
108.4285,97.9762
108.4934,98.0196
108.5368,98.0845
108.5520,98.1610
108.5520,98.5610
108.5368,98.6375
108.4934,98.7024
108.4285,98.7458
108.3520,98.7610
107.8020,98.7610
107.7255,98.7458
107.6606,98.7024
107.6172,98.6375
107.6020,98.5610
107.6020,98.1610
107.6172,98.0845
107.6606,98.0196
107.7255,97.9762
107.8020,97.9610
Z" /> 
<path style="fill:#000000; fill-opacity:1.0000; stroke:none;fill-rule:evenodd;"
d="M 35.3027,38.2920
35.3865,38.3087
35.4574,38.3561
35.5048,38.4270
35.5215,38.5108
35.5215,38.9483
35.5048,39.0320
35.4574,39.1029
35.3865,39.1503
35.3027,39.1670
34.7903,39.1670
34.7065,39.1503
34.6356,39.1029
34.5882,39.0320
34.5715,38.9483
34.5715,38.5108
34.5882,38.4270
34.6356,38.3561
34.7065,38.3087
34.7903,38.2920
Z" /> 
<path style="fill:#000000; fill-opacity:1.0000; stroke:none;fill-rule:evenodd;"
d="M 35.3027,39.8670
35.3865,39.8837
35.4574,39.9311
35.5048,40.0020
35.5215,40.0857
35.5215,40.5232
35.5048,40.6070
35.4574,40.6779
35.3865,40.7253
35.3027,40.7420
34.7903,40.7420
34.7065,40.7253
34.6356,40.6779
34.5882,40.6070
34.5715,40.5232
34.5715,40.0857
34.5882,40.0020
34.6356,39.9311
34.7065,39.8837
34.7903,39.8670
Z" /> 
<path style="fill:#000000; fill-opacity:1.0000; stroke:none;fill-rule:evenodd;"
d="M 86.2794,84.6778
86.3559,84.6930
86.4208,84.7364
86.4642,84.8013
86.4794,84.8778
86.4794,85.2778
86.4642,85.3543
86.4208,85.4192
86.3559,85.4626
86.2794,85.4778
85.7294,85.4778
85.6529,85.4626
85.5880,85.4192
85.5446,85.3543
85.5294,85.2778
85.5294,84.8778
85.5446,84.8013
85.5880,84.7364
85.6529,84.6930
85.7294,84.6778
Z" /> 
<path style="fill:#000000; fill-opacity:1.0000; stroke:none;fill-rule:evenodd;"
d="M 86.2794,86.3278
86.3559,86.3430
86.4208,86.3864
86.4642,86.4513
86.4794,86.5278
86.4794,86.9278
86.4642,87.0043
86.4208,87.0692
86.3559,87.1126
86.2794,87.1278
85.7294,87.1278
85.6529,87.1126
85.5880,87.0692
85.5446,87.0043
85.5294,86.9278
85.5294,86.5278
85.5446,86.4513
85.5880,86.3864
85.6529,86.3430
85.7294,86.3278
Z" /> 
<path style="fill:#000000; fill-opacity:1.0000; stroke:none;fill-rule:evenodd;"
d="M 35.3027,76.5190
35.3865,76.5357
35.4574,76.5831
35.5048,76.6540
35.5215,76.7377
35.5215,77.1752
35.5048,77.2590
35.4574,77.3299
35.3865,77.3773
35.3027,77.3940
34.7903,77.3940
34.7065,77.3773
34.6356,77.3299
34.5882,77.2590
34.5715,77.1752
34.5715,76.7377
34.5882,76.6540
34.6356,76.5831
34.7065,76.5357
34.7903,76.5190
Z" /> 
<path style="fill:#000000; fill-opacity:1.0000; stroke:none;fill-rule:evenodd;"
d="M 35.3027,78.0940
35.3865,78.1107
35.4574,78.1581
35.5048,78.2290
35.5215,78.3127
35.5215,78.7502
35.5048,78.8340
35.4574,78.9049
35.3865,78.9523
35.3027,78.9690
34.7903,78.9690
34.7065,78.9523
34.6356,78.9049
34.5882,78.8340
34.5715,78.7502
34.5715,78.3127
34.5882,78.2290
34.6356,78.1581
34.7065,78.1107
34.7903,78.0940
Z" /> 
<path style="fill:#000000; fill-opacity:1.0000; stroke:none;fill-rule:evenodd;"
d="M 100.6840,98.9760
100.6840,99.5260
99.1840,99.5260
99.1840,98.9760
Z" /> 
<path style="fill:#000000; fill-opacity:1.0000; stroke:none;fill-rule:evenodd;"
d="M 100.6840,99.7760
100.6840,100.3260
99.1840,100.3260
99.1840,99.7760
Z" /> 
<path style="fill:#000000; fill-opacity:1.0000; stroke:none;fill-rule:evenodd;"
d="M 100.6840,100.5760
100.6840,101.1260
99.1840,101.1260
99.1840,100.5760
Z" /> 
<path style="fill:#000000; fill-opacity:1.0000; stroke:none;fill-rule:evenodd;"
d="M 100.6840,101.3760
100.6840,101.9260
99.1840,101.9260
99.1840,101.3760
Z" /> 
<path style="fill:#000000; fill-opacity:1.0000; stroke:none;fill-rule:evenodd;"
d="M 100.6840,102.1760
100.6840,102.7260
99.1840,102.7260
99.1840,102.1760
Z" /> 
<path style="fill:#000000; fill-opacity:1.0000; stroke:none;fill-rule:evenodd;"
d="M 100.6840,102.9760
100.6840,103.5260
99.1840,103.5260
99.1840,102.9760
Z" /> 
<path style="fill:#000000; fill-opacity:1.0000; stroke:none;fill-rule:evenodd;"
d="M 100.6840,103.7760
100.6840,104.3260
99.1840,104.3260
99.1840,103.7760
Z" /> 
<path style="fill:#000000; fill-opacity:1.0000; stroke:none;fill-rule:evenodd;"
d="M 100.6840,104.5760
100.6840,105.1260
99.1840,105.1260
99.1840,104.5760
Z" /> 
<path style="fill:#000000; fill-opacity:1.0000; stroke:none;fill-rule:evenodd;"
d="M 100.6840,105.3760
100.6840,105.9260
99.1840,105.9260
99.1840,105.3760
Z" /> 
<path style="fill:#000000; fill-opacity:1.0000; stroke:none;fill-rule:evenodd;"
d="M 100.6840,106.1760
100.6840,106.7260
99.1840,106.7260
99.1840,106.1760
Z" /> 
<path style="fill:#000000; fill-opacity:1.0000; stroke:none;fill-rule:evenodd;"
d="M 100.6840,106.9760
100.6840,107.5260
99.1840,107.5260
99.1840,106.9760
Z" /> 
<path style="fill:#000000; fill-opacity:1.0000; stroke:none;fill-rule:evenodd;"
d="M 98.5090,109.7010
97.9590,109.7010
97.9590,108.2010
98.5090,108.2010
Z" /> 
<path style="fill:#000000; fill-opacity:1.0000; stroke:none;fill-rule:evenodd;"
d="M 97.7090,109.7010
97.1590,109.7010
97.1590,108.2010
97.7090,108.2010
Z" /> 
<path style="fill:#000000; fill-opacity:1.0000; stroke:none;fill-rule:evenodd;"
d="M 96.9090,109.7010
96.3590,109.7010
96.3590,108.2010
96.9090,108.2010
Z" /> 
<path style="fill:#000000; fill-opacity:1.0000; stroke:none;fill-rule:evenodd;"
d="M 96.1090,109.7010
95.5590,109.7010
95.5590,108.2010
96.1090,108.2010
Z" /> 
<path style="fill:#000000; fill-opacity:1.0000; stroke:none;fill-rule:evenodd;"
d="M 95.3090,109.7010
94.7590,109.7010
94.7590,108.2010
95.3090,108.2010
Z" /> 
<path style="fill:#000000; fill-opacity:1.0000; stroke:none;fill-rule:evenodd;"
d="M 94.5090,109.7010
93.9590,109.7010
93.9590,108.2010
94.5090,108.2010
Z" /> 
<path style="fill:#000000; fill-opacity:1.0000; stroke:none;fill-rule:evenodd;"
d="M 93.7090,109.7010
93.1590,109.7010
93.1590,108.2010
93.7090,108.2010
Z" /> 
<path style="fill:#000000; fill-opacity:1.0000; stroke:none;fill-rule:evenodd;"
d="M 92.9090,109.7010
92.3590,109.7010
92.3590,108.2010
92.9090,108.2010
Z" /> 
<path style="fill:#000000; fill-opacity:1.0000; stroke:none;fill-rule:evenodd;"
d="M 92.1090,109.7010
91.5590,109.7010
91.5590,108.2010
92.1090,108.2010
Z" /> 
<path style="fill:#000000; fill-opacity:1.0000; stroke:none;fill-rule:evenodd;"
d="M 91.3090,109.7010
90.7590,109.7010
90.7590,108.2010
91.3090,108.2010
Z" /> 
<path style="fill:#000000; fill-opacity:1.0000; stroke:none;fill-rule:evenodd;"
d="M 90.5090,109.7010
89.9590,109.7010
89.9590,108.2010
90.5090,108.2010
Z" /> 
<path style="fill:#000000; fill-opacity:1.0000; stroke:none;fill-rule:evenodd;"
d="M 89.2840,106.9760
89.2840,107.5260
87.7840,107.5260
87.7840,106.9760
Z" /> 
<path style="fill:#000000; fill-opacity:1.0000; stroke:none;fill-rule:evenodd;"
d="M 89.2840,106.1760
89.2840,106.7260
87.7840,106.7260
87.7840,106.1760
Z" /> 
<path style="fill:#000000; fill-opacity:1.0000; stroke:none;fill-rule:evenodd;"
d="M 89.2840,105.3760
89.2840,105.9260
87.7840,105.9260
87.7840,105.3760
Z" /> 
<path style="fill:#000000; fill-opacity:1.0000; stroke:none;fill-rule:evenodd;"
d="M 89.2840,104.5760
89.2840,105.1260
87.7840,105.1260
87.7840,104.5760
Z" /> 
<path style="fill:#000000; fill-opacity:1.0000; stroke:none;fill-rule:evenodd;"
d="M 89.2840,103.7760
89.2840,104.3260
87.7840,104.3260
87.7840,103.7760
Z" /> 
<path style="fill:#000000; fill-opacity:1.0000; stroke:none;fill-rule:evenodd;"
d="M 89.2840,102.9760
89.2840,103.5260
87.7840,103.5260
87.7840,102.9760
Z" /> 
<path style="fill:#000000; fill-opacity:1.0000; stroke:none;fill-rule:evenodd;"
d="M 89.2840,102.1760
89.2840,102.7260
87.7840,102.7260
87.7840,102.1760
Z" /> 
<path style="fill:#000000; fill-opacity:1.0000; stroke:none;fill-rule:evenodd;"
d="M 89.2840,101.3760
89.2840,101.9260
87.7840,101.9260
87.7840,101.3760
Z" /> 
<path style="fill:#000000; fill-opacity:1.0000; stroke:none;fill-rule:evenodd;"
d="M 89.2840,100.5760
89.2840,101.1260
87.7840,101.1260
87.7840,100.5760
Z" /> 
<path style="fill:#000000; fill-opacity:1.0000; stroke:none;fill-rule:evenodd;"
d="M 89.2840,99.7760
89.2840,100.3260
87.7840,100.3260
87.7840,99.7760
Z" /> 
<path style="fill:#000000; fill-opacity:1.0000; stroke:none;fill-rule:evenodd;"
d="M 89.2840,98.9760
89.2840,99.5260
87.7840,99.5260
87.7840,98.9760
Z" /> 
<path style="fill:#000000; fill-opacity:1.0000; stroke:none;fill-rule:evenodd;"
d="M 90.5090,98.3010
89.9590,98.3010
89.9590,96.8010
90.5090,96.8010
Z" /> 
<path style="fill:#000000; fill-opacity:1.0000; stroke:none;fill-rule:evenodd;"
d="M 91.3090,98.3010
90.7590,98.3010
90.7590,96.8010
91.3090,96.8010
Z" /> 
<path style="fill:#000000; fill-opacity:1.0000; stroke:none;fill-rule:evenodd;"
d="M 92.1090,98.3010
91.5590,98.3010
91.5590,96.8010
92.1090,96.8010
Z" /> 
<path style="fill:#000000; fill-opacity:1.0000; stroke:none;fill-rule:evenodd;"
d="M 92.9090,98.3010
92.3590,98.3010
92.3590,96.8010
92.9090,96.8010
Z" /> 
<path style="fill:#000000; fill-opacity:1.0000; stroke:none;fill-rule:evenodd;"
d="M 93.7090,98.3010
93.1590,98.3010
93.1590,96.8010
93.7090,96.8010
Z" /> 
<path style="fill:#000000; fill-opacity:1.0000; stroke:none;fill-rule:evenodd;"
d="M 94.5090,98.3010
93.9590,98.3010
93.9590,96.8010
94.5090,96.8010
Z" /> 
<path style="fill:#000000; fill-opacity:1.0000; stroke:none;fill-rule:evenodd;"
d="M 95.3090,98.3010
94.7590,98.3010
94.7590,96.8010
95.3090,96.8010
Z" /> 
<path style="fill:#000000; fill-opacity:1.0000; stroke:none;fill-rule:evenodd;"
d="M 96.1090,98.3010
95.5590,98.3010
95.5590,96.8010
96.1090,96.8010
Z" /> 
<path style="fill:#000000; fill-opacity:1.0000; stroke:none;fill-rule:evenodd;"
d="M 96.9090,98.3010
96.3590,98.3010
96.3590,96.8010
96.9090,96.8010
Z" /> 
<path style="fill:#000000; fill-opacity:1.0000; stroke:none;fill-rule:evenodd;"
d="M 97.7090,98.3010
97.1590,98.3010
97.1590,96.8010
97.7090,96.8010
Z" /> 
<path style="fill:#000000; fill-opacity:1.0000; stroke:none;fill-rule:evenodd;"
d="M 98.5090,98.3010
97.9590,98.3010
97.9590,96.8010
98.5090,96.8010
Z" /> 
<path style="fill:#000000; fill-opacity:1.0000; stroke:none;fill-rule:evenodd;"
d="M 54.3582,54.9090
54.4420,54.9257
54.5129,54.9731
54.5603,55.0440
54.5770,55.1277
54.5770,55.5652
54.5603,55.6490
54.5129,55.7199
54.4420,55.7673
54.3582,55.7840
53.8457,55.7840
53.7620,55.7673
53.6911,55.7199
53.6437,55.6490
53.6270,55.5652
53.6270,55.1277
53.6437,55.0440
53.6911,54.9731
53.7620,54.9257
53.8457,54.9090
Z" /> 
<path style="fill:#000000; fill-opacity:1.0000; stroke:none;fill-rule:evenodd;"
d="M 54.3582,56.4840
54.4420,56.5007
54.5129,56.5481
54.5603,56.6190
54.5770,56.7027
54.5770,57.1402
54.5603,57.2240
54.5129,57.2949
54.4420,57.3423
54.3582,57.3590
53.8457,57.3590
53.7620,57.3423
53.6911,57.2949
53.6437,57.2240
53.6270,57.1402
53.6270,56.7027
53.6437,56.6190
53.6911,56.5481
53.7620,56.5007
53.8457,56.4840
Z" /> 
<path style="fill:#000000; fill-opacity:1.0000; stroke:none;fill-rule:evenodd;"
d="M 54.4346,128.9718
54.3494,128.9774
54.2686,128.9499
54.2044,128.8937
54.1667,128.8171
54.0534,128.3945
54.0479,128.3093
54.0753,128.2285
54.1316,128.1644
54.2081,128.1266
54.7032,127.9940
54.7883,127.9884
54.8692,128.0158
54.9333,128.0721
54.9711,128.1486
55.0843,128.5712
55.0899,128.6564
55.0625,128.7372
55.0062,128.8014
54.9296,128.8391
Z" /> 
<path style="fill:#000000; fill-opacity:1.0000; stroke:none;fill-rule:evenodd;"
d="M 54.0270,127.4505
53.9418,127.4560
53.8610,127.4286
53.7968,127.3723
53.7590,127.2958
53.6458,126.8732
53.6402,126.7880
53.6677,126.7072
53.7239,126.6430
53.8005,126.6053
54.2955,126.4726
54.3807,126.4670
54.4615,126.4945
54.5257,126.5508
54.5634,126.6273
54.6767,127.0499
54.6822,127.1351
54.6548,127.2159
54.5985,127.2801
54.5220,127.3178
Z" /> 
<path style="fill:#000000; fill-opacity:1.0000; stroke:none;fill-rule:evenodd;"
d="M 87.5262,90.4045
87.4424,90.3878
87.3715,90.3404
87.3241,90.2695
87.3074,90.1857
87.3074,89.7482
87.3241,89.6645
87.3715,89.5936
87.4424,89.5462
87.5262,89.5295
88.0386,89.5295
88.1224,89.5462
88.1933,89.5936
88.2407,89.6645
88.2574,89.7482
88.2574,90.1857
88.2407,90.2695
88.1933,90.3404
88.1224,90.3878
88.0386,90.4045
Z" /> 
<path style="fill:#000000; fill-opacity:1.0000; stroke:none;fill-rule:evenodd;"
d="M 87.5262,88.8295
87.4424,88.8128
87.3715,88.7654
87.3241,88.6945
87.3074,88.6107
87.3074,88.1732
87.3241,88.0895
87.3715,88.0186
87.4424,87.9712
87.5262,87.9545
88.0386,87.9545
88.1224,87.9712
88.1933,88.0186
88.2407,88.0895
88.2574,88.1732
88.2574,88.6107
88.2407,88.6945
88.1933,88.7654
88.1224,88.8128
88.0386,88.8295
Z" /> 
<path style="fill:#000000; fill-opacity:1.0000; stroke:none;fill-rule:evenodd;"
d="M 111.5282,52.3890
111.6120,52.4057
111.6829,52.4531
111.7303,52.5240
111.7470,52.6077
111.7470,53.0452
111.7303,53.1290
111.6829,53.1999
111.6120,53.2473
111.5282,53.2640
111.0157,53.2640
110.9320,53.2473
110.8611,53.1999
110.8137,53.1290
110.7970,53.0452
110.7970,52.6077
110.8137,52.5240
110.8611,52.4531
110.9320,52.4057
111.0157,52.3890
Z" /> 
<path style="fill:#000000; fill-opacity:1.0000; stroke:none;fill-rule:evenodd;"
d="M 111.5282,53.9640
111.6120,53.9807
111.6829,54.0281
111.7303,54.0990
111.7470,54.1827
111.7470,54.6202
111.7303,54.7040
111.6829,54.7749
111.6120,54.8223
111.5282,54.8390
111.0157,54.8390
110.9320,54.8223
110.8611,54.7749
110.8137,54.7040
110.7970,54.6202
110.7970,54.1827
110.8137,54.0990
110.8611,54.0281
110.9320,53.9807
111.0157,53.9640
Z" /> 
<path style="fill:#000000; fill-opacity:1.0000; stroke:none;fill-rule:evenodd;"
d="M 35.3027,95.5690
35.3865,95.5857
35.4574,95.6331
35.5048,95.7040
35.5215,95.7878
35.5215,96.2253
35.5048,96.3090
35.4574,96.3799
35.3865,96.4273
35.3027,96.4440
34.7903,96.4440
34.7065,96.4273
34.6356,96.3799
34.5882,96.3090
34.5715,96.2253
34.5715,95.7878
34.5882,95.7040
34.6356,95.6331
34.7065,95.5857
34.7903,95.5690
Z" /> 
<path style="fill:#000000; fill-opacity:1.0000; stroke:none;fill-rule:evenodd;"
d="M 35.3027,97.1440
35.3865,97.1607
35.4574,97.2081
35.5048,97.2790
35.5215,97.3627
35.5215,97.8002
35.5048,97.8840
35.4574,97.9549
35.3865,98.0023
35.3027,98.0190
34.7903,98.0190
34.7065,98.0023
34.6356,97.9549
34.5882,97.8840
34.5715,97.8002
34.5715,97.3627
34.5882,97.2790
34.6356,97.2081
34.7065,97.1607
34.7903,97.1440
Z" /> 
<path style="fill:#000000; fill-opacity:1.0000; stroke:none;fill-rule:evenodd;"
d="M 70.6012,106.8592
70.6012,107.6092
69.6012,107.6092
69.6012,106.8592
Z" /> 
<path style="fill:#000000; fill-opacity:1.0000; stroke:none;fill-rule:evenodd;"
d="M 76.6012,106.8592
76.6012,107.6092
75.6012,107.6092
75.6012,106.8592
Z" /> 
<path style="fill:#000000; fill-opacity:1.0000; stroke:none;fill-rule:evenodd;"
d="M 70.6012,103.1092
70.6012,103.8592
69.6012,103.8592
69.6012,103.1092
Z" /> 
<path style="fill:#000000; fill-opacity:1.0000; stroke:none;fill-rule:evenodd;"
d="M 76.6012,103.1092
76.6012,103.8592
75.6012,103.8592
75.6012,103.1092
Z" /> 
<path style="fill:#000000; fill-opacity:1.0000; stroke:none;fill-rule:evenodd;"
d="M 86.3390,99.2690
86.2625,99.2538
86.1976,99.2104
86.1542,99.1455
86.1390,99.0690
86.1390,98.6690
86.1542,98.5925
86.1976,98.5276
86.2625,98.4842
86.3390,98.4690
86.8890,98.4690
86.9655,98.4842
87.0304,98.5276
87.0738,98.5925
87.0890,98.6690
87.0890,99.0690
87.0738,99.1455
87.0304,99.2104
86.9655,99.2538
86.8890,99.2690
Z" /> 
<path style="fill:#000000; fill-opacity:1.0000; stroke:none;fill-rule:evenodd;"
d="M 86.3390,97.6190
86.2625,97.6038
86.1976,97.5604
86.1542,97.4955
86.1390,97.4190
86.1390,97.0190
86.1542,96.9425
86.1976,96.8776
86.2625,96.8342
86.3390,96.8190
86.8890,96.8190
86.9655,96.8342
87.0304,96.8776
87.0738,96.9425
87.0890,97.0190
87.0890,97.4190
87.0738,97.4955
87.0304,97.5604
86.9655,97.6038
86.8890,97.6190
Z" /> 
<path style="fill:#000000; fill-opacity:1.0000; stroke:none;fill-rule:evenodd;"
d="M 87.8782,95.3048
87.8953,95.2187
87.9441,95.1457
88.0171,95.0969
88.1032,95.0798
88.5532,95.0798
88.6393,95.0969
88.7123,95.1457
88.7611,95.2187
88.7782,95.3048
88.7782,95.8048
88.7611,95.8909
88.7123,95.9639
88.6393,96.0127
88.5532,96.0298
88.1032,96.0298
88.0171,96.0127
87.9441,95.9639
87.8953,95.8909
87.8782,95.8048
Z" /> 
<path style="fill:#000000; fill-opacity:1.0000; stroke:none;fill-rule:evenodd;"
d="M 89.4282,95.3048
89.4453,95.2187
89.4941,95.1457
89.5671,95.0969
89.6532,95.0798
90.1032,95.0798
90.1893,95.0969
90.2623,95.1457
90.3111,95.2187
90.3282,95.3048
90.3282,95.8048
90.3111,95.8909
90.2623,95.9639
90.1893,96.0127
90.1032,96.0298
89.6532,96.0298
89.5671,96.0127
89.4941,95.9639
89.4453,95.8909
89.4282,95.8048
Z" /> 
<path style="fill:#000000; fill-opacity:1.0000; stroke:none;fill-rule:evenodd;"
d="M 86.4830,105.7090
86.5691,105.7261
86.6421,105.7749
86.6909,105.8479
86.7080,105.9340
86.7080,106.3840
86.6909,106.4701
86.6421,106.5431
86.5691,106.5919
86.4830,106.6090
85.9830,106.6090
85.8969,106.5919
85.8239,106.5431
85.7751,106.4701
85.7580,106.3840
85.7580,105.9340
85.7751,105.8479
85.8239,105.7749
85.8969,105.7261
85.9830,105.7090
Z" /> 
<path style="fill:#000000; fill-opacity:1.0000; stroke:none;fill-rule:evenodd;"
d="M 86.4830,107.2590
86.5691,107.2761
86.6421,107.3249
86.6909,107.3979
86.7080,107.4840
86.7080,107.9340
86.6909,108.0201
86.6421,108.0931
86.5691,108.1419
86.4830,108.1590
85.9830,108.1590
85.8969,108.1419
85.8239,108.0931
85.7751,108.0201
85.7580,107.9340
85.7580,107.4840
85.7751,107.3979
85.8239,107.3249
85.8969,107.2761
85.9830,107.2590
Z" /> 
<path style="fill:#000000; fill-opacity:1.0000; stroke:none;fill-rule:evenodd;"
d="M 35.3083,57.4490
35.3920,57.4657
35.4629,57.5131
35.5103,57.5840
35.5270,57.6677
35.5270,58.1052
35.5103,58.1890
35.4629,58.2599
35.3920,58.3073
35.3083,58.3240
34.7957,58.3240
34.7120,58.3073
34.6411,58.2599
34.5937,58.1890
34.5770,58.1052
34.5770,57.6677
34.5937,57.5840
34.6411,57.5131
34.7120,57.4657
34.7957,57.4490
Z" /> 
<path style="fill:#000000; fill-opacity:1.0000; stroke:none;fill-rule:evenodd;"
d="M 35.3083,59.0240
35.3920,59.0407
35.4629,59.0881
35.5103,59.1590
35.5270,59.2427
35.5270,59.6802
35.5103,59.7640
35.4629,59.8349
35.3920,59.8823
35.3083,59.8990
34.7957,59.8990
34.7120,59.8823
34.6411,59.8349
34.5937,59.7640
34.5770,59.6802
34.5770,59.2427
34.5937,59.1590
34.6411,59.0881
34.7120,59.0407
34.7957,59.0240
Z" /> 
<path style="fill:#000000; fill-opacity:1.0000; stroke:none;fill-rule:evenodd;"
d="M 88.0574,84.6778
88.1339,84.6930
88.1988,84.7364
88.2422,84.8013
88.2574,84.8778
88.2574,85.2778
88.2422,85.3543
88.1988,85.4192
88.1339,85.4626
88.0574,85.4778
87.5074,85.4778
87.4309,85.4626
87.3660,85.4192
87.3226,85.3543
87.3074,85.2778
87.3074,84.8778
87.3226,84.8013
87.3660,84.7364
87.4309,84.6930
87.5074,84.6778
Z" /> 
<path style="fill:#000000; fill-opacity:1.0000; stroke:none;fill-rule:evenodd;"
d="M 88.0574,86.3278
88.1339,86.3430
88.1988,86.3864
88.2422,86.4513
88.2574,86.5278
88.2574,86.9278
88.2422,87.0043
88.1988,87.0692
88.1339,87.1126
88.0574,87.1278
87.5074,87.1278
87.4309,87.1126
87.3660,87.0692
87.3226,87.0043
87.3074,86.9278
87.3074,86.5278
87.3226,86.4513
87.3660,86.3864
87.4309,86.3430
87.5074,86.3278
Z" /> 
<path style="fill:#000000; fill-opacity:1.0000; stroke:none;fill-rule:evenodd;"
d="M 123.9542,90.4690
124.0380,90.4857
124.1089,90.5331
124.1563,90.6040
124.1730,90.6877
124.1730,91.1252
124.1563,91.2090
124.1089,91.2799
124.0380,91.3273
123.9542,91.3440
123.4417,91.3440
123.3580,91.3273
123.2871,91.2799
123.2397,91.2090
123.2230,91.1252
123.2230,90.6877
123.2397,90.6040
123.2871,90.5331
123.3580,90.4857
123.4417,90.4690
Z" /> 
<path style="fill:#000000; fill-opacity:1.0000; stroke:none;fill-rule:evenodd;"
d="M 123.9542,92.0440
124.0380,92.0607
124.1089,92.1081
124.1563,92.1790
124.1730,92.2627
124.1730,92.7002
124.1563,92.7840
124.1089,92.8549
124.0380,92.9023
123.9542,92.9190
123.4417,92.9190
123.3580,92.9023
123.2871,92.8549
123.2397,92.7840
123.2230,92.7002
123.2230,92.2627
123.2397,92.1790
123.2871,92.1081
123.3580,92.0607
123.4417,92.0440
Z" /> 
<path style="fill:#000000; fill-opacity:1.0000; stroke:none;fill-rule:evenodd;"
d="M 93.5962,118.6980
92.7477,117.8495
93.7376,116.8595
94.5862,117.7081
Z" /> 
<path style="fill:#000000; fill-opacity:1.0000; stroke:none;fill-rule:evenodd;"
d="M 95.1518,117.1424
94.3033,116.2939
95.2933,115.3039
96.1418,116.1524
Z" /> 
<path style="fill:#000000; fill-opacity:1.0000; stroke:none;fill-rule:evenodd;"
d="M 96.3539,118.3445
95.5054,117.4959
96.4953,116.5060
97.3439,117.3545
Z" /> 
<path style="fill:#000000; fill-opacity:1.0000; stroke:none;fill-rule:evenodd;"
d="M 94.7983,119.9001
93.9498,119.0516
94.9397,118.0616
95.7882,118.9101
Z" /> 
<path style="fill:#000000; fill-opacity:1.0000; stroke:none;fill-rule:evenodd;"
d="M 92.4783,47.3090
92.5620,47.3257
92.6329,47.3731
92.6803,47.4440
92.6970,47.5277
92.6970,47.9652
92.6803,48.0490
92.6329,48.1199
92.5620,48.1673
92.4783,48.1840
91.9657,48.1840
91.8820,48.1673
91.8111,48.1199
91.7637,48.0490
91.7470,47.9652
91.7470,47.5277
91.7637,47.4440
91.8111,47.3731
91.8820,47.3257
91.9657,47.3090
Z" /> 
<path style="fill:#000000; fill-opacity:1.0000; stroke:none;fill-rule:evenodd;"
d="M 92.4783,48.8840
92.5620,48.9007
92.6329,48.9481
92.6803,49.0190
92.6970,49.1028
92.6970,49.5403
92.6803,49.6240
92.6329,49.6949
92.5620,49.7423
92.4783,49.7590
91.9657,49.7590
91.8820,49.7423
91.8111,49.6949
91.7637,49.6240
91.7470,49.5403
91.7470,49.1028
91.7637,49.0190
91.8111,48.9481
91.8820,48.9007
91.9657,48.8840
Z" /> 
<path style="fill:#000000; fill-opacity:1.0000; stroke:none;fill-rule:evenodd;"
d="M 149.6027,43.4990
149.6865,43.5157
149.7574,43.5631
149.8048,43.6340
149.8215,43.7177
149.8215,44.1552
149.8048,44.2390
149.7574,44.3099
149.6865,44.3573
149.6027,44.3740
149.0902,44.3740
149.0065,44.3573
148.9356,44.3099
148.8882,44.2390
148.8715,44.1552
148.8715,43.7177
148.8882,43.6340
148.9356,43.5631
149.0065,43.5157
149.0902,43.4990
Z" /> 
<path style="fill:#000000; fill-opacity:1.0000; stroke:none;fill-rule:evenodd;"
d="M 149.6027,45.0740
149.6865,45.0907
149.7574,45.1381
149.8048,45.2090
149.8215,45.2927
149.8215,45.7302
149.8048,45.8140
149.7574,45.8849
149.6865,45.9323
149.6027,45.9490
149.0902,45.9490
149.0065,45.9323
148.9356,45.8849
148.8882,45.8140
148.8715,45.7302
148.8715,45.2927
148.8882,45.2090
148.9356,45.1381
149.0065,45.0907
149.0902,45.0740
Z" /> 
<path style="fill:#000000; fill-opacity:1.0000; stroke:none;fill-rule:evenodd;"
d="M 92.4783,66.3590
92.5620,66.3757
92.6329,66.4231
92.6803,66.4940
92.6970,66.5777
92.6970,67.0152
92.6803,67.0990
92.6329,67.1699
92.5620,67.2173
92.4783,67.2340
91.9657,67.2340
91.8820,67.2173
91.8111,67.1699
91.7637,67.0990
91.7470,67.0152
91.7470,66.5777
91.7637,66.4940
91.8111,66.4231
91.8820,66.3757
91.9657,66.3590
Z" /> 
<path style="fill:#000000; fill-opacity:1.0000; stroke:none;fill-rule:evenodd;"
d="M 92.4783,67.9340
92.5620,67.9507
92.6329,67.9981
92.6803,68.0690
92.6970,68.1527
92.6970,68.5902
92.6803,68.6740
92.6329,68.7449
92.5620,68.7923
92.4783,68.8090
91.9657,68.8090
91.8820,68.7923
91.8111,68.7449
91.7637,68.6740
91.7470,68.5902
91.7470,68.1527
91.7637,68.0690
91.8111,67.9981
91.8820,67.9507
91.9657,67.9340
Z" /> 
<path style="fill:#000000; fill-opacity:1.0000; stroke:none;fill-rule:evenodd;"
d="M 73.4082,90.4690
73.4920,90.4857
73.5629,90.5331
73.6103,90.6040
73.6270,90.6877
73.6270,91.1252
73.6103,91.2090
73.5629,91.2799
73.4920,91.3273
73.4082,91.3440
72.8957,91.3440
72.8120,91.3273
72.7411,91.2799
72.6937,91.2090
72.6770,91.1252
72.6770,90.6877
72.6937,90.6040
72.7411,90.5331
72.8120,90.4857
72.8957,90.4690
Z" /> 
<path style="fill:#000000; fill-opacity:1.0000; stroke:none;fill-rule:evenodd;"
d="M 73.4082,92.0440
73.4920,92.0607
73.5629,92.1081
73.6103,92.1790
73.6270,92.2627
73.6270,92.7002
73.6103,92.7840
73.5629,92.8549
73.4920,92.9023
73.4082,92.9190
72.8957,92.9190
72.8120,92.9023
72.7411,92.8549
72.6937,92.7840
72.6770,92.7002
72.6770,92.2627
72.6937,92.1790
72.7411,92.1081
72.8120,92.0607
72.8957,92.0440
Z" /> 
<path style="fill:#000000; fill-opacity:1.0000; stroke:none;fill-rule:evenodd;"
d="M 73.4428,125.2756
73.3575,125.2737
73.2794,125.2393
73.2203,125.1777
73.1894,125.0981
73.1134,124.6673
73.1153,124.5819
73.1497,124.5038
73.2113,124.4448
73.2909,124.4139
73.7956,124.3249
73.8809,124.3267
73.9590,124.3611
74.0181,124.4227
74.0490,124.5023
74.1250,124.9332
74.1231,125.0185
74.0887,125.0966
74.0271,125.1556
73.9475,125.1866
Z" /> 
<path style="fill:#000000; fill-opacity:1.0000; stroke:none;fill-rule:evenodd;"
d="M 73.1693,123.7245
73.0840,123.7226
73.0059,123.6882
72.9468,123.6266
72.9159,123.5470
72.8399,123.1162
72.8418,123.0309
72.8762,122.9527
72.9378,122.8937
73.0174,122.8628
73.5221,122.7738
73.6074,122.7756
73.6856,122.8100
73.7446,122.8717
73.7755,122.9512
73.8515,123.3821
73.8496,123.4674
73.8152,123.5455
73.7536,123.6046
73.6740,123.6355
Z" /> 
<path style="fill:#000000; fill-opacity:1.0000; stroke:none;fill-rule:evenodd;"
d="M 96.4380,110.8750
96.4551,110.7889
96.5039,110.7159
96.5769,110.6671
96.6630,110.6500
97.1130,110.6500
97.1991,110.6671
97.2721,110.7159
97.3209,110.7889
97.3380,110.8750
97.3380,111.3750
97.3209,111.4611
97.2721,111.5341
97.1991,111.5829
97.1130,111.6000
96.6630,111.6000
96.5769,111.5829
96.5039,111.5341
96.4551,111.4611
96.4380,111.3750
Z" /> 
<path style="fill:#000000; fill-opacity:1.0000; stroke:none;fill-rule:evenodd;"
d="M 97.9880,110.8750
98.0051,110.7889
98.0539,110.7159
98.1269,110.6671
98.2130,110.6500
98.6630,110.6500
98.7491,110.6671
98.8221,110.7159
98.8709,110.7889
98.8880,110.8750
98.8880,111.3750
98.8709,111.4611
98.8221,111.5341
98.7491,111.5829
98.6630,111.6000
98.2130,111.6000
98.1269,111.5829
98.0539,111.5341
98.0051,111.4611
97.9880,111.3750
Z" /> 
<path style="fill:#000000; fill-opacity:1.0000; stroke:none;fill-rule:evenodd;"
d="M 130.5528,43.3720
130.6365,43.3887
130.7074,43.4361
130.7548,43.5070
130.7715,43.5907
130.7715,44.0282
130.7548,44.1120
130.7074,44.1829
130.6365,44.2303
130.5528,44.2470
130.0402,44.2470
129.9565,44.2303
129.8856,44.1829
129.8382,44.1120
129.8215,44.0282
129.8215,43.5907
129.8382,43.5070
129.8856,43.4361
129.9565,43.3887
130.0402,43.3720
Z" /> 
<path style="fill:#000000; fill-opacity:1.0000; stroke:none;fill-rule:evenodd;"
d="M 130.5528,44.9470
130.6365,44.9637
130.7074,45.0111
130.7548,45.0820
130.7715,45.1657
130.7715,45.6032
130.7548,45.6870
130.7074,45.7579
130.6365,45.8053
130.5528,45.8220
130.0402,45.8220
129.9565,45.8053
129.8856,45.7579
129.8382,45.6870
129.8215,45.6032
129.8215,45.1657
129.8382,45.0820
129.8856,45.0111
129.9565,44.9637
130.0402,44.9470
Z" /> 
<path style="fill:#000000; fill-opacity:1.0000; stroke:none;fill-rule:evenodd;"
d="M 54.3782,73.9790
54.4620,73.9957
54.5329,74.0431
54.5803,74.1140
54.5970,74.1977
54.5970,74.6352
54.5803,74.7190
54.5329,74.7899
54.4620,74.8373
54.3782,74.8540
53.8657,74.8540
53.7820,74.8373
53.7111,74.7899
53.6637,74.7190
53.6470,74.6352
53.6470,74.1977
53.6637,74.1140
53.7111,74.0431
53.7820,73.9957
53.8657,73.9790
Z" /> 
<path style="fill:#000000; fill-opacity:1.0000; stroke:none;fill-rule:evenodd;"
d="M 54.3782,75.5540
54.4620,75.5707
54.5329,75.6181
54.5803,75.6890
54.5970,75.7728
54.5970,76.2103
54.5803,76.2940
54.5329,76.3649
54.4620,76.4123
54.3782,76.4290
53.8657,76.4290
53.7820,76.4123
53.7111,76.3649
53.6637,76.2940
53.6470,76.2103
53.6470,75.7728
53.6637,75.6890
53.7111,75.6181
53.7820,75.5707
53.8657,75.5540
Z" /> 
<path style="fill:#000000; fill-opacity:1.0000; stroke:none;fill-rule:evenodd;"
d="M 105.2850,88.0860
105.2964,88.0286
105.3289,87.9799
105.3776,87.9474
105.4350,87.9360
105.7350,87.9360
105.7924,87.9474
105.8411,87.9799
105.8736,88.0286
105.8850,88.0860
105.8850,89.3360
105.8736,89.3934
105.8411,89.4421
105.7924,89.4746
105.7350,89.4860
105.4350,89.4860
105.3776,89.4746
105.3289,89.4421
105.2964,89.3934
105.2850,89.3360
Z" /> 
<path style="fill:#000000; fill-opacity:1.0000; stroke:none;fill-rule:evenodd;"
d="M 106.2850,88.0860
106.2964,88.0286
106.3289,87.9799
106.3776,87.9474
106.4350,87.9360
106.7350,87.9360
106.7924,87.9474
106.8411,87.9799
106.8736,88.0286
106.8850,88.0860
106.8850,89.3360
106.8736,89.3934
106.8411,89.4421
106.7924,89.4746
106.7350,89.4860
106.4350,89.4860
106.3776,89.4746
106.3289,89.4421
106.2964,89.3934
106.2850,89.3360
Z" /> 
<path style="fill:#000000; fill-opacity:1.0000; stroke:none;fill-rule:evenodd;"
d="M 107.2850,88.0860
107.2964,88.0286
107.3289,87.9799
107.3776,87.9474
107.4350,87.9360
107.7350,87.9360
107.7924,87.9474
107.8411,87.9799
107.8736,88.0286
107.8850,88.0860
107.8850,89.3360
107.8736,89.3934
107.8411,89.4421
107.7924,89.4746
107.7350,89.4860
107.4350,89.4860
107.3776,89.4746
107.3289,89.4421
107.2964,89.3934
107.2850,89.3360
Z" /> 
<path style="fill:#000000; fill-opacity:1.0000; stroke:none;fill-rule:evenodd;"
d="M 108.2850,88.0860
108.2964,88.0286
108.3289,87.9799
108.3776,87.9474
108.4350,87.9360
108.7350,87.9360
108.7924,87.9474
108.8411,87.9799
108.8736,88.0286
108.8850,88.0860
108.8850,89.3360
108.8736,89.3934
108.8411,89.4421
108.7924,89.4746
108.7350,89.4860
108.4350,89.4860
108.3776,89.4746
108.3289,89.4421
108.2964,89.3934
108.2850,89.3360
Z" /> 
<path style="fill:#000000; fill-opacity:1.0000; stroke:none;fill-rule:evenodd;"
d="M 103.6850,84.1860
103.7040,84.0903
103.7582,84.0092
103.8393,83.9550
103.9350,83.9360
104.6350,83.9360
104.7307,83.9550
104.8118,84.0092
104.8660,84.0903
104.8850,84.1860
104.8850,85.4860
104.8660,85.5817
104.8118,85.6628
104.7307,85.7170
104.6350,85.7360
103.9350,85.7360
103.8393,85.7170
103.7582,85.6628
103.7040,85.5817
103.6850,85.4860
Z" /> 
<path style="fill:#000000; fill-opacity:1.0000; stroke:none;fill-rule:evenodd;"
d="M 109.2850,84.1860
109.3040,84.0903
109.3582,84.0092
109.4393,83.9550
109.5350,83.9360
110.2350,83.9360
110.3307,83.9550
110.4118,84.0092
110.4660,84.0903
110.4850,84.1860
110.4850,85.4860
110.4660,85.5817
110.4118,85.6628
110.3307,85.7170
110.2350,85.7360
109.5350,85.7360
109.4393,85.7170
109.3582,85.6628
109.3040,85.5817
109.2850,85.4860
Z" /> 
<path style="fill:#000000; fill-opacity:1.0000; stroke:none;fill-rule:evenodd;"
d="M 92.4783,85.3820
92.5620,85.3987
92.6329,85.4461
92.6803,85.5170
92.6970,85.6007
92.6970,86.0382
92.6803,86.1220
92.6329,86.1929
92.5620,86.2403
92.4783,86.2570
91.9657,86.2570
91.8820,86.2403
91.8111,86.1929
91.7637,86.1220
91.7470,86.0382
91.7470,85.6007
91.7637,85.5170
91.8111,85.4461
91.8820,85.3987
91.9657,85.3820
Z" /> 
<path style="fill:#000000; fill-opacity:1.0000; stroke:none;fill-rule:evenodd;"
d="M 92.4783,86.9570
92.5620,86.9737
92.6329,87.0211
92.6803,87.0920
92.6970,87.1757
92.6970,87.6132
92.6803,87.6970
92.6329,87.7679
92.5620,87.8153
92.4783,87.8320
91.9657,87.8320
91.8820,87.8153
91.8111,87.7679
91.7637,87.6970
91.7470,87.6132
91.7470,87.1757
91.7637,87.0920
91.8111,87.0211
91.8820,86.9737
91.9657,86.9570
Z" /> 
<path style="fill:#000000; fill-opacity:1.0000; stroke:none;fill-rule:evenodd;"
d="M 92.2346,118.9320
92.3076,118.8832
92.3937,118.8661
92.4798,118.8832
92.5528,118.9320
92.8710,119.2502
92.9197,119.3232
92.9369,119.4093
92.9197,119.4954
92.8710,119.5684
92.5174,119.9220
92.4444,119.9707
92.3583,119.9879
92.2722,119.9707
92.1992,119.9220
91.8810,119.6038
91.8322,119.5308
91.8151,119.4447
91.8322,119.3586
91.8810,119.2856
Z" /> 
<path style="fill:#000000; fill-opacity:1.0000; stroke:none;fill-rule:evenodd;"
d="M 93.3306,120.0280
93.4036,119.9793
93.4897,119.9621
93.5758,119.9793
93.6488,120.0280
93.9670,120.3462
94.0157,120.4192
94.0329,120.5053
94.0157,120.5914
93.9670,120.6644
93.6134,121.0180
93.5404,121.0667
93.4543,121.0839
93.3682,121.0667
93.2952,121.0180
92.9770,120.6998
92.9283,120.6268
92.9111,120.5407
92.9283,120.4546
92.9770,120.3816
Z" /> 
<path style="fill:#000000; fill-opacity:1.0000; stroke:none;fill-rule:evenodd;"
d="M 104.2220,110.4922
104.2053,110.5760
104.1579,110.6469
104.0870,110.6943
104.0032,110.7110
103.5657,110.7110
103.4820,110.6943
103.4111,110.6469
103.3637,110.5760
103.3470,110.4922
103.3470,109.9797
103.3637,109.8960
103.4111,109.8251
103.4820,109.7777
103.5657,109.7610
104.0032,109.7610
104.0870,109.7777
104.1579,109.8251
104.2053,109.8960
104.2220,109.9797
Z" /> 
<path style="fill:#000000; fill-opacity:1.0000; stroke:none;fill-rule:evenodd;"
d="M 102.6470,110.4922
102.6303,110.5760
102.5829,110.6469
102.5120,110.6943
102.4282,110.7110
101.9907,110.7110
101.9070,110.6943
101.8361,110.6469
101.7887,110.5760
101.7720,110.4922
101.7720,109.9797
101.7887,109.8960
101.8361,109.8251
101.9070,109.7777
101.9907,109.7610
102.4282,109.7610
102.5120,109.7777
102.5829,109.8251
102.6303,109.8960
102.6470,109.9797
Z" /> 
<path style="fill:#000000; fill-opacity:1.0000; stroke:none;fill-rule:evenodd;"
d="M 54.3528,93.0290
54.4365,93.0457
54.5074,93.0931
54.5548,93.1640
54.5715,93.2477
54.5715,93.6852
54.5548,93.7690
54.5074,93.8399
54.4365,93.8873
54.3528,93.9040
53.8402,93.9040
53.7565,93.8873
53.6856,93.8399
53.6382,93.7690
53.6215,93.6852
53.6215,93.2477
53.6382,93.1640
53.6856,93.0931
53.7565,93.0457
53.8402,93.0290
Z" /> 
<path style="fill:#000000; fill-opacity:1.0000; stroke:none;fill-rule:evenodd;"
d="M 54.3528,94.6040
54.4365,94.6207
54.5074,94.6681
54.5548,94.7390
54.5715,94.8227
54.5715,95.2602
54.5548,95.3440
54.5074,95.4149
54.4365,95.4623
54.3528,95.4790
53.8402,95.4790
53.7565,95.4623
53.6856,95.4149
53.6382,95.3440
53.6215,95.2602
53.6215,94.8227
53.6382,94.7390
53.6856,94.6681
53.7565,94.6207
53.8402,94.6040
Z" /> 
<path style="fill:#000000; fill-opacity:1.0000; stroke:none;fill-rule:evenodd;"
d="M 54.3582,35.8335
54.4420,35.8502
54.5129,35.8976
54.5603,35.9685
54.5770,36.0523
54.5770,36.4898
54.5603,36.5735
54.5129,36.6444
54.4420,36.6918
54.3582,36.7085
53.8457,36.7085
53.7620,36.6918
53.6911,36.6444
53.6437,36.5735
53.6270,36.4898
53.6270,36.0523
53.6437,35.9685
53.6911,35.8976
53.7620,35.8502
53.8457,35.8335
Z" /> 
<path style="fill:#000000; fill-opacity:1.0000; stroke:none;fill-rule:evenodd;"
d="M 54.3582,37.4085
54.4420,37.4252
54.5129,37.4726
54.5603,37.5435
54.5770,37.6272
54.5770,38.0647
54.5603,38.1485
54.5129,38.2194
54.4420,38.2668
54.3582,38.2835
53.8457,38.2835
53.7620,38.2668
53.6911,38.2194
53.6437,38.1485
53.6270,38.0647
53.6270,37.6272
53.6437,37.5435
53.6911,37.4726
53.7620,37.4252
53.8457,37.4085
Z" /> 
<path style="fill:#000000; fill-opacity:1.0000; stroke:none;fill-rule:evenodd;"
d="M 130.5782,100.6490
130.6620,100.6657
130.7329,100.7131
130.7803,100.7840
130.7970,100.8678
130.7970,101.3053
130.7803,101.3890
130.7329,101.4599
130.6620,101.5073
130.5782,101.5240
130.0657,101.5240
129.9820,101.5073
129.9111,101.4599
129.8637,101.3890
129.8470,101.3053
129.8470,100.8678
129.8637,100.7840
129.9111,100.7131
129.9820,100.6657
130.0657,100.6490
Z" /> 
<path style="fill:#000000; fill-opacity:1.0000; stroke:none;fill-rule:evenodd;"
d="M 130.5782,102.2240
130.6620,102.2407
130.7329,102.2881
130.7803,102.3590
130.7970,102.4427
130.7970,102.8802
130.7803,102.9640
130.7329,103.0349
130.6620,103.0823
130.5782,103.0990
130.0657,103.0990
129.9820,103.0823
129.9111,103.0349
129.8637,102.9640
129.8470,102.8802
129.8470,102.4427
129.8637,102.3590
129.9111,102.2881
129.9820,102.2407
130.0657,102.2240
Z" /> 
<path style="fill:#000000; fill-opacity:1.0000; stroke:none;fill-rule:evenodd;"
d="M 111.5027,33.3390
111.5865,33.3557
111.6574,33.4031
111.7048,33.4740
111.7215,33.5577
111.7215,33.9952
111.7048,34.0790
111.6574,34.1499
111.5865,34.1973
111.5027,34.2140
110.9902,34.2140
110.9065,34.1973
110.8356,34.1499
110.7882,34.0790
110.7715,33.9952
110.7715,33.5577
110.7882,33.4740
110.8356,33.4031
110.9065,33.3557
110.9902,33.3390
Z" /> 
<path style="fill:#000000; fill-opacity:1.0000; stroke:none;fill-rule:evenodd;"
d="M 111.5027,34.9140
111.5865,34.9307
111.6574,34.9781
111.7048,35.0490
111.7215,35.1328
111.7215,35.5703
111.7048,35.6540
111.6574,35.7249
111.5865,35.7723
111.5027,35.7890
110.9902,35.7890
110.9065,35.7723
110.8356,35.7249
110.7882,35.6540
110.7715,35.5703
110.7715,35.1328
110.7882,35.0490
110.8356,34.9781
110.9065,34.9307
110.9902,34.9140
Z" /> 
<path style="fill:#000000; fill-opacity:1.0000; stroke:none;fill-rule:evenodd;"
d="M 99.0280,95.6270
99.0109,95.7131
98.9621,95.7861
98.8891,95.8349
98.8030,95.8520
98.3530,95.8520
98.2669,95.8349
98.1939,95.7861
98.1451,95.7131
98.1280,95.6270
98.1280,95.1270
98.1451,95.0409
98.1939,94.9679
98.2669,94.9191
98.3530,94.9020
98.8030,94.9020
98.8891,94.9191
98.9621,94.9679
99.0109,95.0409
99.0280,95.1270
Z" /> 
<path style="fill:#000000; fill-opacity:1.0000; stroke:none;fill-rule:evenodd;"
d="M 97.4780,95.6270
97.4609,95.7131
97.4121,95.7861
97.3391,95.8349
97.2530,95.8520
96.8030,95.8520
96.7169,95.8349
96.6439,95.7861
96.5951,95.7131
96.5780,95.6270
96.5780,95.1270
96.5951,95.0409
96.6439,94.9679
96.7169,94.9191
96.8030,94.9020
97.2530,94.9020
97.3391,94.9191
97.4121,94.9679
97.4609,95.0409
97.4780,95.1270
Z" /> 
<path style="fill:#000000; fill-opacity:1.0000; stroke:none;fill-rule:evenodd;"
d="M 73.4282,52.3890
73.5120,52.4057
73.5829,52.4531
73.6303,52.5240
73.6470,52.6077
73.6470,53.0452
73.6303,53.1290
73.5829,53.1999
73.5120,53.2473
73.4282,53.2640
72.9158,53.2640
72.8320,53.2473
72.7611,53.1999
72.7137,53.1290
72.6970,53.0452
72.6970,52.6077
72.7137,52.5240
72.7611,52.4531
72.8320,52.4057
72.9158,52.3890
Z" /> 
<path style="fill:#000000; fill-opacity:1.0000; stroke:none;fill-rule:evenodd;"
d="M 73.4282,53.9640
73.5120,53.9807
73.5829,54.0281
73.6303,54.0990
73.6470,54.1827
73.6470,54.6202
73.6303,54.7040
73.5829,54.7749
73.5120,54.8223
73.4282,54.8390
72.9158,54.8390
72.8320,54.8223
72.7611,54.7749
72.7137,54.7040
72.6970,54.6202
72.6970,54.1827
72.7137,54.0990
72.7611,54.0281
72.8320,53.9807
72.9158,53.9640
Z" /> 
<path style="fill:#000000; fill-opacity:1.0000; stroke:none;fill-rule:evenodd;"
d="M 101.6450,99.3180
101.6621,99.2319
101.7109,99.1589
101.7839,99.1101
101.8700,99.0930
102.3200,99.0930
102.4061,99.1101
102.4791,99.1589
102.5279,99.2319
102.5450,99.3180
102.5450,99.8180
102.5279,99.9041
102.4791,99.9771
102.4061,100.0259
102.3200,100.0430
101.8700,100.0430
101.7839,100.0259
101.7109,99.9771
101.6621,99.9041
101.6450,99.8180
Z" /> 
<path style="fill:#000000; fill-opacity:1.0000; stroke:none;fill-rule:evenodd;"
d="M 103.1950,99.3180
103.2121,99.2319
103.2609,99.1589
103.3339,99.1101
103.4200,99.0930
103.8700,99.0930
103.9561,99.1101
104.0291,99.1589
104.0779,99.2319
104.0950,99.3180
104.0950,99.8180
104.0779,99.9041
104.0291,99.9771
103.9561,100.0259
103.8700,100.0430
103.4200,100.0430
103.3339,100.0259
103.2609,99.9771
103.2121,99.9041
103.1950,99.8180
Z" /> 
<path style="fill:#000000; fill-opacity:1.0000; stroke:none;fill-rule:evenodd;"
d="M 92.4783,28.2590
92.5620,28.2757
92.6329,28.3231
92.6803,28.3940
92.6970,28.4778
92.6970,28.9153
92.6803,28.9990
92.6329,29.0699
92.5620,29.1173
92.4783,29.1340
91.9657,29.1340
91.8820,29.1173
91.8111,29.0699
91.7637,28.9990
91.7470,28.9153
91.7470,28.4778
91.7637,28.3940
91.8111,28.3231
91.8820,28.2757
91.9657,28.2590
Z" /> 
<path style="fill:#000000; fill-opacity:1.0000; stroke:none;fill-rule:evenodd;"
d="M 92.4783,29.8340
92.5620,29.8507
92.6329,29.8981
92.6803,29.9690
92.6970,30.0527
92.6970,30.4902
92.6803,30.5740
92.6329,30.6449
92.5620,30.6923
92.4783,30.7090
91.9657,30.7090
91.8820,30.6923
91.8111,30.6449
91.7637,30.5740
91.7470,30.4902
91.7470,30.0527
91.7637,29.9690
91.8111,29.8981
91.8820,29.8507
91.9657,29.8340
Z" /> 
<path style="fill:#000000; fill-opacity:1.0000; stroke:none;fill-rule:evenodd;"
d="M 150.1590,61.7197
150.1757,61.6360
150.2231,61.5651
150.2940,61.5177
150.3777,61.5010
150.8152,61.5010
150.8990,61.5177
150.9699,61.5651
151.0173,61.6360
151.0340,61.7197
151.0340,62.2323
151.0173,62.3160
150.9699,62.3869
150.8990,62.4343
150.8152,62.4510
150.3777,62.4510
150.2940,62.4343
150.2231,62.3869
150.1757,62.3160
150.1590,62.2323
Z" /> 
<path style="fill:#000000; fill-opacity:1.0000; stroke:none;fill-rule:evenodd;"
d="M 151.7340,61.7197
151.7507,61.6360
151.7981,61.5651
151.8690,61.5177
151.9527,61.5010
152.3902,61.5010
152.4740,61.5177
152.5449,61.5651
152.5923,61.6360
152.6090,61.7197
152.6090,62.2323
152.5923,62.3160
152.5449,62.3869
152.4740,62.4343
152.3902,62.4510
151.9527,62.4510
151.8690,62.4343
151.7981,62.3869
151.7507,62.3160
151.7340,62.2323
Z" /> 
<path style="fill:#000000; fill-opacity:1.0000; stroke:none;fill-rule:evenodd;"
d="M 78.2530,105.4550
78.3295,105.4702
78.3944,105.5136
78.4378,105.5785
78.4530,105.6550
78.4530,106.0550
78.4378,106.1315
78.3944,106.1964
78.3295,106.2398
78.2530,106.2550
77.7030,106.2550
77.6265,106.2398
77.5616,106.1964
77.5182,106.1315
77.5030,106.0550
77.5030,105.6550
77.5182,105.5785
77.5616,105.5136
77.6265,105.4702
77.7030,105.4550
Z" /> 
<path style="fill:#000000; fill-opacity:1.0000; stroke:none;fill-rule:evenodd;"
d="M 78.2530,107.1050
78.3295,107.1202
78.3944,107.1636
78.4378,107.2285
78.4530,107.3050
78.4530,107.7050
78.4378,107.7815
78.3944,107.8464
78.3295,107.8898
78.2530,107.9050
77.7030,107.9050
77.6265,107.8898
77.5616,107.8464
77.5182,107.7815
77.5030,107.7050
77.5030,107.3050
77.5182,107.2285
77.5616,107.1636
77.6265,107.1202
77.7030,107.1050
Z" /> 
<path style="fill:#000000; fill-opacity:1.0000; stroke:none;fill-rule:evenodd;"
d="M 85.7481,90.4045
85.6644,90.3878
85.5935,90.3404
85.5461,90.2695
85.5294,90.1857
85.5294,89.7482
85.5461,89.6645
85.5935,89.5936
85.6644,89.5462
85.7481,89.5295
86.2606,89.5295
86.3444,89.5462
86.4153,89.5936
86.4627,89.6645
86.4794,89.7482
86.4794,90.1857
86.4627,90.2695
86.4153,90.3404
86.3444,90.3878
86.2606,90.4045
Z" /> 
<path style="fill:#000000; fill-opacity:1.0000; stroke:none;fill-rule:evenodd;"
d="M 85.7481,88.8295
85.6644,88.8128
85.5935,88.7654
85.5461,88.6945
85.5294,88.6107
85.5294,88.1732
85.5461,88.0895
85.5935,88.0186
85.6644,87.9712
85.7481,87.9545
86.2606,87.9545
86.3444,87.9712
86.4153,88.0186
86.4627,88.0895
86.4794,88.1732
86.4794,88.6107
86.4627,88.6945
86.4153,88.7654
86.3444,88.8128
86.2606,88.8295
Z" /> 
<path style="fill:#000000; fill-opacity:1.0000; stroke:none;fill-rule:evenodd;"
d="M 73.4027,33.3390
73.4865,33.3557
73.5574,33.4031
73.6048,33.4740
73.6215,33.5577
73.6215,33.9952
73.6048,34.0790
73.5574,34.1499
73.4865,34.1973
73.4027,34.2140
72.8902,34.2140
72.8065,34.1973
72.7356,34.1499
72.6882,34.0790
72.6715,33.9952
72.6715,33.5577
72.6882,33.4740
72.7356,33.4031
72.8065,33.3557
72.8902,33.3390
Z" /> 
<path style="fill:#000000; fill-opacity:1.0000; stroke:none;fill-rule:evenodd;"
d="M 73.4027,34.9140
73.4865,34.9307
73.5574,34.9781
73.6048,35.0490
73.6215,35.1328
73.6215,35.5703
73.6048,35.6540
73.5574,35.7249
73.4865,35.7723
73.4027,35.7890
72.8902,35.7890
72.8065,35.7723
72.7356,35.7249
72.6882,35.6540
72.6715,35.5703
72.6715,35.1328
72.6882,35.0490
72.7356,34.9781
72.8065,34.9307
72.8902,34.9140
Z" /> 
<path style="fill:#000000; fill-opacity:1.0000; stroke:none;fill-rule:evenodd;"
d="M 106.3200,96.3110
106.3965,96.3262
106.4614,96.3696
106.5048,96.4345
106.5200,96.5110
106.5200,96.9110
106.5048,96.9875
106.4614,97.0524
106.3965,97.0958
106.3200,97.1110
105.7700,97.1110
105.6935,97.0958
105.6286,97.0524
105.5852,96.9875
105.5700,96.9110
105.5700,96.5110
105.5852,96.4345
105.6286,96.3696
105.6935,96.3262
105.7700,96.3110
Z" /> 
<path style="fill:#000000; fill-opacity:1.0000; stroke:none;fill-rule:evenodd;"
d="M 106.3200,97.9610
106.3965,97.9762
106.4614,98.0196
106.5048,98.0845
106.5200,98.1610
106.5200,98.5610
106.5048,98.6375
106.4614,98.7024
106.3965,98.7458
106.3200,98.7610
105.7700,98.7610
105.6935,98.7458
105.6286,98.7024
105.5852,98.6375
105.5700,98.5610
105.5700,98.1610
105.5852,98.0845
105.6286,98.0196
105.6935,97.9762
105.7700,97.9610
Z" /> 
<path style="fill:#000000; fill-opacity:1.0000; stroke:none;fill-rule:evenodd;"
d="M 123.7002,73.4510
123.7840,73.4677
123.8549,73.5151
123.9023,73.5860
123.9190,73.6697
123.9190,74.1072
123.9023,74.1910
123.8549,74.2619
123.7840,74.3093
123.7002,74.3260
123.1877,74.3260
123.1040,74.3093
123.0331,74.2619
122.9857,74.1910
122.9690,74.1072
122.9690,73.6697
122.9857,73.5860
123.0331,73.5151
123.1040,73.4677
123.1877,73.4510
Z" /> 
<path style="fill:#000000; fill-opacity:1.0000; stroke:none;fill-rule:evenodd;"
d="M 123.7002,75.0260
123.7840,75.0427
123.8549,75.0901
123.9023,75.1610
123.9190,75.2447
123.9190,75.6822
123.9023,75.7660
123.8549,75.8369
123.7840,75.8843
123.7002,75.9010
123.1877,75.9010
123.1040,75.8843
123.0331,75.8369
122.9857,75.7660
122.9690,75.6822
122.9690,75.2447
122.9857,75.1610
123.0331,75.0901
123.1040,75.0427
123.1877,75.0260
Z" /> 
<path style="fill:#000000; fill-opacity:1.0000; stroke:none;fill-rule:evenodd;"
d="M 153.9340,80.6750
153.8766,80.6636
153.8279,80.6311
153.7954,80.5824
153.7840,80.5250
153.7840,80.2250
153.7954,80.1676
153.8279,80.1189
153.8766,80.0864
153.9340,80.0750
155.1840,80.0750
155.2414,80.0864
155.2901,80.1189
155.3226,80.1676
155.3340,80.2250
155.3340,80.5250
155.3226,80.5824
155.2901,80.6311
155.2414,80.6636
155.1840,80.6750
Z" /> 
<path style="fill:#000000; fill-opacity:1.0000; stroke:none;fill-rule:evenodd;"
d="M 153.9340,79.6750
153.8766,79.6636
153.8279,79.6311
153.7954,79.5824
153.7840,79.5250
153.7840,79.2250
153.7954,79.1676
153.8279,79.1189
153.8766,79.0864
153.9340,79.0750
155.1840,79.0750
155.2414,79.0864
155.2901,79.1189
155.3226,79.1676
155.3340,79.2250
155.3340,79.5250
155.3226,79.5824
155.2901,79.6311
155.2414,79.6636
155.1840,79.6750
Z" /> 
<path style="fill:#000000; fill-opacity:1.0000; stroke:none;fill-rule:evenodd;"
d="M 153.9340,78.6750
153.8766,78.6636
153.8279,78.6311
153.7954,78.5824
153.7840,78.5250
153.7840,78.2250
153.7954,78.1676
153.8279,78.1189
153.8766,78.0864
153.9340,78.0750
155.1840,78.0750
155.2414,78.0864
155.2901,78.1189
155.3226,78.1676
155.3340,78.2250
155.3340,78.5250
155.3226,78.5824
155.2901,78.6311
155.2414,78.6636
155.1840,78.6750
Z" /> 
<path style="fill:#000000; fill-opacity:1.0000; stroke:none;fill-rule:evenodd;"
d="M 153.9340,77.6750
153.8766,77.6636
153.8279,77.6311
153.7954,77.5824
153.7840,77.5250
153.7840,77.2250
153.7954,77.1676
153.8279,77.1189
153.8766,77.0864
153.9340,77.0750
155.1840,77.0750
155.2414,77.0864
155.2901,77.1189
155.3226,77.1676
155.3340,77.2250
155.3340,77.5250
155.3226,77.5824
155.2901,77.6311
155.2414,77.6636
155.1840,77.6750
Z" /> 
<path style="fill:#000000; fill-opacity:1.0000; stroke:none;fill-rule:evenodd;"
d="M 153.9340,76.6750
153.8766,76.6636
153.8279,76.6311
153.7954,76.5824
153.7840,76.5250
153.7840,76.2250
153.7954,76.1676
153.8279,76.1189
153.8766,76.0864
153.9340,76.0750
155.1840,76.0750
155.2414,76.0864
155.2901,76.1189
155.3226,76.1676
155.3340,76.2250
155.3340,76.5250
155.3226,76.5824
155.2901,76.6311
155.2414,76.6636
155.1840,76.6750
Z" /> 
<path style="fill:#000000; fill-opacity:1.0000; stroke:none;fill-rule:evenodd;"
d="M 153.9340,75.6750
153.8766,75.6636
153.8279,75.6311
153.7954,75.5824
153.7840,75.5250
153.7840,75.2250
153.7954,75.1676
153.8279,75.1189
153.8766,75.0864
153.9340,75.0750
155.1840,75.0750
155.2414,75.0864
155.2901,75.1189
155.3226,75.1676
155.3340,75.2250
155.3340,75.5250
155.3226,75.5824
155.2901,75.6311
155.2414,75.6636
155.1840,75.6750
Z" /> 
<path style="fill:#000000; fill-opacity:1.0000; stroke:none;fill-rule:evenodd;"
d="M 153.9340,74.6750
153.8766,74.6636
153.8279,74.6311
153.7954,74.5824
153.7840,74.5250
153.7840,74.2250
153.7954,74.1676
153.8279,74.1189
153.8766,74.0864
153.9340,74.0750
155.1840,74.0750
155.2414,74.0864
155.2901,74.1189
155.3226,74.1676
155.3340,74.2250
155.3340,74.5250
155.3226,74.5824
155.2901,74.6311
155.2414,74.6636
155.1840,74.6750
Z" /> 
<path style="fill:#000000; fill-opacity:1.0000; stroke:none;fill-rule:evenodd;"
d="M 153.9340,73.6750
153.8766,73.6636
153.8279,73.6311
153.7954,73.5824
153.7840,73.5250
153.7840,73.2250
153.7954,73.1676
153.8279,73.1189
153.8766,73.0864
153.9340,73.0750
155.1840,73.0750
155.2414,73.0864
155.2901,73.1189
155.3226,73.1676
155.3340,73.2250
155.3340,73.5250
155.3226,73.5824
155.2901,73.6311
155.2414,73.6636
155.1840,73.6750
Z" /> 
<path style="fill:#000000; fill-opacity:1.0000; stroke:none;fill-rule:evenodd;"
d="M 150.0340,82.2750
149.9383,82.2560
149.8572,82.2018
149.8030,82.1207
149.7840,82.0250
149.7840,81.3250
149.8030,81.2293
149.8572,81.1482
149.9383,81.0940
150.0340,81.0750
151.3340,81.0750
151.4297,81.0940
151.5108,81.1482
151.5650,81.2293
151.5840,81.3250
151.5840,82.0250
151.5650,82.1207
151.5108,82.2018
151.4297,82.2560
151.3340,82.2750
Z" /> 
<path style="fill:#000000; fill-opacity:1.0000; stroke:none;fill-rule:evenodd;"
d="M 150.0340,72.6750
149.9383,72.6560
149.8572,72.6018
149.8030,72.5207
149.7840,72.4250
149.7840,71.7250
149.8030,71.6293
149.8572,71.5482
149.9383,71.4940
150.0340,71.4750
151.3340,71.4750
151.4297,71.4940
151.5108,71.5482
151.5650,71.6293
151.5840,71.7250
151.5840,72.4250
151.5650,72.5207
151.5108,72.6018
151.4297,72.6560
151.3340,72.6750
Z" /> 
<path style="fill:#000000; fill-opacity:1.0000; stroke:none;fill-rule:evenodd;"
d="M 130.5782,62.5490
130.6620,62.5657
130.7329,62.6131
130.7803,62.6840
130.7970,62.7677
130.7970,63.2052
130.7803,63.2890
130.7329,63.3599
130.6620,63.4073
130.5782,63.4240
130.0657,63.4240
129.9820,63.4073
129.9111,63.3599
129.8637,63.2890
129.8470,63.2052
129.8470,62.7677
129.8637,62.6840
129.9111,62.6131
129.9820,62.5657
130.0657,62.5490
Z" /> 
<path style="fill:#000000; fill-opacity:1.0000; stroke:none;fill-rule:evenodd;"
d="M 130.5782,64.1240
130.6620,64.1407
130.7329,64.1881
130.7803,64.2590
130.7970,64.3427
130.7970,64.7802
130.7803,64.8640
130.7329,64.9349
130.6620,64.9823
130.5782,64.9990
130.0657,64.9990
129.9820,64.9823
129.9111,64.9349
129.8637,64.8640
129.8470,64.7802
129.8470,64.3427
129.8637,64.2590
129.9111,64.1881
129.9820,64.1407
130.0657,64.1240
Z" /> 
<path style="fill:#000000; fill-opacity:1.0000; stroke:none;fill-rule:evenodd;"
d="M 161.5462,83.6110
161.6300,83.6277
161.7009,83.6751
161.7483,83.7460
161.7650,83.8297
161.7650,84.2672
161.7483,84.3510
161.7009,84.4219
161.6300,84.4693
161.5462,84.4860
161.0337,84.4860
160.9500,84.4693
160.8791,84.4219
160.8317,84.3510
160.8150,84.2672
160.8150,83.8297
160.8317,83.7460
160.8791,83.6751
160.9500,83.6277
161.0337,83.6110
Z" /> 
<path style="fill:#000000; fill-opacity:1.0000; stroke:none;fill-rule:evenodd;"
d="M 161.5462,85.1860
161.6300,85.2027
161.7009,85.2501
161.7483,85.3210
161.7650,85.4047
161.7650,85.8422
161.7483,85.9260
161.7009,85.9969
161.6300,86.0443
161.5462,86.0610
161.0337,86.0610
160.9500,86.0443
160.8791,85.9969
160.8317,85.9260
160.8150,85.8422
160.8150,85.4047
160.8317,85.3210
160.8791,85.2501
160.9500,85.2027
161.0337,85.1860
Z" /> 
<path style="fill:#000000; fill-opacity:1.0000; stroke:none;fill-rule:evenodd;"
d="M 101.8580,104.7300
101.7719,104.7129
101.6989,104.6641
101.6501,104.5911
101.6330,104.5050
101.6330,104.0550
101.6501,103.9689
101.6989,103.8959
101.7719,103.8471
101.8580,103.8300
102.3580,103.8300
102.4441,103.8471
102.5171,103.8959
102.5659,103.9689
102.5830,104.0550
102.5830,104.5050
102.5659,104.5911
102.5171,104.6641
102.4441,104.7129
102.3580,104.7300
Z" /> 
<path style="fill:#000000; fill-opacity:1.0000; stroke:none;fill-rule:evenodd;"
d="M 101.8580,103.1800
101.7719,103.1629
101.6989,103.1141
101.6501,103.0411
101.6330,102.9550
101.6330,102.5050
101.6501,102.4189
101.6989,102.3459
101.7719,102.2971
101.8580,102.2800
102.3580,102.2800
102.4441,102.2971
102.5171,102.3459
102.5659,102.4189
102.5830,102.5050
102.5830,102.9550
102.5659,103.0411
102.5171,103.1141
102.4441,103.1629
102.3580,103.1800
Z" /> 
<path style="fill:#000000; fill-opacity:1.0000; stroke:none;fill-rule:evenodd;"
d="M 98.6710,83.1970
98.6710,84.6970
97.6710,84.6970
97.6710,83.1970
Z" /> 
<path style="fill:#000000; fill-opacity:1.0000; stroke:none;fill-rule:evenodd;"
d="M 97.3710,83.1970
97.3710,84.6970
96.3710,84.6970
96.3710,83.1970
Z" /> 
</g>
<g style="fill:none; 
stroke:#000000; stroke-width:0.1000; stroke-opacity:1; 
stroke-linecap:round; stroke-linejoin:round;">
<path d="M127.0000 107.6960 A1.0160 1.0160 0.0 0 0 125.9840 106.6800" />
<path d="M116.5860 106.6800 A1.0160 1.0160 0.0 0 0 115.5700 107.6960" />
<path d="M127.0000 115.3160 A1.5240 1.5240 0.0 0 0 128.5240 116.8400" />
<path d="M115.5700 107.6960
L115.5700 119.3800
" />
<path d="M125.9840 106.6800
L116.5860 106.6800
" />
<path d="M127.0000 115.3160
L127.0000 107.6960
" />
<path d="M33.0200 111.7600
L50.8000 111.7600
" />
<path d="M33.0200 35.5600 A1.2700 1.2700 0.0 0 0 31.7500 36.8300" />
<path d="M87.6300 30.4800 A1.2700 1.2700 0.0 0 0 88.8910 29.2100" />
<path d="M31.7500 36.8300
L31.7500 110.4900
" />
<path d="M68.5800 33.0200
L52.0700 33.0200
" />
<path d="M107.9410 26.6700
L107.9410 29.2100
" />
<path d="M40.2625 135.6492
L35.3060 117.3480
" />
<path d="M114.3000 125.7300 A1.2700 1.2700 0.0 0 0 115.5700 124.4600" />
<path d="M126.9910 31.7500 A1.2700 1.2700 0.0 0 0 125.7210 30.4800" />
<path d="M165.0910 43.1800
L165.1000 114.3000
" />
<path d="M49.5300 35.5600 A1.2700 1.2700 0.0 0 0 50.8000 34.2900" />
<path d="M68.5800 33.0200 A1.2700 1.2700 0.0 0 0 69.8500 31.7500" />
<path d="M165.0910 43.1800 A2.5400 2.5400 0.0 0 0 162.5510 40.6400" />
<path d="M90.1610 25.4000 A1.2700 1.2700 0.0 0 0 88.8910 26.6700" />
<path d="M126.9910 31.7500
L126.9910 39.3700
" />
<path d="M52.0700 33.0200 A1.2700 1.2700 0.0 0 0 50.8000 34.2900" />
<path d="M107.9410 26.6700 A1.2700 1.2700 0.0 0 0 106.6710 25.4000" />
<path d="M71.1200 30.4800 A1.2700 1.2700 0.0 0 0 69.8500 31.7500" />
<path d="M50.8000 113.1570
L50.8000 111.7600
" />
<path d="M162.5600 116.8400 A2.5400 2.5400 0.0 0 0 165.1000 114.3000" />
<path d="M115.5700 119.3800
L115.5700 124.4600
" />
<path d="M50.8000 113.1570
L35.3060 117.3480
" />
<path d="M128.2610 40.6400
L162.5510 40.6400
" />
<path d="M114.3000 125.7300 A290.8328 290.8328 0.0 0 0 40.2618 135.6465" />
<path d="M31.7500 110.4900 A1.2700 1.2700 0.0 0 0 33.0200 111.7600" />
<path d="M90.1610 25.4000
L106.6710 25.4000
" />
<path d="M126.9910 39.3700 A1.2700 1.2700 0.0 0 0 128.2610 40.6400" />
<path d="M162.5600 116.8400
L128.5240 116.8400
" />
<path d="M88.8910 26.6700
L88.8910 29.2100
" />
<path d="M87.6300 30.4800
L71.1200 30.4800
" />
<path d="M109.2110 30.4800
L125.7210 30.4800
" />
<path d="M107.9410 29.2100 A1.2700 1.2700 0.0 0 0 109.2110 30.4800" />
<path d="M49.5300 35.5600
L33.0200 35.5600
" />
</g> 
</svg>
