0
SECTION
2
HEADER
9
$INSUNITS
70
1
9
$ACADVER
1
AC1014
9
$HANDSEED
5
FFFF
0
ENDSEC
0
SECTION
2
TABLES
0
TABLE
2
VPORT
5
8
100
AcDbSymbolTable
0
ENDTAB
0
TABLE
2
LTYPE
5
5
100
AcDbSymbolTable
0
LTYPE
5
14
100
AcDbSymbolTableRecord
100
AcDbLinetypeTableRecord
2
BYBLOCK
70
0
0
LTYPE
5
15
100
AcDbSymbolTableRecord
100
AcDbLinetypeTableRecord
2
BYLAYER
70
0
0
ENDTAB
0
TABLE
2
LAYER
5
2
100
AcDbSymbolTable
70
2
0
LAYER
5
50
100
AcDbSymbolTableRecord
100
AcDbLayerTableRecord
2
0
70
0
6
CONTINUOUS
0
ENDTAB
0
TABLE
2
STYLE
5
3
100
AcDbSymbolTable
70
1
0
STYLE
5
11
100
AcDbSymbolTableRecord
100
AcDbTextStyleTableRecord
2
STANDARD
70
0
0
ENDTAB
0
TABLE
2
VIEW
5
6
100
AcDbSymbolTable
70
0
0
ENDTAB
0
TABLE
2
UCS
5
7
100
AcDbSymbolTable
70
0
0
ENDTAB
0
TABLE
2
APPID
5
9
100
AcDbSymbolTable
70
2
0
APPID
5
12
100
AcDbSymbolTableRecord
100
AcDbRegAppTableRecord
2
ACAD
70
0
0
ENDTAB
0
TABLE
2
DIMSTYLE
5
A
100
AcDbSymbolTable
70
1
0
ENDTAB
0
TABLE
2
BLOCK_RECORD
5
1
100
AcDbSymbolTable
70
1
0
BLOCK_RECORD
5
1F
100
AcDbSymbolTableRecord
100
AcDbBlockTableRecord
2
*MODEL_SPACE
0
BLOCK_RECORD
5
1B
100
AcDbSymbolTableRecord
100
AcDbBlockTableRecord
2
*PAPER_SPACE
0
ENDTAB
0
ENDSEC
0
SECTION
2
BLOCKS
0
BLOCK
5
20
100
AcDbEntity
100
AcDbBlockBegin
2
*MODEL_SPACE
0
ENDBLK
5
21
100
AcDbEntity
100
AcDbBlockEnd
0
BLOCK
5
1C
100
AcDbEntity
100
AcDbBlockBegin
2
*PAPER_SPACE
0
ENDBLK
5
1D
100
AcDbEntity
100
AcDbBlockEnd
0
ENDSEC
0
SECTION
2
ENTITIES
0
LWPOLYLINE
5
100
100
AcDbEntity
8
0
100
AcDbPolyline
90
48
70
1
43
0.0
10
6.2007748317718514
20
-3.6504562139511108
42
-0.41421290255204929
10
6.1007625961303722
20
-3.7504687500000005
10
3.5504436779022219
20
-3.7504687500000005
42
0.41421378231389638
10
3.4504311418533331
20
-3.8504812860488893
10
3.4504311418533331
20
-4.4498436355590831
42
-0.41422521950818508
10
3.3504186058044443
20
-4.5498600769042969
10
2.0002499699592593
20
-4.5505687379837045
42
0.13593199540264825
10
1.9487946867942814
20
-4.5648224687576304
10
1.4531816411018375
20
-4.8506063461303714
42
-0.42077344473014167
10
1.2282204258441927
20
-4.8005605745315556
10
0.61218674182891841
20
-3.7348487663269045
42
-0.071400986414286091
10
0.60007499098777772
20
-3.6504562139511116
10
0.60007499098777772
20
-2.1502687740325932
42
-0.41421378231389638
10
0.70008752703666688
20
-2.0502562379837039
10
1.5498393774032593
20
-2.0499019074440001
42
0.41421378231389744
10
1.5998456454277039
20
-1.9998956394195562
10
1.6001999759674077
20
-1.0501312530040741
42
-0.41421378231389638
10
1.7002125120162965
20
-0.95011871695518502
10
4.6005748558044433
20
-0.95011871695518502
42
-0.41421378231389849
10
4.7005873918533334
20
-1.0501312530040741
10
4.7005873918533334
20
-1.3001625180244447
42
0.41421378231389638
10
4.8005999279022218
20
-1.4001750540733338
10
6.1007625961303713
20
-1.4001750540733338
42
-0.41421246267100431
10
6.2007748317718505
20
-1.5001874399185182
10
6.2007748317718514
20
-3.6504562139511108
42
-0.41421290255204929
10
6.1007625961303722
20
-3.7504687500000005
10
3.5504436779022219
20
-3.7504687500000005
42
0.41421378231389638
10
3.4504311418533331
20
-3.8504812860488893
10
3.4504311418533331
20
-4.4498436355590831
42
-0.41422521950818508
10
3.3504186058044443
20
-4.5498600769042969
10
2.0002499699592593
20
-4.5505687379837045
42
0.13593199540264825
10
1.9487946867942814
20
-4.5648224687576304
10
1.4531816411018375
20
-4.8506063461303714
42
-0.42077344473014167
10
1.2282204258441927
20
-4.8005605745315556
10
0.61218674182891841
20
-3.7348487663269045
42
-0.071400986414286091
10
0.60007499098777772
20
-3.6504562139511116
10
0.60007499098777772
20
-2.1502687740325932
42
-0.41421378231389638
10
0.70008752703666688
20
-2.0502562379837039
10
1.5498393774032593
20
-2.0499019074440001
42
0.41421378231389744
10
1.5998456454277039
20
-1.9998956394195562
10
1.6001999759674077
20
-1.0501312530040741
42
-0.41421378231389638
10
1.7002125120162965
20
-0.95011871695518502
10
4.6005748558044433
20
-0.95011871695518502
42
-0.41421378231389849
10
4.7005873918533334
20
-1.0501312530040741
10
4.7005873918533334
20
-1.3001625180244447
42
0.41421378231389638
10
4.8005999279022218
20
-1.4001750540733338
10
6.1007625961303713
20
-1.4001750540733338
42
-0.41421246267100431
10
6.2007748317718505
20
-1.5001874399185182
0
CIRCLE
5
101
100
AcDbEntity
8
0
100
AcDbCircle
10
0.73999999105695657
20
-2.1899999735334257
30
0
40
0.043300000000000012
210
0
220
0
230
1
0
CIRCLE
5
102
100
AcDbEntity
8
0
100
AcDbCircle
10
4.5499999450123685
20
-1.0999999867062868
30
0
40
0.043300000000000075
210
0
220
0
230
1
0
CIRCLE
5
103
100
AcDbEntity
8
0
100
AcDbCircle
10
1.7499999450123678
20
-1.0999999867062868
30
0
40
0.043300000000000075
210
0
220
0
230
1
0
CIRCLE
5
104
100
AcDbEntity
8
0
100
AcDbCircle
10
4.5499999450123685
20
-3.5999999867062873
30
0
40
0.043300000000000075
210
0
220
0
230
1
0
CIRCLE
5
105
100
AcDbEntity
8
0
100
AcDbCircle
10
1.3599999450123677
20
-4.7149999867062871
30
0
40
0.043300000000000075
210
0
220
0
230
1
0
LWPOLYLINE
5
106
100
AcDbEntity
8
0
100
AcDbPolyline
90
24
70
1
43
0.0
10
1.4999999818722094
20
-1.9999999758296123
10
0.70008752703666688
20
-1.9999999758296123
42
0.41404269886698036
10
0.54999999335314342
20
-2.1499999740168332
10
0.54999999335314342
20
-3.6499999558890428
42
0.095706364950475339
10
0.57218674182891849
20
-3.7648487663269039
10
1.1882204258441929
20
-4.8305605745315541
42
0.41586975212688304
10
1.4531816411018375
20
-4.9006063461303722
10
1.9487946867942818
20
-4.6148224687576302
42
-0.12123142018361517
10
1.9999999758296123
20
-4.5999999444081086
10
3.3499999595146006
20
-4.5999999444081086
42
0.41421356237309093
10
3.4999999577018217
20
-4.4499999462208875
10
3.4999999577018217
20
-3.849999953472004
42
-0.41421356237307044
10
3.5499999570975618
20
-3.7999999540762635
10
6.0999999262803177
20
-3.7999999540762635
42
0.41421356237309775
10
6.2499999244675388
20
-3.6499999558890428
10
6.2499999244675379
20
-1.4999999818722094
42
0.41421356237308998
10
6.0999999262803177
20
-1.3499999836849883
10
4.7999999419910697
20
-1.3499999836849883
42
-0.41421356237309503
10
4.7499999425953296
20
-1.299999984289248
10
4.7499999425953296
20
-1.0499999873105466
42
0.41421356237309542
10
4.5999999444081086
20
-0.89999998912332557
10
1.6999999794551706
20
-0.89999998912332557
42
0.41421356237309437
10
1.5499999812679497
20
-1.0499999873105466
10
1.5499999812679497
20
-1.949999976433872
42
-0.41421356237309914
0
LINE
5
107
100
AcDbEntity
8
0
100
AcDbLine
10
0.89999999721272939
20
-2.2500208218643021
30
0
11
0.89991666439341456
21
-2.0501729129917576
31
0
0
LINE
5
108
100
AcDbEntity
8
0
100
AcDbLine
10
0.79999999033184477
20
-2.3499999715997943
30
0
11
0.60007499098777772
21
-2.3499999715997943
31
0
0
ARC
5
109
100
AcDbEntity
8
0
100
AcDbCircle
10
0.79999999033184466
20
-2.2499999625433533
30
0
40
0.10000000905644116
210
0
220
0
230
1
100
AcDbArc
50
270.00000000000006
51
359.98804849046252
0
LINE
5
110
100
AcDbEntity
8
0
100
AcDbLine
10
1.7999999782466511
20
-1.2499999848935077
30
0
11
1.600125438350422
21
-1.2499254172906291
31
0
0
LINE
5
111
100
AcDbEntity
8
0
100
AcDbLine
10
4.3999999468251474
20
-1.1499999861020271
30
0
11
4.3999999468251474
21
-0.95011871695518502
31
0
0
LINE
5
112
100
AcDbEntity
8
0
100
AcDbLine
10
4.4999999456166275
20
-1.2499999848935077
30
0
11
4.7005873918533334
21
-1.2499999848935077
31
0
0
ARC
5
113
100
AcDbEntity
8
0
100
AcDbCircle
10
4.4999999456166275
20
-1.1499999861020278
30
0
40
0.099999998791479916
210
0
220
0
230
1
100
AcDbArc
50
180
51
270
0
LINE
5
114
100
AcDbEntity
8
0
100
AcDbLine
10
1.8999999770381317
20
-1.1499999861020271
30
0
11
1.8999999770381317
21
-0.95011871695518502
31
0
0
ARC
5
115
100
AcDbEntity
8
0
100
AcDbCircle
10
1.8000372715373842
20
-1.1500372793927598
30
0
40
0.099962712457289729
210
0
220
0
230
1
100
AcDbArc
50
-90.021375452508266
51
0.021375452504216158
0
LINE
5
116
100
AcDbEntity
8
0
100
AcDbLine
10
4.6999999431995887
20
-3.5499999570975618
30
0
11
4.6999999431995887
21
-3.7504687500000005
31
0
0
LINE
5
117
100
AcDbEntity
8
0
100
AcDbLine
10
4.3999999468251474
20
-3.5499999570975618
30
0
11
4.3999999468251474
21
-3.7504687500000005
31
0
0
LINE
5
118
100
AcDbEntity
8
0
100
AcDbLine
10
4.5999999444081086
20
-3.4499999583060812
30
0
11
4.4999999456166275
21
-3.4499999583060812
31
0
0
ARC
5
119
100
AcDbEntity
8
0
100
AcDbCircle
10
4.5999999444081094
20
-3.5499999570975604
30
0
40
0.099999998791479222
210
0
220
0
230
1
100
AcDbArc
50
0
51
90.000000000000512
0
ARC
5
120
100
AcDbEntity
8
0
100
AcDbCircle
10
4.4999999456166275
20
-3.5499999570975613
30
0
40
0.099999998791479916
210
0
220
-0
230
1
100
AcDbArc
50
90
51
180
0
LINE
5
121
100
AcDbEntity
8
0
100
AcDbLine
10
1.3352618811272636
20
-4.5861002900391163
30
0
11
1.1621092158372299
21
-4.6861910213930118
31
0
0
LINE
5
122
100
AcDbEntity
8
0
100
AcDbLine
10
1.4488223404866867
20
-4.6222607804962186
30
0
11
1.5488223184054959
21
-4.7954658230073548
31
0
0
LINE
5
123
100
AcDbEntity
8
0
100
AcDbLine
10
1.4488223404866867
20
-4.6222607804962186
30
0
11
1.6799999526723213
21
-4.6222607804962186
31
0
0
ARC
5
124
100
AcDbEntity
8
0
100
AcDbCircle
10
1.3755861966078697
20
-4.6558596234660587
30
0
40
0.080575523697650919
210
0
220
-0
230
1
100
AcDbArc
50
24.644429280392814
51
120.03001823165935
0
LINE
5
125
100
AcDbEntity
8
0
100
AcDbLine
10
0.89993756020309124
20
-2.1002850285114243
30
0
11
1.5498992462846508
21
-2.1000140067126303
31
0
0
LINE
5
126
100
AcDbEntity
8
0
100
AcDbLine
10
1.6499999800594303
20
-1.9999999758296123
30
0
11
1.6502798049265235
21
-1.2499441284826167
31
0
0
LINE
5
127
100
AcDbEntity
8
0
100
AcDbLine
10
0.61996862709438316
20
-2.3499999715997943
30
0
11
0.61996862709438316
21
-3.6499999558890428
31
0
0
LINE
5
128
100
AcDbEntity
8
0
100
AcDbLine
10
0.64999999214462401
20
-3.7499999546805234
30
0
11
1.1838873691689957
21
-4.6736021808408781
31
0
0
LINE
5
129
100
AcDbEntity
8
0
100
AcDbLine
10
1.524836509020286
20
-4.7539211824915091
30
0
11
1.929999976675576
21
-4.5199999453749236
31
0
0
LINE
5
130
100
AcDbEntity
8
0
100
AcDbLine
10
2.0099999757087605
20
-4.4999999456166275
30
0
11
3.3499999595146006
21
-4.4999999456166275
31
0
0
LINE
5
131
100
AcDbEntity
8
0
100
AcDbLine
10
3.3999999589103411
20
-4.4499999462208892
30
0
11
3.3999999589103411
21
-3.849999953472004
31
0
0
LINE
5
132
100
AcDbEntity
8
0
100
AcDbLine
10
3.5504436779022219
20
-3.6999296966301434
30
0
11
4.3999999468251474
21
-3.6999296966301434
31
0
0
LINE
5
133
100
AcDbEntity
8
0
100
AcDbLine
10
4.6999999431995887
20
-3.6999999552847829
30
0
11
6.0999999262803177
21
-3.6999999552847829
31
0
0
LINE
5
134
100
AcDbEntity
8
0
100
AcDbLine
10
6.1499999256760578
20
-3.6499999558890428
30
0
11
6.1499999256760578
21
-1.4999999818722094
31
0
0
LINE
5
135
100
AcDbEntity
8
0
100
AcDbLine
10
6.0999999262803177
20
-1.4499999824764689
30
0
11
4.7999999419910697
21
-1.4499999824764689
31
0
0
LINE
5
136
100
AcDbEntity
8
0
100
AcDbLine
10
4.6499999438038486
20
-1.299999984289248
30
0
11
4.6499999438038486
21
-1.2499999848935077
31
0
0
LINE
5
137
100
AcDbEntity
8
0
100
AcDbLine
10
4.3999999468251474
20
-0.99999998791480615
30
0
11
1.8999999770381317
21
-0.99999998791480615
31
0
0
ARC
5
138
100
AcDbEntity
8
0
100
AcDbCircle
10
1.5499486175915778
20
-1.999962649463439
30
0
40
0.10005136943056388
210
0
220
0
230
1
100
AcDbArc
50
269.97172684744987
51
359.97862454749577
0
ARC
5
139
100
AcDbEntity
8
0
100
AcDbCircle
10
2.0099999757087659
20
-4.6699999435621677
30
0
40
0.16999999794554013
210
0
220
0
230
1
100
AcDbArc
50
90.000000000001791
51
118.07248693585088
0
ARC
5
140
100
AcDbEntity
8
0
100
AcDbCircle
10
3.3499999595146028
20
-4.4499999462208892
30
0
40
0.04999999939573891
210
0
220
0
230
1
100
AcDbArc
50
-90.000000000002558
51
0
0
ARC
5
141
100
AcDbEntity
8
0
100
AcDbCircle
10
3.5504436779022233
20
-3.8503738803176302
30
0
40
0.15044418368748599
210
0
220
0
230
1
100
AcDbArc
50
90.000000000000512
51
179.85759202094386
0
ARC
5
142
100
AcDbEntity
8
0
100
AcDbCircle
10
6.0999999262803177
20
-3.6499999558890428
30
0
40
0.049999999395741006
210
0
220
0
230
1
100
AcDbArc
50
-90
51
0
0
ARC
5
143
100
AcDbEntity
8
0
100
AcDbCircle
10
6.099999926280316
20
-1.4999999818722101
30
0
40
0.049999999395741006
210
0
220
-0
230
1
100
AcDbArc
50
0
51
89.999999999997954
0
ARC
5
144
100
AcDbEntity
8
0
100
AcDbCircle
10
4.7999999419910706
20
-1.2999999842892471
30
0
40
0.14999999818722162
210
0
220
0
230
1
100
AcDbArc
50
180
51
269.9999999999996
0
LWPOLYLINE
5
145
100
AcDbEntity
8
0
100
AcDbPolyline
90
4
70
1
43
0.0
10
5.9999999274888376
20
-1.59999998066369
10
1.7999999782466511
20
-1.59999998066369
10
1.7999999782466511
20
-3.5499999570975618
10
5.9999999274888376
20
-3.5499999570975618
0
CIRCLE
5
146
100
AcDbEntity
8
0
100
AcDbCircle
10
1.8999999450123677
20
-1.6999999867062867
30
0
40
0.043300000000000075
210
0
220
0
230
1
0
CIRCLE
5
147
100
AcDbEntity
8
0
100
AcDbCircle
10
1.8999999450123677
20
-3.4499999867062869
30
0
40
0.043300000000000075
210
0
220
0
230
1
0
CIRCLE
5
148
100
AcDbEntity
8
0
100
AcDbCircle
10
5.8999999450123672
20
-3.4499999867062869
30
0
40
0.043300000000000075
210
0
220
0
230
1
0
CIRCLE
5
149
100
AcDbEntity
8
0
100
AcDbCircle
10
5.8999999450123672
20
-1.6999999867062872
30
0
40
0.043300000000000075
210
0
220
0
230
1
0
ARC
5
150
100
AcDbEntity
8
0
100
AcDbCircle
10
0.84626383653378012
20
-3.6365498285139273
30
0
40
0.22669456928128634
210
0
220
0
230
1
100
AcDbArc
50
183.40144180739466
51
210.03001823165724
0
ENDSEC
0
SECTION
2
OBJECTS
0
DICTIONARY
5
C
100
AcDbDictionary
3
ACAD_GROUP
350
D
3
ACAD_MLINESTYLE
350
17
0
DICTIONARY
5
D
100
AcDbDictionary
0
DICTIONARY
5
1A
330
C
100
AcDbDictionary
0
DICTIONARY
5
17
100
AcDbDictionary
0
ENDSEC
0
EOF
