<?xml version="1.0" standalone="no"?>
 <!DOCTYPE svg PUBLIC "-//W3C//DTD SVG 1.1//EN" 
 "http://www.w3.org/Graphics/SVG/1.1/DTD/svg11.dtd"> 
<svg
  xmlns:svg="http://www.w3.org/2000/svg"
  xmlns="http://www.w3.org/2000/svg"
  xmlns:xlink="http://www.w3.org/1999/xlink"
  version="1.1"
  width="0.2540mm" height="0.2540mm" viewBox="0.0000 0.0000 0.2540 0.2540">
<title>SVG Image created as keeb-rev1-mirror-F_Courtyard.svg date 2024/05/22 00:59:56 </title>
  <desc>Image generated by PCBNEW </desc>
<g style="fill:#000000; fill-opacity:1.0000;stroke:#000000; stroke-opacity:1.0000;
stroke-linecap:round; stroke-linejoin:round;"
 transform="translate(0 0) scale(1 1)">
</g>
<g style="fill:none; 
stroke:#000000; stroke-width:0.0500; stroke-opacity:1; 
stroke-linecap:round; stroke-linejoin:round;">
<circle cx="18.7960" cy="55.6260" r="2.4500" /> 
<path d="M82.8080 46.2320
L96.0080 46.2320
" />
<path d="M82.8080 59.4320
L82.8080 46.2320
" />
<path d="M96.0080 46.2320
L96.0080 59.4320
" />
<path d="M96.0080 59.4320
L82.8080 59.4320
" />
<circle cx="44.4500" cy="27.9400" r="2.4500" /> 
<path d="M63.7580 32.2620
L76.9580 32.2620
" />
<path d="M63.7580 45.4620
L63.7580 32.2620
" />
<path d="M76.9580 32.2620
L76.9580 45.4620
" />
<path d="M76.9580 45.4620
L63.7580 45.4620
" />
<path d="M139.9580 77.9820
L153.1580 77.9820
" />
<path d="M139.9580 91.1820
L139.9580 77.9820
" />
<path d="M153.1580 77.9820
L153.1580 91.1820
" />
<path d="M153.1580 91.1820
L139.9580 91.1820
" />
<circle cx="34.5440" cy="119.7610" r="2.4500" /> 
<path d="M63.7580 70.3620
L76.9580 70.3620
" />
<path d="M63.7580 83.5620
L63.7580 70.3620
" />
<path d="M76.9580 70.3620
L76.9580 83.5620
" />
<path d="M76.9580 83.5620
L63.7580 83.5620
" />
<path d="M120.9080 39.8820
L134.1080 39.8820
" />
<path d="M120.9080 53.0820
L120.9080 39.8820
" />
<path d="M134.1080 39.8820
L134.1080 53.0820
" />
<path d="M134.1080 53.0820
L120.9080 53.0820
" />
<path d="M82.8080 27.1820
L96.0080 27.1820
" />
<path d="M82.8080 40.3820
L82.8080 27.1820
" />
<path d="M96.0080 27.1820
L96.0080 40.3820
" />
<path d="M96.0080 40.3820
L82.8080 40.3820
" />
<path d="M101.8580 70.3620
L115.0580 70.3620
" />
<path d="M101.8580 83.5620
L101.8580 70.3620
" />
<path d="M115.0580 70.3620
L115.0580 83.5620
" />
<path d="M115.0580 83.5620
L101.8580 83.5620
" />
<path d="M139.9580 58.9320
L153.1580 58.9320
" />
<path d="M139.9580 72.1320
L139.9580 58.9320
" />
<path d="M153.1580 58.9320
L153.1580 72.1320
" />
<path d="M153.1580 72.1320
L139.9580 72.1320
" />
<path d="M71.3780 95.5080
L84.5780 95.5080
" />
<path d="M71.3780 108.7080
L71.3780 95.5080
" />
<path d="M84.5780 95.5080
L84.5780 108.7080
" />
<path d="M84.5780 108.7080
L71.3780 108.7080
" />
<path d="M139.9580 39.8820
L153.1580 39.8820
" />
<path d="M139.9580 53.0820
L139.9580 39.8820
" />
<path d="M153.1580 39.8820
L153.1580 53.0820
" />
<path d="M153.1580 53.0820
L139.9580 53.0820
" />
<path d="M101.8580 51.3120
L115.0580 51.3120
" />
<path d="M101.8580 64.5120
L101.8580 51.3120
" />
<path d="M115.0580 51.3120
L115.0580 64.5120
" />
<path d="M115.0580 64.5120
L101.8580 64.5120
" />
<circle cx="115.5700" cy="27.9400" r="2.4500" /> 
<circle cx="115.5700" cy="91.4400" r="2.4500" /> 
<path d="M120.9080 58.9320
L134.1080 58.9320
" />
<path d="M120.9080 72.1320
L120.9080 58.9320
" />
<path d="M134.1080 58.9320
L134.1080 72.1320
" />
<path d="M134.1080 72.1320
L120.9080 72.1320
" />
<path d="M44.7080 72.9020
L57.9080 72.9020
" />
<path d="M44.7080 86.1020
L44.7080 72.9020
" />
<path d="M57.9080 72.9020
L57.9080 86.1020
" />
<path d="M57.9080 86.1020
L44.7080 86.1020
" />
<path d="M23.2422 102.3592
L34.6738 95.7592
" />
<path d="M29.8422 113.7908
L23.2422 102.3592
" />
<path d="M34.6738 95.7592
L41.2738 107.1908
" />
<path d="M41.2738 107.1908
L29.8422 113.7908
" />
<path d="M63.7580 51.3120
L76.9580 51.3120
" />
<path d="M63.7580 64.5120
L63.7580 51.3120
" />
<path d="M76.9580 51.3120
L76.9580 64.5120
" />
<path d="M76.9580 64.5120
L63.7580 64.5120
" />
<path d="M101.8580 32.2620
L115.0580 32.2620
" />
<path d="M101.8580 45.4620
L101.8580 32.2620
" />
<path d="M115.0580 32.2620
L115.0580 45.4620
" />
<path d="M115.0580 45.4620
L101.8580 45.4620
" />
<path d="M52.3280 98.0480
L65.5280 98.0480
" />
<path d="M52.3280 111.2480
L52.3280 98.0480
" />
<path d="M65.5280 98.0480
L65.5280 111.2480
" />
<path d="M65.5280 111.2480
L52.3280 111.2480
" />
<path d="M120.9080 77.9820
L134.1080 77.9820
" />
<path d="M120.9080 91.1820
L120.9080 77.9820
" />
<path d="M134.1080 77.9820
L134.1080 91.1820
" />
<path d="M134.1080 91.1820
L120.9080 91.1820
" />
<path d="M82.8080 65.2820
L96.0080 65.2820
" />
<path d="M82.8080 78.4820
L82.8080 65.2820
" />
<path d="M96.0080 65.2820
L96.0080 78.4820
" />
<path d="M96.0080 78.4820
L82.8080 78.4820
" />
<path d="M44.7080 53.8520
L57.9080 53.8520
" />
<path d="M44.7080 67.0520
L44.7080 53.8520
" />
<path d="M57.9080 53.8520
L57.9080 67.0520
" />
<path d="M57.9080 67.0520
L44.7080 67.0520
" />
<path d="M44.7080 34.8020
L57.9080 34.8020
" />
<path d="M44.7080 48.0020
L44.7080 34.8020
" />
<path d="M57.9080 34.8020
L57.9080 48.0020
" />
<path d="M57.9080 48.0020
L44.7080 48.0020
" />
<path d="M154.9400 95.2500 A2.5400 2.5400 0.0 0 0 157.4800 92.7100" />
<path d="M15.2400 54.6100
L15.2400 92.7100
" />
<path d="M15.5476 94.8533
L31.1929 121.9190
" />
<path d="M157.4800 38.1000 A2.5400 2.5400 0.0 0 0 154.9400 35.5600" />
<path d="M90.1700 95.2500
L154.9400 95.2500
" />
<path d="M43.1800 24.1300
L116.8400 24.1300
" />
<path d="M39.3610 52.0610 A1.2700 1.2700 0.0 0 0 40.6310 50.7910" />
<path d="M119.3800 33.0200 A2.5400 2.5400 0.0 0 0 121.9200 35.5600" />
<path d="M90.1700 95.2500 A2.5400 2.5400 0.0 0 0 87.6300 97.7900" />
<path d="M85.0900 115.5520 A2.5400 2.5400 0.0 0 0 87.6300 113.0119" />
<path d="M17.7800 52.0700
L39.3610 52.0610
" />
<path d="M119.3800 26.6700 A2.5400 2.5400 0.0 0 0 116.8400 24.1300" />
<path d="M119.3800 26.6700
L119.3800 33.0200
" />
<path d="M50.8000 115.5700 A2.5400 2.5400 0.0 0 0 49.4932 115.9320" />
<path d="M40.6310 50.7910
L40.6400 26.6700
" />
<path d="M36.9062 123.1900
L49.4932 115.9320
" />
<path d="M17.7800 52.0700 A2.5400 2.5400 0.0 0 0 15.2400 54.6100" />
<path d="M43.1800 24.1300 A2.5400 2.5400 0.0 0 0 40.6400 26.6700" />
<path d="M87.6300 97.7900
L87.6300 113.0119
" />
<path d="M15.2400 92.7100 A7.6200 7.6200 0.0 0 0 15.5476 94.8533" />
<path d="M31.1929 121.9190 A4.0932 4.0932 0.0 0 0 36.9062 123.1900" />
<path d="M85.0900 115.5519
L50.8000 115.5700
" />
<path d="M157.4800 38.1000
L157.4800 92.7100
" />
<path d="M121.9200 35.5600
L154.9400 35.5600
" />
</g> 
</svg>
