<?xml version="1.0" standalone="no"?>
 <!DOCTYPE svg PUBLIC "-//W3C//DTD SVG 1.1//EN" 
 "http://www.w3.org/Graphics/SVG/1.1/DTD/svg11.dtd"> 
<svg
  xmlns:svg="http://www.w3.org/2000/svg"
  xmlns="http://www.w3.org/2000/svg"
  xmlns:xlink="http://www.w3.org/1999/xlink"
  version="1.1"
  width="0.2540mm" height="0.2540mm" viewBox="0.0000 0.0000 0.2540 0.2540">
<title>SVG Image created as keeb-rev1-mirror-B_Courtyard.svg date 2024/05/22 00:59:56 </title>
  <desc>Image generated by PCBNEW </desc>
<g style="fill:#000000; fill-opacity:1.0000;stroke:#000000; stroke-opacity:1.0000;
stroke-linecap:round; stroke-linejoin:round;"
 transform="translate(0 0) scale(1 1)">
</g>
<g style="fill:none; 
stroke:#000000; stroke-width:0.0500; stroke-opacity:1; 
stroke-linecap:round; stroke-linejoin:round;">
<path d="M20.0980 70.1480
L21.5580 70.1480
" />
<path d="M20.0980 73.1080
L20.0980 70.1480
" />
<path d="M21.5580 70.1480
L21.5580 73.1080
" />
<path d="M21.5580 73.1080
L20.0980 73.1080
" />
<path d="M35.1911 95.0483
L36.4554 94.3183
" />
<path d="M36.4554 94.3183
L37.9354 96.8817
" />
<path d="M36.6711 97.6117
L35.1911 95.0483
" />
<path d="M37.9354 96.8817
L36.6711 97.6117
" />
<path d="M134.7735 40.6585
L136.2335 40.6585
" />
<path d="M134.7735 43.6185
L134.7735 40.6585
" />
<path d="M136.2335 40.6585
L136.2335 43.6185
" />
<path d="M136.2335 43.6185
L134.7735 43.6185
" />
<path d="M22.6500 66.9610
L25.6100 66.9610
" />
<path d="M22.6500 68.4210
L22.6500 66.9610
" />
<path d="M25.6100 66.9610
L25.6100 68.4210
" />
<path d="M25.6100 68.4210
L22.6500 68.4210
" />
<path d="M36.8100 75.6632
L39.7798 78.6330
" />
<path d="M39.2142 73.2590
L36.8100 75.6632
" />
<path d="M39.7798 78.6330
L42.1840 76.2288
" />
<path d="M42.1840 76.2288
L39.2142 73.2590
" />
<path d="M35.3380 57.1818
L36.7980 57.1818
" />
<path d="M35.3380 60.1418
L35.3380 57.1818
" />
<path d="M36.7980 57.1818
L36.7980 60.1418
" />
<path d="M36.7980 60.1418
L35.3380 60.1418
" />
<path d="M96.6735 30.5240
L98.1335 30.5240
" />
<path d="M96.6735 33.4840
L96.6735 30.5240
" />
<path d="M98.1335 30.5240
L98.1335 33.4840
" />
<path d="M98.1335 33.4840
L96.6735 33.4840
" />
<path d="M153.8290 40.6585
L155.2890 40.6585
" />
<path d="M153.8290 43.6185
L153.8290 40.6585
" />
<path d="M155.2890 40.6585
L155.2890 43.6185
" />
<path d="M155.2890 43.6185
L153.8290 43.6185
" />
<path d="M21.7480 82.3540
L21.7480 68.9540
" />
<path d="M35.1480 68.9540
L21.7480 68.9540
" />
<path d="M35.1480 82.3540
L21.7480 82.3540
" />
<path d="M35.1480 82.3540
L35.1480 68.9540
" />
<path d="M153.8290 59.7540
L155.2890 59.7540
" />
<path d="M153.8290 62.7140
L153.8290 59.7540
" />
<path d="M155.2890 59.7540
L155.2890 62.7140
" />
<path d="M155.2890 62.7140
L153.8290 62.7140
" />
<path d="M19.3480 86.5190
L22.3080 86.5190
" />
<path d="M19.3480 87.9790
L19.3480 86.5190
" />
<path d="M22.3080 86.5190
L22.3080 87.9790
" />
<path d="M22.3080 87.9790
L19.3480 87.9790
" />
<path d="M115.7235 54.5470
L117.1835 54.5470
" />
<path d="M115.7235 57.5070
L115.7235 54.5470
" />
<path d="M117.1835 54.5470
L117.1835 57.5070
" />
<path d="M117.1835 57.5070
L115.7235 57.5070
" />
<path d="M27.2220 66.9610
L30.1820 66.9610
" />
<path d="M27.2220 68.4210
L27.2220 66.9610
" />
<path d="M30.1820 66.9610
L30.1820 68.4210
" />
<path d="M30.1820 68.4210
L27.2220 68.4210
" />
<path d="M37.8400 60.6390
L43.4400 60.6390
" />
<path d="M37.8400 68.1390
L37.8400 60.6390
" />
<path d="M43.4400 60.6390
L43.4400 68.1390
" />
<path d="M43.4400 68.1390
L37.8400 68.1390
" />
<path d="M33.5600 57.1818
L35.0200 57.1818
" />
<path d="M33.5600 60.1418
L33.5600 57.1818
" />
<path d="M35.0200 57.1818
L35.0200 60.1418
" />
<path d="M35.0200 60.1418
L33.5600 60.1418
" />
<path d="M19.3480 89.3130
L22.3080 89.3130
" />
<path d="M19.3480 90.7730
L19.3480 89.3130
" />
<path d="M22.3080 89.3130
L22.3080 90.7730
" />
<path d="M22.3080 90.7730
L19.3480 90.7730
" />
<path d="M40.3030 68.6120
L43.2630 68.6120
" />
<path d="M40.3030 70.0720
L40.3030 68.6120
" />
<path d="M43.2630 68.6120
L43.2630 70.0720
" />
<path d="M43.2630 70.0720
L40.3030 70.0720
" />
<path d="M27.5910 61.0670
L29.0510 61.0670
" />
<path d="M27.5910 64.0270
L27.5910 61.0670
" />
<path d="M29.0510 61.0670
L29.0510 64.0270
" />
<path d="M29.0510 64.0270
L27.5910 64.0270
" />
<path d="M58.5790 35.5785
L60.0390 35.5785
" />
<path d="M58.5790 38.5385
L58.5790 35.5785
" />
<path d="M60.0390 35.5785
L60.0390 38.5385
" />
<path d="M60.0390 38.5385
L58.5790 38.5385
" />
<path d="M77.6290 33.0385
L79.0890 33.0385
" />
<path d="M77.6290 35.9985
L77.6290 33.0385
" />
<path d="M79.0890 33.0385
L79.0890 35.9985
" />
<path d="M79.0890 35.9985
L77.6290 35.9985
" />
<path d="M77.6235 71.1840
L79.0835 71.1840
" />
<path d="M77.6235 74.1440
L77.6235 71.1840
" />
<path d="M79.0835 71.1840
L79.0835 74.1440
" />
<path d="M79.0835 74.1440
L77.6235 74.1440
" />
<path d="M39.9663 78.7623
L42.0593 76.6693
" />
<path d="M40.9987 79.7947
L39.9663 78.7623
" />
<path d="M42.0593 76.6693
L43.0917 77.7017
" />
<path d="M43.0917 77.7017
L40.9987 79.7947
" />
<path d="M66.1990 99.1295
L67.6590 99.1295
" />
<path d="M66.1990 102.0895
L66.1990 99.1295
" />
<path d="M67.6590 99.1295
L67.6590 102.0895
" />
<path d="M67.6590 102.0895
L66.1990 102.0895
" />
<path d="M115.7235 73.7240
L117.1835 73.7240
" />
<path d="M115.7235 76.6840
L115.7235 73.7240
" />
<path d="M117.1835 73.7240
L117.1835 76.6840
" />
<path d="M117.1835 76.6840
L115.7235 76.6840
" />
<path d="M77.6290 52.0885
L79.0890 52.0885
" />
<path d="M77.6290 55.0485
L77.6290 52.0885
" />
<path d="M79.0890 52.0885
L79.0890 55.0485
" />
<path d="M79.0890 55.0485
L77.6290 55.0485
" />
<path d="M115.7290 35.6040
L117.1890 35.6040
" />
<path d="M115.7290 38.5640
L115.7290 35.6040
" />
<path d="M117.1890 35.6040
L117.1890 38.5640
" />
<path d="M117.1890 38.5640
L115.7290 38.5640
" />
<path d="M134.7790 59.6325
L136.2390 59.6325
" />
<path d="M134.7790 62.5925
L134.7790 59.6325
" />
<path d="M136.2390 59.6325
L136.2390 62.5925
" />
<path d="M136.2390 62.5925
L134.7790 62.5925
" />
<path d="M22.6115 86.5190
L25.5715 86.5190
" />
<path d="M22.6115 87.9790
L22.6115 86.5190
" />
<path d="M25.5715 86.5190
L25.5715 87.9790
" />
<path d="M25.5715 87.9790
L22.6115 87.9790
" />
<path d="M134.7735 78.8040
L136.2335 78.8040
" />
<path d="M134.7735 81.7640
L134.7735 78.8040
" />
<path d="M136.2335 78.8040
L136.2335 81.7640
" />
<path d="M136.2335 81.7640
L134.7735 81.7640
" />
<path d="M35.9730 70.9100
L37.4330 70.9100
" />
<path d="M35.9730 73.8700
L35.9730 70.9100
" />
<path d="M37.4330 70.9100
L37.4330 73.8700
" />
<path d="M37.4330 73.8700
L35.9730 73.8700
" />
<path d="M31.2860 82.5820
L34.2460 82.5820
" />
<path d="M31.2860 84.0420
L31.2860 82.5820
" />
<path d="M34.2460 82.5820
L34.2460 84.0420
" />
<path d="M34.2460 84.0420
L31.2860 84.0420
" />
<path d="M58.5790 54.6285
L60.0390 54.6285
" />
<path d="M58.5790 57.5885
L58.5790 54.6285
" />
<path d="M60.0390 54.6285
L60.0390 57.5885
" />
<path d="M60.0390 57.5885
L58.5790 57.5885
" />
<path d="M153.8235 78.8040
L155.2835 78.8040
" />
<path d="M153.8235 81.7640
L153.8235 78.8040
" />
<path d="M155.2835 78.8040
L155.2835 81.7640
" />
<path d="M155.2835 81.7640
L153.8235 81.7640
" />
<path d="M58.5735 73.7240
L60.0335 73.7240
" />
<path d="M58.5735 76.6840
L58.5735 73.7240
" />
<path d="M60.0335 73.7240
L60.0335 76.6840
" />
<path d="M60.0335 76.6840
L58.5735 76.6840
" />
<path d="M20.0980 78.2760
L21.5580 78.2760
" />
<path d="M20.0980 81.2360
L20.0980 78.2760
" />
<path d="M21.5580 78.2760
L21.5580 81.2360
" />
<path d="M21.5580 81.2360
L20.0980 81.2360
" />
<path d="M29.6350 60.9920
L32.5950 60.9920
" />
<path d="M29.6350 62.4520
L29.6350 60.9920
" />
<path d="M32.5950 60.9920
L32.5950 62.4520
" />
<path d="M32.5950 62.4520
L29.6350 62.4520
" />
<path d="M25.9400 61.0670
L27.4000 61.0670
" />
<path d="M25.9400 64.0270
L25.9400 61.0670
" />
<path d="M27.4000 61.0670
L27.4000 64.0270
" />
<path d="M27.4000 64.0270
L25.9400 64.0270
" />
<path d="M96.6735 68.6440
L98.1335 68.6440
" />
<path d="M96.6735 71.6040
L96.6735 68.6440
" />
<path d="M98.1335 68.6440
L98.1335 71.6040
" />
<path d="M98.1335 71.6040
L96.6735 71.6040
" />
<path d="M39.5853 73.3837
L40.6177 72.3513
" />
<path d="M40.6177 72.3513
L42.7107 74.4443
" />
<path d="M41.6783 75.4767
L39.5853 73.3837
" />
<path d="M42.7107 74.4443
L41.6783 75.4767
" />
<path d="M22.2060 82.5820
L25.1660 82.5820
" />
<path d="M22.2060 84.0420
L22.2060 82.5820
" />
<path d="M25.1660 82.5820
L25.1660 84.0420
" />
<path d="M25.1660 84.0420
L22.2060 84.0420
" />
<path d="M96.6735 49.5940
L98.1335 49.5940
" />
<path d="M96.6735 52.5540
L96.6735 49.5940
" />
<path d="M98.1335 49.5940
L98.1335 52.5540
" />
<path d="M98.1335 52.5540
L96.6735 52.5540
" />
<path style="fill:none; 
stroke:#000000; stroke-width:0.0500; stroke-opacity:1; 
stroke-linecap:round; stroke-linejoin:round;fill:none"
d="M 33.2600,51.5730
22.6200,51.5730
22.6200,60.5130
33.2600,60.5130
Z" /> 
<path d="M22.6115 89.3130
L25.5715 89.3130
" />
<path d="M22.6115 90.7730
L22.6115 89.3130
" />
<path d="M25.5715 89.3130
L25.5715 90.7730
" />
<path d="M25.5715 90.7730
L22.6115 90.7730
" />
<path d="M85.2435 96.5840
L86.7035 96.5840
" />
<path d="M85.2435 99.5440
L85.2435 96.5840
" />
<path d="M86.7035 96.5840
L86.7035 99.5440
" />
<path d="M86.7035 99.5440
L85.2435 99.5440
" />
<path d="M154.9400 95.2500 A2.5400 2.5400 0.0 0 0 157.4800 92.7100" />
<path d="M15.2400 54.6100
L15.2400 92.7100
" />
<path d="M15.5476 94.8533
L31.1929 121.9190
" />
<path d="M157.4800 38.1000 A2.5400 2.5400 0.0 0 0 154.9400 35.5600" />
<path d="M90.1700 95.2500
L154.9400 95.2500
" />
<path d="M43.1800 24.1300
L116.8400 24.1300
" />
<path d="M39.3610 52.0610 A1.2700 1.2700 0.0 0 0 40.6310 50.7910" />
<path d="M119.3800 33.0200 A2.5400 2.5400 0.0 0 0 121.9200 35.5600" />
<path d="M90.1700 95.2500 A2.5400 2.5400 0.0 0 0 87.6300 97.7900" />
<path d="M85.0900 115.5520 A2.5400 2.5400 0.0 0 0 87.6300 113.0119" />
<path d="M17.7800 52.0700
L39.3610 52.0610
" />
<path d="M119.3800 26.6700 A2.5400 2.5400 0.0 0 0 116.8400 24.1300" />
<path d="M119.3800 26.6700
L119.3800 33.0200
" />
<path d="M50.8000 115.5700 A2.5400 2.5400 0.0 0 0 49.4932 115.9320" />
<path d="M40.6310 50.7910
L40.6400 26.6700
" />
<path d="M36.9062 123.1900
L49.4932 115.9320
" />
<path d="M17.7800 52.0700 A2.5400 2.5400 0.0 0 0 15.2400 54.6100" />
<path d="M43.1800 24.1300 A2.5400 2.5400 0.0 0 0 40.6400 26.6700" />
<path d="M87.6300 97.7900
L87.6300 113.0119
" />
<path d="M15.2400 92.7100 A7.6200 7.6200 0.0 0 0 15.5476 94.8533" />
<path d="M31.1929 121.9190 A4.0932 4.0932 0.0 0 0 36.9062 123.1900" />
<path d="M85.0900 115.5519
L50.8000 115.5700
" />
<path d="M157.4800 38.1000
L157.4800 92.7100
" />
<path d="M121.9200 35.5600
L154.9400 35.5600
" />
</g> 
</svg>
