<?xml version="1.0" standalone="no"?>
 <!DOCTYPE svg PUBLIC "-//W3C//DTD SVG 1.1//EN" 
 "http://www.w3.org/Graphics/SVG/1.1/DTD/svg11.dtd"> 
<svg
  xmlns:svg="http://www.w3.org/2000/svg"
  xmlns="http://www.w3.org/2000/svg"
  xmlns:xlink="http://www.w3.org/1999/xlink"
  version="1.1"
  width="0.2540mm" height="0.2540mm" viewBox="0.0000 0.0000 0.2540 0.2540">
<title>SVG Image created as keeb-rev1-mirror-Margin.svg date 2024/05/22 00:59:56 </title>
  <desc>Image generated by PCBNEW </desc>
<g style="fill:#000000; fill-opacity:1.0000;stroke:#000000; stroke-opacity:1.0000;
stroke-linecap:round; stroke-linejoin:round;"
 transform="translate(0 0) scale(1 1)">
</g>
<g style="fill:none; 
stroke:#000000; stroke-width:0.0500; stroke-opacity:1; 
stroke-linecap:round; stroke-linejoin:round;">
<path d="M154.9400 95.2500 A2.5400 2.5400 0.0 0 0 157.4800 92.7100" />
<path d="M15.2400 54.6100
L15.2400 92.7100
" />
<path d="M15.5476 94.8533
L31.1929 121.9190
" />
<path d="M157.4800 38.1000 A2.5400 2.5400 0.0 0 0 154.9400 35.5600" />
<path d="M90.1700 95.2500
L154.9400 95.2500
" />
<path d="M43.1800 24.1300
L116.8400 24.1300
" />
<path d="M39.3610 52.0610 A1.2700 1.2700 0.0 0 0 40.6310 50.7910" />
<path d="M119.3800 33.0200 A2.5400 2.5400 0.0 0 0 121.9200 35.5600" />
<path d="M90.1700 95.2500 A2.5400 2.5400 0.0 0 0 87.6300 97.7900" />
<path d="M85.0900 115.5520 A2.5400 2.5400 0.0 0 0 87.6300 113.0119" />
<path d="M17.7800 52.0700
L39.3610 52.0610
" />
<path d="M119.3800 26.6700 A2.5400 2.5400 0.0 0 0 116.8400 24.1300" />
<path d="M119.3800 26.6700
L119.3800 33.0200
" />
<path d="M50.8000 115.5700 A2.5400 2.5400 0.0 0 0 49.4932 115.9320" />
<path d="M40.6310 50.7910
L40.6400 26.6700
" />
<path d="M36.9062 123.1900
L49.4932 115.9320
" />
<path d="M17.7800 52.0700 A2.5400 2.5400 0.0 0 0 15.2400 54.6100" />
<path d="M43.1800 24.1300 A2.5400 2.5400 0.0 0 0 40.6400 26.6700" />
<path d="M87.6300 97.7900
L87.6300 113.0119
" />
<path d="M15.2400 92.7100 A7.6200 7.6200 0.0 0 0 15.5476 94.8533" />
<path d="M31.1929 121.9190 A4.0932 4.0932 0.0 0 0 36.9062 123.1900" />
<path d="M85.0900 115.5519
L50.8000 115.5700
" />
<path d="M157.4800 38.1000
L157.4800 92.7100
" />
<path d="M121.9200 35.5600
L154.9400 35.5600
" />
</g> 
</svg>
