<?xml version="1.0" standalone="no"?>
 <!DOCTYPE svg PUBLIC "-//W3C//DTD SVG 1.1//EN" 
 "http://www.w3.org/Graphics/SVG/1.1/DTD/svg11.dtd"> 
<svg
  xmlns:svg="http://www.w3.org/2000/svg"
  xmlns="http://www.w3.org/2000/svg"
  xmlns:xlink="http://www.w3.org/1999/xlink"
  version="1.1"
  width="0.2540mm" height="0.2540mm" viewBox="0.0000 0.0000 0.2540 0.2540">
<title>SVG Image created as keeb-rev1-mirror-F_Mask.svg date 2024/05/22 00:59:56 </title>
  <desc>Image generated by PCBNEW </desc>
<g style="fill:#000000; fill-opacity:1.0000;stroke:#000000; stroke-opacity:1.0000;
stroke-linecap:round; stroke-linejoin:round;"
 transform="translate(0 0) scale(1 1)">
</g>
<g style="fill:#000000; fill-opacity:1.0000; stroke:none;">
<circle cx="18.7960" cy="55.6260" r="1.3000" /> 
</g>
<g style="fill:#000000; fill-opacity:1.0000; stroke:none;">
<circle cx="18.7960" cy="55.6260" r="2.2000" /> 
</g>
<g style="fill:#000000; fill-opacity:1.0000; stroke:none;">
<circle cx="84.3280" cy="52.8320" r="0.8500" /> 
</g>
<g style="fill:#000000; fill-opacity:1.0000; stroke:none;">
<circle cx="89.4080" cy="52.8320" r="2.0000" /> 
</g>
<g style="fill:#000000; fill-opacity:1.0000; stroke:none;">
<circle cx="94.4880" cy="52.8320" r="0.8500" /> 
</g>
<g style="fill:#000000; fill-opacity:1.0000; stroke:none;">
<circle cx="91.9480" cy="47.7520" r="1.1000" /> 
</g>
<g style="fill:#000000; fill-opacity:1.0000; stroke:none;">
<circle cx="85.5980" cy="50.2920" r="1.1000" /> 
</g>
<g style="fill:#000000; fill-opacity:1.0000; stroke:none;">
<circle cx="44.4500" cy="27.9400" r="1.3000" /> 
</g>
<g style="fill:#000000; fill-opacity:1.0000; stroke:none;">
<circle cx="44.4500" cy="27.9400" r="2.2000" /> 
</g>
<g style="fill:#000000; fill-opacity:1.0000; stroke:none;">
<circle cx="65.2780" cy="38.8620" r="0.8500" /> 
</g>
<g style="fill:#000000; fill-opacity:1.0000; stroke:none;">
<circle cx="70.3580" cy="38.8620" r="2.0000" /> 
</g>
<g style="fill:#000000; fill-opacity:1.0000; stroke:none;">
<circle cx="75.4380" cy="38.8620" r="0.8500" /> 
</g>
<g style="fill:#000000; fill-opacity:1.0000; stroke:none;">
<circle cx="72.8980" cy="33.7820" r="1.1000" /> 
</g>
<g style="fill:#000000; fill-opacity:1.0000; stroke:none;">
<circle cx="66.5480" cy="36.3220" r="1.1000" /> 
</g>
<g style="fill:#000000; fill-opacity:1.0000; stroke:none;">
<circle cx="141.4780" cy="84.5820" r="0.8500" /> 
</g>
<g style="fill:#000000; fill-opacity:1.0000; stroke:none;">
<circle cx="146.5580" cy="84.5820" r="2.0000" /> 
</g>
<g style="fill:#000000; fill-opacity:1.0000; stroke:none;">
<circle cx="151.6380" cy="84.5820" r="0.8500" /> 
</g>
<g style="fill:#000000; fill-opacity:1.0000; stroke:none;">
<circle cx="149.0980" cy="79.5020" r="1.1000" /> 
</g>
<g style="fill:#000000; fill-opacity:1.0000; stroke:none;">
<circle cx="142.7480" cy="82.0420" r="1.1000" /> 
</g>
<g style="fill:#000000; fill-opacity:1.0000; stroke:none;">
<circle cx="34.5440" cy="119.7610" r="1.3000" /> 
</g>
<g style="fill:#000000; fill-opacity:1.0000; stroke:none;">
<circle cx="34.5440" cy="119.7610" r="2.2000" /> 
</g>
<g style="fill:#000000; fill-opacity:1.0000; stroke:none;">
<circle cx="65.2780" cy="76.9620" r="0.8500" /> 
</g>
<g style="fill:#000000; fill-opacity:1.0000; stroke:none;">
<circle cx="70.3580" cy="76.9620" r="2.0000" /> 
</g>
<g style="fill:#000000; fill-opacity:1.0000; stroke:none;">
<circle cx="75.4380" cy="76.9620" r="0.8500" /> 
</g>
<g style="fill:#000000; fill-opacity:1.0000; stroke:none;">
<circle cx="72.8980" cy="71.8820" r="1.1000" /> 
</g>
<g style="fill:#000000; fill-opacity:1.0000; stroke:none;">
<circle cx="66.5480" cy="74.4220" r="1.1000" /> 
</g>
<g style="fill:#000000; fill-opacity:1.0000; stroke:none;">
<circle cx="122.4280" cy="46.4820" r="0.8500" /> 
</g>
<g style="fill:#000000; fill-opacity:1.0000; stroke:none;">
<circle cx="127.5080" cy="46.4820" r="2.0000" /> 
</g>
<g style="fill:#000000; fill-opacity:1.0000; stroke:none;">
<circle cx="132.5880" cy="46.4820" r="0.8500" /> 
</g>
<g style="fill:#000000; fill-opacity:1.0000; stroke:none;">
<circle cx="130.0480" cy="41.4020" r="1.1000" /> 
</g>
<g style="fill:#000000; fill-opacity:1.0000; stroke:none;">
<circle cx="123.6980" cy="43.9420" r="1.1000" /> 
</g>
<g style="fill:#000000; fill-opacity:1.0000; stroke:none;">
<circle cx="84.3280" cy="33.7820" r="0.8500" /> 
</g>
<g style="fill:#000000; fill-opacity:1.0000; stroke:none;">
<circle cx="89.4080" cy="33.7820" r="2.0000" /> 
</g>
<g style="fill:#000000; fill-opacity:1.0000; stroke:none;">
<circle cx="94.4880" cy="33.7820" r="0.8500" /> 
</g>
<g style="fill:#000000; fill-opacity:1.0000; stroke:none;">
<circle cx="91.9480" cy="28.7020" r="1.1000" /> 
</g>
<g style="fill:#000000; fill-opacity:1.0000; stroke:none;">
<circle cx="85.5980" cy="31.2420" r="1.1000" /> 
</g>
<g style="fill:#000000; fill-opacity:1.0000; stroke:none;">
<circle cx="103.3780" cy="76.9620" r="0.8500" /> 
</g>
<g style="fill:#000000; fill-opacity:1.0000; stroke:none;">
<circle cx="108.4580" cy="76.9620" r="2.0000" /> 
</g>
<g style="fill:#000000; fill-opacity:1.0000; stroke:none;">
<circle cx="113.5380" cy="76.9620" r="0.8500" /> 
</g>
<g style="fill:#000000; fill-opacity:1.0000; stroke:none;">
<circle cx="110.9980" cy="71.8820" r="1.1000" /> 
</g>
<g style="fill:#000000; fill-opacity:1.0000; stroke:none;">
<circle cx="104.6480" cy="74.4220" r="1.1000" /> 
</g>
<g style="fill:#000000; fill-opacity:1.0000; stroke:none;">
<circle cx="141.4780" cy="65.5320" r="0.8500" /> 
</g>
<g style="fill:#000000; fill-opacity:1.0000; stroke:none;">
<circle cx="146.5580" cy="65.5320" r="2.0000" /> 
</g>
<g style="fill:#000000; fill-opacity:1.0000; stroke:none;">
<circle cx="151.6380" cy="65.5320" r="0.8500" /> 
</g>
<g style="fill:#000000; fill-opacity:1.0000; stroke:none;">
<circle cx="149.0980" cy="60.4520" r="1.1000" /> 
</g>
<g style="fill:#000000; fill-opacity:1.0000; stroke:none;">
<circle cx="142.7480" cy="62.9920" r="1.1000" /> 
</g>
<g style="fill:#000000; fill-opacity:1.0000; stroke:none;">
<circle cx="72.8980" cy="102.1080" r="0.8500" /> 
</g>
<g style="fill:#000000; fill-opacity:1.0000; stroke:none;">
<circle cx="77.9780" cy="102.1080" r="2.0000" /> 
</g>
<g style="fill:#000000; fill-opacity:1.0000; stroke:none;">
<circle cx="83.0580" cy="102.1080" r="0.8500" /> 
</g>
<g style="fill:#000000; fill-opacity:1.0000; stroke:none;">
<circle cx="80.5180" cy="97.0280" r="1.1000" /> 
</g>
<g style="fill:#000000; fill-opacity:1.0000; stroke:none;">
<circle cx="74.1680" cy="99.5680" r="1.1000" /> 
</g>
<g style="fill:#000000; fill-opacity:1.0000; stroke:none;">
<circle cx="141.4780" cy="46.4820" r="0.8500" /> 
</g>
<g style="fill:#000000; fill-opacity:1.0000; stroke:none;">
<circle cx="146.5580" cy="46.4820" r="2.0000" /> 
</g>
<g style="fill:#000000; fill-opacity:1.0000; stroke:none;">
<circle cx="151.6380" cy="46.4820" r="0.8500" /> 
</g>
<g style="fill:#000000; fill-opacity:1.0000; stroke:none;">
<circle cx="149.0980" cy="41.4020" r="1.1000" /> 
</g>
<g style="fill:#000000; fill-opacity:1.0000; stroke:none;">
<circle cx="142.7480" cy="43.9420" r="1.1000" /> 
</g>
<g style="fill:#000000; fill-opacity:1.0000; stroke:none;">
<circle cx="103.3780" cy="57.9120" r="0.8500" /> 
</g>
<g style="fill:#000000; fill-opacity:1.0000; stroke:none;">
<circle cx="108.4580" cy="57.9120" r="2.0000" /> 
</g>
<g style="fill:#000000; fill-opacity:1.0000; stroke:none;">
<circle cx="113.5380" cy="57.9120" r="0.8500" /> 
</g>
<g style="fill:#000000; fill-opacity:1.0000; stroke:none;">
<circle cx="110.9980" cy="52.8320" r="1.1000" /> 
</g>
<g style="fill:#000000; fill-opacity:1.0000; stroke:none;">
<circle cx="104.6480" cy="55.3720" r="1.1000" /> 
</g>
<g style="fill:#000000; fill-opacity:1.0000; stroke:none;">
<circle cx="115.5700" cy="27.9400" r="1.3000" /> 
</g>
<g style="fill:#000000; fill-opacity:1.0000; stroke:none;">
<circle cx="115.5700" cy="27.9400" r="2.2000" /> 
</g>
<g style="fill:#000000; fill-opacity:1.0000; stroke:none;">
<circle cx="115.5700" cy="91.4400" r="1.3000" /> 
</g>
<g style="fill:#000000; fill-opacity:1.0000; stroke:none;">
<circle cx="115.5700" cy="91.4400" r="2.2000" /> 
</g>
<g style="fill:#000000; fill-opacity:1.0000; stroke:none;">
<circle cx="122.4280" cy="65.5320" r="0.8500" /> 
</g>
<g style="fill:#000000; fill-opacity:1.0000; stroke:none;">
<circle cx="127.5080" cy="65.5320" r="2.0000" /> 
</g>
<g style="fill:#000000; fill-opacity:1.0000; stroke:none;">
<circle cx="132.5880" cy="65.5320" r="0.8500" /> 
</g>
<g style="fill:#000000; fill-opacity:1.0000; stroke:none;">
<circle cx="130.0480" cy="60.4520" r="1.1000" /> 
</g>
<g style="fill:#000000; fill-opacity:1.0000; stroke:none;">
<circle cx="123.6980" cy="62.9920" r="1.1000" /> 
</g>
<g style="fill:#000000; fill-opacity:1.0000; stroke:none;">
<circle cx="46.2280" cy="79.5020" r="0.8500" /> 
</g>
<g style="fill:#000000; fill-opacity:1.0000; stroke:none;">
<circle cx="51.3080" cy="79.5020" r="2.0000" /> 
</g>
<g style="fill:#000000; fill-opacity:1.0000; stroke:none;">
<circle cx="56.3880" cy="79.5020" r="0.8500" /> 
</g>
<g style="fill:#000000; fill-opacity:1.0000; stroke:none;">
<circle cx="53.8480" cy="74.4220" r="1.1000" /> 
</g>
<g style="fill:#000000; fill-opacity:1.0000; stroke:none;">
<circle cx="47.4980" cy="76.9620" r="1.1000" /> 
</g>
<g style="fill:#000000; fill-opacity:1.0000; stroke:none;">
<circle cx="29.7180" cy="100.3756" r="0.8500" /> 
</g>
<g style="fill:#000000; fill-opacity:1.0000; stroke:none;">
<circle cx="32.2580" cy="104.7750" r="2.0000" /> 
</g>
<g style="fill:#000000; fill-opacity:1.0000; stroke:none;">
<circle cx="34.7980" cy="109.1744" r="0.8500" /> 
</g>
<g style="fill:#000000; fill-opacity:1.0000; stroke:none;">
<circle cx="37.9274" cy="104.4347" r="1.1000" /> 
</g>
<g style="fill:#000000; fill-opacity:1.0000; stroke:none;">
<circle cx="32.5527" cy="100.2054" r="1.1000" /> 
</g>
<g style="fill:#000000; fill-opacity:1.0000; stroke:none;">
<circle cx="65.2780" cy="57.9120" r="0.8500" /> 
</g>
<g style="fill:#000000; fill-opacity:1.0000; stroke:none;">
<circle cx="70.3580" cy="57.9120" r="2.0000" /> 
</g>
<g style="fill:#000000; fill-opacity:1.0000; stroke:none;">
<circle cx="75.4380" cy="57.9120" r="0.8500" /> 
</g>
<g style="fill:#000000; fill-opacity:1.0000; stroke:none;">
<circle cx="72.8980" cy="52.8320" r="1.1000" /> 
</g>
<g style="fill:#000000; fill-opacity:1.0000; stroke:none;">
<circle cx="66.5480" cy="55.3720" r="1.1000" /> 
</g>
<g style="fill:#000000; fill-opacity:1.0000; stroke:none;">
<circle cx="103.3780" cy="38.8620" r="0.8500" /> 
</g>
<g style="fill:#000000; fill-opacity:1.0000; stroke:none;">
<circle cx="108.4580" cy="38.8620" r="2.0000" /> 
</g>
<g style="fill:#000000; fill-opacity:1.0000; stroke:none;">
<circle cx="113.5380" cy="38.8620" r="0.8500" /> 
</g>
<g style="fill:#000000; fill-opacity:1.0000; stroke:none;">
<circle cx="110.9980" cy="33.7820" r="1.1000" /> 
</g>
<g style="fill:#000000; fill-opacity:1.0000; stroke:none;">
<circle cx="104.6480" cy="36.3220" r="1.1000" /> 
</g>
<g style="fill:#000000; fill-opacity:1.0000; stroke:none;">
<circle cx="53.8480" cy="104.6480" r="0.8500" /> 
</g>
<g style="fill:#000000; fill-opacity:1.0000; stroke:none;">
<circle cx="58.9280" cy="104.6480" r="2.0000" /> 
</g>
<g style="fill:#000000; fill-opacity:1.0000; stroke:none;">
<circle cx="64.0080" cy="104.6480" r="0.8500" /> 
</g>
<g style="fill:#000000; fill-opacity:1.0000; stroke:none;">
<circle cx="61.4680" cy="99.5680" r="1.1000" /> 
</g>
<g style="fill:#000000; fill-opacity:1.0000; stroke:none;">
<circle cx="55.1180" cy="102.1080" r="1.1000" /> 
</g>
<g style="fill:#000000; fill-opacity:1.0000; stroke:none;">
<circle cx="122.4280" cy="84.5820" r="0.8500" /> 
</g>
<g style="fill:#000000; fill-opacity:1.0000; stroke:none;">
<circle cx="127.5080" cy="84.5820" r="2.0000" /> 
</g>
<g style="fill:#000000; fill-opacity:1.0000; stroke:none;">
<circle cx="132.5880" cy="84.5820" r="0.8500" /> 
</g>
<g style="fill:#000000; fill-opacity:1.0000; stroke:none;">
<circle cx="130.0480" cy="79.5020" r="1.1000" /> 
</g>
<g style="fill:#000000; fill-opacity:1.0000; stroke:none;">
<circle cx="123.6980" cy="82.0420" r="1.1000" /> 
</g>
<g style="fill:#000000; fill-opacity:1.0000; stroke:none;">
<circle cx="84.3280" cy="71.8820" r="0.8500" /> 
</g>
<g style="fill:#000000; fill-opacity:1.0000; stroke:none;">
<circle cx="89.4080" cy="71.8820" r="2.0000" /> 
</g>
<g style="fill:#000000; fill-opacity:1.0000; stroke:none;">
<circle cx="94.4880" cy="71.8820" r="0.8500" /> 
</g>
<g style="fill:#000000; fill-opacity:1.0000; stroke:none;">
<circle cx="91.9480" cy="66.8020" r="1.1000" /> 
</g>
<g style="fill:#000000; fill-opacity:1.0000; stroke:none;">
<circle cx="85.5980" cy="69.3420" r="1.1000" /> 
</g>
<g style="fill:#000000; fill-opacity:1.0000; stroke:none;">
<circle cx="46.2280" cy="60.4520" r="0.8500" /> 
</g>
<g style="fill:#000000; fill-opacity:1.0000; stroke:none;">
<circle cx="51.3080" cy="60.4520" r="2.0000" /> 
</g>
<g style="fill:#000000; fill-opacity:1.0000; stroke:none;">
<circle cx="56.3880" cy="60.4520" r="0.8500" /> 
</g>
<g style="fill:#000000; fill-opacity:1.0000; stroke:none;">
<circle cx="53.8480" cy="55.3720" r="1.1000" /> 
</g>
<g style="fill:#000000; fill-opacity:1.0000; stroke:none;">
<circle cx="47.4980" cy="57.9120" r="1.1000" /> 
</g>
<g style="fill:#000000; fill-opacity:1.0000; stroke:none;">
<circle cx="46.2280" cy="41.4020" r="0.8500" /> 
</g>
<g style="fill:#000000; fill-opacity:1.0000; stroke:none;">
<circle cx="51.3080" cy="41.4020" r="2.0000" /> 
</g>
<g style="fill:#000000; fill-opacity:1.0000; stroke:none;">
<circle cx="56.3880" cy="41.4020" r="0.8500" /> 
</g>
<g style="fill:#000000; fill-opacity:1.0000; stroke:none;">
<circle cx="53.8480" cy="36.3220" r="1.1000" /> 
</g>
<g style="fill:#000000; fill-opacity:1.0000; stroke:none;">
<circle cx="47.4980" cy="38.8620" r="1.1000" /> 
</g>
<g style="fill:#000000; fill-opacity:1.0000; stroke:none;">
<circle cx="25.0500" cy="58.3580" r="0.3250" /> 
</g>
<g style="fill:#000000; fill-opacity:1.0000; stroke:none;">
<circle cx="30.8300" cy="58.3580" r="0.3250" /> 
</g>
<g style="fill:none; 
stroke:#000000; stroke-width:1.0000; stroke-opacity:1; 
stroke-linecap:round; stroke-linejoin:round;">
<path d="M23.6200 54.2780
L23.6200 55.0780
" />
<path d="M23.6200 58.3080
L23.6200 59.4080
" />
<path d="M32.2600 54.2780
L32.2600 55.0780
" />
<path d="M32.2600 58.3080
L32.2600 59.4080
" />
</g>
<g style="fill:none; 
stroke:#000000; stroke-width:0.0500; stroke-opacity:1; 
stroke-linecap:round; stroke-linejoin:round;">
<path d="M154.9400 95.2500 A2.5400 2.5400 0.0 0 0 157.4800 92.7100" />
<path d="M15.2400 54.6100
L15.2400 92.7100
" />
<path d="M15.5476 94.8533
L31.1929 121.9190
" />
<path d="M157.4800 38.1000 A2.5400 2.5400 0.0 0 0 154.9400 35.5600" />
<path d="M90.1700 95.2500
L154.9400 95.2500
" />
<path d="M43.1800 24.1300
L116.8400 24.1300
" />
<path d="M39.3610 52.0610 A1.2700 1.2700 0.0 0 0 40.6310 50.7910" />
<path d="M119.3800 33.0200 A2.5400 2.5400 0.0 0 0 121.9200 35.5600" />
<path d="M90.1700 95.2500 A2.5400 2.5400 0.0 0 0 87.6300 97.7900" />
<path d="M85.0900 115.5520 A2.5400 2.5400 0.0 0 0 87.6300 113.0119" />
<path d="M17.7800 52.0700
L39.3610 52.0610
" />
<path d="M119.3800 26.6700 A2.5400 2.5400 0.0 0 0 116.8400 24.1300" />
<path d="M119.3800 26.6700
L119.3800 33.0200
" />
<path d="M50.8000 115.5700 A2.5400 2.5400 0.0 0 0 49.4932 115.9320" />
<path d="M40.6310 50.7910
L40.6400 26.6700
" />
<path d="M36.9062 123.1900
L49.4932 115.9320
" />
<path d="M17.7800 52.0700 A2.5400 2.5400 0.0 0 0 15.2400 54.6100" />
<path d="M43.1800 24.1300 A2.5400 2.5400 0.0 0 0 40.6400 26.6700" />
<path d="M87.6300 97.7900
L87.6300 113.0119
" />
<path d="M15.2400 92.7100 A7.6200 7.6200 0.0 0 0 15.5476 94.8533" />
<path d="M31.1929 121.9190 A4.0932 4.0932 0.0 0 0 36.9062 123.1900" />
<path d="M85.0900 115.5519
L50.8000 115.5700
" />
<path d="M157.4800 38.1000
L157.4800 92.7100
" />
<path d="M121.9200 35.5600
L154.9400 35.5600
" />
</g> 
</svg>
