<?xml version="1.0" standalone="no"?>
 <!DOCTYPE svg PUBLIC "-//W3C//DTD SVG 1.1//EN" 
 "http://www.w3.org/Graphics/SVG/1.1/DTD/svg11.dtd"> 
<svg
  xmlns:svg="http://www.w3.org/2000/svg"
  xmlns="http://www.w3.org/2000/svg"
  xmlns:xlink="http://www.w3.org/1999/xlink"
  version="1.1"
  width="0.2540mm" height="0.2540mm" viewBox="0.0000 0.0000 0.2540 0.2540">
<title>SVG Image created as keeb-rev1-mirror-B_Paste.svg date 2024/05/22 00:59:56 </title>
  <desc>Image generated by PCBNEW </desc>
<g style="fill:#000000; fill-opacity:1.0000;stroke:#000000; stroke-opacity:1.0000;
stroke-linecap:round; stroke-linejoin:round;"
 transform="translate(0 0) scale(1 1)">
<path style="fill:#000000; fill-opacity:1.0000; stroke:none;fill-rule:evenodd;"
d="M 21.0780,70.4030
21.1641,70.4201
21.2371,70.4689
21.2859,70.5419
21.3030,70.6280
21.3030,71.0780
21.2859,71.1641
21.2371,71.2371
21.1641,71.2859
21.0780,71.3030
20.5780,71.3030
20.4919,71.2859
20.4189,71.2371
20.3701,71.1641
20.3530,71.0780
20.3530,70.6280
20.3701,70.5419
20.4189,70.4689
20.4919,70.4201
20.5780,70.4030
Z" /> 
<path style="fill:#000000; fill-opacity:1.0000; stroke:none;fill-rule:evenodd;"
d="M 21.0780,71.9530
21.1641,71.9701
21.2371,72.0189
21.2859,72.0919
21.3030,72.1780
21.3030,72.6280
21.2859,72.7141
21.2371,72.7871
21.1641,72.8359
21.0780,72.8530
20.5780,72.8530
20.4919,72.8359
20.4189,72.7871
20.3701,72.7141
20.3530,72.6280
20.3530,72.1780
20.3701,72.0919
20.4189,72.0189
20.4919,71.9701
20.5780,71.9530
Z" /> 
<path style="fill:#000000; fill-opacity:1.0000; stroke:none;fill-rule:evenodd;"
d="M 36.1727,94.7760
36.2535,94.7486
36.3387,94.7541
36.4152,94.7919
36.4715,94.8561
36.6902,95.2350
36.7177,95.3158
36.7121,95.4009
36.6743,95.4775
36.6102,95.5338
36.1663,95.7900
36.0855,95.8175
36.0003,95.8119
35.9238,95.7741
35.8675,95.7100
35.6488,95.3311
35.6213,95.2502
35.6269,95.1651
35.6647,95.0885
35.7288,95.0322
Z" /> 
<path style="fill:#000000; fill-opacity:1.0000; stroke:none;fill-rule:evenodd;"
d="M 36.9602,96.1400
37.0410,96.1126
37.1262,96.1181
37.2027,96.1559
37.2590,96.2201
37.4777,96.5989
37.5052,96.6798
37.4996,96.7649
37.4618,96.8415
37.3977,96.8978
36.9538,97.1540
36.8730,97.1814
36.7878,97.1759
36.7113,97.1381
36.6550,97.0739
36.4363,96.6951
36.4088,96.6142
36.4144,96.5291
36.4522,96.4525
36.5163,96.3962
Z" /> 
<path style="fill:#000000; fill-opacity:1.0000; stroke:none;fill-rule:evenodd;"
d="M 135.7597,40.9135
135.8435,40.9302
135.9144,40.9776
135.9618,41.0485
135.9785,41.1322
135.9785,41.5697
135.9618,41.6535
135.9144,41.7244
135.8435,41.7718
135.7597,41.7885
135.2472,41.7885
135.1635,41.7718
135.0926,41.7244
135.0452,41.6535
135.0285,41.5697
135.0285,41.1322
135.0452,41.0485
135.0926,40.9776
135.1635,40.9302
135.2472,40.9135
Z" /> 
<path style="fill:#000000; fill-opacity:1.0000; stroke:none;fill-rule:evenodd;"
d="M 135.7597,42.4885
135.8435,42.5052
135.9144,42.5526
135.9618,42.6235
135.9785,42.7072
135.9785,43.1447
135.9618,43.2285
135.9144,43.2994
135.8435,43.3468
135.7597,43.3635
135.2472,43.3635
135.1635,43.3468
135.0926,43.2994
135.0452,43.2285
135.0285,43.1447
135.0285,42.7072
135.0452,42.6235
135.0926,42.5526
135.1635,42.5052
135.2472,42.4885
Z" /> 
<path style="fill:#000000; fill-opacity:1.0000; stroke:none;fill-rule:evenodd;"
d="M 25.3550,67.9410
25.3379,68.0271
25.2891,68.1001
25.2161,68.1489
25.1300,68.1660
24.6800,68.1660
24.5939,68.1489
24.5209,68.1001
24.4721,68.0271
24.4550,67.9410
24.4550,67.4410
24.4721,67.3549
24.5209,67.2819
24.5939,67.2331
24.6800,67.2160
25.1300,67.2160
25.2161,67.2331
25.2891,67.2819
25.3379,67.3549
25.3550,67.4410
Z" /> 
<path style="fill:#000000; fill-opacity:1.0000; stroke:none;fill-rule:evenodd;"
d="M 23.8050,67.9410
23.7879,68.0271
23.7391,68.1001
23.6661,68.1489
23.5800,68.1660
23.1300,68.1660
23.0439,68.1489
22.9709,68.1001
22.9221,68.0271
22.9050,67.9410
22.9050,67.4410
22.9221,67.3549
22.9709,67.2819
23.0439,67.2331
23.1300,67.2160
23.5800,67.2160
23.6661,67.2331
23.7391,67.2819
23.7879,67.3549
23.8050,67.4410
Z" /> 
<path style="fill:#000000; fill-opacity:1.0000; stroke:none;fill-rule:evenodd;"
d="M 40.5930,77.3956
39.7445,78.2441
38.7545,77.2541
39.6031,76.4056
Z" /> 
<path style="fill:#000000; fill-opacity:1.0000; stroke:none;fill-rule:evenodd;"
d="M 39.0374,75.8399
38.1889,76.6885
37.1989,75.6985
38.0474,74.8500
Z" /> 
<path style="fill:#000000; fill-opacity:1.0000; stroke:none;fill-rule:evenodd;"
d="M 40.2395,74.6379
39.3909,75.4864
38.4010,74.4964
39.2495,73.6479
Z" /> 
<path style="fill:#000000; fill-opacity:1.0000; stroke:none;fill-rule:evenodd;"
d="M 41.7951,76.1935
40.9466,77.0420
39.9566,76.0521
40.8051,75.2035
Z" /> 
<path style="fill:#000000; fill-opacity:1.0000; stroke:none;fill-rule:evenodd;"
d="M 36.3430,57.4368
36.4195,57.4520
36.4844,57.4954
36.5278,57.5603
36.5430,57.6368
36.5430,58.0368
36.5278,58.1133
36.4844,58.1782
36.4195,58.2216
36.3430,58.2368
35.7930,58.2368
35.7165,58.2216
35.6516,58.1782
35.6082,58.1133
35.5930,58.0368
35.5930,57.6368
35.6082,57.5603
35.6516,57.4954
35.7165,57.4520
35.7930,57.4368
Z" /> 
<path style="fill:#000000; fill-opacity:1.0000; stroke:none;fill-rule:evenodd;"
d="M 36.3430,59.0868
36.4195,59.1020
36.4844,59.1454
36.5278,59.2103
36.5430,59.2868
36.5430,59.6868
36.5278,59.7633
36.4844,59.8282
36.4195,59.8716
36.3430,59.8868
35.7930,59.8868
35.7165,59.8716
35.6516,59.8282
35.6082,59.7633
35.5930,59.6868
35.5930,59.2868
35.6082,59.2103
35.6516,59.1454
35.7165,59.1020
35.7930,59.0868
Z" /> 
<path style="fill:#000000; fill-opacity:1.0000; stroke:none;fill-rule:evenodd;"
d="M 97.6598,30.7790
97.7435,30.7957
97.8144,30.8431
97.8618,30.9140
97.8785,30.9977
97.8785,31.4352
97.8618,31.5190
97.8144,31.5899
97.7435,31.6373
97.6598,31.6540
97.1472,31.6540
97.0635,31.6373
96.9926,31.5899
96.9452,31.5190
96.9285,31.4352
96.9285,30.9977
96.9452,30.9140
96.9926,30.8431
97.0635,30.7957
97.1472,30.7790
Z" /> 
<path style="fill:#000000; fill-opacity:1.0000; stroke:none;fill-rule:evenodd;"
d="M 97.6598,32.3540
97.7435,32.3707
97.8144,32.4181
97.8618,32.4890
97.8785,32.5727
97.8785,33.0102
97.8618,33.0940
97.8144,33.1649
97.7435,33.2123
97.6598,33.2290
97.1472,33.2290
97.0635,33.2123
96.9926,33.1649
96.9452,33.0940
96.9285,33.0102
96.9285,32.5727
96.9452,32.4890
96.9926,32.4181
97.0635,32.3707
97.1472,32.3540
Z" /> 
<path style="fill:#000000; fill-opacity:1.0000; stroke:none;fill-rule:evenodd;"
d="M 154.8152,40.9135
154.8990,40.9302
154.9699,40.9776
155.0173,41.0485
155.0340,41.1322
155.0340,41.5697
155.0173,41.6535
154.9699,41.7244
154.8990,41.7718
154.8152,41.7885
154.3028,41.7885
154.2190,41.7718
154.1481,41.7244
154.1007,41.6535
154.0840,41.5697
154.0840,41.1322
154.1007,41.0485
154.1481,40.9776
154.2190,40.9302
154.3028,40.9135
Z" /> 
<path style="fill:#000000; fill-opacity:1.0000; stroke:none;fill-rule:evenodd;"
d="M 154.8152,42.4885
154.8990,42.5052
154.9699,42.5526
155.0173,42.6235
155.0340,42.7072
155.0340,43.1447
155.0173,43.2285
154.9699,43.2994
154.8990,43.3468
154.8152,43.3635
154.3028,43.3635
154.2190,43.3468
154.1481,43.2994
154.1007,43.2285
154.0840,43.1447
154.0840,42.7072
154.1007,42.6235
154.1481,42.5526
154.2190,42.5052
154.3028,42.4885
Z" /> 
<path style="fill:#000000; fill-opacity:1.0000; stroke:none;fill-rule:evenodd;"
d="M 24.1730,69.2040
24.7230,69.2040
24.7230,70.7040
24.1730,70.7040
Z" /> 
<path style="fill:#000000; fill-opacity:1.0000; stroke:none;fill-rule:evenodd;"
d="M 24.9730,69.2040
25.5230,69.2040
25.5230,70.7040
24.9730,70.7040
Z" /> 
<path style="fill:#000000; fill-opacity:1.0000; stroke:none;fill-rule:evenodd;"
d="M 25.7730,69.2040
26.3230,69.2040
26.3230,70.7040
25.7730,70.7040
Z" /> 
<path style="fill:#000000; fill-opacity:1.0000; stroke:none;fill-rule:evenodd;"
d="M 26.5730,69.2040
27.1230,69.2040
27.1230,70.7040
26.5730,70.7040
Z" /> 
<path style="fill:#000000; fill-opacity:1.0000; stroke:none;fill-rule:evenodd;"
d="M 27.3730,69.2040
27.9230,69.2040
27.9230,70.7040
27.3730,70.7040
Z" /> 
<path style="fill:#000000; fill-opacity:1.0000; stroke:none;fill-rule:evenodd;"
d="M 28.1730,69.2040
28.7230,69.2040
28.7230,70.7040
28.1730,70.7040
Z" /> 
<path style="fill:#000000; fill-opacity:1.0000; stroke:none;fill-rule:evenodd;"
d="M 28.9730,69.2040
29.5230,69.2040
29.5230,70.7040
28.9730,70.7040
Z" /> 
<path style="fill:#000000; fill-opacity:1.0000; stroke:none;fill-rule:evenodd;"
d="M 29.7730,69.2040
30.3230,69.2040
30.3230,70.7040
29.7730,70.7040
Z" /> 
<path style="fill:#000000; fill-opacity:1.0000; stroke:none;fill-rule:evenodd;"
d="M 30.5730,69.2040
31.1230,69.2040
31.1230,70.7040
30.5730,70.7040
Z" /> 
<path style="fill:#000000; fill-opacity:1.0000; stroke:none;fill-rule:evenodd;"
d="M 31.3730,69.2040
31.9230,69.2040
31.9230,70.7040
31.3730,70.7040
Z" /> 
<path style="fill:#000000; fill-opacity:1.0000; stroke:none;fill-rule:evenodd;"
d="M 32.1730,69.2040
32.7230,69.2040
32.7230,70.7040
32.1730,70.7040
Z" /> 
<path style="fill:#000000; fill-opacity:1.0000; stroke:none;fill-rule:evenodd;"
d="M 34.8980,71.3790
34.8980,71.9290
33.3980,71.9290
33.3980,71.3790
Z" /> 
<path style="fill:#000000; fill-opacity:1.0000; stroke:none;fill-rule:evenodd;"
d="M 34.8980,72.1790
34.8980,72.7290
33.3980,72.7290
33.3980,72.1790
Z" /> 
<path style="fill:#000000; fill-opacity:1.0000; stroke:none;fill-rule:evenodd;"
d="M 34.8980,72.9790
34.8980,73.5290
33.3980,73.5290
33.3980,72.9790
Z" /> 
<path style="fill:#000000; fill-opacity:1.0000; stroke:none;fill-rule:evenodd;"
d="M 34.8980,73.7790
34.8980,74.3290
33.3980,74.3290
33.3980,73.7790
Z" /> 
<path style="fill:#000000; fill-opacity:1.0000; stroke:none;fill-rule:evenodd;"
d="M 34.8980,74.5790
34.8980,75.1290
33.3980,75.1290
33.3980,74.5790
Z" /> 
<path style="fill:#000000; fill-opacity:1.0000; stroke:none;fill-rule:evenodd;"
d="M 34.8980,75.3790
34.8980,75.9290
33.3980,75.9290
33.3980,75.3790
Z" /> 
<path style="fill:#000000; fill-opacity:1.0000; stroke:none;fill-rule:evenodd;"
d="M 34.8980,76.1790
34.8980,76.7290
33.3980,76.7290
33.3980,76.1790
Z" /> 
<path style="fill:#000000; fill-opacity:1.0000; stroke:none;fill-rule:evenodd;"
d="M 34.8980,76.9790
34.8980,77.5290
33.3980,77.5290
33.3980,76.9790
Z" /> 
<path style="fill:#000000; fill-opacity:1.0000; stroke:none;fill-rule:evenodd;"
d="M 34.8980,77.7790
34.8980,78.3290
33.3980,78.3290
33.3980,77.7790
Z" /> 
<path style="fill:#000000; fill-opacity:1.0000; stroke:none;fill-rule:evenodd;"
d="M 34.8980,78.5790
34.8980,79.1290
33.3980,79.1290
33.3980,78.5790
Z" /> 
<path style="fill:#000000; fill-opacity:1.0000; stroke:none;fill-rule:evenodd;"
d="M 34.8980,79.3790
34.8980,79.9290
33.3980,79.9290
33.3980,79.3790
Z" /> 
<path style="fill:#000000; fill-opacity:1.0000; stroke:none;fill-rule:evenodd;"
d="M 32.1730,80.6040
32.7230,80.6040
32.7230,82.1040
32.1730,82.1040
Z" /> 
<path style="fill:#000000; fill-opacity:1.0000; stroke:none;fill-rule:evenodd;"
d="M 31.3730,80.6040
31.9230,80.6040
31.9230,82.1040
31.3730,82.1040
Z" /> 
<path style="fill:#000000; fill-opacity:1.0000; stroke:none;fill-rule:evenodd;"
d="M 30.5730,80.6040
31.1230,80.6040
31.1230,82.1040
30.5730,82.1040
Z" /> 
<path style="fill:#000000; fill-opacity:1.0000; stroke:none;fill-rule:evenodd;"
d="M 29.7730,80.6040
30.3230,80.6040
30.3230,82.1040
29.7730,82.1040
Z" /> 
<path style="fill:#000000; fill-opacity:1.0000; stroke:none;fill-rule:evenodd;"
d="M 28.9730,80.6040
29.5230,80.6040
29.5230,82.1040
28.9730,82.1040
Z" /> 
<path style="fill:#000000; fill-opacity:1.0000; stroke:none;fill-rule:evenodd;"
d="M 28.1730,80.6040
28.7230,80.6040
28.7230,82.1040
28.1730,82.1040
Z" /> 
<path style="fill:#000000; fill-opacity:1.0000; stroke:none;fill-rule:evenodd;"
d="M 27.3730,80.6040
27.9230,80.6040
27.9230,82.1040
27.3730,82.1040
Z" /> 
<path style="fill:#000000; fill-opacity:1.0000; stroke:none;fill-rule:evenodd;"
d="M 26.5730,80.6040
27.1230,80.6040
27.1230,82.1040
26.5730,82.1040
Z" /> 
<path style="fill:#000000; fill-opacity:1.0000; stroke:none;fill-rule:evenodd;"
d="M 25.7730,80.6040
26.3230,80.6040
26.3230,82.1040
25.7730,82.1040
Z" /> 
<path style="fill:#000000; fill-opacity:1.0000; stroke:none;fill-rule:evenodd;"
d="M 24.9730,80.6040
25.5230,80.6040
25.5230,82.1040
24.9730,82.1040
Z" /> 
<path style="fill:#000000; fill-opacity:1.0000; stroke:none;fill-rule:evenodd;"
d="M 24.1730,80.6040
24.7230,80.6040
24.7230,82.1040
24.1730,82.1040
Z" /> 
<path style="fill:#000000; fill-opacity:1.0000; stroke:none;fill-rule:evenodd;"
d="M 23.4980,79.3790
23.4980,79.9290
21.9980,79.9290
21.9980,79.3790
Z" /> 
<path style="fill:#000000; fill-opacity:1.0000; stroke:none;fill-rule:evenodd;"
d="M 23.4980,78.5790
23.4980,79.1290
21.9980,79.1290
21.9980,78.5790
Z" /> 
<path style="fill:#000000; fill-opacity:1.0000; stroke:none;fill-rule:evenodd;"
d="M 23.4980,77.7790
23.4980,78.3290
21.9980,78.3290
21.9980,77.7790
Z" /> 
<path style="fill:#000000; fill-opacity:1.0000; stroke:none;fill-rule:evenodd;"
d="M 23.4980,76.9790
23.4980,77.5290
21.9980,77.5290
21.9980,76.9790
Z" /> 
<path style="fill:#000000; fill-opacity:1.0000; stroke:none;fill-rule:evenodd;"
d="M 23.4980,76.1790
23.4980,76.7290
21.9980,76.7290
21.9980,76.1790
Z" /> 
<path style="fill:#000000; fill-opacity:1.0000; stroke:none;fill-rule:evenodd;"
d="M 23.4980,75.3790
23.4980,75.9290
21.9980,75.9290
21.9980,75.3790
Z" /> 
<path style="fill:#000000; fill-opacity:1.0000; stroke:none;fill-rule:evenodd;"
d="M 23.4980,74.5790
23.4980,75.1290
21.9980,75.1290
21.9980,74.5790
Z" /> 
<path style="fill:#000000; fill-opacity:1.0000; stroke:none;fill-rule:evenodd;"
d="M 23.4980,73.7790
23.4980,74.3290
21.9980,74.3290
21.9980,73.7790
Z" /> 
<path style="fill:#000000; fill-opacity:1.0000; stroke:none;fill-rule:evenodd;"
d="M 23.4980,72.9790
23.4980,73.5290
21.9980,73.5290
21.9980,72.9790
Z" /> 
<path style="fill:#000000; fill-opacity:1.0000; stroke:none;fill-rule:evenodd;"
d="M 23.4980,72.1790
23.4980,72.7290
21.9980,72.7290
21.9980,72.1790
Z" /> 
<path style="fill:#000000; fill-opacity:1.0000; stroke:none;fill-rule:evenodd;"
d="M 23.4980,71.3790
23.4980,71.9290
21.9980,71.9290
21.9980,71.3790
Z" /> 
<path style="fill:#000000; fill-opacity:1.0000; stroke:none;fill-rule:evenodd;"
d="M 154.8152,60.0090
154.8990,60.0257
154.9699,60.0731
155.0173,60.1440
155.0340,60.2278
155.0340,60.6653
155.0173,60.7490
154.9699,60.8199
154.8990,60.8673
154.8152,60.8840
154.3028,60.8840
154.2190,60.8673
154.1481,60.8199
154.1007,60.7490
154.0840,60.6653
154.0840,60.2278
154.1007,60.1440
154.1481,60.0731
154.2190,60.0257
154.3028,60.0090
Z" /> 
<path style="fill:#000000; fill-opacity:1.0000; stroke:none;fill-rule:evenodd;"
d="M 154.8152,61.5840
154.8990,61.6007
154.9699,61.6481
155.0173,61.7190
155.0340,61.8027
155.0340,62.2402
155.0173,62.3240
154.9699,62.3949
154.8990,62.4423
154.8152,62.4590
154.3028,62.4590
154.2190,62.4423
154.1481,62.3949
154.1007,62.3240
154.0840,62.2402
154.0840,61.8027
154.1007,61.7190
154.1481,61.6481
154.2190,61.6007
154.3028,61.5840
Z" /> 
<path style="fill:#000000; fill-opacity:1.0000; stroke:none;fill-rule:evenodd;"
d="M 19.6030,86.9928
19.6197,86.9090
19.6671,86.8381
19.7380,86.7907
19.8217,86.7740
20.2592,86.7740
20.3430,86.7907
20.4139,86.8381
20.4613,86.9090
20.4780,86.9928
20.4780,87.5052
20.4613,87.5890
20.4139,87.6599
20.3430,87.7073
20.2592,87.7240
19.8217,87.7240
19.7380,87.7073
19.6671,87.6599
19.6197,87.5890
19.6030,87.5052
Z" /> 
<path style="fill:#000000; fill-opacity:1.0000; stroke:none;fill-rule:evenodd;"
d="M 21.1780,86.9928
21.1947,86.9090
21.2421,86.8381
21.3130,86.7907
21.3967,86.7740
21.8342,86.7740
21.9180,86.7907
21.9889,86.8381
22.0363,86.9090
22.0530,86.9928
22.0530,87.5052
22.0363,87.5890
21.9889,87.6599
21.9180,87.7073
21.8342,87.7240
21.3967,87.7240
21.3130,87.7073
21.2421,87.6599
21.1947,87.5890
21.1780,87.5052
Z" /> 
<path style="fill:#000000; fill-opacity:1.0000; stroke:none;fill-rule:evenodd;"
d="M 116.7097,54.8020
116.7935,54.8187
116.8644,54.8661
116.9118,54.9370
116.9285,55.0207
116.9285,55.4582
116.9118,55.5420
116.8644,55.6129
116.7935,55.6603
116.7097,55.6770
116.1972,55.6770
116.1135,55.6603
116.0426,55.6129
115.9952,55.5420
115.9785,55.4582
115.9785,55.0207
115.9952,54.9370
116.0426,54.8661
116.1135,54.8187
116.1972,54.8020
Z" /> 
<path style="fill:#000000; fill-opacity:1.0000; stroke:none;fill-rule:evenodd;"
d="M 116.7097,56.3770
116.7935,56.3937
116.8644,56.4411
116.9118,56.5120
116.9285,56.5957
116.9285,57.0332
116.9118,57.1170
116.8644,57.1879
116.7935,57.2353
116.7097,57.2520
116.1972,57.2520
116.1135,57.2353
116.0426,57.1879
115.9952,57.1170
115.9785,57.0332
115.9785,56.5957
115.9952,56.5120
116.0426,56.4411
116.1135,56.3937
116.1972,56.3770
Z" /> 
<path style="fill:#000000; fill-opacity:1.0000; stroke:none;fill-rule:evenodd;"
d="M 29.9270,67.9410
29.9099,68.0271
29.8611,68.1001
29.7881,68.1489
29.7020,68.1660
29.2520,68.1660
29.1659,68.1489
29.0929,68.1001
29.0441,68.0271
29.0270,67.9410
29.0270,67.4410
29.0441,67.3549
29.0929,67.2819
29.1659,67.2331
29.2520,67.2160
29.7020,67.2160
29.7881,67.2331
29.8611,67.2819
29.9099,67.3549
29.9270,67.4410
Z" /> 
<path style="fill:#000000; fill-opacity:1.0000; stroke:none;fill-rule:evenodd;"
d="M 28.3770,67.9410
28.3599,68.0271
28.3111,68.1001
28.2381,68.1489
28.1520,68.1660
27.7020,68.1660
27.6159,68.1489
27.5429,68.1001
27.4941,68.0271
27.4770,67.9410
27.4770,67.4410
27.4941,67.3549
27.5429,67.2819
27.6159,67.2331
27.7020,67.2160
28.1520,67.2160
28.2381,67.2331
28.3111,67.2819
28.3599,67.3549
28.3770,67.4410
Z" /> 
<path style="fill:#000000; fill-opacity:1.0000; stroke:none;fill-rule:evenodd;"
d="M 38.3900,60.8890
39.1400,60.8890
39.1400,61.8890
38.3900,61.8890
Z" /> 
<path style="fill:#000000; fill-opacity:1.0000; stroke:none;fill-rule:evenodd;"
d="M 38.3900,66.8890
39.1400,66.8890
39.1400,67.8890
38.3900,67.8890
Z" /> 
<path style="fill:#000000; fill-opacity:1.0000; stroke:none;fill-rule:evenodd;"
d="M 42.1400,60.8890
42.8900,60.8890
42.8900,61.8890
42.1400,61.8890
Z" /> 
<path style="fill:#000000; fill-opacity:1.0000; stroke:none;fill-rule:evenodd;"
d="M 42.1400,66.8890
42.8900,66.8890
42.8900,67.8890
42.1400,67.8890
Z" /> 
<path style="fill:#000000; fill-opacity:1.0000; stroke:none;fill-rule:evenodd;"
d="M 34.5650,57.4368
34.6415,57.4520
34.7064,57.4954
34.7498,57.5603
34.7650,57.6368
34.7650,58.0368
34.7498,58.1133
34.7064,58.1782
34.6415,58.2216
34.5650,58.2368
34.0150,58.2368
33.9385,58.2216
33.8736,58.1782
33.8302,58.1133
33.8150,58.0368
33.8150,57.6368
33.8302,57.5603
33.8736,57.4954
33.9385,57.4520
34.0150,57.4368
Z" /> 
<path style="fill:#000000; fill-opacity:1.0000; stroke:none;fill-rule:evenodd;"
d="M 34.5650,59.0868
34.6415,59.1020
34.7064,59.1454
34.7498,59.2103
34.7650,59.2868
34.7650,59.6868
34.7498,59.7633
34.7064,59.8282
34.6415,59.8716
34.5650,59.8868
34.0150,59.8868
33.9385,59.8716
33.8736,59.8282
33.8302,59.7633
33.8150,59.6868
33.8150,59.2868
33.8302,59.2103
33.8736,59.1454
33.9385,59.1020
34.0150,59.0868
Z" /> 
<path style="fill:#000000; fill-opacity:1.0000; stroke:none;fill-rule:evenodd;"
d="M 19.6030,89.7867
19.6197,89.7030
19.6671,89.6321
19.7380,89.5847
19.8217,89.5680
20.2592,89.5680
20.3430,89.5847
20.4139,89.6321
20.4613,89.7030
20.4780,89.7867
20.4780,90.2993
20.4613,90.3830
20.4139,90.4539
20.3430,90.5013
20.2592,90.5180
19.8217,90.5180
19.7380,90.5013
19.6671,90.4539
19.6197,90.3830
19.6030,90.2993
Z" /> 
<path style="fill:#000000; fill-opacity:1.0000; stroke:none;fill-rule:evenodd;"
d="M 21.1780,89.7867
21.1947,89.7030
21.2421,89.6321
21.3130,89.5847
21.3967,89.5680
21.8342,89.5680
21.9180,89.5847
21.9889,89.6321
22.0363,89.7030
22.0530,89.7867
22.0530,90.2993
22.0363,90.3830
21.9889,90.4539
21.9180,90.5013
21.8342,90.5180
21.3967,90.5180
21.3130,90.5013
21.2421,90.4539
21.1947,90.3830
21.1780,90.2993
Z" /> 
<path style="fill:#000000; fill-opacity:1.0000; stroke:none;fill-rule:evenodd;"
d="M 43.0080,69.6170
42.9928,69.6935
42.9494,69.7584
42.8845,69.8018
42.8080,69.8170
42.4080,69.8170
42.3315,69.8018
42.2666,69.7584
42.2232,69.6935
42.2080,69.6170
42.2080,69.0670
42.2232,68.9905
42.2666,68.9256
42.3315,68.8822
42.4080,68.8670
42.8080,68.8670
42.8845,68.8822
42.9494,68.9256
42.9928,68.9905
43.0080,69.0670
Z" /> 
<path style="fill:#000000; fill-opacity:1.0000; stroke:none;fill-rule:evenodd;"
d="M 41.3580,69.6170
41.3428,69.6935
41.2994,69.7584
41.2345,69.8018
41.1580,69.8170
40.7580,69.8170
40.6815,69.8018
40.6166,69.7584
40.5732,69.6935
40.5580,69.6170
40.5580,69.0670
40.5732,68.9905
40.6166,68.9256
40.6815,68.8822
40.7580,68.8670
41.1580,68.8670
41.2345,68.8822
41.2994,68.9256
41.3428,68.9905
41.3580,69.0670
Z" /> 
<path style="fill:#000000; fill-opacity:1.0000; stroke:none;fill-rule:evenodd;"
d="M 28.5960,61.3220
28.6725,61.3372
28.7374,61.3806
28.7808,61.4455
28.7960,61.5220
28.7960,61.9220
28.7808,61.9985
28.7374,62.0634
28.6725,62.1068
28.5960,62.1220
28.0460,62.1220
27.9695,62.1068
27.9046,62.0634
27.8612,61.9985
27.8460,61.9220
27.8460,61.5220
27.8612,61.4455
27.9046,61.3806
27.9695,61.3372
28.0460,61.3220
Z" /> 
<path style="fill:#000000; fill-opacity:1.0000; stroke:none;fill-rule:evenodd;"
d="M 28.5960,62.9720
28.6725,62.9872
28.7374,63.0306
28.7808,63.0955
28.7960,63.1720
28.7960,63.5720
28.7808,63.6485
28.7374,63.7134
28.6725,63.7568
28.5960,63.7720
28.0460,63.7720
27.9695,63.7568
27.9046,63.7134
27.8612,63.6485
27.8460,63.5720
27.8460,63.1720
27.8612,63.0955
27.9046,63.0306
27.9695,62.9872
28.0460,62.9720
Z" /> 
<path style="fill:#000000; fill-opacity:1.0000; stroke:none;fill-rule:evenodd;"
d="M 59.5652,35.8335
59.6490,35.8502
59.7199,35.8976
59.7673,35.9685
59.7840,36.0523
59.7840,36.4898
59.7673,36.5735
59.7199,36.6444
59.6490,36.6918
59.5652,36.7085
59.0527,36.7085
58.9690,36.6918
58.8981,36.6444
58.8507,36.5735
58.8340,36.4898
58.8340,36.0523
58.8507,35.9685
58.8981,35.8976
58.9690,35.8502
59.0527,35.8335
Z" /> 
<path style="fill:#000000; fill-opacity:1.0000; stroke:none;fill-rule:evenodd;"
d="M 59.5652,37.4085
59.6490,37.4252
59.7199,37.4726
59.7673,37.5435
59.7840,37.6272
59.7840,38.0647
59.7673,38.1485
59.7199,38.2194
59.6490,38.2668
59.5652,38.2835
59.0527,38.2835
58.9690,38.2668
58.8981,38.2194
58.8507,38.1485
58.8340,38.0647
58.8340,37.6272
58.8507,37.5435
58.8981,37.4726
58.9690,37.4252
59.0527,37.4085
Z" /> 
<path style="fill:#000000; fill-opacity:1.0000; stroke:none;fill-rule:evenodd;"
d="M 78.6153,33.2935
78.6990,33.3102
78.7699,33.3576
78.8173,33.4285
78.8340,33.5123
78.8340,33.9498
78.8173,34.0335
78.7699,34.1044
78.6990,34.1518
78.6153,34.1685
78.1028,34.1685
78.0190,34.1518
77.9481,34.1044
77.9007,34.0335
77.8840,33.9498
77.8840,33.5123
77.9007,33.4285
77.9481,33.3576
78.0190,33.3102
78.1028,33.2935
Z" /> 
<path style="fill:#000000; fill-opacity:1.0000; stroke:none;fill-rule:evenodd;"
d="M 78.6153,34.8685
78.6990,34.8852
78.7699,34.9326
78.8173,35.0035
78.8340,35.0872
78.8340,35.5247
78.8173,35.6085
78.7699,35.6794
78.6990,35.7268
78.6153,35.7435
78.1028,35.7435
78.0190,35.7268
77.9481,35.6794
77.9007,35.6085
77.8840,35.5247
77.8840,35.0872
77.9007,35.0035
77.9481,34.9326
78.0190,34.8852
78.1028,34.8685
Z" /> 
<path style="fill:#000000; fill-opacity:1.0000; stroke:none;fill-rule:evenodd;"
d="M 78.6097,71.4390
78.6935,71.4557
78.7644,71.5031
78.8118,71.5740
78.8285,71.6577
78.8285,72.0952
78.8118,72.1790
78.7644,72.2499
78.6935,72.2973
78.6097,72.3140
78.0973,72.3140
78.0135,72.2973
77.9426,72.2499
77.8952,72.1790
77.8785,72.0952
77.8785,71.6577
77.8952,71.5740
77.9426,71.5031
78.0135,71.4557
78.0973,71.4390
Z" /> 
<path style="fill:#000000; fill-opacity:1.0000; stroke:none;fill-rule:evenodd;"
d="M 78.6097,73.0140
78.6935,73.0307
78.7644,73.0781
78.8118,73.1490
78.8285,73.2327
78.8285,73.6702
78.8118,73.7540
78.7644,73.8249
78.6935,73.8723
78.6097,73.8890
78.0973,73.8890
78.0135,73.8723
77.9426,73.8249
77.8952,73.7540
77.8785,73.6702
77.8785,73.2327
77.8952,73.1490
77.9426,73.0781
78.0135,73.0307
78.0973,73.0140
Z" /> 
<path style="fill:#000000; fill-opacity:1.0000; stroke:none;fill-rule:evenodd;"
d="M 40.4860,78.9214
40.4372,78.8484
40.4201,78.7623
40.4372,78.6762
40.4860,78.6032
40.8042,78.2850
40.8772,78.2363
40.9633,78.2191
41.0494,78.2363
41.1224,78.2850
41.4760,78.6386
41.5247,78.7116
41.5419,78.7977
41.5247,78.8838
41.4760,78.9568
41.1578,79.2750
41.0848,79.3238
40.9987,79.3409
40.9126,79.3238
40.8396,79.2750
Z" /> 
<path style="fill:#000000; fill-opacity:1.0000; stroke:none;fill-rule:evenodd;"
d="M 41.5820,77.8254
41.5333,77.7524
41.5161,77.6663
41.5333,77.5802
41.5820,77.5072
41.9002,77.1890
41.9732,77.1402
42.0593,77.1231
42.1454,77.1402
42.2184,77.1890
42.5720,77.5426
42.6208,77.6156
42.6379,77.7017
42.6208,77.7878
42.5720,77.8608
42.2538,78.1790
42.1808,78.2277
42.0947,78.2449
42.0086,78.2277
41.9356,78.1790
Z" /> 
<path style="fill:#000000; fill-opacity:1.0000; stroke:none;fill-rule:evenodd;"
d="M 67.1852,99.3845
67.2690,99.4012
67.3399,99.4486
67.3873,99.5195
67.4040,99.6032
67.4040,100.0407
67.3873,100.1245
67.3399,100.1954
67.2690,100.2428
67.1852,100.2595
66.6727,100.2595
66.5890,100.2428
66.5181,100.1954
66.4707,100.1245
66.4540,100.0407
66.4540,99.6032
66.4707,99.5195
66.5181,99.4486
66.5890,99.4012
66.6727,99.3845
Z" /> 
<path style="fill:#000000; fill-opacity:1.0000; stroke:none;fill-rule:evenodd;"
d="M 67.1852,100.9595
67.2690,100.9762
67.3399,101.0236
67.3873,101.0945
67.4040,101.1782
67.4040,101.6157
67.3873,101.6995
67.3399,101.7704
67.2690,101.8178
67.1852,101.8345
66.6727,101.8345
66.5890,101.8178
66.5181,101.7704
66.4707,101.6995
66.4540,101.6157
66.4540,101.1782
66.4707,101.0945
66.5181,101.0236
66.5890,100.9762
66.6727,100.9595
Z" /> 
<path style="fill:#000000; fill-opacity:1.0000; stroke:none;fill-rule:evenodd;"
d="M 116.7097,73.9790
116.7935,73.9957
116.8644,74.0431
116.9118,74.1140
116.9285,74.1977
116.9285,74.6352
116.9118,74.7190
116.8644,74.7899
116.7935,74.8373
116.7097,74.8540
116.1972,74.8540
116.1135,74.8373
116.0426,74.7899
115.9952,74.7190
115.9785,74.6352
115.9785,74.1977
115.9952,74.1140
116.0426,74.0431
116.1135,73.9957
116.1972,73.9790
Z" /> 
<path style="fill:#000000; fill-opacity:1.0000; stroke:none;fill-rule:evenodd;"
d="M 116.7097,75.5540
116.7935,75.5707
116.8644,75.6181
116.9118,75.6890
116.9285,75.7728
116.9285,76.2103
116.9118,76.2940
116.8644,76.3649
116.7935,76.4123
116.7097,76.4290
116.1972,76.4290
116.1135,76.4123
116.0426,76.3649
115.9952,76.2940
115.9785,76.2103
115.9785,75.7728
115.9952,75.6890
116.0426,75.6181
116.1135,75.5707
116.1972,75.5540
Z" /> 
<path style="fill:#000000; fill-opacity:1.0000; stroke:none;fill-rule:evenodd;"
d="M 78.6153,52.3435
78.6990,52.3602
78.7699,52.4076
78.8173,52.4785
78.8340,52.5622
78.8340,52.9997
78.8173,53.0835
78.7699,53.1544
78.6990,53.2018
78.6153,53.2185
78.1028,53.2185
78.0190,53.2018
77.9481,53.1544
77.9007,53.0835
77.8840,52.9997
77.8840,52.5622
77.9007,52.4785
77.9481,52.4076
78.0190,52.3602
78.1028,52.3435
Z" /> 
<path style="fill:#000000; fill-opacity:1.0000; stroke:none;fill-rule:evenodd;"
d="M 78.6153,53.9185
78.6990,53.9352
78.7699,53.9826
78.8173,54.0535
78.8340,54.1372
78.8340,54.5747
78.8173,54.6585
78.7699,54.7294
78.6990,54.7768
78.6153,54.7935
78.1028,54.7935
78.0190,54.7768
77.9481,54.7294
77.9007,54.6585
77.8840,54.5747
77.8840,54.1372
77.9007,54.0535
77.9481,53.9826
78.0190,53.9352
78.1028,53.9185
Z" /> 
<path style="fill:#000000; fill-opacity:1.0000; stroke:none;fill-rule:evenodd;"
d="M 116.7152,35.8590
116.7990,35.8757
116.8699,35.9231
116.9173,35.9940
116.9340,36.0778
116.9340,36.5153
116.9173,36.5990
116.8699,36.6699
116.7990,36.7173
116.7152,36.7340
116.2027,36.7340
116.1190,36.7173
116.0481,36.6699
116.0007,36.5990
115.9840,36.5153
115.9840,36.0778
116.0007,35.9940
116.0481,35.9231
116.1190,35.8757
116.2027,35.8590
Z" /> 
<path style="fill:#000000; fill-opacity:1.0000; stroke:none;fill-rule:evenodd;"
d="M 116.7152,37.4340
116.7990,37.4507
116.8699,37.4981
116.9173,37.5690
116.9340,37.6527
116.9340,38.0902
116.9173,38.1740
116.8699,38.2449
116.7990,38.2923
116.7152,38.3090
116.2027,38.3090
116.1190,38.2923
116.0481,38.2449
116.0007,38.1740
115.9840,38.0902
115.9840,37.6527
116.0007,37.5690
116.0481,37.4981
116.1190,37.4507
116.2027,37.4340
Z" /> 
<path style="fill:#000000; fill-opacity:1.0000; stroke:none;fill-rule:evenodd;"
d="M 135.7652,59.8875
135.8490,59.9042
135.9199,59.9516
135.9673,60.0225
135.9840,60.1062
135.9840,60.5437
135.9673,60.6275
135.9199,60.6984
135.8490,60.7458
135.7652,60.7625
135.2527,60.7625
135.1690,60.7458
135.0981,60.6984
135.0507,60.6275
135.0340,60.5437
135.0340,60.1062
135.0507,60.0225
135.0981,59.9516
135.1690,59.9042
135.2527,59.8875
Z" /> 
<path style="fill:#000000; fill-opacity:1.0000; stroke:none;fill-rule:evenodd;"
d="M 135.7652,61.4625
135.8490,61.4792
135.9199,61.5266
135.9673,61.5975
135.9840,61.6812
135.9840,62.1187
135.9673,62.2025
135.9199,62.2734
135.8490,62.3208
135.7652,62.3375
135.2527,62.3375
135.1690,62.3208
135.0981,62.2734
135.0507,62.2025
135.0340,62.1187
135.0340,61.6812
135.0507,61.5975
135.0981,61.5266
135.1690,61.4792
135.2527,61.4625
Z" /> 
<path style="fill:#000000; fill-opacity:1.0000; stroke:none;fill-rule:evenodd;"
d="M 25.3165,87.5240
25.3013,87.6005
25.2579,87.6654
25.1930,87.7088
25.1165,87.7240
24.7165,87.7240
24.6400,87.7088
24.5751,87.6654
24.5317,87.6005
24.5165,87.5240
24.5165,86.9740
24.5317,86.8975
24.5751,86.8326
24.6400,86.7892
24.7165,86.7740
25.1165,86.7740
25.1930,86.7892
25.2579,86.8326
25.3013,86.8975
25.3165,86.9740
Z" /> 
<path style="fill:#000000; fill-opacity:1.0000; stroke:none;fill-rule:evenodd;"
d="M 23.6665,87.5240
23.6513,87.6005
23.6079,87.6654
23.5430,87.7088
23.4665,87.7240
23.0665,87.7240
22.9900,87.7088
22.9251,87.6654
22.8817,87.6005
22.8665,87.5240
22.8665,86.9740
22.8817,86.8975
22.9251,86.8326
22.9900,86.7892
23.0665,86.7740
23.4665,86.7740
23.5430,86.7892
23.6079,86.8326
23.6513,86.8975
23.6665,86.9740
Z" /> 
<path style="fill:#000000; fill-opacity:1.0000; stroke:none;fill-rule:evenodd;"
d="M 135.7597,79.0590
135.8435,79.0757
135.9144,79.1231
135.9618,79.1940
135.9785,79.2777
135.9785,79.7152
135.9618,79.7990
135.9144,79.8699
135.8435,79.9173
135.7597,79.9340
135.2472,79.9340
135.1635,79.9173
135.0926,79.8699
135.0452,79.7990
135.0285,79.7152
135.0285,79.2777
135.0452,79.1940
135.0926,79.1231
135.1635,79.0757
135.2472,79.0590
Z" /> 
<path style="fill:#000000; fill-opacity:1.0000; stroke:none;fill-rule:evenodd;"
d="M 135.7597,80.6340
135.8435,80.6507
135.9144,80.6981
135.9618,80.7690
135.9785,80.8528
135.9785,81.2903
135.9618,81.3740
135.9144,81.4449
135.8435,81.4923
135.7597,81.5090
135.2472,81.5090
135.1635,81.4923
135.0926,81.4449
135.0452,81.3740
135.0285,81.2903
135.0285,80.8528
135.0452,80.7690
135.0926,80.6981
135.1635,80.6507
135.2472,80.6340
Z" /> 
<path style="fill:#000000; fill-opacity:1.0000; stroke:none;fill-rule:evenodd;"
d="M 36.9530,71.1650
37.0391,71.1821
37.1121,71.2309
37.1609,71.3039
37.1780,71.3900
37.1780,71.8400
37.1609,71.9261
37.1121,71.9991
37.0391,72.0479
36.9530,72.0650
36.4530,72.0650
36.3669,72.0479
36.2939,71.9991
36.2451,71.9261
36.2280,71.8400
36.2280,71.3900
36.2451,71.3039
36.2939,71.2309
36.3669,71.1821
36.4530,71.1650
Z" /> 
<path style="fill:#000000; fill-opacity:1.0000; stroke:none;fill-rule:evenodd;"
d="M 36.9530,72.7150
37.0391,72.7321
37.1121,72.7809
37.1609,72.8539
37.1780,72.9400
37.1780,73.3900
37.1609,73.4761
37.1121,73.5491
37.0391,73.5979
36.9530,73.6150
36.4530,73.6150
36.3669,73.5979
36.2939,73.5491
36.2451,73.4761
36.2280,73.3900
36.2280,72.9400
36.2451,72.8539
36.2939,72.7809
36.3669,72.7321
36.4530,72.7150
Z" /> 
<path style="fill:#000000; fill-opacity:1.0000; stroke:none;fill-rule:evenodd;"
d="M 31.5410,83.0620
31.5581,82.9759
31.6069,82.9029
31.6799,82.8541
31.7660,82.8370
32.2160,82.8370
32.3021,82.8541
32.3751,82.9029
32.4239,82.9759
32.4410,83.0620
32.4410,83.5620
32.4239,83.6481
32.3751,83.7211
32.3021,83.7699
32.2160,83.7870
31.7660,83.7870
31.6799,83.7699
31.6069,83.7211
31.5581,83.6481
31.5410,83.5620
Z" /> 
<path style="fill:#000000; fill-opacity:1.0000; stroke:none;fill-rule:evenodd;"
d="M 33.0910,83.0620
33.1081,82.9759
33.1569,82.9029
33.2299,82.8541
33.3160,82.8370
33.7660,82.8370
33.8521,82.8541
33.9251,82.9029
33.9739,82.9759
33.9910,83.0620
33.9910,83.5620
33.9739,83.6481
33.9251,83.7211
33.8521,83.7699
33.7660,83.7870
33.3160,83.7870
33.2299,83.7699
33.1569,83.7211
33.1081,83.6481
33.0910,83.5620
Z" /> 
<path style="fill:#000000; fill-opacity:1.0000; stroke:none;fill-rule:evenodd;"
d="M 59.5652,54.8835
59.6490,54.9002
59.7199,54.9476
59.7673,55.0185
59.7840,55.1022
59.7840,55.5397
59.7673,55.6235
59.7199,55.6944
59.6490,55.7418
59.5652,55.7585
59.0527,55.7585
58.9690,55.7418
58.8981,55.6944
58.8507,55.6235
58.8340,55.5397
58.8340,55.1022
58.8507,55.0185
58.8981,54.9476
58.9690,54.9002
59.0527,54.8835
Z" /> 
<path style="fill:#000000; fill-opacity:1.0000; stroke:none;fill-rule:evenodd;"
d="M 59.5652,56.4585
59.6490,56.4752
59.7199,56.5226
59.7673,56.5935
59.7840,56.6773
59.7840,57.1148
59.7673,57.1985
59.7199,57.2694
59.6490,57.3168
59.5652,57.3335
59.0527,57.3335
58.9690,57.3168
58.8981,57.2694
58.8507,57.1985
58.8340,57.1148
58.8340,56.6773
58.8507,56.5935
58.8981,56.5226
58.9690,56.4752
59.0527,56.4585
Z" /> 
<path style="fill:#000000; fill-opacity:1.0000; stroke:none;fill-rule:evenodd;"
d="M 154.8097,79.0590
154.8935,79.0757
154.9644,79.1231
155.0118,79.1940
155.0285,79.2777
155.0285,79.7152
155.0118,79.7990
154.9644,79.8699
154.8935,79.9173
154.8097,79.9340
154.2972,79.9340
154.2135,79.9173
154.1426,79.8699
154.0952,79.7990
154.0785,79.7152
154.0785,79.2777
154.0952,79.1940
154.1426,79.1231
154.2135,79.0757
154.2972,79.0590
Z" /> 
<path style="fill:#000000; fill-opacity:1.0000; stroke:none;fill-rule:evenodd;"
d="M 154.8097,80.6340
154.8935,80.6507
154.9644,80.6981
155.0118,80.7690
155.0285,80.8528
155.0285,81.2903
155.0118,81.3740
154.9644,81.4449
154.8935,81.4923
154.8097,81.5090
154.2972,81.5090
154.2135,81.4923
154.1426,81.4449
154.0952,81.3740
154.0785,81.2903
154.0785,80.8528
154.0952,80.7690
154.1426,80.6981
154.2135,80.6507
154.2972,80.6340
Z" /> 
<path style="fill:#000000; fill-opacity:1.0000; stroke:none;fill-rule:evenodd;"
d="M 59.5597,73.9790
59.6435,73.9957
59.7144,74.0431
59.7618,74.1140
59.7785,74.1977
59.7785,74.6352
59.7618,74.7190
59.7144,74.7899
59.6435,74.8373
59.5597,74.8540
59.0472,74.8540
58.9635,74.8373
58.8926,74.7899
58.8452,74.7190
58.8285,74.6352
58.8285,74.1977
58.8452,74.1140
58.8926,74.0431
58.9635,73.9957
59.0472,73.9790
Z" /> 
<path style="fill:#000000; fill-opacity:1.0000; stroke:none;fill-rule:evenodd;"
d="M 59.5597,75.5540
59.6435,75.5707
59.7144,75.6181
59.7618,75.6890
59.7785,75.7728
59.7785,76.2103
59.7618,76.2940
59.7144,76.3649
59.6435,76.4123
59.5597,76.4290
59.0472,76.4290
58.9635,76.4123
58.8926,76.3649
58.8452,76.2940
58.8285,76.2103
58.8285,75.7728
58.8452,75.6890
58.8926,75.6181
58.9635,75.5707
59.0472,75.5540
Z" /> 
<path style="fill:#000000; fill-opacity:1.0000; stroke:none;fill-rule:evenodd;"
d="M 20.5780,80.9810
20.4919,80.9639
20.4189,80.9151
20.3701,80.8421
20.3530,80.7560
20.3530,80.3060
20.3701,80.2199
20.4189,80.1469
20.4919,80.0981
20.5780,80.0810
21.0780,80.0810
21.1641,80.0981
21.2371,80.1469
21.2859,80.2199
21.3030,80.3060
21.3030,80.7560
21.2859,80.8421
21.2371,80.9151
21.1641,80.9639
21.0780,80.9810
Z" /> 
<path style="fill:#000000; fill-opacity:1.0000; stroke:none;fill-rule:evenodd;"
d="M 20.5780,79.4310
20.4919,79.4139
20.4189,79.3651
20.3701,79.2921
20.3530,79.2060
20.3530,78.7560
20.3701,78.6699
20.4189,78.5969
20.4919,78.5481
20.5780,78.5310
21.0780,78.5310
21.1641,78.5481
21.2371,78.5969
21.2859,78.6699
21.3030,78.7560
21.3030,79.2060
21.2859,79.2921
21.2371,79.3651
21.1641,79.4139
21.0780,79.4310
Z" /> 
<path style="fill:#000000; fill-opacity:1.0000; stroke:none;fill-rule:evenodd;"
d="M 32.3400,61.9720
32.3229,62.0581
32.2741,62.1311
32.2011,62.1799
32.1150,62.1970
31.6650,62.1970
31.5789,62.1799
31.5059,62.1311
31.4571,62.0581
31.4400,61.9720
31.4400,61.4720
31.4571,61.3859
31.5059,61.3129
31.5789,61.2641
31.6650,61.2470
32.1150,61.2470
32.2011,61.2641
32.2741,61.3129
32.3229,61.3859
32.3400,61.4720
Z" /> 
<path style="fill:#000000; fill-opacity:1.0000; stroke:none;fill-rule:evenodd;"
d="M 30.7900,61.9720
30.7729,62.0581
30.7241,62.1311
30.6511,62.1799
30.5650,62.1970
30.1150,62.1970
30.0289,62.1799
29.9559,62.1311
29.9071,62.0581
29.8900,61.9720
29.8900,61.4720
29.9071,61.3859
29.9559,61.3129
30.0289,61.2641
30.1150,61.2470
30.5650,61.2470
30.6511,61.2641
30.7241,61.3129
30.7729,61.3859
30.7900,61.4720
Z" /> 
<path style="fill:#000000; fill-opacity:1.0000; stroke:none;fill-rule:evenodd;"
d="M 26.9450,61.3220
27.0215,61.3372
27.0864,61.3806
27.1298,61.4455
27.1450,61.5220
27.1450,61.9220
27.1298,61.9985
27.0864,62.0634
27.0215,62.1068
26.9450,62.1220
26.3950,62.1220
26.3185,62.1068
26.2536,62.0634
26.2102,61.9985
26.1950,61.9220
26.1950,61.5220
26.2102,61.4455
26.2536,61.3806
26.3185,61.3372
26.3950,61.3220
Z" /> 
<path style="fill:#000000; fill-opacity:1.0000; stroke:none;fill-rule:evenodd;"
d="M 26.9450,62.9720
27.0215,62.9872
27.0864,63.0306
27.1298,63.0955
27.1450,63.1720
27.1450,63.5720
27.1298,63.6485
27.0864,63.7134
27.0215,63.7568
26.9450,63.7720
26.3950,63.7720
26.3185,63.7568
26.2536,63.7134
26.2102,63.6485
26.1950,63.5720
26.1950,63.1720
26.2102,63.0955
26.2536,63.0306
26.3185,62.9872
26.3950,62.9720
Z" /> 
<path style="fill:#000000; fill-opacity:1.0000; stroke:none;fill-rule:evenodd;"
d="M 97.6598,68.8990
97.7435,68.9157
97.8144,68.9631
97.8618,69.0340
97.8785,69.1178
97.8785,69.5553
97.8618,69.6390
97.8144,69.7099
97.7435,69.7573
97.6598,69.7740
97.1472,69.7740
97.0635,69.7573
96.9926,69.7099
96.9452,69.6390
96.9285,69.5553
96.9285,69.1178
96.9452,69.0340
96.9926,68.9631
97.0635,68.9157
97.1472,68.8990
Z" /> 
<path style="fill:#000000; fill-opacity:1.0000; stroke:none;fill-rule:evenodd;"
d="M 97.6598,70.4740
97.7435,70.4907
97.8144,70.5381
97.8618,70.6090
97.8785,70.6928
97.8785,71.1303
97.8618,71.2140
97.8144,71.2849
97.7435,71.3323
97.6598,71.3490
97.1472,71.3490
97.0635,71.3323
96.9926,71.2849
96.9452,71.2140
96.9285,71.1303
96.9285,70.6928
96.9452,70.6090
96.9926,70.5381
97.0635,70.4907
97.1472,70.4740
Z" /> 
<path style="fill:#000000; fill-opacity:1.0000; stroke:none;fill-rule:evenodd;"
d="M 40.4586,72.8710
40.5316,72.8222
40.6177,72.8051
40.7038,72.8222
40.7768,72.8710
41.0950,73.1892
41.1437,73.2622
41.1609,73.3483
41.1437,73.4344
41.0950,73.5074
40.7414,73.8610
40.6684,73.9097
40.5823,73.9269
40.4962,73.9097
40.4232,73.8610
40.1050,73.5428
40.0562,73.4698
40.0391,73.3837
40.0562,73.2976
40.1050,73.2246
Z" /> 
<path style="fill:#000000; fill-opacity:1.0000; stroke:none;fill-rule:evenodd;"
d="M 41.5546,73.9670
41.6276,73.9183
41.7137,73.9011
41.7998,73.9183
41.8728,73.9670
42.1910,74.2852
42.2398,74.3582
42.2569,74.4443
42.2398,74.5304
42.1910,74.6034
41.8374,74.9570
41.7644,75.0058
41.6783,75.0229
41.5922,75.0058
41.5192,74.9570
41.2010,74.6388
41.1523,74.5658
41.1351,74.4797
41.1523,74.3936
41.2010,74.3206
Z" /> 
<path style="fill:#000000; fill-opacity:1.0000; stroke:none;fill-rule:evenodd;"
d="M 24.9110,83.5870
24.8958,83.6635
24.8524,83.7284
24.7875,83.7718
24.7110,83.7870
24.3110,83.7870
24.2345,83.7718
24.1696,83.7284
24.1262,83.6635
24.1110,83.5870
24.1110,83.0370
24.1262,82.9605
24.1696,82.8956
24.2345,82.8522
24.3110,82.8370
24.7110,82.8370
24.7875,82.8522
24.8524,82.8956
24.8958,82.9605
24.9110,83.0370
Z" /> 
<path style="fill:#000000; fill-opacity:1.0000; stroke:none;fill-rule:evenodd;"
d="M 23.2610,83.5870
23.2458,83.6635
23.2024,83.7284
23.1375,83.7718
23.0610,83.7870
22.6610,83.7870
22.5845,83.7718
22.5196,83.7284
22.4762,83.6635
22.4610,83.5870
22.4610,83.0370
22.4762,82.9605
22.5196,82.8956
22.5845,82.8522
22.6610,82.8370
23.0610,82.8370
23.1375,82.8522
23.2024,82.8956
23.2458,82.9605
23.2610,83.0370
Z" /> 
<path style="fill:#000000; fill-opacity:1.0000; stroke:none;fill-rule:evenodd;"
d="M 97.6598,49.8490
97.7435,49.8657
97.8144,49.9131
97.8618,49.9840
97.8785,50.0677
97.8785,50.5052
97.8618,50.5890
97.8144,50.6599
97.7435,50.7073
97.6598,50.7240
97.1472,50.7240
97.0635,50.7073
96.9926,50.6599
96.9452,50.5890
96.9285,50.5052
96.9285,50.0677
96.9452,49.9840
96.9926,49.9131
97.0635,49.8657
97.1472,49.8490
Z" /> 
<path style="fill:#000000; fill-opacity:1.0000; stroke:none;fill-rule:evenodd;"
d="M 97.6598,51.4240
97.7435,51.4407
97.8144,51.4881
97.8618,51.5590
97.8785,51.6427
97.8785,52.0802
97.8618,52.1640
97.8144,52.2349
97.7435,52.2823
97.6598,52.2990
97.1472,52.2990
97.0635,52.2823
96.9926,52.2349
96.9452,52.1640
96.9285,52.0802
96.9285,51.6427
96.9452,51.5590
96.9926,51.4881
97.0635,51.4407
97.1472,51.4240
Z" /> 
<path style="fill:#000000; fill-opacity:1.0000; stroke:none;fill-rule:evenodd;"
d="M 24.4400,59.0080
24.4514,58.9506
24.4839,58.9019
24.5326,58.8694
24.5900,58.8580
24.8900,58.8580
24.9474,58.8694
24.9961,58.9019
25.0286,58.9506
25.0400,59.0080
25.0400,59.8580
25.0286,59.9154
24.9961,59.9641
24.9474,59.9966
24.8900,60.0080
24.5900,60.0080
24.5326,59.9966
24.4839,59.9641
24.4514,59.9154
24.4400,59.8580
Z" /> 
<path style="fill:#000000; fill-opacity:1.0000; stroke:none;fill-rule:evenodd;"
d="M 25.2400,59.0080
25.2514,58.9506
25.2839,58.9019
25.3326,58.8694
25.3900,58.8580
25.6900,58.8580
25.7474,58.8694
25.7961,58.9019
25.8286,58.9506
25.8400,59.0080
25.8400,59.8580
25.8286,59.9154
25.7961,59.9641
25.7474,59.9966
25.6900,60.0080
25.3900,60.0080
25.3326,59.9966
25.2839,59.9641
25.2514,59.9154
25.2400,59.8580
Z" /> 
<path style="fill:#000000; fill-opacity:1.0000; stroke:none;fill-rule:evenodd;"
d="M 26.5400,58.9330
26.5457,58.9043
26.5620,58.8800
26.5863,58.8637
26.6150,58.8580
26.7650,58.8580
26.7937,58.8637
26.8180,58.8800
26.8343,58.9043
26.8400,58.9330
26.8400,59.9330
26.8343,59.9617
26.8180,59.9860
26.7937,60.0023
26.7650,60.0080
26.6150,60.0080
26.5863,60.0023
26.5620,59.9860
26.5457,59.9617
26.5400,59.9330
Z" /> 
<path style="fill:#000000; fill-opacity:1.0000; stroke:none;fill-rule:evenodd;"
d="M 27.5400,58.9330
27.5457,58.9043
27.5620,58.8800
27.5863,58.8637
27.6150,58.8580
27.7650,58.8580
27.7937,58.8637
27.8180,58.8800
27.8343,58.9043
27.8400,58.9330
27.8400,59.9330
27.8343,59.9617
27.8180,59.9860
27.7937,60.0023
27.7650,60.0080
27.6150,60.0080
27.5863,60.0023
27.5620,59.9860
27.5457,59.9617
27.5400,59.9330
Z" /> 
<path style="fill:#000000; fill-opacity:1.0000; stroke:none;fill-rule:evenodd;"
d="M 28.0400,58.9330
28.0457,58.9043
28.0620,58.8800
28.0863,58.8637
28.1150,58.8580
28.2650,58.8580
28.2937,58.8637
28.3180,58.8800
28.3343,58.9043
28.3400,58.9330
28.3400,59.9330
28.3343,59.9617
28.3180,59.9860
28.2937,60.0023
28.2650,60.0080
28.1150,60.0080
28.0863,60.0023
28.0620,59.9860
28.0457,59.9617
28.0400,59.9330
Z" /> 
<path style="fill:#000000; fill-opacity:1.0000; stroke:none;fill-rule:evenodd;"
d="M 29.0400,58.9330
29.0457,58.9043
29.0620,58.8800
29.0863,58.8637
29.1150,58.8580
29.2650,58.8580
29.2937,58.8637
29.3180,58.8800
29.3343,58.9043
29.3400,58.9330
29.3400,59.9330
29.3343,59.9617
29.3180,59.9860
29.2937,60.0023
29.2650,60.0080
29.1150,60.0080
29.0863,60.0023
29.0620,59.9860
29.0457,59.9617
29.0400,59.9330
Z" /> 
<path style="fill:#000000; fill-opacity:1.0000; stroke:none;fill-rule:evenodd;"
d="M 30.0400,59.0080
30.0514,58.9506
30.0839,58.9019
30.1326,58.8694
30.1900,58.8580
30.4900,58.8580
30.5474,58.8694
30.5961,58.9019
30.6286,58.9506
30.6400,59.0080
30.6400,59.8580
30.6286,59.9154
30.5961,59.9641
30.5474,59.9966
30.4900,60.0080
30.1900,60.0080
30.1326,59.9966
30.0839,59.9641
30.0514,59.9154
30.0400,59.8580
Z" /> 
<path style="fill:#000000; fill-opacity:1.0000; stroke:none;fill-rule:evenodd;"
d="M 30.8400,59.0080
30.8514,58.9506
30.8839,58.9019
30.9326,58.8694
30.9900,58.8580
31.2900,58.8580
31.3474,58.8694
31.3961,58.9019
31.4286,58.9506
31.4400,59.0080
31.4400,59.8580
31.4286,59.9154
31.3961,59.9641
31.3474,59.9966
31.2900,60.0080
30.9900,60.0080
30.9326,59.9966
30.8839,59.9641
30.8514,59.9154
30.8400,59.8580
Z" /> 
<path style="fill:#000000; fill-opacity:1.0000; stroke:none;fill-rule:evenodd;"
d="M 30.8400,59.0080
30.8514,58.9506
30.8839,58.9019
30.9326,58.8694
30.9900,58.8580
31.2900,58.8580
31.3474,58.8694
31.3961,58.9019
31.4286,58.9506
31.4400,59.0080
31.4400,59.8580
31.4286,59.9154
31.3961,59.9641
31.3474,59.9966
31.2900,60.0080
30.9900,60.0080
30.9326,59.9966
30.8839,59.9641
30.8514,59.9154
30.8400,59.8580
Z" /> 
<path style="fill:#000000; fill-opacity:1.0000; stroke:none;fill-rule:evenodd;"
d="M 30.0400,59.0080
30.0514,58.9506
30.0839,58.9019
30.1326,58.8694
30.1900,58.8580
30.4900,58.8580
30.5474,58.8694
30.5961,58.9019
30.6286,58.9506
30.6400,59.0080
30.6400,59.8580
30.6286,59.9154
30.5961,59.9641
30.5474,59.9966
30.4900,60.0080
30.1900,60.0080
30.1326,59.9966
30.0839,59.9641
30.0514,59.9154
30.0400,59.8580
Z" /> 
<path style="fill:#000000; fill-opacity:1.0000; stroke:none;fill-rule:evenodd;"
d="M 29.5400,58.9330
29.5457,58.9043
29.5620,58.8800
29.5863,58.8637
29.6150,58.8580
29.7650,58.8580
29.7937,58.8637
29.8180,58.8800
29.8343,58.9043
29.8400,58.9330
29.8400,59.9330
29.8343,59.9617
29.8180,59.9860
29.7937,60.0023
29.7650,60.0080
29.6150,60.0080
29.5863,60.0023
29.5620,59.9860
29.5457,59.9617
29.5400,59.9330
Z" /> 
<path style="fill:#000000; fill-opacity:1.0000; stroke:none;fill-rule:evenodd;"
d="M 28.5400,58.9330
28.5457,58.9043
28.5620,58.8800
28.5863,58.8637
28.6150,58.8580
28.7650,58.8580
28.7937,58.8637
28.8180,58.8800
28.8343,58.9043
28.8400,58.9330
28.8400,59.9330
28.8343,59.9617
28.8180,59.9860
28.7937,60.0023
28.7650,60.0080
28.6150,60.0080
28.5863,60.0023
28.5620,59.9860
28.5457,59.9617
28.5400,59.9330
Z" /> 
<path style="fill:#000000; fill-opacity:1.0000; stroke:none;fill-rule:evenodd;"
d="M 27.0400,58.9330
27.0457,58.9043
27.0620,58.8800
27.0863,58.8637
27.1150,58.8580
27.2650,58.8580
27.2937,58.8637
27.3180,58.8800
27.3343,58.9043
27.3400,58.9330
27.3400,59.9330
27.3343,59.9617
27.3180,59.9860
27.2937,60.0023
27.2650,60.0080
27.1150,60.0080
27.0863,60.0023
27.0620,59.9860
27.0457,59.9617
27.0400,59.9330
Z" /> 
<path style="fill:#000000; fill-opacity:1.0000; stroke:none;fill-rule:evenodd;"
d="M 26.0400,58.9330
26.0457,58.9043
26.0620,58.8800
26.0863,58.8637
26.1150,58.8580
26.2650,58.8580
26.2937,58.8637
26.3180,58.8800
26.3343,58.9043
26.3400,58.9330
26.3400,59.9330
26.3343,59.9617
26.3180,59.9860
26.2937,60.0023
26.2650,60.0080
26.1150,60.0080
26.0863,60.0023
26.0620,59.9860
26.0457,59.9617
26.0400,59.9330
Z" /> 
<path style="fill:#000000; fill-opacity:1.0000; stroke:none;fill-rule:evenodd;"
d="M 25.2400,59.0080
25.2514,58.9506
25.2839,58.9019
25.3326,58.8694
25.3900,58.8580
25.6900,58.8580
25.7474,58.8694
25.7961,58.9019
25.8286,58.9506
25.8400,59.0080
25.8400,59.8580
25.8286,59.9154
25.7961,59.9641
25.7474,59.9966
25.6900,60.0080
25.3900,60.0080
25.3326,59.9966
25.2839,59.9641
25.2514,59.9154
25.2400,59.8580
Z" /> 
<path style="fill:#000000; fill-opacity:1.0000; stroke:none;fill-rule:evenodd;"
d="M 24.4400,59.0080
24.4514,58.9506
24.4839,58.9019
24.5326,58.8694
24.5900,58.8580
24.8900,58.8580
24.9474,58.8694
24.9961,58.9019
25.0286,58.9506
25.0400,59.0080
25.0400,59.8580
25.0286,59.9154
24.9961,59.9641
24.9474,59.9966
24.8900,60.0080
24.5900,60.0080
24.5326,59.9966
24.4839,59.9641
24.4514,59.9154
24.4400,59.8580
Z" /> 
</g>
<g style="fill:none; 
stroke:#000000; stroke-width:1.0000; stroke-opacity:1; 
stroke-linecap:round; stroke-linejoin:round;">
<path d="M23.6200 54.2780
L23.6200 55.0780
" />
<path d="M23.6200 58.3080
L23.6200 59.4080
" />
<path d="M32.2600 54.2780
L32.2600 55.0780
" />
<path d="M32.2600 58.3080
L32.2600 59.4080
" />
<path style="fill:#000000; fill-opacity:1.0000; stroke:none;fill-rule:evenodd;"
d="M 25.3165,90.3180
25.3013,90.3945
25.2579,90.4594
25.1930,90.5028
25.1165,90.5180
24.7165,90.5180
24.6400,90.5028
24.5751,90.4594
24.5317,90.3945
24.5165,90.3180
24.5165,89.7680
24.5317,89.6915
24.5751,89.6266
24.6400,89.5832
24.7165,89.5680
25.1165,89.5680
25.1930,89.5832
25.2579,89.6266
25.3013,89.6915
25.3165,89.7680
Z" /> 
<path style="fill:#000000; fill-opacity:1.0000; stroke:none;fill-rule:evenodd;"
d="M 23.6665,90.3180
23.6513,90.3945
23.6079,90.4594
23.5430,90.5028
23.4665,90.5180
23.0665,90.5180
22.9900,90.5028
22.9251,90.4594
22.8817,90.3945
22.8665,90.3180
22.8665,89.7680
22.8817,89.6915
22.9251,89.6266
22.9900,89.5832
23.0665,89.5680
23.4665,89.5680
23.5430,89.5832
23.6079,89.6266
23.6513,89.6915
23.6665,89.7680
Z" /> 
<path style="fill:#000000; fill-opacity:1.0000; stroke:none;fill-rule:evenodd;"
d="M 86.2297,96.8390
86.3135,96.8557
86.3844,96.9031
86.4318,96.9740
86.4485,97.0577
86.4485,97.4952
86.4318,97.5790
86.3844,97.6499
86.3135,97.6973
86.2297,97.7140
85.7172,97.7140
85.6335,97.6973
85.5626,97.6499
85.5152,97.5790
85.4985,97.4952
85.4985,97.0577
85.5152,96.9740
85.5626,96.9031
85.6335,96.8557
85.7172,96.8390
Z" /> 
<path style="fill:#000000; fill-opacity:1.0000; stroke:none;fill-rule:evenodd;"
d="M 86.2297,98.4140
86.3135,98.4307
86.3844,98.4781
86.4318,98.5490
86.4485,98.6328
86.4485,99.0703
86.4318,99.1540
86.3844,99.2249
86.3135,99.2723
86.2297,99.2890
85.7172,99.2890
85.6335,99.2723
85.5626,99.2249
85.5152,99.1540
85.4985,99.0703
85.4985,98.6328
85.5152,98.5490
85.5626,98.4781
85.6335,98.4307
85.7172,98.4140
Z" /> 
</g>
<g style="fill:none; 
stroke:#000000; stroke-width:0.0500; stroke-opacity:1; 
stroke-linecap:round; stroke-linejoin:round;">
<path d="M154.9400 95.2500 A2.5400 2.5400 0.0 0 0 157.4800 92.7100" />
<path d="M15.2400 54.6100
L15.2400 92.7100
" />
<path d="M15.5476 94.8533
L31.1929 121.9190
" />
<path d="M157.4800 38.1000 A2.5400 2.5400 0.0 0 0 154.9400 35.5600" />
<path d="M90.1700 95.2500
L154.9400 95.2500
" />
<path d="M43.1800 24.1300
L116.8400 24.1300
" />
<path d="M39.3610 52.0610 A1.2700 1.2700 0.0 0 0 40.6310 50.7910" />
<path d="M119.3800 33.0200 A2.5400 2.5400 0.0 0 0 121.9200 35.5600" />
<path d="M90.1700 95.2500 A2.5400 2.5400 0.0 0 0 87.6300 97.7900" />
<path d="M85.0900 115.5520 A2.5400 2.5400 0.0 0 0 87.6300 113.0119" />
<path d="M17.7800 52.0700
L39.3610 52.0610
" />
<path d="M119.3800 26.6700 A2.5400 2.5400 0.0 0 0 116.8400 24.1300" />
<path d="M119.3800 26.6700
L119.3800 33.0200
" />
<path d="M50.8000 115.5700 A2.5400 2.5400 0.0 0 0 49.4932 115.9320" />
<path d="M40.6310 50.7910
L40.6400 26.6700
" />
<path d="M36.9062 123.1900
L49.4932 115.9320
" />
<path d="M17.7800 52.0700 A2.5400 2.5400 0.0 0 0 15.2400 54.6100" />
<path d="M43.1800 24.1300 A2.5400 2.5400 0.0 0 0 40.6400 26.6700" />
<path d="M87.6300 97.7900
L87.6300 113.0119
" />
<path d="M15.2400 92.7100 A7.6200 7.6200 0.0 0 0 15.5476 94.8533" />
<path d="M31.1929 121.9190 A4.0932 4.0932 0.0 0 0 36.9062 123.1900" />
<path d="M85.0900 115.5519
L50.8000 115.5700
" />
<path d="M157.4800 38.1000
L157.4800 92.7100
" />
<path d="M121.9200 35.5600
L154.9400 35.5600
" />
</g> 
</svg>
