<?xml version="1.0" standalone="no"?>
 <!DOCTYPE svg PUBLIC "-//W3C//DTD SVG 1.1//EN" 
 "http://www.w3.org/Graphics/SVG/1.1/DTD/svg11.dtd"> 
<svg
  xmlns:svg="http://www.w3.org/2000/svg"
  xmlns="http://www.w3.org/2000/svg"
  xmlns:xlink="http://www.w3.org/1999/xlink"
  version="1.1"
  width="147.3200mm" height="105.1560mm" viewBox="0.0000 0.0000 147.3200 105.1560">
<title>SVG Image created as keeb-rev1-mirror-F_Silkscreen.svg date 2024/05/22 01:09:31 </title>
  <desc>Image generated by PCBNEW </desc>
<g style="fill:#000000; fill-opacity:1.0000;stroke:#000000; stroke-opacity:1.0000;
stroke-linecap:round; stroke-linejoin:round;"
 transform="translate(0 0) scale(1 1)">
<path style="fill:#000000; fill-opacity:1.0000; 
stroke:#000000; stroke-width:0.5000; stroke-opacity:1; 
stroke-linecap:round; stroke-linejoin:round;fill-rule:evenodd;"
d="M 20.1168,46.6090
20.6248,49.1490
20.0660,51.6890
18.5420,53.2130
11.4300,53.2130
9.9568,51.6382
9.4488,49.1490
9.9568,46.5074
9.9568,41.5290
13.4620,46.5582
16.5100,46.5582
20.1168,41.5290
Z" /> 
<path style="fill:none; 
stroke:#000000; stroke-width:0.1500; stroke-opacity:1; 
stroke-linecap:round; stroke-linejoin:round;fill:none"
d="M 9.9060,29.3370
20.5740,29.3370
20.5740,37.7190
9.9060,37.7190
Z" /> 
</g>
<g style="fill:none; 
stroke:#000000; stroke-width:0.3000; stroke-opacity:1; 
stroke-linecap:round; stroke-linejoin:round;">
<path d="M9.9060 58.4962
L20.0660 58.4962
" />
</g>
<g style="fill:none; 
stroke:#000000; stroke-width:0.5000; stroke-opacity:1; 
stroke-linecap:round; stroke-linejoin:round;">
<text x="15.2400" y="41.2750"
textLength="8.5000" font-size="3.3333" lengthAdjust="spacingAndGlyphs"
text-anchor="middle" opacity="0">USB</text>
<g class="stroked-text"><desc>USB</desc>
<path d="M12.0852 38.4430
L12.0852 40.4669
" />
<path d="M12.0852 40.4669
L12.2043 40.7050
" />
<path d="M12.2043 40.7050
L12.3233 40.8240
" />
<path d="M12.3233 40.8240
L12.5614 40.9430
" />
<path d="M12.5614 40.9430
L13.0376 40.9430
" />
<path d="M13.0376 40.9430
L13.2757 40.8240
" />
<path d="M13.2757 40.8240
L13.3948 40.7050
" />
<path d="M13.3948 40.7050
L13.5138 40.4669
" />
<path d="M13.5138 40.4669
L13.5138 38.4430
" />
<path d="M14.5852 40.8240
L14.9424 40.9430
" />
<path d="M14.9424 40.9430
L15.5376 40.9430
" />
<path d="M15.5376 40.9430
L15.7757 40.8240
" />
<path d="M15.7757 40.8240
L15.8948 40.7050
" />
<path d="M15.8948 40.7050
L16.0138 40.4669
" />
<path d="M16.0138 40.4669
L16.0138 40.2288
" />
<path d="M16.0138 40.2288
L15.8948 39.9907
" />
<path d="M15.8948 39.9907
L15.7757 39.8716
" />
<path d="M15.7757 39.8716
L15.5376 39.7526
" />
<path d="M15.5376 39.7526
L15.0614 39.6335
" />
<path d="M15.0614 39.6335
L14.8233 39.5145
" />
<path d="M14.8233 39.5145
L14.7043 39.3954
" />
<path d="M14.7043 39.3954
L14.5852 39.1573
" />
<path d="M14.5852 39.1573
L14.5852 38.9192
" />
<path d="M14.5852 38.9192
L14.7043 38.6811
" />
<path d="M14.7043 38.6811
L14.8233 38.5621
" />
<path d="M14.8233 38.5621
L15.0614 38.4430
" />
<path d="M15.0614 38.4430
L15.6567 38.4430
" />
<path d="M15.6567 38.4430
L16.0138 38.5621
" />
<path d="M17.9186 39.6335
L18.2757 39.7526
" />
<path d="M18.2757 39.7526
L18.3948 39.8716
" />
<path d="M18.3948 39.8716
L18.5138 40.1097
" />
<path d="M18.5138 40.1097
L18.5138 40.4669
" />
<path d="M18.5138 40.4669
L18.3948 40.7050
" />
<path d="M18.3948 40.7050
L18.2757 40.8240
" />
<path d="M18.2757 40.8240
L18.0376 40.9430
" />
<path d="M18.0376 40.9430
L17.0852 40.9430
" />
<path d="M17.0852 40.9430
L17.0852 38.4430
" />
<path d="M17.0852 38.4430
L17.9186 38.4430
" />
<path d="M17.9186 38.4430
L18.1567 38.5621
" />
<path d="M18.1567 38.5621
L18.2757 38.6811
" />
<path d="M18.2757 38.6811
L18.3948 38.9192
" />
<path d="M18.3948 38.9192
L18.3948 39.1573
" />
<path d="M18.3948 39.1573
L18.2757 39.3954
" />
<path d="M18.2757 39.3954
L18.1567 39.5145
" />
<path d="M18.1567 39.5145
L17.9186 39.6335
" />
<path d="M17.9186 39.6335
L17.0852 39.6335
" />
</g></g>
<g style="fill:none; 
stroke:#000000; stroke-width:0.2500; stroke-opacity:1; 
stroke-linecap:round; stroke-linejoin:round;">
<text x="14.9860" y="60.2742"
textLength="8.7881" font-size="1.3333" lengthAdjust="spacingAndGlyphs"
text-anchor="middle" opacity="0">Design: KH</text>
<g class="stroked-text"><desc>Design: KH</desc>
<path d="M11.1050 60.1388
L11.1050 59.1388
" />
<path d="M11.1050 59.1388
L11.3431 59.1388
" />
<path d="M11.3431 59.1388
L11.4860 59.1864
" />
<path d="M11.4860 59.1864
L11.5812 59.2817
" />
<path d="M11.5812 59.2817
L11.6289 59.3769
" />
<path d="M11.6289 59.3769
L11.6765 59.5674
" />
<path d="M11.6765 59.5674
L11.6765 59.7102
" />
<path d="M11.6765 59.7102
L11.6289 59.9007
" />
<path d="M11.6289 59.9007
L11.5812 59.9960
" />
<path d="M11.5812 59.9960
L11.4860 60.0912
" />
<path d="M11.4860 60.0912
L11.3431 60.1388
" />
<path d="M11.3431 60.1388
L11.1050 60.1388
" />
<path d="M12.4860 60.0912
L12.3908 60.1388
" />
<path d="M12.3908 60.1388
L12.2003 60.1388
" />
<path d="M12.2003 60.1388
L12.1050 60.0912
" />
<path d="M12.1050 60.0912
L12.0574 59.9960
" />
<path d="M12.0574 59.9960
L12.0574 59.6150
" />
<path d="M12.0574 59.6150
L12.1050 59.5198
" />
<path d="M12.1050 59.5198
L12.2003 59.4722
" />
<path d="M12.2003 59.4722
L12.3908 59.4722
" />
<path d="M12.3908 59.4722
L12.4860 59.5198
" />
<path d="M12.4860 59.5198
L12.5336 59.6150
" />
<path d="M12.5336 59.6150
L12.5336 59.7102
" />
<path d="M12.5336 59.7102
L12.0574 59.8055
" />
<path d="M12.9146 60.0912
L13.0098 60.1388
" />
<path d="M13.0098 60.1388
L13.2003 60.1388
" />
<path d="M13.2003 60.1388
L13.2955 60.0912
" />
<path d="M13.2955 60.0912
L13.3431 59.9960
" />
<path d="M13.3431 59.9960
L13.3431 59.9483
" />
<path d="M13.3431 59.9483
L13.2955 59.8531
" />
<path d="M13.2955 59.8531
L13.2003 59.8055
" />
<path d="M13.2003 59.8055
L13.0574 59.8055
" />
<path d="M13.0574 59.8055
L12.9622 59.7579
" />
<path d="M12.9622 59.7579
L12.9146 59.6626
" />
<path d="M12.9146 59.6626
L12.9146 59.6150
" />
<path d="M12.9146 59.6150
L12.9622 59.5198
" />
<path d="M12.9622 59.5198
L13.0574 59.4722
" />
<path d="M13.0574 59.4722
L13.2003 59.4722
" />
<path d="M13.2003 59.4722
L13.2955 59.5198
" />
<path d="M13.7717 60.1388
L13.7717 59.4722
" />
<path d="M13.7717 59.1388
L13.7241 59.1864
" />
<path d="M13.7241 59.1864
L13.7717 59.2341
" />
<path d="M13.7717 59.2341
L13.8193 59.1864
" />
<path d="M13.8193 59.1864
L13.7717 59.1388
" />
<path d="M13.7717 59.1388
L13.7717 59.2341
" />
<path d="M14.6765 59.4722
L14.6765 60.2817
" />
<path d="M14.6765 60.2817
L14.6289 60.3769
" />
<path d="M14.6289 60.3769
L14.5812 60.4245
" />
<path d="M14.5812 60.4245
L14.4860 60.4722
" />
<path d="M14.4860 60.4722
L14.3431 60.4722
" />
<path d="M14.3431 60.4722
L14.2479 60.4245
" />
<path d="M14.6765 60.0912
L14.5812 60.1388
" />
<path d="M14.5812 60.1388
L14.3908 60.1388
" />
<path d="M14.3908 60.1388
L14.2955 60.0912
" />
<path d="M14.2955 60.0912
L14.2479 60.0436
" />
<path d="M14.2479 60.0436
L14.2003 59.9483
" />
<path d="M14.2003 59.9483
L14.2003 59.6626
" />
<path d="M14.2003 59.6626
L14.2479 59.5674
" />
<path d="M14.2479 59.5674
L14.2955 59.5198
" />
<path d="M14.2955 59.5198
L14.3908 59.4722
" />
<path d="M14.3908 59.4722
L14.5812 59.4722
" />
<path d="M14.5812 59.4722
L14.6765 59.5198
" />
<path d="M15.1527 59.4722
L15.1527 60.1388
" />
<path d="M15.1527 59.5674
L15.2003 59.5198
" />
<path d="M15.2003 59.5198
L15.2955 59.4722
" />
<path d="M15.2955 59.4722
L15.4384 59.4722
" />
<path d="M15.4384 59.4722
L15.5336 59.5198
" />
<path d="M15.5336 59.5198
L15.5812 59.6150
" />
<path d="M15.5812 59.6150
L15.5812 60.1388
" />
<path d="M16.0574 60.0436
L16.1050 60.0912
" />
<path d="M16.1050 60.0912
L16.0574 60.1388
" />
<path d="M16.0574 60.1388
L16.0098 60.0912
" />
<path d="M16.0098 60.0912
L16.0574 60.0436
" />
<path d="M16.0574 60.0436
L16.0574 60.1388
" />
<path d="M16.0574 59.5198
L16.1050 59.5674
" />
<path d="M16.1050 59.5674
L16.0574 59.6150
" />
<path d="M16.0574 59.6150
L16.0098 59.5674
" />
<path d="M16.0098 59.5674
L16.0574 59.5198
" />
<path d="M16.0574 59.5198
L16.0574 59.6150
" />
<path d="M17.2955 60.1388
L17.2955 59.1388
" />
<path d="M17.8670 60.1388
L17.4384 59.5674
" />
<path d="M17.8670 59.1388
L17.2955 59.7102
" />
<path d="M18.2955 60.1388
L18.2955 59.1388
" />
<path d="M18.2955 59.6150
L18.8670 59.6150
" />
<path d="M18.8670 60.1388
L18.8670 59.1388
" />
</g></g>
<g style="fill:none; 
stroke:#000000; stroke-width:0.5000; stroke-opacity:1; 
stroke-linecap:round; stroke-linejoin:round;">
<text x="14.9860" y="57.5310"
textLength="8.4333" font-size="2.6667" lengthAdjust="spacingAndGlyphs"
text-anchor="middle" opacity="0">Splik</text>
<g class="stroked-text"><desc>Splik</desc>
<path d="M11.7003 57.1650
L11.9860 57.2602
" />
<path d="M11.9860 57.2602
L12.4622 57.2602
" />
<path d="M12.4622 57.2602
L12.6527 57.1650
" />
<path d="M12.6527 57.1650
L12.7479 57.0698
" />
<path d="M12.7479 57.0698
L12.8431 56.8793
" />
<path d="M12.8431 56.8793
L12.8431 56.6888
" />
<path d="M12.8431 56.6888
L12.7479 56.4983
" />
<path d="M12.7479 56.4983
L12.6527 56.4031
" />
<path d="M12.6527 56.4031
L12.4622 56.3079
" />
<path d="M12.4622 56.3079
L12.0812 56.2126
" />
<path d="M12.0812 56.2126
L11.8908 56.1174
" />
<path d="M11.8908 56.1174
L11.7955 56.0221
" />
<path d="M11.7955 56.0221
L11.7003 55.8317
" />
<path d="M11.7003 55.8317
L11.7003 55.6412
" />
<path d="M11.7003 55.6412
L11.7955 55.4507
" />
<path d="M11.7955 55.4507
L11.8908 55.3555
" />
<path d="M11.8908 55.3555
L12.0812 55.2602
" />
<path d="M12.0812 55.2602
L12.5574 55.2602
" />
<path d="M12.5574 55.2602
L12.8431 55.3555
" />
<path d="M13.7003 55.9269
L13.7003 57.9269
" />
<path d="M13.7003 56.0221
L13.8908 55.9269
" />
<path d="M13.8908 55.9269
L14.2717 55.9269
" />
<path d="M14.2717 55.9269
L14.4622 56.0221
" />
<path d="M14.4622 56.0221
L14.5574 56.1174
" />
<path d="M14.5574 56.1174
L14.6527 56.3079
" />
<path d="M14.6527 56.3079
L14.6527 56.8793
" />
<path d="M14.6527 56.8793
L14.5574 57.0698
" />
<path d="M14.5574 57.0698
L14.4622 57.1650
" />
<path d="M14.4622 57.1650
L14.2717 57.2602
" />
<path d="M14.2717 57.2602
L13.8908 57.2602
" />
<path d="M13.8908 57.2602
L13.7003 57.1650
" />
<path d="M15.7955 57.2602
L15.6050 57.1650
" />
<path d="M15.6050 57.1650
L15.5098 56.9745
" />
<path d="M15.5098 56.9745
L15.5098 55.2602
" />
<path d="M16.5574 57.2602
L16.5574 55.9269
" />
<path d="M16.5574 55.2602
L16.4622 55.3555
" />
<path d="M16.4622 55.3555
L16.5574 55.4507
" />
<path d="M16.5574 55.4507
L16.6527 55.3555
" />
<path d="M16.6527 55.3555
L16.5574 55.2602
" />
<path d="M16.5574 55.2602
L16.5574 55.4507
" />
<path d="M17.5098 57.2602
L17.5098 55.2602
" />
<path d="M17.7003 56.4983
L18.2717 57.2602
" />
<path d="M18.2717 55.9269
L17.5098 56.6888
" />
</g></g>
<g style="fill:none; 
stroke:#000000; stroke-width:0.3750; stroke-opacity:1; 
stroke-linecap:round; stroke-linejoin:round;">
<text x="138.9380" y="71.1200"
textLength="8.8964" font-size="2.0000" lengthAdjust="spacingAndGlyphs"
text-anchor="middle" opacity="0">rev 1.0</text>
<g class="stroked-text"><desc>rev 1.0</desc>
<path d="M135.2594 70.9169
L135.2594 69.9169
" />
<path d="M135.2594 70.2026
L135.3309 70.0598
" />
<path d="M135.3309 70.0598
L135.4023 69.9884
" />
<path d="M135.4023 69.9884
L135.5451 69.9169
" />
<path d="M135.5451 69.9169
L135.6880 69.9169
" />
<path d="M136.7594 70.8455
L136.6166 70.9169
" />
<path d="M136.6166 70.9169
L136.3309 70.9169
" />
<path d="M136.3309 70.9169
L136.1880 70.8455
" />
<path d="M136.1880 70.8455
L136.1166 70.7026
" />
<path d="M136.1166 70.7026
L136.1166 70.1312
" />
<path d="M136.1166 70.1312
L136.1880 69.9884
" />
<path d="M136.1880 69.9884
L136.3309 69.9169
" />
<path d="M136.3309 69.9169
L136.6166 69.9169
" />
<path d="M136.6166 69.9169
L136.7594 69.9884
" />
<path d="M136.7594 69.9884
L136.8309 70.1312
" />
<path d="M136.8309 70.1312
L136.8309 70.2741
" />
<path d="M136.8309 70.2741
L136.1166 70.4169
" />
<path d="M137.3309 69.9169
L137.6880 70.9169
" />
<path d="M137.6880 70.9169
L138.0451 69.9169
" />
<path d="M140.5451 70.9169
L139.6880 70.9169
" />
<path d="M140.1166 70.9169
L140.1166 69.4169
" />
<path d="M140.1166 69.4169
L139.9737 69.6312
" />
<path d="M139.9737 69.6312
L139.8309 69.7741
" />
<path d="M139.8309 69.7741
L139.6880 69.8455
" />
<path d="M141.1880 70.7741
L141.2594 70.8455
" />
<path d="M141.2594 70.8455
L141.1880 70.9169
" />
<path d="M141.1880 70.9169
L141.1166 70.8455
" />
<path d="M141.1166 70.8455
L141.1880 70.7741
" />
<path d="M141.1880 70.7741
L141.1880 70.9169
" />
<path d="M142.1880 69.4169
L142.3309 69.4169
" />
<path d="M142.3309 69.4169
L142.4737 69.4884
" />
<path d="M142.4737 69.4884
L142.5451 69.5598
" />
<path d="M142.5451 69.5598
L142.6166 69.7026
" />
<path d="M142.6166 69.7026
L142.6880 69.9884
" />
<path d="M142.6880 69.9884
L142.6880 70.3455
" />
<path d="M142.6880 70.3455
L142.6166 70.6312
" />
<path d="M142.6166 70.6312
L142.5451 70.7741
" />
<path d="M142.5451 70.7741
L142.4737 70.8455
" />
<path d="M142.4737 70.8455
L142.3309 70.9169
" />
<path d="M142.3309 70.9169
L142.1880 70.9169
" />
<path d="M142.1880 70.9169
L142.0451 70.8455
" />
<path d="M142.0451 70.8455
L141.9737 70.7741
" />
<path d="M141.9737 70.7741
L141.9023 70.6312
" />
<path d="M141.9023 70.6312
L141.8309 70.3455
" />
<path d="M141.8309 70.3455
L141.8309 69.9884
" />
<path d="M141.8309 69.9884
L141.9023 69.7026
" />
<path d="M141.9023 69.7026
L141.9737 69.5598
" />
<path d="M141.9737 69.5598
L142.0451 69.4884
" />
<path d="M142.0451 69.4884
L142.1880 69.4169
" />
</g></g>
<g style="fill:none; 
stroke:#000000; stroke-width:1.2500; stroke-opacity:1; 
stroke-linecap:round; stroke-linejoin:round;">
<text x="67.0560" y="90.4240"
textLength="7.7500" font-size="6.6667" lengthAdjust="spacingAndGlyphs"
text-anchor="start" opacity="0">R</text>
<g class="stroked-text"><desc>R</desc>
<path d="M71.9260 89.7471
L70.2593 87.3661
" />
<path d="M69.0688 89.7471
L69.0688 84.7471
" />
<path d="M69.0688 84.7471
L70.9736 84.7471
" />
<path d="M70.9736 84.7471
L71.4498 84.9852
" />
<path d="M71.4498 84.9852
L71.6879 85.2233
" />
<path d="M71.6879 85.2233
L71.9260 85.6995
" />
<path d="M71.9260 85.6995
L71.9260 86.4138
" />
<path d="M71.9260 86.4138
L71.6879 86.8900
" />
<path d="M71.6879 86.8900
L71.4498 87.1280
" />
<path d="M71.4498 87.1280
L70.9736 87.3661
" />
<path d="M70.9736 87.3661
L69.0688 87.3661
" />
</g></g>
<g style="fill:none; 
stroke:#000000; stroke-width:0.1200; stroke-opacity:1; 
stroke-linecap:round; stroke-linejoin:round;">
<path d="M31.6230 11.5570
L45.5930 11.5570
" />
<path d="M31.6230 25.5270
L31.6230 11.5570
" />
<path d="M45.5930 11.5570
L45.5930 25.5270
" />
<path d="M45.5930 25.5270
L31.6230 25.5270
" />
</g>
<g style="fill:none; 
stroke:#000000; stroke-width:0.0500; stroke-opacity:1; 
stroke-linecap:round; stroke-linejoin:round;">
<path d="M142.2400 72.3900 A2.5400 2.5400 0.0 0 0 144.7800 69.8500" />
<path d="M2.5400 31.7500
L2.5400 69.8500
" />
<path d="M2.8476 71.9933
L18.4929 99.0590
" />
<path d="M144.7800 15.2400 A2.5400 2.5400 0.0 0 0 142.2400 12.7000" />
<path d="M77.4700 72.3900
L142.2400 72.3900
" />
<path d="M30.4800 1.2700
L104.1400 1.2700
" />
<path d="M26.6610 29.2010 A1.2700 1.2700 0.0 0 0 27.9310 27.9310" />
<path d="M106.6800 10.1600 A2.5400 2.5400 0.0 0 0 109.2200 12.7000" />
<path d="M77.4700 72.3900 A2.5400 2.5400 0.0 0 0 74.9300 74.9300" />
<path d="M72.3900 92.6920 A2.5400 2.5400 0.0 0 0 74.9300 90.1519" />
<path d="M5.0800 29.2100
L26.6610 29.2010
" />
<path d="M106.6800 3.8100 A2.5400 2.5400 0.0 0 0 104.1400 1.2700" />
<path d="M106.6800 3.8100
L106.6800 10.1600
" />
<path d="M38.1000 92.7100 A2.5400 2.5400 0.0 0 0 36.7932 93.0720" />
<path d="M27.9310 27.9310
L27.9400 3.8100
" />
<path d="M24.2062 100.3300
L36.7932 93.0720
" />
<path d="M5.0800 29.2100 A2.5400 2.5400 0.0 0 0 2.5400 31.7500" />
<path d="M30.4800 1.2700 A2.5400 2.5400 0.0 0 0 27.9400 3.8100" />
<path d="M74.9300 74.9300
L74.9300 90.1519
" />
<path d="M2.5400 69.8500 A7.6200 7.6200 0.0 0 0 2.8476 71.9933" />
<path d="M18.4929 99.0590 A4.0932 4.0932 0.0 0 0 24.2062 100.3300" />
<path d="M72.3900 92.6919
L38.1000 92.7100
" />
<path d="M144.7800 15.2400
L144.7800 69.8500
" />
<path d="M109.2200 12.7000
L142.2400 12.7000
" />
</g> 
</svg>
