0
SECTION
2
HEADER
9
$INSUNITS
70
1
9
$ACADVER
1
AC1014
9
$HANDSEED
5
FFFF
0
ENDSEC
0
SECTION
2
TABLES
0
TABLE
2
VPORT
5
8
100
AcDbSymbolTable
0
ENDTAB
0
TABLE
2
LTYPE
5
5
100
AcDbSymbolTable
0
LTYPE
5
14
100
AcDbSymbolTableRecord
100
AcDbLinetypeTableRecord
2
BYBLOCK
70
0
0
LTYPE
5
15
100
AcDbSymbolTableRecord
100
AcDbLinetypeTableRecord
2
BYLAYER
70
0
0
ENDTAB
0
TABLE
2
LAYER
5
2
100
AcDbSymbolTable
70
2
0
LAYER
5
50
100
AcDbSymbolTableRecord
100
AcDbLayerTableRecord
2
0
70
0
6
CONTINUOUS
0
ENDTAB
0
TABLE
2
STYLE
5
3
100
AcDbSymbolTable
70
1
0
STYLE
5
11
100
AcDbSymbolTableRecord
100
AcDbTextStyleTableRecord
2
STANDARD
70
0
0
ENDTAB
0
TABLE
2
VIEW
5
6
100
AcDbSymbolTable
70
0
0
ENDTAB
0
TABLE
2
UCS
5
7
100
AcDbSymbolTable
70
0
0
ENDTAB
0
TABLE
2
APPID
5
9
100
AcDbSymbolTable
70
2
0
APPID
5
12
100
AcDbSymbolTableRecord
100
AcDbRegAppTableRecord
2
ACAD
70
0
0
ENDTAB
0
TABLE
2
DIMSTYLE
5
A
100
AcDbSymbolTable
70
1
0
ENDTAB
0
TABLE
2
BLOCK_RECORD
5
1
100
AcDbSymbolTable
70
1
0
BLOCK_RECORD
5
1F
100
AcDbSymbolTableRecord
100
AcDbBlockTableRecord
2
*MODEL_SPACE
0
BLOCK_RECORD
5
1B
100
AcDbSymbolTableRecord
100
AcDbBlockTableRecord
2
*PAPER_SPACE
0
ENDTAB
0
ENDSEC
0
SECTION
2
BLOCKS
0
BLOCK
5
20
100
AcDbEntity
100
AcDbBlockBegin
2
*MODEL_SPACE
0
ENDBLK
5
21
100
AcDbEntity
100
AcDbBlockEnd
0
BLOCK
5
1C
100
AcDbEntity
100
AcDbBlockBegin
2
*PAPER_SPACE
0
ENDBLK
5
1D
100
AcDbEntity
100
AcDbBlockEnd
0
ENDSEC
0
SECTION
2
ENTITIES
0
CIRCLE
5
100
100
AcDbEntity
8
0
100
AcDbCircle
10
0.73999999105695635
20
-2.1899999735334257
30
0
40
0.043299999999999998
210
0
220
0
230
1
0
CIRCLE
5
101
100
AcDbEntity
8
0
100
AcDbCircle
10
4.5499999450123685
20
-1.0999999867062868
30
0
40
0.043300000000000075
210
0
220
0
230
1
0
CIRCLE
5
102
100
AcDbEntity
8
0
100
AcDbCircle
10
1.7499999450123678
20
-1.0999999867062868
30
0
40
0.043300000000000075
210
0
220
0
230
1
0
CIRCLE
5
103
100
AcDbEntity
8
0
100
AcDbCircle
10
4.5499999450123685
20
-3.5999999867062873
30
0
40
0.043300000000000075
210
0
220
0
230
1
0
CIRCLE
5
104
100
AcDbEntity
8
0
100
AcDbCircle
10
1.3599999450123674
20
-4.7149999867062862
30
0
40
0.043300000000000075
210
0
220
0
230
1
0
LINE
5
105
100
AcDbEntity
8
0
100
AcDbLine
10
2.0199999755879086
20
-1.629999980301134
30
0
11
2.3949999755879086
21
-1.629999980301134
31
0
0
LINE
5
106
100
AcDbEntity
8
0
100
AcDbLine
10
2.0199999755879086
20
-1.629999980301134
30
0
11
2.0199999755879086
21
-1.254999980301134
31
0
0
LWPOLYLINE
5
107
100
AcDbEntity
8
0
100
AcDbPolyline
90
4
70
1
43
0.0
10
2.3949999755879086
20
-2.0049999803011342
10
1.6449999755879083
20
-2.0049999803011342
10
1.6449999755879083
20
-1.2549999803011338
10
2.3949999755879086
20
-1.2549999803011338
0
LINE
5
108
100
AcDbEntity
8
0
100
AcDbLine
10
2.3949999755879086
20
-2.0049999803011342
30
0
11
1.6449999755879083
21
-1.2549999803011338
31
0
0
LINE
5
109
100
AcDbEntity
8
0
100
AcDbLine
10
1.6449999755879083
20
-2.0049999803011342
30
0
11
2.3949999755879086
21
-1.2549999803011338
31
0
0
LWPOLYLINE
5
110
100
AcDbEntity
8
0
100
AcDbPolyline
90
4
70
1
43
0.0
10
1.6449999755879083
20
-2.0049999803011342
10
1.6449999755879083
20
-1.2549999803011338
10
2.3949999755879086
20
-1.2549999803011338
10
2.3949999755879086
20
-2.0049999803011342
0
LWPOLYLINE
5
111
100
AcDbEntity
8
0
100
AcDbPolyline
90
4
70
1
43
0.0
10
3.1449999665240131
20
-1.9049999815096532
10
2.3949999665240131
20
-1.9049999815096532
10
2.3949999665240131
20
-1.1549999815096537
10
3.1449999665240131
20
-1.1549999815096537
0
LINE
5
112
100
AcDbEntity
8
0
100
AcDbLine
10
3.1449999665240131
20
-1.9049999815096532
30
0
11
2.3949999665240131
21
-1.1549999815096537
31
0
0
LINE
5
113
100
AcDbEntity
8
0
100
AcDbLine
10
2.3949999665240131
20
-1.9049999815096532
30
0
11
3.1449999665240131
21
-1.1549999815096537
31
0
0
LWPOLYLINE
5
114
100
AcDbEntity
8
0
100
AcDbPolyline
90
4
70
1
43
0.0
10
3.8949999574601182
20
-1.7049999839266921
10
3.1449999574601177
20
-1.7049999839266921
10
3.1449999574601177
20
-0.95499998392669239
10
3.8949999574601182
20
-0.95499998392669239
0
LINE
5
115
100
AcDbEntity
8
0
100
AcDbLine
10
3.8949999574601182
20
-1.7049999839266921
30
0
11
3.1449999574601177
21
-0.95499998392669239
31
0
0
LINE
5
116
100
AcDbEntity
8
0
100
AcDbLine
10
3.1449999574601177
20
-1.7049999839266921
30
0
11
3.8949999574601182
21
-0.95499998392669239
31
0
0
LWPOLYLINE
5
117
100
AcDbEntity
8
0
100
AcDbPolyline
90
4
70
1
43
0.0
10
4.6449999483962223
20
-1.9049999815096532
10
3.8949999483962223
20
-1.9049999815096532
10
3.8949999483962223
20
-1.1549999815096537
10
4.6449999483962223
20
-1.1549999815096537
0
LINE
5
118
100
AcDbEntity
8
0
100
AcDbLine
10
4.6449999483962223
20
-1.9049999815096532
30
0
11
3.8949999483962223
21
-1.1549999815096537
31
0
0
LINE
5
119
100
AcDbEntity
8
0
100
AcDbLine
10
3.8949999483962223
20
-1.9049999815096532
30
0
11
4.6449999483962223
21
-1.1549999815096537
31
0
0
LWPOLYLINE
5
120
100
AcDbEntity
8
0
100
AcDbPolyline
90
4
70
1
43
0.0
10
5.3949999393323269
20
-2.2049999778840954
10
4.6449999393323278
20
-2.2049999778840954
10
4.6449999393323278
20
-1.4549999778840952
10
5.3949999393323269
20
-1.4549999778840952
0
LINE
5
121
100
AcDbEntity
8
0
100
AcDbLine
10
5.3949999393323269
20
-2.2049999778840954
30
0
11
4.6449999393323278
21
-1.4549999778840952
31
0
0
LINE
5
122
100
AcDbEntity
8
0
100
AcDbLine
10
4.6449999393323278
20
-2.2049999778840954
30
0
11
5.3949999393323269
21
-1.4549999778840952
31
0
0
LWPOLYLINE
5
123
100
AcDbEntity
8
0
100
AcDbPolyline
90
4
70
1
43
0.0
10
5.3949999393323278
20
-2.204999977884095
10
5.3949999393323278
20
-1.4549999778840947
10
6.1449999393323269
20
-1.4549999778840947
10
6.1449999393323269
20
-2.2049999778840954
0
LWPOLYLINE
5
124
100
AcDbEntity
8
0
100
AcDbPolyline
90
4
70
1
43
0.0
10
1.6449999755879083
20
-2.0049999803011338
10
2.3949999755879086
20
-2.0049999803011338
10
2.3949999755879086
20
-2.7549999803011342
10
1.6449999755879083
20
-2.7549999803011342
0
LWPOLYLINE
5
125
100
AcDbEntity
8
0
100
AcDbPolyline
90
4
70
1
43
0.0
10
2.3949999665240131
20
-1.9049999815096537
10
3.1449999665240131
20
-1.9049999815096537
10
3.1449999665240131
20
-2.6549999815096532
10
2.3949999665240131
20
-2.6549999815096532
0
LWPOLYLINE
5
126
100
AcDbEntity
8
0
100
AcDbPolyline
90
4
70
1
43
0.0
10
3.1449999574601177
20
-1.7049999839266925
10
3.8949999574601182
20
-1.7049999839266925
10
3.8949999574601182
20
-2.4549999839266921
10
3.1449999574601177
20
-2.4549999839266916
0
LWPOLYLINE
5
127
100
AcDbEntity
8
0
100
AcDbPolyline
90
4
70
1
43
0.0
10
3.8949999483962223
20
-1.9049999815096537
10
4.6449999483962223
20
-1.9049999815096537
10
4.6449999483962223
20
-2.6549999815096532
10
3.8949999483962223
20
-2.6549999815096532
0
LWPOLYLINE
5
128
100
AcDbEntity
8
0
100
AcDbPolyline
90
4
70
1
43
0.0
10
4.6449999393323278
20
-2.204999977884095
10
5.3949999393323269
20
-2.204999977884095
10
5.3949999393323269
20
-2.9549999778840954
10
4.6449999393323278
20
-2.9549999778840954
0
LWPOLYLINE
5
129
100
AcDbEntity
8
0
100
AcDbPolyline
90
4
70
1
43
0.0
10
5.3949999393323269
20
-2.2049999778840967
10
6.1449999393323269
20
-2.204999977884095
10
6.1449999393323269
20
-2.9549999778840954
10
5.3949999393323269
20
-2.9549999778840972
0
LWPOLYLINE
5
130
100
AcDbEntity
8
0
100
AcDbPolyline
90
4
70
1
43
0.0
10
1.6449999755879083
20
-2.7549999803011338
10
2.3949999755879086
20
-2.7549999803011338
10
2.3949999755879086
20
-3.5049999803011342
10
1.6449999755879083
20
-3.5049999803011342
0
LWPOLYLINE
5
131
100
AcDbEntity
8
0
100
AcDbPolyline
90
4
70
1
43
0.0
10
2.3949999665240131
20
-2.6549999815096537
10
3.1449999665240131
20
-2.6549999815096537
10
3.1449999665240131
20
-3.4049999815096532
10
2.3949999665240131
20
-3.4049999815096532
0
LWPOLYLINE
5
132
100
AcDbEntity
8
0
100
AcDbPolyline
90
4
70
1
43
0.0
10
3.1449999574601168
20
-2.4549999839266938
10
3.8949999574601182
20
-2.4549999839266925
10
3.8949999574601182
20
-3.2049999839266916
10
3.1449999574601164
20
-3.2049999839266934
0
LWPOLYLINE
5
133
100
AcDbEntity
8
0
100
AcDbPolyline
90
4
70
1
43
0.0
10
3.8949999483962214
20
-2.6549999815096554
10
4.6449999483962223
20
-2.6549999815096537
10
4.6449999483962223
20
-3.4049999815096532
10
3.894999948396221
20
-3.4049999815096545
0
LWPOLYLINE
5
134
100
AcDbEntity
8
0
100
AcDbPolyline
90
4
70
1
43
0.0
10
4.6449999393323269
20
-2.9549999778840967
10
5.3949999393323269
20
-2.9549999778840954
10
5.3949999393323269
20
-3.7049999778840954
10
4.644999939332326
20
-3.7049999778840972
0
LWPOLYLINE
5
135
100
AcDbEntity
8
0
100
AcDbPolyline
90
4
70
1
43
0.0
10
5.3949999393323331
20
-2.9549999778840839
10
6.1449999393323269
20
-2.954999977884095
10
6.1449999393323269
20
-3.7049999778840954
10
5.394999939332334
20
-3.7049999778840843
0
LWPOLYLINE
5
136
100
AcDbEntity
8
0
100
AcDbPolyline
90
4
70
1
43
0.0
10
2.6949999719623503
20
-3.7449999502090012
10
1.9449999719623505
20
-3.7449999502090012
10
1.9449999719623505
20
-4.4949999502090021
10
2.6949999719623503
20
-4.4949999502090021
0
LINE
5
137
100
AcDbEntity
8
0
100
AcDbLine
10
2.6949999719623503
20
-3.7449999502090012
30
0
11
1.9449999719623505
21
-4.4949999502090021
31
0
0
LINE
5
138
100
AcDbEntity
8
0
100
AcDbLine
10
1.9449999719623505
20
-3.7449999502090012
30
0
11
2.6949999719623503
21
-4.4949999502090021
31
0
0
LWPOLYLINE
5
139
100
AcDbEntity
8
0
100
AcDbPolyline
90
4
70
1
43
0.0
10
3.4449999628984553
20
-4.3949999514175211
10
2.6949999628984549
20
-4.3949999514175211
10
2.6949999628984549
20
-3.6449999514175206
10
3.4449999628984553
20
-3.6449999514175206
0
LINE
5
140
100
AcDbEntity
8
0
100
AcDbLine
10
3.4449999628984553
20
-4.3949999514175211
30
0
11
2.6949999628984549
21
-3.6449999514175206
31
0
0
LINE
5
141
100
AcDbEntity
8
0
100
AcDbLine
10
2.6949999628984549
20
-4.3949999514175211
30
0
11
3.4449999628984553
21
-3.6449999514175206
31
0
0
LINE
5
142
100
AcDbEntity
8
0
100
AcDbLine
10
1.2699737717700443
20
-4.1251653540795665
30
0
11
1.5947332981892093
21
-3.9376653540795665
31
0
0
LINE
5
143
100
AcDbEntity
8
0
100
AcDbLine
10
1.2699737717700443
20
-4.1251653540795665
30
0
11
0.94521424535087939
21
-4.3126653540795656
31
0
0
LWPOLYLINE
5
144
100
AcDbEntity
8
0
100
AcDbPolyline
90
5
70
1
43
0.0
10
0.94521424535087939
20
-4.3126653540795656
10
1.1327142453508787
20
-4.6374248804987301
10
1.7822332981892086
20
-4.262424880498731
10
1.4072332981892099
20
-3.612905827660402
10
0.75771424535088006
20
-3.9879058276604011
0
LWPOLYLINE
5
145
100
AcDbEntity
8
0
100
AcDbPolyline
90
24
70
1
43
0.0
10
0.49999999395740308
20
-3.6399999560098943
10
0.49999999395740347
20
-2.1499999740168336
42
-0.41421387187884945
10
0.70000014264020072
20
-1.9500000366778076
10
1.3999999830807286
20
-1.9500000366778076
42
0.41421364971334312
10
1.5000000122963069
20
-1.8499999776423914
10
1.500000012296308
20
-1.0499999873105474
42
-0.41421358693755328
10
1.6999999794551706
20
-0.85000000337802462
10
4.6499999438038495
20
-0.85000000337802473
42
-0.41421357281086035
10
4.8499999348637202
20
-1.0499999873105466
10
4.8499999348637202
20
-1.0999999867062868
42
0.41421354149757311
10
4.9499999401782908
20
-1.1999999848935081
10
6.1999999250717988
20
-1.1999999848935079
42
-0.41421356237315571
10
6.3999999232589841
20
-1.3999999830807286
10
6.3999999232589841
20
-3.7499999546805234
42
-0.41421356237304385
10
6.1999999250718005
20
-3.9499999528677443
10
3.6499999558890428
20
-3.9499999528677439
42
0.41421355883342625
10
3.5499999564933047
20
-4.0499999510549651
10
3.5499999564933047
20
-4.4999999456166275
42
-0.4142135623730841
10
3.3999999589103416
20
-4.6499999431995898
10
2.1068027587248941
20
-4.6499999431995889
42
0.14849071781452558
10
1.8324666958824527
20
-4.7333095966306011
10
1.4299999827181729
20
-4.9699999399365868
42
-0.41912442728754273
10
1.1739029252649789
20
-4.9012843359138651
10
0.54700805595531121
20
-3.8167831437523336
42
-0.1328884268209499
0
LINE
5
146
100
AcDbEntity
8
0
100
AcDbLine
10
1.2699737717700443
20
-4.1251653540795665
30
0
11
1.4574737717700437
21
-4.449924880498731
31
0
0
LINE
5
147
100
AcDbEntity
8
0
100
AcDbLine
10
1.2699737717700443
20
-4.1251653540795665
30
0
11
1.082473771770045
21
-3.8004058276604007
31
0
0
LINE
5
148
100
AcDbEntity
8
0
100
AcDbLine
10
0.75771424535088006
20
-3.9879058276604011
30
0
11
1.1327142453508787
21
-4.6374248804987301
31
0
0
ENDSEC
0
SECTION
2
OBJECTS
0
DICTIONARY
5
C
100
AcDbDictionary
3
ACAD_GROUP
350
D
3
ACAD_MLINESTYLE
350
17
0
DICTIONARY
5
D
100
AcDbDictionary
0
DICTIONARY
5
1A
330
C
100
AcDbDictionary
0
DICTIONARY
5
17
100
AcDbDictionary
0
ENDSEC
0
EOF
