0
SECTION
2
HEADER
9
$INSUNITS
70
4
9
$ACADVER
1
AC1014
9
$HANDSEED
5
FFFF
0
ENDSEC
0
SECTION
2
TABLES
0
TABLE
2
VPORT
5
8
100
AcDbSymbolTable
0
ENDTAB
0
TABLE
2
LTYPE
5
5
100
AcDbSymbolTable
0
LTYPE
5
14
100
AcDbSymbolTableRecord
100
AcDbLinetypeTableRecord
2
BYBLOCK
70
0
0
LTYPE
5
15
100
AcDbSymbolTableRecord
100
AcDbLinetypeTableRecord
2
BYLAYER
70
0
0
ENDTAB
0
TABLE
2
LAYER
5
2
100
AcDbSymbolTable
70
2
0
LAYER
5
50
100
AcDbSymbolTableRecord
100
AcDbLayerTableRecord
2
0
70
0
6
CONTINUOUS
0
ENDTAB
0
TABLE
2
STYLE
5
3
100
AcDbSymbolTable
70
1
0
STYLE
5
11
100
AcDbSymbolTableRecord
100
AcDbTextStyleTableRecord
2
STANDARD
70
0
0
ENDTAB
0
TABLE
2
VIEW
5
6
100
AcDbSymbolTable
70
0
0
ENDTAB
0
TABLE
2
UCS
5
7
100
AcDbSymbolTable
70
0
0
ENDTAB
0
TABLE
2
APPID
5
9
100
AcDbSymbolTable
70
2
0
APPID
5
12
100
AcDbSymbolTableRecord
100
AcDbRegAppTableRecord
2
ACAD
70
0
0
ENDTAB
0
TABLE
2
DIMSTYLE
5
A
100
AcDbSymbolTable
70
1
0
ENDTAB
0
TABLE
2
BLOCK_RECORD
5
1
100
AcDbSymbolTable
70
1
0
BLOCK_RECORD
5
1F
100
AcDbSymbolTableRecord
100
AcDbBlockTableRecord
2
*MODEL_SPACE
0
BLOCK_RECORD
5
1B
100
AcDbSymbolTableRecord
100
AcDbBlockTableRecord
2
*PAPER_SPACE
0
ENDTAB
0
ENDSEC
0
SECTION
2
BLOCKS
0
BLOCK
5
20
100
AcDbEntity
100
AcDbBlockBegin
2
*MODEL_SPACE
0
ENDBLK
5
21
100
AcDbEntity
100
AcDbBlockEnd
0
BLOCK
5
1C
100
AcDbEntity
100
AcDbBlockBegin
2
*PAPER_SPACE
0
ENDBLK
5
1D
100
AcDbEntity
100
AcDbBlockEnd
0
ENDSEC
0
SECTION
2
ENTITIES
0
CIRCLE
5
100
100
AcDbEntity
8
0
100
AcDbCircle
10
18.795999772846695
20
-55.625999327749014
30
0
40
1.09982
210
0
220
0
230
1
0
CIRCLE
5
101
100
AcDbEntity
8
0
100
AcDbCircle
10
115.56999860331416
20
-27.939999662339687
30
0
40
1.099820000000002
210
0
220
0
230
1
0
CIRCLE
5
102
100
AcDbEntity
8
0
100
AcDbCircle
10
44.449998603314143
20
-27.939999662339687
30
0
40
1.099820000000002
210
0
220
0
230
1
0
CIRCLE
5
103
100
AcDbEntity
8
0
100
AcDbCircle
10
115.56999860331416
20
-91.439999662339702
30
0
40
1.099820000000002
210
0
220
0
230
1
0
CIRCLE
5
104
100
AcDbEntity
8
0
100
AcDbCircle
10
34.543998603314137
20
-119.76099966233969
30
0
40
1.099820000000002
210
0
220
0
230
1
0
LINE
5
105
100
AcDbEntity
8
0
100
AcDbLine
10
51.30799937993288
20
-41.401999499648809
30
0
11
60.832999379932879
21
-41.401999499648809
31
0
0
LINE
5
106
100
AcDbEntity
8
0
100
AcDbLine
10
51.30799937993288
20
-41.401999499648809
30
0
11
51.30799937993288
21
-31.876999499648807
31
0
0
LWPOLYLINE
5
107
100
AcDbEntity
8
0
100
AcDbPolyline
90
4
70
1
43
0.0
10
60.832999379932886
20
-50.926999499648815
10
41.782999379932875
20
-50.926999499648815
10
41.782999379932875
20
-31.876999499648804
10
60.832999379932886
20
-31.876999499648804
0
LINE
5
108
100
AcDbEntity
8
0
100
AcDbLine
10
60.832999379932886
20
-50.926999499648815
30
0
11
41.782999379932875
21
-31.876999499648804
31
0
0
LINE
5
109
100
AcDbEntity
8
0
100
AcDbLine
10
41.782999379932875
20
-50.926999499648815
30
0
11
60.832999379932886
21
-31.876999499648804
31
0
0
LWPOLYLINE
5
110
100
AcDbEntity
8
0
100
AcDbPolyline
90
4
70
1
43
0.0
10
41.782999379932875
20
-50.926999499648815
10
41.782999379932875
20
-31.876999499648804
10
60.832999379932886
20
-31.876999499648804
10
60.832999379932886
20
-50.926999499648815
0
LWPOLYLINE
5
111
100
AcDbEntity
8
0
100
AcDbPolyline
90
4
70
1
43
0.0
10
79.882999149709946
20
-48.3869995303452
10
60.832999149709934
20
-48.3869995303452
10
60.832999149709934
20
-29.336999530345203
10
79.882999149709946
20
-29.336999530345203
0
LINE
5
112
100
AcDbEntity
8
0
100
AcDbLine
10
79.882999149709946
20
-48.3869995303452
30
0
11
60.832999149709934
21
-29.336999530345203
31
0
0
LINE
5
113
100
AcDbEntity
8
0
100
AcDbLine
10
60.832999149709934
20
-48.3869995303452
30
0
11
79.882999149709946
21
-29.336999530345203
31
0
0
LWPOLYLINE
5
114
100
AcDbEntity
8
0
100
AcDbPolyline
90
4
70
1
43
0.0
10
98.932998919487005
20
-43.306999591737984
10
79.882998919486994
20
-43.306999591737984
10
79.882998919486994
20
-24.256999591737987
10
98.932998919487005
20
-24.256999591737987
0
LINE
5
115
100
AcDbEntity
8
0
100
AcDbLine
10
98.932998919487005
20
-43.306999591737984
30
0
11
79.882998919486994
21
-24.256999591737987
31
0
0
LINE
5
116
100
AcDbEntity
8
0
100
AcDbLine
10
79.882998919486994
20
-43.306999591737984
30
0
11
98.932998919487005
21
-24.256999591737987
31
0
0
LWPOLYLINE
5
117
100
AcDbEntity
8
0
100
AcDbPolyline
90
4
70
1
43
0.0
10
117.98299868926406
20
-48.3869995303452
10
98.932998689264053
20
-48.3869995303452
10
98.932998689264053
20
-29.336999530345203
10
117.98299868926406
20
-29.336999530345203
0
LINE
5
118
100
AcDbEntity
8
0
100
AcDbLine
10
117.98299868926406
20
-48.3869995303452
30
0
11
98.932998689264053
21
-29.336999530345203
31
0
0
LINE
5
119
100
AcDbEntity
8
0
100
AcDbLine
10
98.932998689264053
20
-48.3869995303452
30
0
11
117.98299868926406
21
-29.336999530345203
31
0
0
LWPOLYLINE
5
120
100
AcDbEntity
8
0
100
AcDbPolyline
90
4
70
1
43
0.0
10
137.0329984590411
20
-56.006999438256031
10
117.98299845904113
20
-56.006999438256031
10
117.98299845904113
20
-36.95699943825602
10
137.0329984590411
20
-36.95699943825602
0
LINE
5
121
100
AcDbEntity
8
0
100
AcDbLine
10
137.0329984590411
20
-56.006999438256031
30
0
11
117.98299845904113
21
-36.95699943825602
31
0
0
LINE
5
122
100
AcDbEntity
8
0
100
AcDbLine
10
117.98299845904113
20
-56.006999438256031
30
0
11
137.0329984590411
21
-36.95699943825602
31
0
0
LWPOLYLINE
5
123
100
AcDbEntity
8
0
100
AcDbPolyline
90
4
70
1
43
0.0
10
137.03299845904115
20
-56.006999438256024
10
137.03299845904115
20
-36.956999438256013
10
156.08299845904111
20
-36.956999438256013
10
156.08299845904111
20
-56.006999438256031
0
LWPOLYLINE
5
124
100
AcDbEntity
8
0
100
AcDbPolyline
90
4
70
1
43
0.0
10
41.782999379932875
20
-50.926999499648801
10
60.832999379932886
20
-50.926999499648808
10
60.832999379932886
20
-69.976999499648812
10
41.782999379932875
20
-69.976999499648812
0
LWPOLYLINE
5
125
100
AcDbEntity
8
0
100
AcDbPolyline
90
4
70
1
43
0.0
10
60.832999149709934
20
-48.386999530345207
10
79.882999149709946
20
-48.386999530345207
10
79.882999149709946
20
-67.436999530345204
10
60.832999149709934
20
-67.436999530345204
0
LWPOLYLINE
5
126
100
AcDbEntity
8
0
100
AcDbPolyline
90
4
70
1
43
0.0
10
79.882998919486994
20
-43.306999591737991
10
98.932998919487005
20
-43.306999591737991
10
98.932998919487005
20
-62.356999591737988
10
79.882998919486994
20
-62.356999591737974
0
LWPOLYLINE
5
127
100
AcDbEntity
8
0
100
AcDbPolyline
90
4
70
1
43
0.0
10
98.932998689264053
20
-48.386999530345207
10
117.98299868926406
20
-48.386999530345207
10
117.98299868926406
20
-67.436999530345204
10
98.932998689264053
20
-67.43699953034519
0
LWPOLYLINE
5
128
100
AcDbEntity
8
0
100
AcDbPolyline
90
4
70
1
43
0.0
10
117.98299845904113
20
-56.006999438256017
10
137.0329984590411
20
-56.006999438256024
10
137.0329984590411
20
-75.056999438256028
10
117.98299845904113
20
-75.056999438256028
0
LWPOLYLINE
5
129
100
AcDbEntity
8
0
100
AcDbPolyline
90
4
70
1
43
0.0
10
137.03299845904112
20
-56.006999438256067
10
156.08299845904111
20
-56.006999438256017
10
156.08299845904111
20
-75.056999438256028
10
137.03299845904112
20
-75.056999438256071
0
LWPOLYLINE
5
130
100
AcDbEntity
8
0
100
AcDbPolyline
90
4
70
1
43
0.0
10
41.782999379932875
20
-69.976999499648798
10
60.832999379932886
20
-69.976999499648812
10
60.832999379932886
20
-89.026999499648824
10
41.782999379932875
20
-89.026999499648824
0
LWPOLYLINE
5
131
100
AcDbEntity
8
0
100
AcDbPolyline
90
4
70
1
43
0.0
10
60.832999149709934
20
-67.436999530345204
10
79.882999149709946
20
-67.436999530345204
10
79.882999149709946
20
-86.486999530345201
10
60.832999149709934
20
-86.486999530345201
0
LWPOLYLINE
5
132
100
AcDbEntity
8
0
100
AcDbPolyline
90
4
70
1
43
0.0
10
79.88299891948698
20
-62.356999591738031
10
98.932998919487005
20
-62.356999591737996
10
98.932998919487005
20
-81.406999591737986
10
79.882998919486965
20
-81.406999591738014
0
LWPOLYLINE
5
133
100
AcDbEntity
8
0
100
AcDbPolyline
90
4
70
1
43
0.0
10
98.932998689264039
20
-67.436999530345247
10
117.98299868926406
20
-67.436999530345204
10
117.98299868926406
20
-86.486999530345201
10
98.932998689264025
20
-86.48699953034523
0
LWPOLYLINE
5
134
100
AcDbEntity
8
0
100
AcDbPolyline
90
4
70
1
43
0.0
10
117.98299845904111
20
-75.056999438256057
10
137.0329984590411
20
-75.056999438256028
10
137.0329984590411
20
-94.10699943825604
10
117.9829984590411
20
-94.106999438256068
0
LWPOLYLINE
5
135
100
AcDbEntity
8
0
100
AcDbPolyline
90
4
70
1
43
0.0
10
137.03299845904127
20
-75.056999438255744
10
156.08299845904111
20
-75.056999438256014
10
156.08299845904111
20
-94.10699943825604
10
137.03299845904129
20
-94.106999438255755
0
LWPOLYLINE
5
136
100
AcDbEntity
8
0
100
AcDbPolyline
90
4
70
1
43
0.0
10
68.452999287843696
20
-95.122998735308641
10
49.402999287843706
20
-95.122998735308641
10
49.402999287843706
20
-114.17299873530865
10
68.452999287843696
20
-114.17299873530865
0
LINE
5
137
100
AcDbEntity
8
0
100
AcDbLine
10
68.452999287843696
20
-95.122998735308641
30
0
11
49.402999287843706
21
-114.17299873530865
31
0
0
LINE
5
138
100
AcDbEntity
8
0
100
AcDbLine
10
49.402999287843706
20
-95.122998735308641
30
0
11
68.452999287843696
21
-114.17299873530865
31
0
0
LWPOLYLINE
5
139
100
AcDbEntity
8
0
100
AcDbPolyline
90
4
70
1
43
0.0
10
87.502999057620769
20
-111.63299876600504
10
68.452999057620758
20
-111.63299876600504
10
68.452999057620758
20
-92.582998766005034
10
87.502999057620769
20
-92.582998766005034
0
LINE
5
140
100
AcDbEntity
8
0
100
AcDbLine
10
87.502999057620769
20
-111.63299876600504
30
0
11
68.452999057620758
21
-92.582998766005034
31
0
0
LINE
5
141
100
AcDbEntity
8
0
100
AcDbLine
10
68.452999057620758
20
-111.63299876600504
30
0
11
87.502999057620769
21
-92.582998766005034
31
0
0
LINE
5
142
100
AcDbEntity
8
0
100
AcDbLine
10
32.257333802959131
20
-104.77919999362099
30
0
11
40.50622577400592
21
-100.016699993621
31
0
0
LINE
5
143
100
AcDbEntity
8
0
100
AcDbLine
10
32.257333802959131
20
-104.77919999362099
30
0
11
24.008441831912339
21
-109.54169999362097
31
0
0
LWPOLYLINE
5
144
100
AcDbEntity
8
0
100
AcDbPolyline
90
5
70
1
43
0.0
10
24.008441831912339
20
-109.54169999362097
10
28.770941831912324
20
-117.79059196466775
10
45.268725774005901
20
-108.26559196466778
10
35.743725774005938
20
-91.767808022574229
10
19.245941831912354
20
-101.29280802257419
0
LWPOLYLINE
5
145
100
AcDbEntity
8
0
100
AcDbPolyline
90
24
70
1
43
0.0
10
11.429999861866236
20
-92.70999887958169
10
11.429999861866239
20
-54.609999340027571
42
-0.41421356237309481
10
17.779999785125256
20
-48.259999416768551
10
34.289999585598707
20
-48.259999416768551
42
0.41421356237309709
10
36.829999554902315
20
-45.719999447464943
10
36.829999554902322
20
-25.399999693036079
42
-0.41421356237309531
10
41.909999493509531
20
-20.319999754428864
10
118.10999857261777
20
-20.319999754428881
42
-0.41421356237309404
10
123.18999851122499
20
-25.399999693036079
10
123.18999851122499
20
-30.479999631643295
42
0.4142135623731012
10
124.45999849587679
20
-31.749999616295099
10
156.20999811217189
20
-31.749999616295106
42
-0.41421356237309659
10
161.2899980507791
20
-36.829999554902315
10
161.2899980507791
20
-93.979998864233494
42
-0.41421356237311141
10
156.20999811217189
20
-99.05999880284071
10
93.979998864233494
20
-99.05999880284071
42
0.41421356237309914
10
91.439998894929886
20
-101.59999877214432
10
91.439998894929886
20
-115.56999860331416
42
-0.4142135623730841
10
87.629998940974474
20
-119.37999855726957
10
54.609999340027642
20
-119.37999855726972
42
0.14040214807810292
10
47.975385044574764
20
-121.28049070644381
10
35.386813683986688
20
-128.53940119171148
42
-0.38928222899594916
10
28.910798816442494
20
-126.50623859310146
10
13.263543242454528
20
-99.437158664703361
42
-0.12973454549075825
0
LINE
5
146
100
AcDbEntity
8
0
100
AcDbLine
10
32.257333802959131
20
-104.77919999362099
30
0
11
37.019833802959113
21
-113.02809196466779
31
0
0
LINE
5
147
100
AcDbEntity
8
0
100
AcDbLine
10
32.257333802959131
20
-104.77919999362099
30
0
11
27.494833802959143
21
-96.530308022574189
31
0
0
LINE
5
148
100
AcDbEntity
8
0
100
AcDbLine
10
19.245941831912354
20
-101.29280802257419
30
0
11
28.770941831912324
21
-117.79059196466775
31
0
0
ENDSEC
0
SECTION
2
OBJECTS
0
DICTIONARY
5
C
100
AcDbDictionary
3
ACAD_GROUP
350
D
3
ACAD_MLINESTYLE
350
17
0
DICTIONARY
5
D
100
AcDbDictionary
0
DICTIONARY
5
1A
330
C
100
AcDbDictionary
0
DICTIONARY
5
17
100
AcDbDictionary
0
ENDSEC
0
EOF
