0
SECTION
2
HEADER
9
$INSUNITS
70
1
9
$ACADVER
1
AC1014
9
$HANDSEED
5
FFFF
0
ENDSEC
0
SECTION
2
TABLES
0
TABLE
2
VPORT
5
8
100
AcDbSymbolTable
0
ENDTAB
0
TABLE
2
LTYPE
5
5
100
AcDbSymbolTable
0
LTYPE
5
14
100
AcDbSymbolTableRecord
100
AcDbLinetypeTableRecord
2
BYBLOCK
70
0
0
LTYPE
5
15
100
AcDbSymbolTableRecord
100
AcDbLinetypeTableRecord
2
BYLAYER
70
0
0
ENDTAB
0
TABLE
2
LAYER
5
2
100
AcDbSymbolTable
70
2
0
LAYER
5
50
100
AcDbSymbolTableRecord
100
AcDbLayerTableRecord
2
0
70
0
6
CONTINUOUS
0
ENDTAB
0
TABLE
2
STYLE
5
3
100
AcDbSymbolTable
70
1
0
STYLE
5
11
100
AcDbSymbolTableRecord
100
AcDbTextStyleTableRecord
2
STANDARD
70
0
0
ENDTAB
0
TABLE
2
VIEW
5
6
100
AcDbSymbolTable
70
0
0
ENDTAB
0
TABLE
2
UCS
5
7
100
AcDbSymbolTable
70
0
0
ENDTAB
0
TABLE
2
APPID
5
9
100
AcDbSymbolTable
70
2
0
APPID
5
12
100
AcDbSymbolTableRecord
100
AcDbRegAppTableRecord
2
ACAD
70
0
0
ENDTAB
0
TABLE
2
DIMSTYLE
5
A
100
AcDbSymbolTable
70
1
0
ENDTAB
0
TABLE
2
BLOCK_RECORD
5
1
100
AcDbSymbolTable
70
1
0
BLOCK_RECORD
5
1F
100
AcDbSymbolTableRecord
100
AcDbBlockTableRecord
2
*MODEL_SPACE
0
BLOCK_RECORD
5
1B
100
AcDbSymbolTableRecord
100
AcDbBlockTableRecord
2
*PAPER_SPACE
0
ENDTAB
0
ENDSEC
0
SECTION
2
BLOCKS
0
BLOCK
5
20
100
AcDbEntity
100
AcDbBlockBegin
2
*MODEL_SPACE
0
ENDBLK
5
21
100
AcDbEntity
100
AcDbBlockEnd
0
BLOCK
5
1C
100
AcDbEntity
100
AcDbBlockBegin
2
*PAPER_SPACE
0
ENDBLK
5
1D
100
AcDbEntity
100
AcDbBlockEnd
0
ENDSEC
0
SECTION
2
ENTITIES
0
CIRCLE
5
100
100
AcDbEntity
8
0
100
AcDbCircle
10
0.73999999105695635
20
-2.1899999735334257
30
0
40
0.043299999999999998
210
0
220
0
230
1
0
CIRCLE
5
101
100
AcDbEntity
8
0
100
AcDbCircle
10
4.5499999450123685
20
-1.0999999867062871
30
0
40
0.043300000000000075
210
0
220
0
230
1
0
CIRCLE
5
102
100
AcDbEntity
8
0
100
AcDbCircle
10
1.749999945012368
20
-1.0999999867062871
30
0
40
0.043300000000000075
210
0
220
0
230
1
0
CIRCLE
5
103
100
AcDbEntity
8
0
100
AcDbCircle
10
4.5499999450123685
20
-3.5999999867062873
30
0
40
0.043300000000000075
210
0
220
0
230
1
0
CIRCLE
5
104
100
AcDbEntity
8
0
100
AcDbCircle
10
1.3599999450123674
20
-4.7149999867062862
30
0
40
0.043300000000000075
210
0
220
0
230
1
0
LINE
5
105
100
AcDbEntity
8
0
100
AcDbLine
10
3.1449999574601173
20
-0.95499998392669261
30
0
11
3.8949999574601182
21
-0.95499998392669261
31
0
0
LWPOLYLINE
5
106
100
AcDbEntity
8
0
100
AcDbPolyline
90
3
70
1
43
0.0
10
0.94521424535087939
20
-4.3126653540795648
10
1.1327142453508787
20
-4.6374248804987301
10
0.75771424535088006
20
-3.9879058276604011
0
LWPOLYLINE
5
107
100
AcDbEntity
8
0
100
AcDbPolyline
90
24
70
1
43
0.0
10
3.5999999564933014
20
-3.9999999516592246
10
3.5999999564933014
20
-4.5499999450123685
42
-0.4142135623730841
10
3.4499999583060807
20
-4.6999999431995887
10
2.1499999740168363
20
-4.6999999431995958
42
0.14040214807810419
10
1.8887946867942824
20
-4.7748224687576295
10
1.3931816411018381
20
-5.0606063461303732
42
-0.3892822289959495
10
1.1382204258441924
20
-4.9805605745315527
10
0.52218674182891833
20
-3.9148487663269029
42
-0.12973454549075716
10
0.44999999456166268
20
-3.6499999558890419
10
0.44999999456166306
20
-2.1499999740168332
42
-0.41421356237309465
10
0.6999999915403643
20
-1.8999999770381317
10
1.3499999836849887
20
-1.8999999770381317
42
0.41421356237309659
10
1.4499999824764693
20
-1.7999999782466507
10
1.4499999824764693
20
-0.99999998791480615
42
-0.41421356237309631
10
1.6499999800594303
20
-0.7999999903318451
10
4.6499999438038486
20
-0.79999999033184543
42
-0.41421356237309198
10
4.8499999413868107
20
-0.99999998791480615
10
4.8499999413868107
20
-1.1999999854977674
42
0.41421356237310014
10
4.8999999407825507
20
-1.2499999848935079
10
6.1499999256760578
20
-1.2499999848935079
42
-0.41421356237309581
10
6.349999923259019
20
-1.4499999824764693
10
6.349999923259019
20
-3.6999999552847829
42
-0.41421356237311352
10
6.1499999256760578
20
-3.899999952867744
10
3.6999999552847829
20
-3.899999952867744
42
0.41421356237309503
0
LWPOLYLINE
5
108
100
AcDbEntity
8
0
100
AcDbPolyline
90
24
70
1
43
0.0
10
0.70008752703666677
20
-2.0502562379837039
10
1.5498393774032593
20
-2.0499019074439997
42
0.41421378231389638
10
1.5998456454277041
20
-1.9998956394195557
10
1.6001999759674077
20
-1.0501312530040738
42
-0.41421378231389638
10
1.7002125120162963
20
-0.95011871695518468
10
4.6005748558044433
20
-0.95011871695518491
42
-0.41421378231389944
10
4.7005873918533316
20
-1.0501312530040738
10
4.7005873918533325
20
-1.3001625180244445
42
0.41421378231389333
10
4.8005999279022209
20
-1.4001750540733335
10
6.1007625961303713
20
-1.4001750540733335
42
-0.4142124626709997
10
6.2007748317718505
20
-1.500187439918518
10
6.2007748317718505
20
-3.6504562139511108
42
-0.41421290255205129
10
6.1007625961303722
20
-3.7504687500000005
10
3.550443677902221
20
-3.7504687500000005
42
0.41421378231389228
10
3.4504311418533331
20
-3.8504812860488884
10
3.4504311418533322
20
-4.4498436355590831
42
-0.41422521950818508
10
3.3504186058044443
20
-4.5498600769042969
10
2.0002499699592597
20
-4.5505687379837045
42
0.13593199540264223
10
1.9487946867942811
20
-4.5648224687576304
10
1.4531816411018375
20
-4.8506063461303714
42
-0.42077344473013822
10
1.2282204258441931
20
-4.8005605745315556
10
0.61218674182891841
20
-3.7348487663269045
42
-0.071400986414287285
10
0.60007499098777761
20
-3.6504562139511121
10
0.60007499098777761
20
-2.1502687740325928
42
-0.41421378231389921
0
LINE
5
109
100
AcDbEntity
8
0
100
AcDbLine
10
1.3352618811272636
20
-4.5861002900391163
30
0
11
1.1621092158372297
21
-4.6861910213930118
31
0
0
ARC
5
110
100
AcDbEntity
8
0
100
AcDbCircle
10
1.3755861966078695
20
-4.6558596234660587
30
0
40
0.080575523697651558
210
0
220
-0
230
1
100
AcDbArc
50
24.644429280392753
51
120.03001823165923
0
LINE
5
111
100
AcDbEntity
8
0
100
AcDbLine
10
1.4488223404866867
20
-4.6222607804962186
30
0
11
1.5488223184054959
21
-4.7954658230073539
31
0
0
LINE
5
112
100
AcDbEntity
8
0
100
AcDbLine
10
4.3999999468251474
20
-3.5499999570975613
30
0
11
4.3999999468251474
21
-3.7504687500000005
31
0
0
ARC
5
113
100
AcDbEntity
8
0
100
AcDbCircle
10
4.4999999456166275
20
-3.5499999570975613
30
0
40
0.099999998791480624
210
0
220
-0
230
1
100
AcDbArc
50
90
51
180
0
LINE
5
114
100
AcDbEntity
8
0
100
AcDbLine
10
4.5999999444081086
20
-3.4499999583060807
30
0
11
4.4999999456166275
21
-3.4499999583060807
31
0
0
ARC
5
115
100
AcDbEntity
8
0
100
AcDbCircle
10
4.5999999444081086
20
-3.54999995709756
30
0
40
0.099999998791479916
210
0
220
0
230
1
100
AcDbArc
50
0
51
90
0
LINE
5
116
100
AcDbEntity
8
0
100
AcDbLine
10
4.6999999431995887
20
-3.5499999570975613
30
0
11
4.6999999431995887
21
-3.7504687500000005
31
0
0
LINE
5
117
100
AcDbEntity
8
0
100
AcDbLine
10
4.4999999456166275
20
-1.2499999848935075
30
0
11
4.7005873918533325
21
-1.2499999848935075
31
0
0
ARC
5
118
100
AcDbEntity
8
0
100
AcDbCircle
10
4.4999999456166275
20
-1.1499999861020276
30
0
40
0.099999998791480624
210
0
220
0
230
1
100
AcDbArc
50
180
51
270
0
LINE
5
119
100
AcDbEntity
8
0
100
AcDbLine
10
4.3999999468251474
20
-1.1499999861020271
30
0
11
4.3999999468251474
21
-0.95011871695518491
31
0
0
LINE
5
120
100
AcDbEntity
8
0
100
AcDbLine
10
1.8999999770381317
20
-1.1499999861020271
30
0
11
1.8999999770381317
21
-0.95011871695518491
31
0
0
ARC
5
121
100
AcDbEntity
8
0
100
AcDbCircle
10
1.8000372715373842
20
-1.1500372793927596
30
0
40
0.099962712457289576
210
0
220
0
230
1
100
AcDbArc
50
-90.021375452508266
51
0.021375452504216158
0
LINE
5
122
100
AcDbEntity
8
0
100
AcDbLine
10
1.7999999782466511
20
-1.2499999848935075
30
0
11
1.6001254383504215
21
-1.2499254172906291
31
0
0
LINE
5
123
100
AcDbEntity
8
0
100
AcDbLine
10
0.89999999721272927
20
-2.2500208218643016
30
0
11
0.89991666439341456
21
-2.0501729129917576
31
0
0
ARC
5
124
100
AcDbEntity
8
0
100
AcDbCircle
10
0.79999999033184443
20
-2.2499999625433529
30
0
40
0.10000000905644116
210
0
220
0
230
1
100
AcDbArc
50
270
51
359.98804849049299
0
LINE
5
125
100
AcDbEntity
8
0
100
AcDbLine
10
0.79999999033184443
20
-2.3499999715997943
30
0
11
0.60007499098777761
21
-2.3499999715997943
31
0
0
ENDSEC
0
SECTION
2
OBJECTS
0
DICTIONARY
5
C
100
AcDbDictionary
3
ACAD_GROUP
350
D
3
ACAD_MLINESTYLE
350
17
0
DICTIONARY
5
D
100
AcDbDictionary
0
DICTIONARY
5
1A
330
C
100
AcDbDictionary
0
DICTIONARY
5
17
100
AcDbDictionary
0
ENDSEC
0
EOF
